<?xml version="1.0" encoding="utf-8"?>
<svg version="1.1" xmlns:xlink="http://www.w3.org/1999/xlink" width="1055px" height="630px" xmlns="http://www.w3.org/2000/svg">
  <g transform="matrix(1 0 0 1 -400 -155 )">
    <path d="M 401 165  A 9 9 0 0 1 410 156 L 1445 156  A 9 9 0 0 1 1454 165 L 1454 775  A 9 9 0 0 1 1445 784 L 410 784  A 9 9 0 0 1 401 775 L 401 165  Z " fill-rule="nonzero" fill="#ffffff" stroke="none" />
    <path d="M 400.5 165  A 9.5 9.5 0 0 1 410 155.5 L 1445 155.5  A 9.5 9.5 0 0 1 1454.5 165 L 1454.5 775  A 9.5 9.5 0 0 1 1445 784.5 L 410 784.5  A 9.5 9.5 0 0 1 400.5 775 L 400.5 165  Z " stroke-width="1" stroke-dasharray="9,4" stroke="#d7d7d7" fill="none" stroke-dashoffset="0.5" />
  </g>
</svg>