<?xml version="1.0" encoding="utf-8"?>
<svg version="1.1" xmlns:xlink="http://www.w3.org/1999/xlink" width="15px" height="16px" xmlns="http://www.w3.org/2000/svg">
  <g transform="matrix(1 0 0 1 -60 -415 )">
    <path d="M 11.2890625 0.607142857142858  L 14.3359375 3.39285714285714  C 14.5182291666667 3.55952380952381  14.6744791666667 3.78571428571429  14.8046875 4.07142857142857  C 14.9348958333333 4.35714285714286  15 4.61904761904762  15 4.85714285714286  L 15 15.1428571428571  C 15 15.3809523809524  14.9088541666667 15.5833333333333  14.7265625 15.75  C 14.5442708333333 15.9166666666667  14.3229166666667 16  14.0625 16  L 0.9375 16  C 0.677083333333333 16  0.455729166666667 15.9166666666667  0.2734375 15.75  C 0.0911458333333333 15.5833333333333  0 15.3809523809524  0 15.1428571428571  L 0 0.857142857142858  C 0 0.619047619047619  0.0911458333333333 0.416666666666666  0.2734375 0.25  C 0.455729166666667 0.0833333333333339  0.677083333333333 0  0.9375 0  L 9.6875 0  C 9.94791666666667 0  10.234375 0.0595238095238102  10.546875 0.178571428571429  C 10.859375 0.297619047619047  11.1067708333333 0.44047619047619  11.2890625 0.607142857142858  Z M 10.400390625 1.41071428571429  C 10.322265625 1.33928571428571  10.1888020833333 1.27380952380952  10 1.21428571428571  L 10 4.57142857142857  L 13.671875 4.57142857142857  C 13.6067708333333 4.39880952380952  13.53515625 4.27678571428571  13.45703125 4.20535714285714  L 10.400390625 1.41071428571429  Z M 1.25 14.8571428571429  L 13.75 14.8571428571429  L 13.75 5.71428571428571  L 9.6875 5.71428571428571  C 9.42708333333333 5.71428571428571  9.20572916666667 5.63095238095238  9.0234375 5.46428571428571  C 8.84114583333333 5.29761904761905  8.75 5.09523809523809  8.75 4.85714285714286  L 8.75 1.14285714285714  L 1.25 1.14285714285714  L 1.25 14.8571428571429  Z M 7.3046875 7.4375  C 7.66276041666667 8.41369047619047  8.13802083333333 9.12202380952381  8.73046875 9.5625  C 8.9453125 9.71726190476191  9.21875 9.88392857142857  9.55078125 10.0625  C 9.93489583333333 10.0208333333333  10.3157552083333 10  10.693359375 10  C 11.650390625 10  12.2265625 10.1458333333333  12.421875 10.4375  C 12.5260416666667 10.5684523809524  12.5325520833333 10.7232142857143  12.44140625 10.9017857142857  C 12.44140625 10.9077380952381  12.4381510416667 10.9136904761905  12.431640625 10.9196428571429  L 12.412109375 10.9375  L 12.412109375 10.9464285714286  C 12.373046875 11.172619047619  12.1419270833333 11.2857142857143  11.71875 11.2857142857143  C 11.40625 11.2857142857143  11.0319010416667 11.2261904761905  10.595703125 11.1071428571429  C 10.1595052083333 10.9880952380952  9.736328125 10.8303571428571  9.326171875 10.6339285714286  C 7.88736979166667 10.7767857142857  6.611328125 11.0238095238095  5.498046875 11.375  C 4.501953125 12.9345238095238  3.71419270833333 13.7142857142857  3.134765625 13.7142857142857  C 3.037109375 13.7142857142857  2.94596354166667 13.6934523809524  2.861328125 13.6517857142857  L 2.626953125 13.5446428571429  C 2.62044270833333 13.5386904761905  2.60091145833333 13.5238095238095  2.568359375 13.5  C 2.50325520833333 13.4404761904762  2.48372395833333 13.3333333333333  2.509765625 13.1785714285714  C 2.568359375 12.9404761904762  2.75065104166667 12.6681547619048  3.056640625 12.3616071428571  C 3.36263020833333 12.0550595238095  3.79231770833333 11.7678571428571  4.345703125 11.5  C 4.43684895833333 11.4464285714286  4.51171875 11.4642857142857  4.5703125 11.5535714285714  C 4.58333333333333 11.5654761904762  4.58984375 11.577380952381  4.58984375 11.5892857142857  C 4.92838541666667 11.0833333333333  5.27669270833333 10.4970238095238  5.634765625 9.83035714285714  C 6.07747395833333 9.02083333333333  6.416015625 8.24107142857143  6.650390625 7.49107142857143  C 6.494140625 7.00297619047619  6.39485677083333 6.52827380952381  6.3525390625 6.06696428571429  C 6.31022135416667 5.60565476190476  6.33138020833333 5.22619047619048  6.416015625 4.92857142857143  C 6.48763020833333 4.69047619047619  6.62434895833333 4.57142857142857  6.826171875 4.57142857142857  L 7.03125 4.57142857142857  L 7.041015625 4.57142857142857  C 7.19075520833333 4.57142857142857  7.3046875 4.61607142857143  7.3828125 4.70535714285714  C 7.5 4.83035714285714  7.529296875 5.03273809523809  7.470703125 5.3125  C 7.45768229166667 5.34821428571429  7.44466145833333 5.37202380952381  7.431640625 5.38392857142857  C 7.43815104166667 5.40178571428571  7.44140625 5.42559523809524  7.44140625 5.45535714285714  L 7.44140625 5.72321428571429  C 7.42838541666667 6.45535714285714  7.3828125 7.02678571428571  7.3046875 7.4375  Z M 3.5888671875 12.5714285714286  C 3.35123697916667 12.8333333333333  3.19010416666667 13.0535714285714  3.10546875 13.2321428571429  C 3.44401041666667 13.0892857142857  3.88997395833333 12.6190476190476  4.443359375 11.8214285714286  C 4.111328125 12.0595238095238  3.82649739583333 12.3095238095238  3.5888671875 12.5714285714286  Z M 6.9921875 5  L 6.9921875 5.01785714285714  C 6.89453125 5.26785714285714  6.88802083333333 5.66071428571429  6.97265625 6.19642857142857  C 6.97916666666667 6.1547619047619  7.001953125 6.02380952380952  7.041015625 5.80357142857143  C 7.041015625 5.78571428571429  7.06380208333333 5.65773809523809  7.109375 5.41964285714286  C 7.11588541666667 5.39583333333333  7.12890625 5.37202380952381  7.1484375 5.34821428571429  C 7.14192708333333 5.3422619047619  7.138671875 5.33630952380952  7.138671875 5.33035714285714  C 7.13216145833333 5.31845238095238  7.12890625 5.30952380952381  7.12890625 5.30357142857143  C 7.12239583333333 5.17261904761905  7.080078125 5.06547619047619  7.001953125 4.98214285714286  C 7.001953125 4.98809523809524  6.99869791666667 4.99404761904762  6.9921875 5  Z M 6.220703125 10.1785714285714  C 6.025390625 10.5119047619048  5.87890625 10.7589285714286  5.78125 10.9196428571429  C 6.66015625 10.5982142857143  7.58463541666667 10.3571428571429  8.5546875 10.1964285714286  C 8.54166666666667 10.1904761904762  8.49934895833333 10.1622023809524  8.427734375 10.1116071428571  C 8.35611979166667 10.0610119047619  8.30403645833334 10.0208333333333  8.271484375 9.99107142857143  C 7.77669270833334 9.59226190476191  7.36328125 9.06845238095238  7.03125 8.41964285714286  C 6.85546875 8.93154761904762  6.58528645833333 9.51785714285714  6.220703125 10.1785714285714  Z M 12.109375 10.8035714285714  C 12.109375 10.797619047619  12.1028645833333 10.7886904761905  12.08984375 10.7767857142857  C 11.93359375 10.6339285714286  11.4778645833333 10.5625  10.72265625 10.5625  C 11.2174479166667 10.7291666666667  11.62109375 10.8125  11.93359375 10.8125  C 12.0247395833333 10.8125  12.0833333333333 10.8095238095238  12.109375 10.8035714285714  Z " fill-rule="nonzero" fill="#d9001b" stroke="none" transform="matrix(1 0 0 1 60 415 )" />
  </g>
</svg>