<?xml version="1.0" encoding="utf-8"?>
<svg version="1.1" xmlns:xlink="http://www.w3.org/1999/xlink" width="16px" height="16px" viewBox="160 42  16 16" xmlns="http://www.w3.org/2000/svg">
  <path d="M 168 42  C 172.48 42  176 45.52  176 50  C 176 54.48  172.48 58  168 58  C 163.52 58  160 54.48  160 50  C 160 45.52  163.52 42  168 42  Z " fill-rule="nonzero" fill="#ffffff" stroke="none" />
  <path d="M 168 42.5  C 172.2 42.5  175.5 45.8  175.5 50  C 175.5 54.2  172.2 57.5  168 57.5  C 163.8 57.5  160.5 54.2  160.5 50  C 160.5 45.8  163.8 42.5  168 42.5  Z " stroke-width="1" stroke="#4b7902" fill="none" />
  <path d="M 168 54  C 165.76 54  164 52.24  164 50  C 164 47.76  165.76 46  168 46  C 170.24 46  172 47.76  172 50  C 172 52.24  170.24 54  168 54  " fill-rule="nonzero" fill="#4b7902" stroke="none" />
</svg>