<?xml version="1.0" encoding="utf-8"?>
<svg version="1.1" xmlns:xlink="http://www.w3.org/1999/xlink" width="16px" height="16px" viewBox="0 42  16 16" xmlns="http://www.w3.org/2000/svg">
  <path d="M 8 42  C 12.48 42  16 45.52  16 50  C 16 54.48  12.48 58  8 58  C 3.52 58  0 54.48  0 50  C 0 45.52  3.52 42  8 42  Z " fill-rule="nonzero" fill="#ffffff" stroke="none" />
  <path d="M 8 42.5  C 12.2 42.5  15.5 45.8  15.5 50  C 15.5 54.2  12.2 57.5  8 57.5  C 3.8 57.5  0.5 54.2  0.5 50  C 0.5 45.8  3.8 42.5  8 42.5  Z " stroke-width="1" stroke="#4b7902" fill="none" />
  <path d="M 8 54  C 5.76 54  4 52.24  4 50  C 4 47.76  5.76 46  8 46  C 10.24 46  12 47.76  12 50  C 12 52.24  10.24 54  8 54  " fill-rule="nonzero" fill="#4b7902" stroke="none" />
</svg>