<?xml version="1.0" encoding="utf-8"?>
<svg version="1.1" xmlns:xlink="http://www.w3.org/1999/xlink" width="16px" height="16px" viewBox="520 133  16 16" xmlns="http://www.w3.org/2000/svg">
  <path d="M 528 133  C 532.48 133  536 136.52  536 141  C 536 145.48  532.48 149  528 149  C 523.52 149  520 145.48  520 141  C 520 136.52  523.52 133  528 133  Z " fill-rule="nonzero" fill="#f0f0f0" stroke="none" />
  <path d="M 528 133.5  C 532.2 133.5  535.5 136.8  535.5 141  C 535.5 145.2  532.2 148.5  528 148.5  C 523.8 148.5  520.5 145.2  520.5 141  C 520.5 136.8  523.8 133.5  528 133.5  Z " stroke-width="1" stroke="#8c8c8c" fill="none" />
  <path d="M 528 145  C 525.76 145  524 143.24  524 141  C 524 138.76  525.76 137  528 137  C 530.24 137  532 138.76  532 141  C 532 143.24  530.24 145  528 145  " fill-rule="nonzero" fill="#8c8c8c" stroke="none" />
</svg>