<?xml version="1.0" encoding="utf-8"?>
<svg version="1.1" xmlns:xlink="http://www.w3.org/1999/xlink" width="16px" height="16px" viewBox="695 133  16 16" xmlns="http://www.w3.org/2000/svg">
  <path d="M 703 133  C 707.48 133  711 136.52  711 141  C 711 145.48  707.48 149  703 149  C 698.52 149  695 145.48  695 141  C 695 136.52  698.52 133  703 133  Z " fill-rule="nonzero" fill="#ffffff" stroke="none" />
  <path d="M 703 133.5  C 707.2 133.5  710.5 136.8  710.5 141  C 710.5 145.2  707.2 148.5  703 148.5  C 698.8 148.5  695.5 145.2  695.5 141  C 695.5 136.8  698.8 133.5  703 133.5  Z " stroke-width="1" stroke="#4b7902" fill="none" />
  <path d="M 703 145  C 700.76 145  699 143.24  699 141  C 699 138.76  700.76 137  703 137  C 705.24 137  707 138.76  707 141  C 707 143.24  705.24 145  703 145  " fill-rule="nonzero" fill="#4b7902" stroke="none" />
</svg>