<?xml version="1.0" encoding="utf-8"?>
<svg version="1.1" xmlns:xlink="http://www.w3.org/1999/xlink" width="16px" height="16px" viewBox="91 50  16 16" xmlns="http://www.w3.org/2000/svg">
  <path d="M 99 50  C 103.48 50  107 53.52  107 58  C 107 62.48  103.48 66  99 66  C 94.52 66  91 62.48  91 58  C 91 53.52  94.52 50  99 50  Z " fill-rule="nonzero" fill="#ffffff" stroke="none" />
  <path d="M 99 50.5  C 103.2 50.5  106.5 53.8  106.5 58  C 106.5 62.2  103.2 65.5  99 65.5  C 94.8 65.5  91.5 62.2  91.5 58  C 91.5 53.8  94.8 50.5  99 50.5  Z " stroke-width="1" stroke="#8c8c8c" fill="none" />
  <path d="M 99 62  C 96.76 62  95 60.24  95 58  C 95 55.76  96.76 54  99 54  C 101.24 54  103 55.76  103 58  C 103 60.24  101.24 62  99 62  " fill-rule="nonzero" fill="#8c8c8c" stroke="none" />
</svg>