<?xml version="1.0" encoding="utf-8"?>
<svg version="1.1" xmlns:xlink="http://www.w3.org/1999/xlink" width="16px" height="16px" viewBox="331 103  16 16" xmlns="http://www.w3.org/2000/svg">
  <path d="M 339 103  C 343.48 103  347 106.52  347 111  C 347 115.48  343.48 119  339 119  C 334.52 119  331 115.48  331 111  C 331 106.52  334.52 103  339 103  Z " fill-rule="nonzero" fill="#ffffff" stroke="none" />
  <path d="M 339 103.5  C 343.2 103.5  346.5 106.8  346.5 111  C 346.5 115.2  343.2 118.5  339 118.5  C 334.8 118.5  331.5 115.2  331.5 111  C 331.5 106.8  334.8 103.5  339 103.5  Z " stroke-width="1" stroke="#8c8c8c" fill="none" />
  <path d="M 339 115  C 336.76 115  335 113.24  335 111  C 335 108.76  336.76 107  339 107  C 341.24 107  343 108.76  343 111  C 343 113.24  341.24 115  339 115  " fill-rule="nonzero" fill="#8c8c8c" stroke="none" />
</svg>