<?xml version="1.0" encoding="utf-8"?>
<svg version="1.1" xmlns:xlink="http://www.w3.org/1999/xlink" width="16px" height="16px" viewBox="91 103  16 16" xmlns="http://www.w3.org/2000/svg">
  <path d="M 99 103  C 103.48 103  107 106.52  107 111  C 107 115.48  103.48 119  99 119  C 94.52 119  91 115.48  91 111  C 91 106.52  94.52 103  99 103  Z " fill-rule="nonzero" fill="#ffffff" stroke="none" />
  <path d="M 99 103.5  C 103.2 103.5  106.5 106.8  106.5 111  C 106.5 115.2  103.2 118.5  99 118.5  C 94.8 118.5  91.5 115.2  91.5 111  C 91.5 106.8  94.8 103.5  99 103.5  Z " stroke-width="1" stroke="#8c8c8c" fill="none" />
  <path d="M 99 115  C 96.76 115  95 113.24  95 111  C 95 108.76  96.76 107  99 107  C 101.24 107  103 108.76  103 111  C 103 113.24  101.24 115  99 115  " fill-rule="nonzero" fill="#8c8c8c" stroke="none" />
</svg>