<?xml version="1.0" encoding="utf-8"?>
<svg version="1.1" xmlns:xlink="http://www.w3.org/1999/xlink" width="16px" height="16px" viewBox="135 54  16 16" xmlns="http://www.w3.org/2000/svg">
  <path d="M 143 54  C 147.48 54  151 57.52  151 62  C 151 66.48  147.48 70  143 70  C 138.52 70  135 66.48  135 62  C 135 57.52  138.52 54  143 54  Z " fill-rule="nonzero" fill="#f0f0f0" stroke="none" />
  <path d="M 143 54.5  C 147.2 54.5  150.5 57.8  150.5 62  C 150.5 66.2  147.2 69.5  143 69.5  C 138.8 69.5  135.5 66.2  135.5 62  C 135.5 57.8  138.8 54.5  143 54.5  Z " stroke-width="1" stroke="#8c8c8c" fill="none" />
  <path d="M 143 66  C 140.76 66  139 64.24  139 62  C 139 59.76  140.76 58  143 58  C 145.24 58  147 59.76  147 62  C 147 64.24  145.24 66  143 66  " fill-rule="nonzero" fill="#8c8c8c" stroke="none" />
</svg>