<?xml version="1.0" encoding="utf-8"?>
<svg version="1.1" xmlns:xlink="http://www.w3.org/1999/xlink" width="16px" height="16px" viewBox="249 60  16 16" xmlns="http://www.w3.org/2000/svg">
  <path d="M 257 60  C 261.48 60  265 63.52  265 68  C 265 72.48  261.48 76  257 76  C 252.52 76  249 72.48  249 68  C 249 63.52  252.52 60  257 60  Z " fill-rule="nonzero" fill="#f0f0f0" stroke="none" />
  <path d="M 257 60.5  C 261.2 60.5  264.5 63.8  264.5 68  C 264.5 72.2  261.2 75.5  257 75.5  C 252.8 75.5  249.5 72.2  249.5 68  C 249.5 63.8  252.8 60.5  257 60.5  Z " stroke-width="1" stroke="#8c8c8c" fill="none" />
  <path d="M 257 72  C 254.76 72  253 70.24  253 68  C 253 65.76  254.76 64  257 64  C 259.24 64  261 65.76  261 68  C 261 70.24  259.24 72  257 72  " fill-rule="nonzero" fill="#8c8c8c" stroke="none" />
</svg>