<?xml version="1.0" encoding="utf-8"?>
<svg version="1.1" xmlns:xlink="http://www.w3.org/1999/xlink" width="16px" height="16px" viewBox="249 92  16 16" xmlns="http://www.w3.org/2000/svg">
  <path d="M 257 92  C 261.48 92  265 95.52  265 100  C 265 104.48  261.48 108  257 108  C 252.52 108  249 104.48  249 100  C 249 95.52  252.52 92  257 92  Z " fill-rule="nonzero" fill="#f0f0f0" stroke="none" />
  <path d="M 257 92.5  C 261.2 92.5  264.5 95.8  264.5 100  C 264.5 104.2  261.2 107.5  257 107.5  C 252.8 107.5  249.5 104.2  249.5 100  C 249.5 95.8  252.8 92.5  257 92.5  Z " stroke-width="1" stroke="#8c8c8c" fill="none" />
  <path d="M 257 104  C 254.76 104  253 102.24  253 100  C 253 97.76  254.76 96  257 96  C 259.24 96  261 97.76  261 100  C 261 102.24  259.24 104  257 104  " fill-rule="nonzero" fill="#8c8c8c" stroke="none" />
</svg>