<?xml version="1.0" encoding="utf-8"?>
<svg version="1.1" xmlns:xlink="http://www.w3.org/1999/xlink" width="16px" height="16px" viewBox="389 92  16 16" xmlns="http://www.w3.org/2000/svg">
  <path d="M 397 92  C 401.48 92  405 95.52  405 100  C 405 104.48  401.48 108  397 108  C 392.52 108  389 104.48  389 100  C 389 95.52  392.52 92  397 92  Z " fill-rule="nonzero" fill="#ffffff" stroke="none" />
  <path d="M 397 92.5  C 401.2 92.5  404.5 95.8  404.5 100  C 404.5 104.2  401.2 107.5  397 107.5  C 392.8 107.5  389.5 104.2  389.5 100  C 389.5 95.8  392.8 92.5  397 92.5  Z " stroke-width="1" stroke="#8c8c8c" fill="none" />
  <path d="M 397 104  C 394.76 104  393 102.24  393 100  C 393 97.76  394.76 96  397 96  C 399.24 96  401 97.76  401 100  C 401 102.24  399.24 104  397 104  " fill-rule="nonzero" fill="#8c8c8c" stroke="none" />
</svg>