<?xml version="1.0" encoding="utf-8"?>
<svg version="1.1" xmlns:xlink="http://www.w3.org/1999/xlink" width="16px" height="16px" viewBox="109 60  16 16" xmlns="http://www.w3.org/2000/svg">
  <path d="M 117 60  C 121.48 60  125 63.52  125 68  C 125 72.48  121.48 76  117 76  C 112.52 76  109 72.48  109 68  C 109 63.52  112.52 60  117 60  Z " fill-rule="nonzero" fill="#f0f0f0" stroke="none" />
  <path d="M 117 60.5  C 121.2 60.5  124.5 63.8  124.5 68  C 124.5 72.2  121.2 75.5  117 75.5  C 112.8 75.5  109.5 72.2  109.5 68  C 109.5 63.8  112.8 60.5  117 60.5  Z " stroke-width="1" stroke="#8c8c8c" fill="none" />
  <path d="M 117 72  C 114.76 72  113 70.24  113 68  C 113 65.76  114.76 64  117 64  C 119.24 64  121 65.76  121 68  C 121 70.24  119.24 72  117 72  " fill-rule="nonzero" fill="#8c8c8c" stroke="none" />
</svg>