<?xml version="1.0" encoding="utf-8"?>
<svg version="1.1" xmlns:xlink="http://www.w3.org/1999/xlink" width="16px" height="16px" viewBox="0 54  16 16" xmlns="http://www.w3.org/2000/svg">
  <path d="M 8 54  C 12.48 54  16 57.52  16 62  C 16 66.48  12.48 70  8 70  C 3.52 70  0 66.48  0 62  C 0 57.52  3.52 54  8 54  Z " fill-rule="nonzero" fill="#ffffff" stroke="none" />
  <path d="M 8 54.5  C 12.2 54.5  15.5 57.8  15.5 62  C 15.5 66.2  12.2 69.5  8 69.5  C 3.8 69.5  0.5 66.2  0.5 62  C 0.5 57.8  3.8 54.5  8 54.5  Z " stroke-width="1" stroke="#8c8c8c" fill="none" />
  <path d="M 8 66  C 5.76 66  4 64.24  4 62  C 4 59.76  5.76 58  8 58  C 10.24 58  12 59.76  12 62  C 12 64.24  10.24 66  8 66  " fill-rule="nonzero" fill="#8c8c8c" stroke="none" />
</svg>