<?xml version="1.0" encoding="utf-8"?>
<svg version="1.1" xmlns:xlink="http://www.w3.org/1999/xlink" width="16px" height="16px" viewBox="109 92  16 16" xmlns="http://www.w3.org/2000/svg">
  <path d="M 117 92  C 121.48 92  125 95.52  125 100  C 125 104.48  121.48 108  117 108  C 112.52 108  109 104.48  109 100  C 109 95.52  112.52 92  117 92  Z " fill-rule="nonzero" fill="#ffffff" stroke="none" />
  <path d="M 117 92.5  C 121.2 92.5  124.5 95.8  124.5 100  C 124.5 104.2  121.2 107.5  117 107.5  C 112.8 107.5  109.5 104.2  109.5 100  C 109.5 95.8  112.8 92.5  117 92.5  Z " stroke-width="1" stroke="#8c8c8c" fill="none" />
  <path d="M 117 104  C 114.76 104  113 102.24  113 100  C 113 97.76  114.76 96  117 96  C 119.24 96  121 97.76  121 100  C 121 102.24  119.24 104  117 104  " fill-rule="nonzero" fill="#8c8c8c" stroke="none" />
</svg>