<?xml version="1.0" encoding="utf-8"?>
<svg version="1.1" xmlns:xlink="http://www.w3.org/1999/xlink" width="16px" height="16px" viewBox="81 104  16 16" xmlns="http://www.w3.org/2000/svg">
  <path d="M 89 104  C 93.48 104  97 107.52  97 112  C 97 116.48  93.48 120  89 120  C 84.52 120  81 116.48  81 112  C 81 107.52  84.52 104  89 104  Z " fill-rule="nonzero" fill="#ffffff" stroke="none" />
  <path d="M 89 104.5  C 93.2 104.5  96.5 107.8  96.5 112  C 96.5 116.2  93.2 119.5  89 119.5  C 84.8 119.5  81.5 116.2  81.5 112  C 81.5 107.8  84.8 104.5  89 104.5  Z " stroke-width="1" stroke="#7b4d12" fill="none" />
  <path d="M 89 116  C 86.76 116  85 114.24  85 112  C 85 109.76  86.76 108  89 108  C 91.24 108  93 109.76  93 112  C 93 114.24  91.24 116  89 116  " fill-rule="nonzero" fill="#7b4d12" stroke="none" />
</svg>