<?xml version="1.0" encoding="utf-8"?>
<svg version="1.1" xmlns:xlink="http://www.w3.org/1999/xlink" width="16px" height="16px" viewBox="81 130  16 16" xmlns="http://www.w3.org/2000/svg">
  <path d="M 89 130  C 93.48 130  97 133.52  97 138  C 97 142.48  93.48 146  89 146  C 84.52 146  81 142.48  81 138  C 81 133.52  84.52 130  89 130  Z " fill-rule="nonzero" fill="#ffffff" stroke="none" />
  <path d="M 89 130.5  C 93.2 130.5  96.5 133.8  96.5 138  C 96.5 142.2  93.2 145.5  89 145.5  C 84.8 145.5  81.5 142.2  81.5 138  C 81.5 133.8  84.8 130.5  89 130.5  Z " stroke-width="1" stroke="#7b4d12" fill="none" />
  <path d="M 89 142  C 86.76 142  85 140.24  85 138  C 85 135.76  86.76 134  89 134  C 91.24 134  93 135.76  93 138  C 93 140.24  91.24 142  89 142  " fill-rule="nonzero" fill="#7b4d12" stroke="none" />
</svg>