<?xml version="1.0" encoding="utf-8"?>
<svg version="1.1" xmlns:xlink="http://www.w3.org/1999/xlink" width="16px" height="16px" viewBox="81 156  16 16" xmlns="http://www.w3.org/2000/svg">
  <path d="M 89 156  C 93.48 156  97 159.52  97 164  C 97 168.48  93.48 172  89 172  C 84.52 172  81 168.48  81 164  C 81 159.52  84.52 156  89 156  Z " fill-rule="nonzero" fill="#ffffff" stroke="none" />
  <path d="M 89 156.5  C 93.2 156.5  96.5 159.8  96.5 164  C 96.5 168.2  93.2 171.5  89 171.5  C 84.8 171.5  81.5 168.2  81.5 164  C 81.5 159.8  84.8 156.5  89 156.5  Z " stroke-width="1" stroke="#7b4d12" fill="none" />
  <path d="M 89 168  C 86.76 168  85 166.24  85 164  C 85 161.76  86.76 160  89 160  C 91.24 160  93 161.76  93 164  C 93 166.24  91.24 168  89 168  " fill-rule="nonzero" fill="#7b4d12" stroke="none" />
</svg>