<?xml version="1.0" encoding="utf-8"?>
<svg version="1.1" xmlns:xlink="http://www.w3.org/1999/xlink" width="16px" height="16px" viewBox="81 182  16 16" xmlns="http://www.w3.org/2000/svg">
  <path d="M 89 182  C 93.48 182  97 185.52  97 190  C 97 194.48  93.48 198  89 198  C 84.52 198  81 194.48  81 190  C 81 185.52  84.52 182  89 182  Z " fill-rule="nonzero" fill="#ffffff" stroke="none" />
  <path d="M 89 182.5  C 93.2 182.5  96.5 185.8  96.5 190  C 96.5 194.2  93.2 197.5  89 197.5  C 84.8 197.5  81.5 194.2  81.5 190  C 81.5 185.8  84.8 182.5  89 182.5  Z " stroke-width="1" stroke="#7b4d12" fill="none" />
  <path d="M 89 194  C 86.76 194  85 192.24  85 190  C 85 187.76  86.76 186  89 186  C 91.24 186  93 187.76  93 190  C 93 192.24  91.24 194  89 194  " fill-rule="nonzero" fill="#7b4d12" stroke="none" />
</svg>