<?xml version="1.0" encoding="utf-8"?>
<svg version="1.1" xmlns:xlink="http://www.w3.org/1999/xlink" width="16px" height="16px" viewBox="81 148  16 16" xmlns="http://www.w3.org/2000/svg">
  <path d="M 89 148  C 93.48 148  97 151.52  97 156  C 97 160.48  93.48 164  89 164  C 84.52 164  81 160.48  81 156  C 81 151.52  84.52 148  89 148  Z " fill-rule="nonzero" fill="#ffffff" stroke="none" />
  <path d="M 89 148.5  C 93.2 148.5  96.5 151.8  96.5 156  C 96.5 160.2  93.2 163.5  89 163.5  C 84.8 163.5  81.5 160.2  81.5 156  C 81.5 151.8  84.8 148.5  89 148.5  Z " stroke-width="1" stroke="#7b4d12" fill="none" />
  <path d="M 89 160  C 86.76 160  85 158.24  85 156  C 85 153.76  86.76 152  89 152  C 91.24 152  93 153.76  93 156  C 93 158.24  91.24 160  89 160  " fill-rule="nonzero" fill="#7b4d12" stroke="none" />
</svg>