<?xml version="1.0" encoding="utf-8"?>
<svg version="1.1" xmlns:xlink="http://www.w3.org/1999/xlink" width="16px" height="16px" viewBox="81 122  16 16" xmlns="http://www.w3.org/2000/svg">
  <path d="M 89 122  C 93.48 122  97 125.52  97 130  C 97 134.48  93.48 138  89 138  C 84.52 138  81 134.48  81 130  C 81 125.52  84.52 122  89 122  Z " fill-rule="nonzero" fill="#f0f0f0" stroke="none" />
  <path d="M 89 122.5  C 93.2 122.5  96.5 125.8  96.5 130  C 96.5 134.2  93.2 137.5  89 137.5  C 84.8 137.5  81.5 134.2  81.5 130  C 81.5 125.8  84.8 122.5  89 122.5  Z " stroke-width="1" stroke="#8c8c8c" fill="none" />
  <path d="M 89 134  C 86.76 134  85 132.24  85 130  C 85 127.76  86.76 126  89 126  C 91.24 126  93 127.76  93 130  C 93 132.24  91.24 134  89 134  " fill-rule="nonzero" fill="#8c8c8c" stroke="none" />
</svg>