<?xml version="1.0" encoding="utf-8"?>
<svg version="1.1" xmlns:xlink="http://www.w3.org/1999/xlink" width="16px" height="16px" viewBox="81 96  16 16" xmlns="http://www.w3.org/2000/svg">
  <path d="M 89 96  C 93.48 96  97 99.52  97 104  C 97 108.48  93.48 112  89 112  C 84.52 112  81 108.48  81 104  C 81 99.52  84.52 96  89 96  Z " fill-rule="nonzero" fill="#f0f0f0" stroke="none" />
  <path d="M 89 96.5  C 93.2 96.5  96.5 99.8  96.5 104  C 96.5 108.2  93.2 111.5  89 111.5  C 84.8 111.5  81.5 108.2  81.5 104  C 81.5 99.8  84.8 96.5  89 96.5  Z " stroke-width="1" stroke="#8c8c8c" fill="none" />
  <path d="M 89 108  C 86.76 108  85 106.24  85 104  C 85 101.76  86.76 100  89 100  C 91.24 100  93 101.76  93 104  C 93 106.24  91.24 108  89 108  " fill-rule="nonzero" fill="#8c8c8c" stroke="none" />
</svg>