<?xml version="1.0" encoding="utf-8"?>
<svg version="1.1" xmlns:xlink="http://www.w3.org/1999/xlink" width="210px" height="100px" xmlns="http://www.w3.org/2000/svg">
  <g>
    <path d="M 1 3  A 2 2 0 0 1 3 1 L 207 1  A 2 2 0 0 1 209 3 L 209 97  A 2 2 0 0 1 207 99 L 3 99  A 2 2 0 0 1 1 97 L 1 3  Z " fill-rule="nonzero" fill="#02a7f0" stroke="none" fill-opacity="0.713725490196078" />
    <path d="M 0.5 3  A 2.5 2.5 0 0 1 3 0.5 L 207 0.5  A 2.5 2.5 0 0 1 209.5 3 L 209.5 97  A 2.5 2.5 0 0 1 207 99.5 L 3 99.5  A 2.5 2.5 0 0 1 0.5 97 L 0.5 3  Z " stroke-width="1" stroke="#02a7f0" fill="none" stroke-opacity="0.996078431372549" />
  </g>
</svg>