<?xml version="1.0" encoding="utf-8"?>
<svg version="1.1" xmlns:xlink="http://www.w3.org/1999/xlink" width="16px" height="16px" viewBox="230 178  16 16" xmlns="http://www.w3.org/2000/svg">
  <path d="M 238 178  C 242.48 178  246 181.52  246 186  C 246 190.48  242.48 194  238 194  C 233.52 194  230 190.48  230 186  C 230 181.52  233.52 178  238 178  Z " fill-rule="nonzero" fill="#ffffff" stroke="none" />
  <path d="M 238 178.5  C 242.2 178.5  245.5 181.8  245.5 186  C 245.5 190.2  242.2 193.5  238 193.5  C 233.8 193.5  230.5 190.2  230.5 186  C 230.5 181.8  233.8 178.5  238 178.5  Z " stroke-width="1" stroke="#02a7f0" fill="none" />
  <path d="M 238 190  C 235.76 190  234 188.24  234 186  C 234 183.76  235.76 182  238 182  C 240.24 182  242 183.76  242 186  C 242 188.24  240.24 190  238 190  " fill-rule="nonzero" fill="#02a7f0" stroke="none" />
</svg>