<?xml version="1.0" encoding="utf-8"?>
<svg version="1.1" xmlns:xlink="http://www.w3.org/1999/xlink" width="60px" height="60px" xmlns="http://www.w3.org/2000/svg">
  <g transform="matrix(1 0 0 1 -20 -20 )">
    <path d="M 10.9090909090909 43.6363636363636  L 16.3636363636364 43.6363636363636  L 16.3636363636364 49.0909090909091  L 10.9090909090909 49.0909090909091  L 10.9090909090909 43.6363636363636  Z M 10.9090909090909 10.9090909090909  L 16.3636363636364 10.9090909090909  L 16.3636363636364 16.3636363636364  L 10.9090909090909 16.3636363636364  L 10.9090909090909 10.9090909090909  Z M 43.6363636363636 10.9090909090909  L 49.0909090909091 10.9090909090909  L 49.0909090909091 16.3636363636364  L 43.6363636363636 16.3636363636364  L 43.6363636363636 10.9090909090909  Z M 6 38  L 6 54  L 22 54  L 22 38  L 6 38  Z M 6 6  L 6 22  L 22 22  L 22 6  L 6 6  Z M 38 6  L 38 22  L 54 22  L 54 6  L 38 6  Z M 0 32  L 28 32  L 28 60  L 0 60  L 0 32  Z M 43.6363636363636 54.5454545454545  L 49.0909090909091 54.5454545454545  L 49.0909090909091 60  L 43.6363636363636 60  L 43.6363636363636 54.5454545454545  Z M 54.5454545454545 54.5454545454545  L 60 54.5454545454545  L 60 60  L 54.5454545454545 60  L 54.5454545454545 54.5454545454545  Z M 54.5454545454545 32.7272727272727  L 60 32.7272727272727  L 60 49  L 43.6363636363636 49  L 43.6363636363636 43.6363636363636  L 38 43.6363636363636  L 38 60  L 32 60  L 32 32  L 49.0909090909091 32  L 49.0909090909091 38.1818181818182  L 54.5454545454545 38.1818181818182  L 54.5454545454545 32.7272727272727  Z M 0 0  L 28 0  L 28 28  L 0 28  L 0 0  Z M 32 0  L 60 0  L 60 28  L 32 28  L 32 0  Z " fill-rule="nonzero" fill="#0000ff" stroke="none" transform="matrix(1 0 0 1 20 20 )" />
  </g>
</svg>