<?xml version="1.0" encoding="utf-8"?>
<svg version="1.1" xmlns:xlink="http://www.w3.org/1999/xlink" width="16px" height="16px" viewBox="52 199  16 16" xmlns="http://www.w3.org/2000/svg">
  <path d="M 60 199  C 64.48 199  68 202.52  68 207  C 68 211.48  64.48 215  60 215  C 55.52 215  52 211.48  52 207  C 52 202.52  55.52 199  60 199  Z " fill-rule="nonzero" fill="#ffffff" stroke="none" />
  <path d="M 60 199.5  C 64.2 199.5  67.5 202.8  67.5 207  C 67.5 211.2  64.2 214.5  60 214.5  C 55.8 214.5  52.5 211.2  52.5 207  C 52.5 202.8  55.8 199.5  60 199.5  Z " stroke-width="1" stroke="#8c8c8c" fill="none" />
  <path d="M 60 211  C 57.76 211  56 209.24  56 207  C 56 204.76  57.76 203  60 203  C 62.24 203  64 204.76  64 207  C 64 209.24  62.24 211  60 211  " fill-rule="nonzero" fill="#8c8c8c" stroke="none" />
</svg>