<?xml version="1.0" encoding="utf-8"?>
<svg version="1.1" xmlns:xlink="http://www.w3.org/1999/xlink" width="16px" height="16px" viewBox="52 128  16 16" xmlns="http://www.w3.org/2000/svg">
  <path d="M 60 128  C 64.48 128  68 131.52  68 136  C 68 140.48  64.48 144  60 144  C 55.52 144  52 140.48  52 136  C 52 131.52  55.52 128  60 128  Z " fill-rule="nonzero" fill="#f0f0f0" stroke="none" />
  <path d="M 60 128.5  C 64.2 128.5  67.5 131.8  67.5 136  C 67.5 140.2  64.2 143.5  60 143.5  C 55.8 143.5  52.5 140.2  52.5 136  C 52.5 131.8  55.8 128.5  60 128.5  Z " stroke-width="1" stroke="#8c8c8c" fill="none" />
  <path d="M 60 140  C 57.76 140  56 138.24  56 136  C 56 133.76  57.76 132  60 132  C 62.24 132  64 133.76  64 136  C 64 138.24  62.24 140  60 140  " fill-rule="nonzero" fill="#8c8c8c" stroke="none" />
</svg>