<?xml version="1.0" encoding="utf-8"?>
<svg version="1.1" xmlns:xlink="http://www.w3.org/1999/xlink" width="16px" height="16px" viewBox="110 13  16 16" xmlns="http://www.w3.org/2000/svg">
  <path d="M 118 13  C 122.48 13  126 16.52  126 21  C 126 25.48  122.48 29  118 29  C 113.52 29  110 25.48  110 21  C 110 16.52  113.52 13  118 13  Z " fill-rule="nonzero" fill="#ffffff" stroke="none" />
  <path d="M 118 13.5  C 122.2 13.5  125.5 16.8  125.5 21  C 125.5 25.2  122.2 28.5  118 28.5  C 113.8 28.5  110.5 25.2  110.5 21  C 110.5 16.8  113.8 13.5  118 13.5  Z " stroke-width="1" stroke="#02a7f0" fill="none" />
  <path d="M 118 25  C 115.76 25  114 23.24  114 21  C 114 18.76  115.76 17  118 17  C 120.24 17  122 18.76  122 21  C 122 23.24  120.24 25  118 25  " fill-rule="nonzero" fill="#02a7f0" stroke="none" />
</svg>