<?xml version="1.0" encoding="utf-8"?>
<svg version="1.1" xmlns:xlink="http://www.w3.org/1999/xlink" width="16px" height="16px" viewBox="210 93  16 16" xmlns="http://www.w3.org/2000/svg">
  <path d="M 218 93  C 222.48 93  226 96.52  226 101  C 226 105.48  222.48 109  218 109  C 213.52 109  210 105.48  210 101  C 210 96.52  213.52 93  218 93  Z " fill-rule="nonzero" fill="#f0f0f0" stroke="none" />
  <path d="M 218 93.5  C 222.2 93.5  225.5 96.8  225.5 101  C 225.5 105.2  222.2 108.5  218 108.5  C 213.8 108.5  210.5 105.2  210.5 101  C 210.5 96.8  213.8 93.5  218 93.5  Z " stroke-width="1" stroke="#8c8c8c" fill="none" />
  <path d="M 218 105  C 215.76 105  214 103.24  214 101  C 214 98.76  215.76 97  218 97  C 220.24 97  222 98.76  222 101  C 222 103.24  220.24 105  218 105  " fill-rule="nonzero" fill="#8c8c8c" stroke="none" />
</svg>