<?xml version="1.0" encoding="utf-8"?>
<svg version="1.1" xmlns:xlink="http://www.w3.org/1999/xlink" width="16px" height="16px" viewBox="110 53  16 16" xmlns="http://www.w3.org/2000/svg">
  <path d="M 118 53  C 122.48 53  126 56.52  126 61  C 126 65.48  122.48 69  118 69  C 113.52 69  110 65.48  110 61  C 110 56.52  113.52 53  118 53  Z " fill-rule="nonzero" fill="#f0f0f0" stroke="none" />
  <path d="M 118 53.5  C 122.2 53.5  125.5 56.8  125.5 61  C 125.5 65.2  122.2 68.5  118 68.5  C 113.8 68.5  110.5 65.2  110.5 61  C 110.5 56.8  113.8 53.5  118 53.5  Z " stroke-width="1" stroke="#8c8c8c" fill="none" />
  <path d="M 118 65  C 115.76 65  114 63.24  114 61  C 114 58.76  115.76 57  118 57  C 120.24 57  122 58.76  122 61  C 122 63.24  120.24 65  118 65  " fill-rule="nonzero" fill="#8c8c8c" stroke="none" />
</svg>