<?xml version="1.0" encoding="utf-8"?>
<svg version="1.1" xmlns:xlink="http://www.w3.org/1999/xlink" width="16px" height="16px" viewBox="210 13  16 16" xmlns="http://www.w3.org/2000/svg">
  <path d="M 218 13  C 222.48 13  226 16.52  226 21  C 226 25.48  222.48 29  218 29  C 213.52 29  210 25.48  210 21  C 210 16.52  213.52 13  218 13  Z " fill-rule="nonzero" fill="#ffffff" stroke="none" />
  <path d="M 218 13.5  C 222.2 13.5  225.5 16.8  225.5 21  C 225.5 25.2  222.2 28.5  218 28.5  C 213.8 28.5  210.5 25.2  210.5 21  C 210.5 16.8  213.8 13.5  218 13.5  Z " stroke-width="1" stroke="#02a7f0" fill="none" />
  <path d="M 218 25  C 215.76 25  214 23.24  214 21  C 214 18.76  215.76 17  218 17  C 220.24 17  222 18.76  222 21  C 222 23.24  220.24 25  218 25  " fill-rule="nonzero" fill="#02a7f0" stroke="none" />
</svg>