<?xml version="1.0" encoding="utf-8"?>
<svg version="1.1" xmlns:xlink="http://www.w3.org/1999/xlink" width="16px" height="16px" viewBox="210 53  16 16" xmlns="http://www.w3.org/2000/svg">
  <path d="M 218 53  C 222.48 53  226 56.52  226 61  C 226 65.48  222.48 69  218 69  C 213.52 69  210 65.48  210 61  C 210 56.52  213.52 53  218 53  Z " fill-rule="nonzero" fill="#ffffff" stroke="none" />
  <path d="M 218 53.5  C 222.2 53.5  225.5 56.8  225.5 61  C 225.5 65.2  222.2 68.5  218 68.5  C 213.8 68.5  210.5 65.2  210.5 61  C 210.5 56.8  213.8 53.5  218 53.5  Z " stroke-width="1" stroke="#02a7f0" fill="none" />
  <path d="M 218 65  C 215.76 65  214 63.24  214 61  C 214 58.76  215.76 57  218 57  C 220.24 57  222 58.76  222 61  C 222 63.24  220.24 65  218 65  " fill-rule="nonzero" fill="#02a7f0" stroke="none" />
</svg>