<?xml version="1.0" encoding="utf-8"?>
<svg version="1.1" xmlns:xlink="http://www.w3.org/1999/xlink" width="16px" height="16px" viewBox="310 93  16 16" xmlns="http://www.w3.org/2000/svg">
  <path d="M 318 93  C 322.48 93  326 96.52  326 101  C 326 105.48  322.48 109  318 109  C 313.52 109  310 105.48  310 101  C 310 96.52  313.52 93  318 93  Z " fill-rule="nonzero" fill="#f0f0f0" stroke="none" />
  <path d="M 318 93.5  C 322.2 93.5  325.5 96.8  325.5 101  C 325.5 105.2  322.2 108.5  318 108.5  C 313.8 108.5  310.5 105.2  310.5 101  C 310.5 96.8  313.8 93.5  318 93.5  Z " stroke-width="1" stroke="#8c8c8c" fill="none" />
  <path d="M 318 105  C 315.76 105  314 103.24  314 101  C 314 98.76  315.76 97  318 97  C 320.24 97  322 98.76  322 101  C 322 103.24  320.24 105  318 105  " fill-rule="nonzero" fill="#8c8c8c" stroke="none" />
</svg>