<?xml version="1.0" encoding="utf-8"?>
<svg version="1.1" xmlns:xlink="http://www.w3.org/1999/xlink" width="16px" height="16px" viewBox="310 13  16 16" xmlns="http://www.w3.org/2000/svg">
  <path d="M 318 13  C 322.48 13  326 16.52  326 21  C 326 25.48  322.48 29  318 29  C 313.52 29  310 25.48  310 21  C 310 16.52  313.52 13  318 13  Z " fill-rule="nonzero" fill="#ffffff" stroke="none" />
  <path d="M 318 13.5  C 322.2 13.5  325.5 16.8  325.5 21  C 325.5 25.2  322.2 28.5  318 28.5  C 313.8 28.5  310.5 25.2  310.5 21  C 310.5 16.8  313.8 13.5  318 13.5  Z " stroke-width="1" stroke="#02a7f0" fill="none" />
  <path d="M 318 25  C 315.76 25  314 23.24  314 21  C 314 18.76  315.76 17  318 17  C 320.24 17  322 18.76  322 21  C 322 23.24  320.24 25  318 25  " fill-rule="nonzero" fill="#02a7f0" stroke="none" />
</svg>