<?xml version="1.0" encoding="utf-8"?>
<svg version="1.1" xmlns:xlink="http://www.w3.org/1999/xlink" width="16px" height="14px" xmlns="http://www.w3.org/2000/svg">
  <g transform="matrix(1 0 0 1 0 -1 )">
    <path d="M 2.20089285714286 11.5490056818182  C 2.25744047619048 11.6119791666667  2.28571428571429 11.686553030303  2.28571428571429 11.7727272727273  L 2.28571428571429 13.6818181818182  C 2.28571428571429 13.7679924242424  2.25744047619048 13.8425662878788  2.20089285714286 13.9055397727273  C 2.14434523809524 13.9685132575758  2.07738095238095 14  2 14  L 0.285714285714286 14  C 0.208333333333333 14  0.141369047619048 13.9685132575758  0.0848214285714286 13.9055397727273  C 0.0282738095238095 13.8425662878788  0 13.7679924242424  0 13.6818181818182  L 0 11.7727272727273  C 0 11.686553030303  0.0282738095238095 11.6119791666667  0.0848214285714286 11.5490056818182  C 0.141369047619048 11.4860321969697  0.208333333333333 11.4545454545455  0.285714285714286 11.4545454545455  L 2 11.4545454545455  C 2.07738095238095 11.4545454545455  2.14434523809524 11.4860321969697  2.20089285714286 11.5490056818182  Z M 2.20089285714286 7.73082386363636  C 2.25744047619048 7.79379734848485  2.28571428571429 7.86837121212121  2.28571428571429 7.95454545454545  L 2.28571428571429 9.86363636363636  C 2.28571428571429 9.9498106060606  2.25744047619048 10.024384469697  2.20089285714286 10.0873579545455  C 2.14434523809524 10.1503314393939  2.07738095238095 10.1818181818182  2 10.1818181818182  L 0.285714285714286 10.1818181818182  C 0.208333333333333 10.1818181818182  0.141369047619048 10.1503314393939  0.0848214285714286 10.0873579545455  C 0.0282738095238095 10.024384469697  0 9.9498106060606  0 9.86363636363636  L 0 7.95454545454545  C 0 7.86837121212121  0.0282738095238095 7.79379734848485  0.0848214285714286 7.73082386363636  C 0.141369047619048 7.66785037878788  0.208333333333333 7.63636363636364  0.285714285714286 7.63636363636364  L 2 7.63636363636364  C 2.07738095238095 7.63636363636364  2.14434523809524 7.66785037878788  2.20089285714286 7.73082386363636  Z M 2.20089285714286 3.91264204545455  C 2.25744047619048 3.97561553030303  2.28571428571429 4.05018939393939  2.28571428571429 4.13636363636364  L 2.28571428571429 6.04545454545455  C 2.28571428571429 6.13162878787879  2.25744047619048 6.20620265151515  2.20089285714286 6.26917613636364  C 2.14434523809524 6.33214962121212  2.07738095238095 6.36363636363636  2 6.36363636363636  L 0.285714285714286 6.36363636363636  C 0.208333333333333 6.36363636363636  0.141369047619048 6.33214962121212  0.0848214285714286 6.26917613636364  C 0.0282738095238095 6.20620265151515  0 6.13162878787879  0 6.04545454545455  L 0 4.13636363636364  C 0 4.05018939393939  0.0282738095238095 3.97561553030303  0.0848214285714286 3.91264204545455  C 0.141369047619048 3.84966856060606  0.208333333333333 3.81818181818182  0.285714285714286 3.81818181818182  L 2 3.81818181818182  C 2.07738095238095 3.81818181818182  2.14434523809524 3.84966856060606  2.20089285714286 3.91264204545455  Z M 15.9151785714286 11.5490056818182  C 15.9717261904762 11.6119791666667  16 11.686553030303  16 11.7727272727273  L 16 13.6818181818182  C 16 13.7679924242424  15.9717261904762 13.8425662878788  15.9151785714286 13.9055397727273  C 15.858630952381 13.9685132575758  15.7916666666667 14  15.7142857142857 14  L 3.71428571428571 14  C 3.63690476190476 14  3.56994047619048 13.9685132575758  3.51339285714286 13.9055397727273  C 3.45684523809524 13.8425662878788  3.42857142857143 13.7679924242424  3.42857142857143 13.6818181818182  L 3.42857142857143 11.7727272727273  C 3.42857142857143 11.686553030303  3.45684523809524 11.6119791666667  3.51339285714286 11.5490056818182  C 3.56994047619048 11.4860321969697  3.63690476190476 11.4545454545455  3.71428571428571 11.4545454545455  L 15.7142857142857 11.4545454545455  C 15.7916666666667 11.4545454545455  15.858630952381 11.4860321969697  15.9151785714286 11.5490056818182  Z M 2.20089285714286 0.0944602272727268  C 2.25744047619048 0.157433712121212  2.28571428571429 0.232007575757575  2.28571428571429 0.318181818181818  L 2.28571428571429 2.22727272727273  C 2.28571428571429 2.31344696969697  2.25744047619048 2.38802083333333  2.20089285714286 2.45099431818182  C 2.14434523809524 2.5139678030303  2.07738095238095 2.54545454545455  2 2.54545454545455  L 0.285714285714286 2.54545454545455  C 0.208333333333333 2.54545454545455  0.141369047619048 2.5139678030303  0.0848214285714286 2.45099431818182  C 0.0282738095238095 2.38802083333333  0 2.31344696969697  0 2.22727272727273  L 0 0.318181818181818  C 0 0.232007575757575  0.0282738095238095 0.157433712121212  0.0848214285714286 0.0944602272727268  C 0.141369047619048 0.0314867424242402  0.208333333333333 0  0.285714285714286 0  L 2 0  C 2.07738095238095 0  2.14434523809524 0.0314867424242402  2.20089285714286 0.0944602272727268  Z M 15.9151785714286 7.73082386363636  C 15.9717261904762 7.79379734848485  16 7.86837121212121  16 7.95454545454545  L 16 9.86363636363636  C 16 9.9498106060606  15.9717261904762 10.024384469697  15.9151785714286 10.0873579545455  C 15.858630952381 10.1503314393939  15.7916666666667 10.1818181818182  15.7142857142857 10  L 3.71428571428571 10  C 3.63690476190476 10.1818181818182  3.56994047619048 10.1503314393939  3.51339285714286 10.0873579545455  C 3.45684523809524 10.024384469697  3.42857142857143 9.9498106060606  3.42857142857143 9.86363636363636  L 3.42857142857143 7.95454545454545  C 3.42857142857143 7.86837121212121  3.45684523809524 7.79379734848485  3.51339285714286 7.73082386363636  C 3.56994047619048 7.66785037878788  3.63690476190476 7.63636363636364  3.71428571428571 7.63636363636364  L 15.7142857142857 7.63636363636364  C 15.7916666666667 7.63636363636364  15.858630952381 7.66785037878788  15.9151785714286 7.73082386363636  Z M 15.9151785714286 3.91264204545455  C 15.9717261904762 3.97561553030303  16 4.05018939393939  16 4.13636363636364  L 16 6.04545454545455  C 16 6.13162878787879  15.9717261904762 6.20620265151515  15.9151785714286 6.26917613636364  C 15.858630952381 6.33214962121212  15.7916666666667 6.36363636363636  15.7142857142857 6.36363636363636  L 3.71428571428571 6.36363636363636  C 3.63690476190476 6.36363636363636  3.56994047619048 6.33214962121212  3.51339285714286 6.26917613636364  C 3.45684523809524 6.20620265151515  3.42857142857143 6.13162878787879  3.42857142857143 6.04545454545455  L 3.42857142857143 4.13636363636364  C 3.42857142857143 4.05018939393939  3.45684523809524 3.97561553030303  3.51339285714286 3.91264204545455  C 3.56994047619048 3.84966856060606  3.63690476190476 3.81818181818182  3.71428571428571 4  L 15.7142857142857 4  C 15.7916666666667 3.81818181818182  15.858630952381 3.84966856060606  15.9151785714286 3.91264204545455  Z M 15.9151785714286 0.0944602272727268  C 15.9717261904762 0.157433712121212  16 0.232007575757575  16 0.318181818181818  L 16 2.22727272727273  C 16 2.31344696969697  15.9717261904762 2.38802083333333  15.9151785714286 2.45099431818182  C 15.858630952381 2.5139678030303  15.7916666666667 2.54545454545455  15.7142857142857 2.54545454545455  L 3.71428571428571 2.54545454545455  C 3.63690476190476 2.54545454545455  3.56994047619048 2.5139678030303  3.51339285714286 2.45099431818182  C 3.45684523809524 2.38802083333333  3.42857142857143 2.31344696969697  3.42857142857143 2.22727272727273  L 3.42857142857143 0.318181818181818  C 3.42857142857143 0.232007575757575  3.45684523809524 0.157433712121212  3.51339285714286 0.0944602272727268  C 3.56994047619048 0.0314867424242402  3.63690476190476 0  3.71428571428571 0  L 15.7142857142857 0  C 15.7916666666667 0  15.858630952381 0.0314867424242402  15.9151785714286 0.0944602272727268  Z " fill-rule="nonzero" fill="#000000" stroke="none" transform="matrix(1 0 0 1 0 1 )" />
  </g>
</svg>