<?xml version="1.0" encoding="utf-8"?>
<svg version="1.1" xmlns:xlink="http://www.w3.org/1999/xlink" width="16px" height="16px" viewBox="276 153  16 16" xmlns="http://www.w3.org/2000/svg">
  <path d="M 284 153  C 288.48 153  292 156.52  292 161  C 292 165.48  288.48 169  284 169  C 279.52 169  276 165.48  276 161  C 276 156.52  279.52 153  284 153  Z " fill-rule="nonzero" fill="#ffffff" stroke="none" />
  <path d="M 284 153.5  C 288.2 153.5  291.5 156.8  291.5 161  C 291.5 165.2  288.2 168.5  284 168.5  C 279.8 168.5  276.5 165.2  276.5 161  C 276.5 156.8  279.8 153.5  284 153.5  Z " stroke-width="1" stroke="#8c8c8c" fill="none" />
  <path d="M 284 165  C 281.76 165  280 163.24  280 161  C 280 158.76  281.76 157  284 157  C 286.24 157  288 158.76  288 161  C 288 163.24  286.24 165  284 165  " fill-rule="nonzero" fill="#8c8c8c" stroke="none" />
</svg>