<?xml version="1.0" encoding="utf-8"?>
<svg version="1.1" xmlns:xlink="http://www.w3.org/1999/xlink" width="16px" height="16px" viewBox="196 153  16 16" xmlns="http://www.w3.org/2000/svg">
  <path d="M 204 153  C 208.48 153  212 156.52  212 161  C 212 165.48  208.48 169  204 169  C 199.52 169  196 165.48  196 161  C 196 156.52  199.52 153  204 153  Z " fill-rule="nonzero" fill="#ffffff" stroke="none" />
  <path d="M 204 153.5  C 208.2 153.5  211.5 156.8  211.5 161  C 211.5 165.2  208.2 168.5  204 168.5  C 199.8 168.5  196.5 165.2  196.5 161  C 196.5 156.8  199.8 153.5  204 153.5  Z " stroke-width="1" stroke="#8c8c8c" fill="none" />
  <path d="M 204 165  C 201.76 165  200 163.24  200 161  C 200 158.76  201.76 157  204 157  C 206.24 157  208 158.76  208 161  C 208 163.24  206.24 165  204 165  " fill-rule="nonzero" fill="#8c8c8c" stroke="none" />
</svg>