<?xml version="1.0" encoding="utf-8"?>
<svg version="1.1" xmlns:xlink="http://www.w3.org/1999/xlink" width="30px" height="13px" xmlns="http://www.w3.org/2000/svg">
  <g transform="matrix(1 0 0 1 -1476 -102 )">
    <path d="M 29.84375 4.47984395318596  C 29.9479166666667 4.58127438231469  30 4.71087993064586  30 4.86866059817945  L 30 8.11443433029909  C 30 8.27221499783268  29.9479166666667 8.40182054616385  29.84375 8.50325097529259  C 29.7395833333333 8.60468140442133  29.6064814814815 8.6553966189857  29.4444444444444 8.6553966189857  L 7.77777777777778 8.6553966189857  L 7.77777777777778 12.4421326397919  C 7.77777777777778 12.6788036410923  7.66782407407407 12.8422193324664  7.44791666666667 12.9323797139142  C 7.22800925925926 13.0225400953619  7.02546296296296 12.9943649761595  6.84027777777778 12.8478543563069  L 0.173611111111111 6.93107932379714  C 0.0578703703703705 6.81837884698743  0 6.68877329865626  0 6.54226267880364  C 0 6.38448201127005  0.0578703703703705 6.24924143909839  0.173611111111111 6.13654096228869  L 6.84027777777778 0.152145643693108  C 7.02546296296296 -0.00563502384048875  7.22800925925926 -0.0394451668834011  7.44791666666667 0.0507152145643699  C 7.66782407407407 0.152145643693108  7.77777777777778 0.315561335067187  7.77777777777778 0.540962288686605  L 7.77777777777778 4.32769830949285  L 29.4444444444444 4.32769830949285  C 29.6064814814815 4.32769830949285  29.7395833333333 4.37841352405722  29.84375 4.47984395318596  Z " fill-rule="nonzero" fill="#000000" stroke="none" transform="matrix(1 0 0 1 1476 102 )" />
  </g>
</svg>