<?xml version="1.0" encoding="utf-8"?>
<svg version="1.1" xmlns:xlink="http://www.w3.org/1999/xlink" width="37px" height="40px" xmlns="http://www.w3.org/2000/svg">
  <g transform="matrix(1 0 0 1 -1541 -15 )">
    <path d="M 18.5 38.2142857142857  C 18.7371794871795 38.2142857142857  18.8557692307692 38.0952380952381  18.8557692307692 37.8571428571429  C 18.8557692307692 37.6190476190476  18.7371794871795 37.5  18.5 37.5  C 17.6254006410256 37.5  16.8730969551282 37.1837797619048  16.2430889423077 36.5513392857143  C 15.6130809294872 35.9188988095238  15.2980769230769 35.1636904761905  15.2980769230769 34.2857142857143  C 15.2980769230769 34.047619047619  15.1794871794872 33.9285714285714  14.9423076923077 33.9285714285714  C 14.7051282051282 33.9285714285714  14.5865384615385 34.047619047619  14.5865384615385 34.2857142857143  C 14.5865384615385 35.3720238095238  14.9682491987179 36.2983630952381  15.7316706730769 37.0647321428571  C 16.4950921474359 37.8311011904762  17.4178685897436 38.2142857142857  18.5 38.2142857142857  Z M 34.9765625 29.4642857142857  C 35.5843349358974 30.1488095238095  36.2588141025641 30.8035714285714  37 31.4285714285714  C 37 32.202380952381  36.7183493589744 32.8720238095238  36.1550480769231 33.4375  C 35.5917467948718 34.0029761904762  34.9246794871795 34.2857142857143  34.1538461538462 34.2857142857143  L 24.1923076923077 34.2857142857143  C 24.1923076923077 35.8630952380952  23.6364182692308 37.2098214285714  22.5246394230769 38.3258928571429  C 21.4128605769231 39.4419642857143  20.0713141025641 40  18.5 40  C 16.9286858974359 40  15.5871394230769 39.4419642857143  14.4753605769231 38.3258928571429  C 13.3635817307692 37.2098214285714  12.8076923076923 35.8630952380952  12.8076923076923 34.2857142857143  L 2.84615384615385 34.2857142857143  C 2.07532051282051 34.2857142857143  1.40825320512821 34.0029761904762  0.844951923076923 33.4375  C 0.281650641025641 32.8720238095238  0 32.202380952381  0 31.4285714285714  C 0.741185897435898 30.8035714285714  1.41566506410256 30.1488095238095  2.0234375 29.4642857142857  C 2.63120993589744 28.7797619047619  3.26121794871795 27.890625  3.91346153846154 26.796875  C 4.56570512820513 25.703125  5.11788862179487 24.5238095238095  5.57001201923077 23.2589285714286  C 6.02213541666667 21.9940476190476  6.39272836538462 20.4613095238095  6.68179086538462 18.6607142857143  C 6.97085336538462 16.860119047619  7.11538461538462 14.9255952380952  7.11538461538462 12.8571428571429  C 7.11538461538462 10.5952380952381  7.98257211538462 8.49330357142857  9.71694711538462 6.55133928571428  C 11.4513221153846 4.609375  13.7267628205128 3.43005952380952  16.5432692307692 3.01339285714286  C 16.4246794871795 2.73065476190476  16.3653846153846 2.44047619047619  16.3653846153846 2.14285714285714  C 16.3653846153846 1.54761904761905  16.5729166666667 1.04166666666667  16.9879807692308 0.625  C 17.4030448717949 0.208333333333335  17.9070512820513 0  18.5 0  C 19.0929487179487 0  19.5969551282051 0.208333333333335  20.0120192307692 0.625  C 20.4270833333333 1.04166666666667  20.6346153846154 1.54761904761905  20.6346153846154 2.14285714285714  C 20.6346153846154 2.44047619047619  20.5753205128205 2.73065476190476  20.4567307692308 3.01339285714286  C 23.2732371794872 3.43005952380952  25.5486778846154 4.609375  27.2830528846154 6.55133928571428  C 29.0174278846154 8.49330357142857  29.8846153846154 10.5952380952381  29.8846153846154 12.8571428571429  C 29.8846153846154 14.9255952380952  30.0291466346154 16.860119047619  30.3182091346154 18.6607142857143  C 30.6072716346154 20.4613095238095  30.9778645833333 21.9940476190476  31.4299879807692 23.2589285714286  C 31.8821113782051 24.5238095238095  32.4342948717949 25.703125  33.0865384615385 26.796875  C 33.7387820512821 27.890625  34.3687900641026 28.7797619047619  34.9765625 29.4642857142857  Z " fill-rule="nonzero" fill="#000000" stroke="none" transform="matrix(1 0 0 1 1541 15 )" />
  </g>
</svg>