<?xml version="1.0" encoding="utf-8"?>
<svg version="1.1" xmlns:xlink="http://www.w3.org/1999/xlink" width="20px" height="20px" xmlns="http://www.w3.org/2000/svg">
  <g transform="matrix(1 0 0 1 -1147 -200 )">
    <path d="M 1157 200  C 1162.6 200  1167 204.4  1167 210  C 1167 215.6  1162.6 220  1157 220  C 1151.4 220  1147 215.6  1147 210  C 1147 204.4  1151.4 200  1157 200  Z " fill-rule="nonzero" fill="#ffffff" stroke="none" />
    <path d="M 1157 200.5  C 1162.32 200.5  1166.5 204.68  1166.5 210  C 1166.5 215.32  1162.32 219.5  1157 219.5  C 1151.68 219.5  1147.5 215.32  1147.5 210  C 1147.5 204.68  1151.68 200.5  1157 200.5  Z " stroke-width="1" stroke="#797979" fill="none" />
  </g>
</svg>