<?xml version="1.0" encoding="utf-8"?>
<svg version="1.1" xmlns:xlink="http://www.w3.org/1999/xlink" width="16px" height="16px" viewBox="21 97  16 16" xmlns="http://www.w3.org/2000/svg">
  <path d="M 29 97  C 33.48 97  37 100.52  37 105  C 37 109.48  33.48 113  29 113  C 24.52 113  21 109.48  21 105  C 21 100.52  24.52 97  29 97  Z " fill-rule="nonzero" fill="#ffffff" stroke="none" />
  <path d="M 29 97.5  C 33.2 97.5  36.5 100.8  36.5 105  C 36.5 109.2  33.2 112.5  29 112.5  C 24.8 112.5  21.5 109.2  21.5 105  C 21.5 100.8  24.8 97.5  29 97.5  Z " stroke-width="1" stroke="#8c8c8c" fill="none" />
  <path d="M 29 109  C 26.76 109  25 107.24  25 105  C 25 102.76  26.76 101  29 101  C 31.24 101  33 102.76  33 105  C 33 107.24  31.24 109  29 109  " fill-rule="nonzero" fill="#8c8c8c" stroke="none" />
</svg>