<?xml version="1.0" encoding="utf-8"?>
<svg version="1.1" xmlns:xlink="http://www.w3.org/1999/xlink" width="26px" height="22px" xmlns="http://www.w3.org/2000/svg">
  <g transform="matrix(1 0 0 1 -1204 -6 )">
    <path d="M 12.1255605381166 16.5  L 12.9417040358744 16.5  L 14.6322869955157 14.6875  L 12.4170403587444 12.3125  L 10.7264573991031 14.125  L 10.7264573991031 15  L 12.1255605381166 15  L 12.1255605381166 16.5  Z M 19.3396860986547 5.765625  C 19.5048579970105 5.58854166666666  19.5097159940209 5.41666666666666  19.3542600896861 5.25  C 19.1988041853513 5.08333333333333  19.038490284006 5.08854166666666  18.8733183856502 5.265625  L 13.7724215246637 10.734375  C 13.6072496263079 10.9114583333333  13.6023916292975 11.0833333333333  13.7578475336323 11.25  C 13.9133034379671 11.4166666666667  14.0736173393124 11.4114583333333  14.2387892376682 11.234375  L 19.3396860986547 5.765625  Z M 20.2286995515695 14.078125  C 20.423019431988 14.1614583333333  20.5201793721973 14.3125  20.5201793721973 14.53125  L 20.5201793721973 17.5  C 20.5201793721973 18.7395833333333  20.1096786248132 19.7994791666667  19.2886771300448 20.6796875  C 18.4676756352765 21.5598958333333  17.4790732436472 22  16.322869955157 22  L 4.19730941704036 22  C 3.04110612855008 22  2.05250373692078 21.5598958333333  1.23150224215247 20.6796875  C 0.410500747384155 19.7994791666667  0 18.7395833333333  0 17.5  L 0 4.5  C 0 3.26041666666666  0.410500747384155 2.20052083333333  1.23150224215247 1.3203125  C 2.05250373692078 0.440104166666665  3.04110612855008 0  4.19730941704036 0  L 16.322869955157 0  C 16.9349775784753 0  17.5033632286996 0.130208333333332  18.0280269058296 0.390624999999999  C 18.1737668161435 0.463541666666665  18.2612107623318 0.583333333333333  18.2903587443946 0.749999999999999  C 18.3195067264574 0.927083333333333  18.2757847533632 1.078125  18.1591928251121 1.203125  L 17.445067264574 1.96875  C 17.309043348281 2.11458333333333  17.1535874439462 2.15625  16.9786995515695 2.09375  C 16.7552316890882 2.03125  16.5366218236173 2  16.322869955157 2  L 4.19730941704036 2  C 3.55605381165919 2  3.00710014947683 2.24479166666666  2.55044843049327 2.734375  C 2.09379671150972 3.22395833333333  1.86547085201794 3.8125  2 4.5  L 2 17.5  C 1.86547085201794 18.1875  2.09379671150972 18.7760416666667  2.55044843049327 19.265625  C 3.00710014947683 19.7552083333333  3.55605381165919 20  4.19730941704036 20  L 16.322869955157 20  C 16.9641255605381 20  17.5130792227205 19.7552083333333  17.969730941704 19.265625  C 18.4263826606876 18.7760416666667  18.6547085201794 18.1875  18.6547085201794 17.5  L 18.6547085201794 15.53125  C 18.6547085201794 15.3958333333333  18.6984304932735 15.28125  18.7858744394619 15.1875  L 19.7186098654709 14.1875  C 19.8643497757848 14.03125  20.034379671151 13.9947916666667  20.2286995515695 14.078125  Z M 9.32735426008969 13.5  L 19.1210762331839 3  L 23.3183856502242 7.5  L 13.52466367713 18  L 9.32735426008969 18  L 9.32735426008969 13.5  Z M 26 4  C 26 4.41666666666667  25.863976083707 4.77083333333333  25.5919282511211 5.0625  L 24.2511210762332 6.5  L 20.0538116591928 2  L 21.3946188340807 0.562499999999999  C 21.6666666666667 0.270833333333331  21.9970104633782 0.125000000000001  22.3856502242152 0.125000000000001  C 22.7742899850523 0.125000000000001  23.1046337817638 0.270833333333331  23.3766816143498 0.562499999999999  L 25.5919282511211 2.9375  C 25.863976083707 3.22916666666666  26 3.58333333333333  26 4  Z " fill-rule="nonzero" fill="#3399ff" stroke="none" transform="matrix(1 0 0 1 1204 6 )" />
  </g>
</svg>