<?xml version="1.0" encoding="utf-8"?>
<svg version="1.1" xmlns:xlink="http://www.w3.org/1999/xlink" width="26px" height="26px" xmlns="http://www.w3.org/2000/svg">
  <g transform="matrix(1 0 0 1 -1204 -4 )">
    <path d="M 20.1432291666667 10.8333333333333  C 20.1432291666667 11.1267361111111  20.0360243055556 11.3806423611111  19.8216145833333 11.5950520833333  L 12.6783854166667 18.73828125  C 12.4639756944444 18.9526909722222  12.2100694444444 19.0598958333333  11.9166666666667 19.0598958333333  C 11.6232638888889 19.0598958333333  11.3693576388889 18.9526909722222  11.1549479166667 18.73828125  L 6.17838541666667 13.76171875  C 5.96397569444444 13.5473090277778  5.85677083333333 13.2934027777778  5.85677083333333 13  C 5.85677083333333 12.7065972222222  5.96397569444444 12.4526909722222  6.17838541666667 12.23828125  L 7.90494791666667 10.51171875  C 8.11935763888889 10.2973090277778  8.37326388888889 10.1901041666667  8.66666666666667 10.1901041666667  C 8.96006944444444 10.1901041666667  9.21397569444444 10.2973090277778  9.42838541666667 10.51171875  L 11.9166666666667 13  L 16.5716145833333 8.34505208333333  C 16.7860243055556 8.13064236111111  17.0399305555556 8.0234375  17.3333333333333 8.0234375  C 17.6267361111111 8.0234375  17.8806423611111 8.13064236111111  18.0950520833333 8.34505208333333  L 19.8216145833333 10.0716145833333  C 20.0360243055556 10.2860243055556  20.1432291666667 10.5399305555556  20.1432291666667 10.8333333333333  Z M 20.97265625 17.62109375  C 21.7964409722222 16.2105034722222  22.2083333333333 14.6701388888889  22.2083333333333 13  C 22.2083333333333 11.3298611111111  21.7964409722222 9.78949652777778  20.97265625 8.37890625  C 20.1488715277778 6.96831597222222  19.0316840277778 5.85112847222222  17.62109375 5.02734375  C 16.2105034722222 4.20355902777778  14.6701388888889 3.79166666666667  13 3.79166666666667  C 11.3298611111111 3.79166666666667  9.78949652777778 4.20355902777778  8.37890625 5.02734375  C 6.96831597222222 5.85112847222222  5.85112847222222 6.96831597222222  5.02734375 8.37890625  C 4.20355902777778 9.78949652777778  3.79166666666667 11.3298611111111  3.79166666666667 13  C 3.79166666666667 14.6701388888889  4.20355902777778 16.2105034722222  5.02734375 17.62109375  C 5.85112847222222 19.0316840277778  6.96831597222222 20.1488715277778  8.37890625 20.97265625  C 9.78949652777778 21.7964409722222  11.3298611111111 22.2083333333333  13 22.2083333333333  C 14.6701388888889 22.2083333333333  16.2105034722222 21.7964409722222  17.62109375 20.97265625  C 19.0316840277778 20.1488715277778  20.1488715277778 19.0316840277778  20.97265625 17.62109375  Z M 24.2565104166667 6.474609375  C 25.4188368055556 8.46636284722222  26 10.6414930555556  26 13  C 26 15.3585069444444  25.4188368055556 17.5336371527778  24.2565104166667 19.525390625  C 23.0941840277778 21.5171440972222  21.5171440972222 23.0941840277778  19.525390625 24.2565104166667  C 17.5336371527778 25.4188368055556  15.3585069444444 26  13 26  C 10.6414930555556 26  8.46636284722222 25.4188368055556  6.474609375 24.2565104166667  C 4.48285590277778 23.0941840277778  2.90581597222222 21.5171440972222  1.74348958333333 19.525390625  C 0.581163194444444 17.5336371527778  0 15.3585069444444  0 13  C 0 10.6414930555556  0.581163194444444 8.46636284722222  1.74348958333333 6.474609375  C 2.90581597222222 4.48285590277778  4.48285590277778 2.90581597222222  6.474609375 1.74348958333333  C 8.46636284722222 0.581163194444442  10.6414930555556 0  13 0  C 15.3585069444444 0  17.5336371527778 0.581163194444442  19.525390625 1.74348958333333  C 21.5171440972222 2.90581597222222  23.0941840277778 4.48285590277778  24.2565104166667 6.474609375  Z " fill-rule="nonzero" fill="#239722" stroke="none" transform="matrix(1 0 0 1 1204 4 )" />
  </g>
</svg>