<?xml version="1.0" encoding="utf-8"?>
<svg version="1.1" xmlns:xlink="http://www.w3.org/1999/xlink" width="40px" height="23px" xmlns="http://www.w3.org/2000/svg">
  <g transform="matrix(1 0 0 1 -223 -134 )">
    <path d="M 223 134  L 263 134  L 263 157  L 223 157  L 223 134  " fill-rule="nonzero" fill="#cccccc" stroke="none" />
    <path d="M 225 136  L 261 136  L 261 155  L 225 155  L 225 136  " fill-rule="nonzero" fill="#ffffff" stroke="none" />
    <path d="M 245.525 140.9  C 244.559 140.9  243.8 140.141  243.8 139.175  C 243.8 138.209  244.559 137.45  245.525 137.45  C 246.491 137.45  247.25 138.209  247.25 139.175  C 247.25 140.141  246.491 140.9  245.525 140.9  " fill-rule="nonzero" fill="#cccccc" stroke="none" />
    <path d="M 226 155  L 226 145.1  L 234.75 140.6  L 247 148.79  L 254 143.3  L 261 148.79  L 261 155  L 226 155  " fill-rule="nonzero" fill="#169bd5" stroke="none" />
  </g>
</svg>