<?xml version="1.0" encoding="utf-8"?>
<svg version="1.1" xmlns:xlink="http://www.w3.org/1999/xlink" width="16px" height="16px" viewBox="33 93  16 16" xmlns="http://www.w3.org/2000/svg">
  <path d="M 41 93  C 45.48 93  49 96.52  49 101  C 49 105.48  45.48 109  41 109  C 36.52 109  33 105.48  33 101  C 33 96.52  36.52 93  41 93  Z " fill-rule="nonzero" fill="#f0f0f0" stroke="none" />
  <path d="M 41 93.5  C 45.2 93.5  48.5 96.8  48.5 101  C 48.5 105.2  45.2 108.5  41 108.5  C 36.8 108.5  33.5 105.2  33.5 101  C 33.5 96.8  36.8 93.5  41 93.5  Z " stroke-width="1" stroke="#3e3c3c" fill="none" />
  <path d="M 41 105  C 38.76 105  37 103.24  37 101  C 37 98.76  38.76 97  41 97  C 43.24 97  45 98.76  45 101  C 45 103.24  43.24 105  41 105  " fill-rule="nonzero" fill="#3e3c3c" stroke="none" />
</svg>