<?xml version="1.0" encoding="utf-8"?>
<svg version="1.1" xmlns:xlink="http://www.w3.org/1999/xlink" width="16px" height="16px" viewBox="132 93  16 16" xmlns="http://www.w3.org/2000/svg">
  <path d="M 140 93  C 144.48 93  148 96.52  148 101  C 148 105.48  144.48 109  140 109  C 135.52 109  132 105.48  132 101  C 132 96.52  135.52 93  140 93  Z " fill-rule="nonzero" fill="#f0f0f0" stroke="none" />
  <path d="M 140 93.5  C 144.2 93.5  147.5 96.8  147.5 101  C 147.5 105.2  144.2 108.5  140 108.5  C 135.8 108.5  132.5 105.2  132.5 101  C 132.5 96.8  135.8 93.5  140 93.5  Z " stroke-width="1" stroke="#3e3c3c" fill="none" />
  <path d="M 140 105  C 137.76 105  136 103.24  136 101  C 136 98.76  137.76 97  140 97  C 142.24 97  144 98.76  144 101  C 144 103.24  142.24 105  140 105  " fill-rule="nonzero" fill="#3e3c3c" stroke="none" />
</svg>