<?xml version="1.0" encoding="utf-8"?>
<svg version="1.1" xmlns:xlink="http://www.w3.org/1999/xlink" width="16px" height="16px" viewBox="405 291  16 16" xmlns="http://www.w3.org/2000/svg">
  <path d="M 413 291  C 417.48 291  421 294.52  421 299  C 421 303.48  417.48 307  413 307  C 408.52 307  405 303.48  405 299  C 405 294.52  408.52 291  413 291  Z " fill-rule="nonzero" fill="#f0f0f0" stroke="none" />
  <path d="M 413 291.5  C 417.2 291.5  420.5 294.8  420.5 299  C 420.5 303.2  417.2 306.5  413 306.5  C 408.8 306.5  405.5 303.2  405.5 299  C 405.5 294.8  408.8 291.5  413 291.5  Z " stroke-width="1" stroke="#8c8c8c" fill="none" />
  <path d="M 413 303  C 410.76 303  409 301.24  409 299  C 409 296.76  410.76 295  413 295  C 415.24 295  417 296.76  417 299  C 417 301.24  415.24 303  413 303  " fill-rule="nonzero" fill="#8c8c8c" stroke="none" />
</svg>