<?xml version="1.0" encoding="utf-8"?>
<svg version="1.1" xmlns:xlink="http://www.w3.org/1999/xlink" width="13px" height="10px" xmlns="http://www.w3.org/2000/svg">
  <g transform="matrix(1 0 0 1 -1058 -236 )">
    <path d="M 13 2.21739130434783  C 13 2.38808373590982  12.9489247311828 2.53462157809984  12.8467741935484 2.65700483091787  L 6.86290322580645 9.81642512077295  C 6.76075268817204 9.93880837359098  6.63978494623656 10  6.5 10  C 6.36021505376344 10  6.23924731182796 9.93880837359098  6.13709677419355 9.81642512077295  L 0.153225806451613 2.65700483091787  C 0.0510752688172044 2.53462157809984  0 2.38808373590982  0 2.21739130434783  C 0 2.04669887278583  0.0510752688172044 1.90016103059581  0.153225806451613 1.77777777777778  L 1.49193548387097 0.183574879227053  C 1.59408602150538 0.0611916264090173  1.71505376344086 0  1.85483870967742 0  C 1.99462365591398 0  2.11559139784946 0.0611916264090173  2.21774193548387 0.183574879227053  L 6.5 5.31400966183575  L 10.7822580645161 0.183574879227053  C 10.8844086021505 0.0611916264090173  11.005376344086 0  11.1451612903226 0  C 11.2849462365591 0  11.4059139784946 0.0611916264090173  11.508064516129 0.183574879227053  L 12.8467741935484 1.77777777777778  C 12.9489247311828 1.90016103059581  13 2.04669887278583  13 2.21739130434783  Z " fill-rule="nonzero" fill="#11a833" stroke="none" transform="matrix(1 0 0 1 1058 236 )" />
  </g>
</svg>