<?xml version="1.0" encoding="utf-8"?>
<svg version="1.1" xmlns:xlink="http://www.w3.org/1999/xlink" width="117px" height="117px" xmlns="http://www.w3.org/2000/svg">
  <g transform="matrix(1 0 0 1 -42 -64 )">
    <path d="M 22 85  L 32 85  L 32 95  L 22 95  L 22 85  Z M 22 22  L 31.9090909090909 22  L 31.9090909090909 32  L 22 32  L 22 22  Z M 85 22  L 95.7272727272727 22  L 95.7272727272727 32  L 85 32  L 85 22  Z M 11 74  L 11 106  L 43 106  L 43 74  L 11 74  Z M 11 11  L 11 43  L 43 43  L 43 11  L 11 11  Z M 74 11  L 74 43  L 106 43  L 106 11  L 74 11  Z M 0 63  L 54 63  L 54 117  L 0 117  L 0 63  Z M 85 106  L 95 106  L 95 117  L 85 117  L 85 106  Z M 106 106  L 117 106  L 117 117  L 106 117  L 106 106  Z M 106 63  L 117 63  L 117 95  L 85.0909090909091 95  L 85.0909090909091 85  L 74 85  L 74 117  L 63 117  L 63 63  L 95 63  L 95 74  L 106 74  L 106 63  Z M 0 0  L 54 0  L 54 54  L 0 54  L 0 0  Z M 63 0  L 117 0  L 117 54  L 63 54  L 63 0  Z " fill-rule="nonzero" fill="#000000" stroke="none" transform="matrix(1 0 0 1 42 64 )" />
  </g>
</svg>