<?xml version="1.0" encoding="utf-8"?>
<svg version="1.1" xmlns:xlink="http://www.w3.org/1999/xlink" width="16px" height="16px" viewBox="48 592  16 16" xmlns="http://www.w3.org/2000/svg">
  <path d="M 56 592  C 60.48 592  64 595.52  64 600  C 64 604.48  60.48 608  56 608  C 51.52 608  48 604.48  48 600  C 48 595.52  51.52 592  56 592  Z " fill-rule="nonzero" fill="#ffffff" stroke="none" />
  <path d="M 56 592.5  C 60.2 592.5  63.5 595.8  63.5 600  C 63.5 604.2  60.2 607.5  56 607.5  C 51.8 607.5  48.5 604.2  48.5 600  C 48.5 595.8  51.8 592.5  56 592.5  Z " stroke-width="1" stroke="#02a7f0" fill="none" />
  <path d="M 56 604  C 53.76 604  52 602.24  52 600  C 52 597.76  53.76 596  56 596  C 58.24 596  60 597.76  60 600  C 60 602.24  58.24 604  56 604  " fill-rule="nonzero" fill="#02a7f0" stroke="none" />
</svg>