<?xml version="1.0" encoding="utf-8"?>
<svg version="1.1" xmlns:xlink="http://www.w3.org/1999/xlink" width="16px" height="16px" viewBox="210 216  16 16" xmlns="http://www.w3.org/2000/svg">
  <path d="M 218 216  C 222.48 216  226 219.52  226 224  C 226 228.48  222.48 232  218 232  C 213.52 232  210 228.48  210 224  C 210 219.52  213.52 216  218 216  Z " fill-rule="nonzero" fill="#f0f0f0" stroke="none" />
  <path d="M 218 216.5  C 222.2 216.5  225.5 219.8  225.5 224  C 225.5 228.2  222.2 231.5  218 231.5  C 213.8 231.5  210.5 228.2  210.5 224  C 210.5 219.8  213.8 216.5  218 216.5  Z " stroke-width="1" stroke="#8c8c8c" fill="none" />
  <path d="M 218 228  C 215.76 228  214 226.24  214 224  C 214 221.76  215.76 220  218 220  C 220.24 220  222 221.76  222 224  C 222 226.24  220.24 228  218 228  " fill-rule="nonzero" fill="#8c8c8c" stroke="none" />
</svg>