<?xml version="1.0" encoding="utf-8"?>
<svg version="1.1" xmlns:xlink="http://www.w3.org/1999/xlink" width="18px" height="18px" xmlns="http://www.w3.org/2000/svg">
  <g transform="matrix(1 0 0 1 -10 -70 )">
    <path d="M 10 70  L 28 70  L 28 88  L 10 88  L 10 70  " fill-rule="nonzero" fill="#cccccc" stroke="none" />
    <path d="M 11 71  L 27 71  L 27 87  L 11 87  L 11 71  " fill-rule="nonzero" fill="#ffffff" stroke="none" />
    <path d="M 20.71 75.4  C 19.954 75.4  19.36 74.806  19.36 74.05  C 19.36 73.294  19.954 72.7  20.71 72.7  C 21.466 72.7  22.06 73.294  22.06 74.05  C 22.06 74.806  21.466 75.4  20.71 75.4  " fill-rule="nonzero" fill="#cccccc" stroke="none" />
    <path d="M 12 87  L 12 78.75  L 15.75 75  L 21 78  L 24 77.25  L 27 78  L 27 87  L 12 87  " fill-rule="nonzero" fill="#169bd5" stroke="none" />
  </g>
</svg>