<?xml version="1.0" encoding="utf-8"?>
<svg version="1.1" xmlns:xlink="http://www.w3.org/1999/xlink" width="12px" height="12px" xmlns="http://www.w3.org/2000/svg">
  <g transform="matrix(1 0 0 1 -12 0 )">
    <path d="M 18 0  C 21.36 0  24 2.64  24 6  C 24 9.36  21.36 12  18 12  C 14.64 12  12 9.36  12 6  C 12 2.64  14.64 0  18 0  Z " fill-rule="nonzero" fill="#ffffff" stroke="none" />
    <path d="M 18 0.5  C 21.08 0.5  23.5 2.92  23.5 6  C 23.5 9.08  21.08 11.5  18 11.5  C 14.92 11.5  12.5 9.08  12.5 6  C 12.5 2.92  14.92 0.5  18 0.5  Z " stroke-width="1" stroke="#4b7902" fill="none" />
  </g>
</svg>