<?xml version="1.0" encoding="utf-8"?>
<svg version="1.1" xmlns:xlink="http://www.w3.org/1999/xlink" width="16px" height="16px" viewBox="299 206  16 16" xmlns="http://www.w3.org/2000/svg">
  <path d="M 307 206  C 311.48 206  315 209.52  315 214  C 315 218.48  311.48 222  307 222  C 302.52 222  299 218.48  299 214  C 299 209.52  302.52 206  307 206  Z " fill-rule="nonzero" fill="#ffffff" stroke="none" />
  <path d="M 307 206.5  C 311.2 206.5  314.5 209.8  314.5 214  C 314.5 218.2  311.2 221.5  307 221.5  C 302.8 221.5  299.5 218.2  299.5 214  C 299.5 209.8  302.8 206.5  307 206.5  Z " stroke-width="1" stroke="#02a7f0" fill="none" />
  <path d="M 307 218  C 304.76 218  303 216.24  303 214  C 303 211.76  304.76 210  307 210  C 309.24 210  311 211.76  311 214  C 311 216.24  309.24 218  307 218  " fill-rule="nonzero" fill="#02a7f0" stroke="none" />
</svg>