<?xml version="1.0" encoding="utf-8"?>
<svg version="1.1" xmlns:xlink="http://www.w3.org/1999/xlink" width="16px" height="16px" viewBox="20 255  16 16" xmlns="http://www.w3.org/2000/svg">
  <path d="M 28 255  C 32.48 255  36 258.52  36 263  C 36 267.48  32.48 271  28 271  C 23.52 271  20 267.48  20 263  C 20 258.52  23.52 255  28 255  Z " fill-rule="nonzero" fill="#f0f0f0" stroke="none" />
  <path d="M 28 255.5  C 32.2 255.5  35.5 258.8  35.5 263  C 35.5 267.2  32.2 270.5  28 270.5  C 23.8 270.5  20.5 267.2  20.5 263  C 20.5 258.8  23.8 255.5  28 255.5  Z " stroke-width="1" stroke="#8c8c8c" fill="none" />
  <path d="M 28 267  C 25.76 267  24 265.24  24 263  C 24 260.76  25.76 259  28 259  C 30.24 259  32 260.76  32 263  C 32 265.24  30.24 267  28 267  " fill-rule="nonzero" fill="#8c8c8c" stroke="none" />
</svg>