<?xml version="1.0" encoding="utf-8"?>
<svg version="1.1" xmlns:xlink="http://www.w3.org/1999/xlink" width="50px" height="30px" xmlns="http://www.w3.org/2000/svg">
  <g transform="matrix(1 0 0 1 -1835 -46 )">
    <path d="M 1835 46  L 1885 46  L 1885 76  L 1835 76  L 1835 46  " fill-rule="nonzero" fill="#cccccc" stroke="none" />
    <path d="M 1837 48  L 1883 48  L 1883 74  L 1837 74  L 1837 48  " fill-rule="nonzero" fill="#ffffff" stroke="none" />
    <path d="M 1863.25 55  C 1861.99 55  1861 54.01  1861 52.75  C 1861 51.49  1861.99 50.5  1863.25 50.5  C 1864.51 50.5  1865.5 51.49  1865.5 52.75  C 1865.5 54.01  1864.51 55  1863.25 55  " fill-rule="nonzero" fill="#cccccc" stroke="none" />
    <path d="M 1838 73  L 1838 59.8  L 1849 53.8  L 1864.4 64.36  L 1873.2 57.4  L 1882 64.36  L 1882 73  L 1838 73  " fill-rule="nonzero" fill="#169bd5" stroke="none" />
  </g>
</svg>