<?xml version="1.0" encoding="utf-8"?>
<svg version="1.1" xmlns:xlink="http://www.w3.org/1999/xlink" width="16px" height="16px" viewBox="90 150  16 16" xmlns="http://www.w3.org/2000/svg">
  <path d="M 98 150  C 102.48 150  106 153.52  106 158  C 106 162.48  102.48 166  98 166  C 93.52 166  90 162.48  90 158  C 90 153.52  93.52 150  98 150  Z " fill-rule="nonzero" fill="#ffffff" stroke="none" />
  <path d="M 98 150.5  C 102.2 150.5  105.5 153.8  105.5 158  C 105.5 162.2  102.2 165.5  98 165.5  C 93.8 165.5  90.5 162.2  90.5 158  C 90.5 153.8  93.8 150.5  98 150.5  Z " stroke-width="1" stroke="#7b4d12" fill="none" />
  <path d="M 98 162  C 95.76 162  94 160.24  94 158  C 94 155.76  95.76 154  98 154  C 100.24 154  102 155.76  102 158  C 102 160.24  100.24 162  98 162  " fill-rule="nonzero" fill="#7b4d12" stroke="none" />
</svg>