<?xml version="1.0" encoding="utf-8"?>
<svg version="1.1" xmlns:xlink="http://www.w3.org/1999/xlink" width="16px" height="16px" viewBox="90 119  16 16" xmlns="http://www.w3.org/2000/svg">
  <path d="M 98 119  C 102.48 119  106 122.52  106 127  C 106 131.48  102.48 135  98 135  C 93.52 135  90 131.48  90 127  C 90 122.52  93.52 119  98 119  Z " fill-rule="nonzero" fill="#ffffff" stroke="none" />
  <path d="M 98 119.5  C 102.2 119.5  105.5 122.8  105.5 127  C 105.5 131.2  102.2 134.5  98 134.5  C 93.8 134.5  90.5 131.2  90.5 127  C 90.5 122.8  93.8 119.5  98 119.5  Z " stroke-width="1" stroke="#7b4d12" fill="none" />
  <path d="M 98 131  C 95.76 131  94 129.24  94 127  C 94 124.76  95.76 123  98 123  C 100.24 123  102 124.76  102 127  C 102 129.24  100.24 131  98 131  " fill-rule="nonzero" fill="#7b4d12" stroke="none" />
</svg>