<?xml version="1.0" encoding="utf-8"?>
<svg version="1.1" xmlns:xlink="http://www.w3.org/1999/xlink" width="16px" height="16px" viewBox="150 119  16 16" xmlns="http://www.w3.org/2000/svg">
  <path d="M 158 119  C 162.48 119  166 122.52  166 127  C 166 131.48  162.48 135  158 135  C 153.52 135  150 131.48  150 127  C 150 122.52  153.52 119  158 119  Z " fill-rule="nonzero" fill="#f0f0f0" stroke="none" />
  <path d="M 158 119.5  C 162.2 119.5  165.5 122.8  165.5 127  C 165.5 131.2  162.2 134.5  158 134.5  C 153.8 134.5  150.5 131.2  150.5 127  C 150.5 122.8  153.8 119.5  158 119.5  Z " stroke-width="1" stroke="#8c8c8c" fill="none" />
  <path d="M 158 131  C 155.76 131  154 129.24  154 127  C 154 124.76  155.76 123  158 123  C 160.24 123  162 124.76  162 127  C 162 129.24  160.24 131  158 131  " fill-rule="nonzero" fill="#8c8c8c" stroke="none" />
</svg>