<?xml version="1.0" encoding="utf-8"?>
<svg version="1.1" xmlns:xlink="http://www.w3.org/1999/xlink" width="16px" height="16px" viewBox="210 119  16 16" xmlns="http://www.w3.org/2000/svg">
  <path d="M 218 119  C 222.48 119  226 122.52  226 127  C 226 131.48  222.48 135  218 135  C 213.52 135  210 131.48  210 127  C 210 122.52  213.52 119  218 119  Z " fill-rule="nonzero" fill="#f0f0f0" stroke="none" />
  <path d="M 218 119.5  C 222.2 119.5  225.5 122.8  225.5 127  C 225.5 131.2  222.2 134.5  218 134.5  C 213.8 134.5  210.5 131.2  210.5 127  C 210.5 122.8  213.8 119.5  218 119.5  Z " stroke-width="1" stroke="#8c8c8c" fill="none" />
  <path d="M 218 131  C 215.76 131  214 129.24  214 127  C 214 124.76  215.76 123  218 123  C 220.24 123  222 124.76  222 127  C 222 129.24  220.24 131  218 131  " fill-rule="nonzero" fill="#8c8c8c" stroke="none" />
</svg>