<?xml version="1.0" encoding="utf-8"?>
<svg version="1.1" xmlns:xlink="http://www.w3.org/1999/xlink" width="16px" height="16px" viewBox="90 83  16 16" xmlns="http://www.w3.org/2000/svg">
  <path d="M 98 83  C 102.48 83  106 86.52  106 91  C 106 95.48  102.48 99  98 99  C 93.52 99  90 95.48  90 91  C 90 86.52  93.52 83  98 83  Z " fill-rule="nonzero" fill="#ffffff" stroke="none" />
  <path d="M 98 83.5  C 102.2 83.5  105.5 86.8  105.5 91  C 105.5 95.2  102.2 98.5  98 98.5  C 93.8 98.5  90.5 95.2  90.5 91  C 90.5 86.8  93.8 83.5  98 83.5  Z " stroke-width="1" stroke="#7b4d12" fill="none" />
  <path d="M 98 95  C 95.76 95  94 93.24  94 91  C 94 88.76  95.76 87  98 87  C 100.24 87  102 88.76  102 91  C 102 93.24  100.24 95  98 95  " fill-rule="nonzero" fill="#7b4d12" stroke="none" />
</svg>