<?xml version="1.0" encoding="utf-8"?>
<svg version="1.1" xmlns:xlink="http://www.w3.org/1999/xlink" width="16px" height="16px" viewBox="150 83  16 16" xmlns="http://www.w3.org/2000/svg">
  <path d="M 158 83  C 162.48 83  166 86.52  166 91  C 166 95.48  162.48 99  158 99  C 153.52 99  150 95.48  150 91  C 150 86.52  153.52 83  158 83  Z " fill-rule="nonzero" fill="#ffffff" stroke="none" />
  <path d="M 158 83.5  C 162.2 83.5  165.5 86.8  165.5 91  C 165.5 95.2  162.2 98.5  158 98.5  C 153.8 98.5  150.5 95.2  150.5 91  C 150.5 86.8  153.8 83.5  158 83.5  Z " stroke-width="1" stroke="#7b4d12" fill="none" />
  <path d="M 158 95  C 155.76 95  154 93.24  154 91  C 154 88.76  155.76 87  158 87  C 160.24 87  162 88.76  162 91  C 162 93.24  160.24 95  158 95  " fill-rule="nonzero" fill="#7b4d12" stroke="none" />
</svg>