<?xml version="1.0" encoding="utf-8"?>
<svg version="1.1" xmlns:xlink="http://www.w3.org/1999/xlink" width="16px" height="16px" viewBox="270 119  16 16" xmlns="http://www.w3.org/2000/svg">
  <path d="M 278 119  C 282.48 119  286 122.52  286 127  C 286 131.48  282.48 135  278 135  C 273.52 135  270 131.48  270 127  C 270 122.52  273.52 119  278 119  Z " fill-rule="nonzero" fill="#f0f0f0" stroke="none" />
  <path d="M 278 119.5  C 282.2 119.5  285.5 122.8  285.5 127  C 285.5 131.2  282.2 134.5  278 134.5  C 273.8 134.5  270.5 131.2  270.5 127  C 270.5 122.8  273.8 119.5  278 119.5  Z " stroke-width="1" stroke="#8c8c8c" fill="none" />
  <path d="M 278 131  C 275.76 131  274 129.24  274 127  C 274 124.76  275.76 123  278 123  C 280.24 123  282 124.76  282 127  C 282 129.24  280.24 131  278 131  " fill-rule="nonzero" fill="#8c8c8c" stroke="none" />
</svg>