<?xml version="1.0" encoding="utf-8"?>
<svg version="1.1" xmlns:xlink="http://www.w3.org/1999/xlink" width="18px" height="15px" xmlns="http://www.w3.org/2000/svg">
  <g transform="matrix(1 0 0 1 -192 -1077 )">
    <path d="M 17.666015625 0.494791666666667  C 17.888671875 0.824652777777775  18 1.21527777777777  18 1.66666666666667  C 18 2.11805555555555  17.888671875 2.50868055555555  17.666015625 2.83854166666667  L 9.791015625 14.5052083333333  C 9.568359375 14.8350694444444  9.3046875 15  9 15  C 8.6953125 15  8.431640625 14.8350694444444  8.208984375 14.5052083333333  L 0.333984375 2.83854166666667  C 0.111328125 2.50868055555555  0 2.11805555555555  0 1.66666666666667  C 0 1.21527777777777  0.111328125 0.824652777777775  0.333984375 0.494791666666667  C 0.556640625 0.164930555555554  0.8203125 0  1.125 0  L 16.875 0  C 17.1796875 0  17.443359375 0.164930555555554  17.666015625 0.494791666666667  Z " fill-rule="nonzero" fill="#70b603" stroke="none" transform="matrix(1 0 0 1 192 1077 )" />
  </g>
</svg>