<?xml version="1.0" encoding="utf-8"?>
<svg version="1.1" xmlns:xlink="http://www.w3.org/1999/xlink" width="60px" height="32px" xmlns="http://www.w3.org/2000/svg">
  <defs>
    <mask fill="white" id="clip4">
      <path d="M 0 30  L 0 2  C 0 0.879999999999995  0.527999999999997 0  1.2 0  L 58.8 0  C 59.472 0  60 0.879999999999995  60 2  L 60 30  C 60 31.12  59.472 32  58.8 32  L 31.2 32  L 1.2 32  C 0.527999999999997 32  0 31.12  0 30  Z " fill-rule="evenodd" />
    </mask>
  </defs>
  <g transform="matrix(1 0 0 1 -1280 -201 )">
    <path d="M 0 30  L 0 2  C 0 0.879999999999995  0.527999999999997 0  1.2 0  L 58.8 0  C 59.472 0  60 0.879999999999995  60 2  L 60 30  C 60 31.12  59.472 32  58.8 32  L 31.2 32  L 1.2 32  C 0.527999999999997 32  0 31.12  0 30  Z " fill-rule="nonzero" fill="#d3d3d3" stroke="none" transform="matrix(1 0 0 1 1280 201 )" />
    <path d="M 0 30  L 0 2  C 0 0.879999999999995  0.527999999999997 0  1.2 0  L 58.8 0  C 59.472 0  60 0.879999999999995  60 2  L 60 30  C 60 31.12  59.472 32  58.8 32  L 31.2 32  L 1.2 32  C 0.527999999999997 32  0 31.12  0 30  Z " stroke-width="2" stroke="#3399ff" fill="none" transform="matrix(1 0 0 1 1280 201 )" mask="url(#clip4)" />
  </g>
</svg>