<?xml version="1.0" encoding="utf-8"?>
<svg version="1.1" xmlns:xlink="http://www.w3.org/1999/xlink" width="30px" height="30px" xmlns="http://www.w3.org/2000/svg">
  <g transform="matrix(1 0 0 1 -1370 -15 )">
    <path d="M 13.1610576923077 17.1732954545455  C 13.6177884615385 17.7130681818182  13.8461538461538 18.3522727272727  13.8461538461538 19.0909090909091  L 13.8461538461538 27.2727272727273  C 13.8461538461538 28.0113636363636  13.6177884615385 28.6505681818182  13.1610576923077 29.1903409090909  C 12.7043269230769 29.7301136363636  12.1634615384615 30  11.5384615384615 30  L 2.30769230769231 30  C 1.68269230769231 30  1.14182692307692 29.7301136363636  0.685096153846154 29.1903409090909  C 0.228365384615385 28.6505681818182  0 28.0113636363636  0 27.2727272727273  L 0 19.0909090909091  C 0 18.3522727272727  0.228365384615385 17.7130681818182  0.685096153846154 17.1732954545455  C 1.14182692307692 16.6335227272727  1.68269230769231 16.3636363636364  2.30769230769231 16.3636363636364  L 11.5384615384615 16.3636363636364  C 12.1634615384615 16.3636363636364  12.7043269230769 16.6335227272727  13.1610576923077 17.1732954545455  Z M 13.1610576923077 0.809659090909091  C 13.6177884615385 1.34943181818182  13.8461538461538 1.98863636363636  13.8461538461538 2.72727272727273  L 13.8461538461538 10.9090909090909  C 13.8461538461538 11.6477272727273  13.6177884615385 12.2869318181818  13.1610576923077 12.8267045454545  C 12.7043269230769 13.3664772727273  12.1634615384615 13.6363636363636  11.5384615384615 13.6363636363636  L 2.30769230769231 13.6363636363636  C 1.68269230769231 13.6363636363636  1.14182692307692 13.3664772727273  0.685096153846154 12.8267045454545  C 0.228365384615385 12.2869318181818  0 11.6477272727273  0 10.9090909090909  L 0 2.72727272727273  C 0 1.98863636363636  0.228365384615385 1.34943181818182  0.685096153846154 0.809659090909091  C 1.14182692307692 0.269886363636361  1.68269230769231 0  2.30769230769231 0  L 11.5384615384615 0  C 12.1634615384615 0  12.7043269230769 0.269886363636361  13.1610576923077 0.809659090909091  Z M 29.3149038461538 17.1732954545455  C 29.7716346153846 17.7130681818182  30 18.3522727272727  30 19.0909090909091  L 30 27.2727272727273  C 30 28.0113636363636  29.7716346153846 28.6505681818182  29.3149038461538 29.1903409090909  C 28.8581730769231 29.7301136363636  28.3173076923077 30  27.6923076923077 30  L 18.4615384615385 30  C 17.8365384615385 30  17.2956730769231 29.7301136363636  16.8389423076923 29.1903409090909  C 16.3822115384615 28.6505681818182  16.1538461538462 28.0113636363636  16.1538461538462 27.2727272727273  L 16.1538461538462 19.0909090909091  C 16.1538461538462 18.3522727272727  16.3822115384615 17.7130681818182  16.8389423076923 17.1732954545455  C 17.2956730769231 16.6335227272727  17.8365384615385 16.3636363636364  18.4615384615385 16.3636363636364  L 27.6923076923077 16.3636363636364  C 28.3173076923077 16.3636363636364  28.8581730769231 16.6335227272727  29.3149038461538 17.1732954545455  Z M 29.3149038461538 0.809659090909091  C 29.7716346153846 1.34943181818182  30 1.98863636363636  30 2.72727272727273  L 30 10.9090909090909  C 30 11.6477272727273  29.7716346153846 12.2869318181818  29.3149038461538 12.8267045454545  C 28.8581730769231 13.3664772727273  28.3173076923077 13.6363636363636  27.6923076923077 13.6363636363636  L 18.4615384615385 13.6363636363636  C 17.8365384615385 13.6363636363636  17.2956730769231 13.3664772727273  16.8389423076923 12.8267045454545  C 16.3822115384615 12.2869318181818  16.1538461538462 11.6477272727273  16.1538461538462 10.9090909090909  L 16.1538461538462 2.72727272727273  C 16.1538461538462 1.98863636363636  16.3822115384615 1.34943181818182  16.8389423076923 0.809659090909091  C 17.2956730769231 0.269886363636361  17.8365384615385 0  18.4615384615385 0  L 27.6923076923077 0  C 28.3173076923077 0  28.8581730769231 0.269886363636361  29.3149038461538 0.809659090909091  Z " fill-rule="nonzero" fill="#000000" stroke="none" transform="matrix(1 0 0 1 1370 15 )" />
  </g>
</svg>