<?xml version="1.0" encoding="utf-8"?>
<svg version="1.1" xmlns:xlink="http://www.w3.org/1999/xlink" width="16px" height="16px" viewBox="356 153  16 16" xmlns="http://www.w3.org/2000/svg">
  <path d="M 364 153  C 368.48 153  372 156.52  372 161  C 372 165.48  368.48 169  364 169  C 359.52 169  356 165.48  356 161  C 356 156.52  359.52 153  364 153  Z " fill-rule="nonzero" fill="#ffffff" stroke="none" />
  <path d="M 364 153.5  C 368.2 153.5  371.5 156.8  371.5 161  C 371.5 165.2  368.2 168.5  364 168.5  C 359.8 168.5  356.5 165.2  356.5 161  C 356.5 156.8  359.8 153.5  364 153.5  Z " stroke-width="1" stroke="#8c8c8c" fill="none" />
  <path d="M 364 165  C 361.76 165  360 163.24  360 161  C 360 158.76  361.76 157  364 157  C 366.24 157  368 158.76  368 161  C 368 163.24  366.24 165  364 165  " fill-rule="nonzero" fill="#8c8c8c" stroke="none" />
</svg>