<?xml version="1.0" encoding="utf-8"?>
<svg version="1.1" xmlns:xlink="http://www.w3.org/1999/xlink" width="40px" height="40px" xmlns="http://www.w3.org/2000/svg">
  <g transform="matrix(1 0 0 1 -1486 -15 )">
    <path d="M 24.7135416666667 24.7135416666667  C 26.015625 23.4114583333333  26.6666666666667 21.8402777777778  26.6666666666667 20  C 26.6666666666667 18.1597222222222  26.015625 16.5885416666667  24.7135416666667 15.2864583333333  C 23.4114583333333 13.984375  21.8402777777778 13.3333333333333  20 13.3333333333333  C 18.1597222222222 13.3333333333333  16.5885416666667 13.984375  15.2864583333333 15.2864583333333  C 13.984375 16.5885416666667  13.3333333333333 18.1597222222222  13.3333333333333 20  C 13.3333333333333 21.8402777777778  13.984375 23.4114583333333  15.2864583333333 24.7135416666667  C 16.5885416666667 26.015625  18.1597222222222 26.6666666666667  20 26.6666666666667  C 21.8402777777778 26.6666666666667  23.4114583333333 26.015625  24.7135416666667 24.7135416666667  Z M 39.7916666666667 16.5494791666667  C 39.9305555555556 16.7317708333333  40 16.9357638888889  40 17.1614583333333  L 40 22.9427083333333  C 40 23.1510416666667  39.9305555555556 23.3506944444444  39.7916666666667 23.5416666666667  C 39.6527777777778 23.7326388888889  39.4791666666667 23.8454861111111  39.2708333333333 23.8802083333333  L 34.453125 24.609375  C 34.1232638888889 25.546875  33.7847222222222 26.3368055555556  33.4375 26.9791666666667  C 34.0451388888889 27.8472222222222  34.9739583333333 29.0451388888889  36.2239583333333 30.5729166666667  C 36.3975694444444 30.78125  36.484375 30.9982638888889  36.484375 31.2239583333333  C 36.484375 31.4496527777778  36.40625 31.6493055555556  36.25 31.8229166666667  C 35.78125 32.4652777777778  34.921875 33.4027777777778  33.671875 34.6354166666667  C 32.421875 35.8680555555556  31.6059027777778 36.484375  31.2239583333333 36.484375  C 31.015625 36.484375  30.7899305555556 36.40625  30.546875 36.25  L 26.953125 33.4375  C 26.1892361111111 33.8368055555556  25.3993055555556 34.1666666666667  24.5833333333333 34.4270833333333  C 24.3055555555556 36.7881944444444  24.0538194444444 38.4027777777778  23.828125 39.2708333333333  C 23.7065972222222 39.7569444444444  23.3940972222222 40  22.890625 40  L 17.109375 40  C 16.8663194444444 40  16.6536458333333 39.9262152777778  16.4713541666667 39.7786458333333  C 16.2890625 39.6310763888889  16.1892361111111 39.4444444444444  16.171875 39.21875  L 15.4427083333333 34.4270833333333  C 14.5920138888889 34.1493055555556  13.8107638888889 33.828125  13.0989583333333 33.4635416666667  L 9.42708333333333 36.25  C 9.25347222222222 36.40625  9.03645833333333 36.484375  8.77604166666667 36.484375  C 8.53298611111111 36.484375  8.31597222222222 36.3888888888889  8.125 36.1979166666667  C 5.9375 34.21875  4.50520833333333 32.7604166666667  3.828125 31.8229166666667  C 3.70659722222222 31.6493055555556  3.64583333333333 31.4496527777778  3.64583333333333 31.2239583333333  C 3.64583333333333 31.015625  3.71527777777778 30.8159722222222  3.85416666666667 30.625  C 4.11458333333333 30.2604166666667  4.55729166666667 29.6831597222222  5.18229166666667 28.8932291666667  C 5.80729166666667 28.1032986111111  6.27604166666667 27.4913194444444  6.58854166666667 27.0572916666667  C 6.11979166666667 26.1892361111111  5.76388888888889 25.3298611111111  5.52083333333333 24.4791666666667  L 0.755208333333333 23.7760416666667  C 0.529513888888889 23.7413194444444  0.347222222222222 23.6328125  0.208333333333333 23.4505208333333  C 0.0694444444444444 23.2682291666667  0 23.0642361111111  0 22.8385416666667  L 0 17.0572916666667  C 0 16.8489583333333  0.0694444444444444 16.6493055555556  0.208333333333333 16.4583333333333  C 0.347222222222222 16.2673611111111  0.512152777777778 16.1545138888889  0.703125 16.1197916666667  L 5.546875 15.390625  C 5.78993055555556 14.5920138888889  6.12847222222222 13.7934027777778  6.5625 12.9947916666667  C 5.86805555555556 12.0052083333333  4.93923611111111 10.8072916666667  3.77604166666667 9.40104166666666  C 3.60243055555556 9.19270833333334  3.515625 8.984375  3.515625 8.77604166666666  C 3.515625 8.60243055555555  3.59375 8.40277777777777  3.75 8.17708333333334  C 4.20138888888889 7.55208333333333  5.05642361111111 6.61892361111111  6.31510416666667 5.37760416666667  C 7.57378472222222 4.13628472222222  8.39409722222222 3.515625  8.77604166666667 3.515625  C 9.00173611111111 3.515625  9.22743055555556 3.60243055555555  9.453125 3.77604166666667  L 13.046875 6.5625  C 13.8107638888889 6.16319444444444  14.6006944444444 5.83333333333333  15.4166666666667 5.57291666666667  C 15.6944444444444 3.21180555555555  15.9461805555556 1.59722222222222  16.171875 0.729166666666665  C 16.2934027777778 0.243055555555554  16.6059027777778 0  17.109375 0  L 22.890625 0  C 23.1336805555556 0  23.3463541666667 0.0737847222222188  23.5286458333333 0.221354166666665  C 23.7109375 0.368923611111107  23.8107638888889 0.555555555555554  23.828125 0.78125  L 24.5572916666667 5.57291666666667  C 25.4079861111111 5.85069444444444  26.1892361111111 6.171875  26.9010416666667 6.53645833333333  L 30.5989583333333 3.75  C 30.7552083333333 3.59375  30.9635416666667 3.515625  31.2239583333333 3.515625  C 31.4496527777778 3.515625  31.6666666666667 3.60243055555555  31.875 3.77604166666667  C 34.1145833333333 5.84201388888889  35.546875 7.31770833333333  36.171875 8.203125  C 36.2934027777778 8.34201388888889  36.3541666666667 8.53298611111111  36.3541666666667 8.77604166666666  C 36.3541666666667 8.984375  36.2847222222222 9.18402777777777  36.1458333333333 9.375  C 35.8854166666667 9.73958333333334  35.4427083333333 10.3168402777778  34.8177083333333 11.1067708333333  C 34.1927083333333 11.8967013888889  33.7239583333333 12.5086805555556  33.4114583333333 12.9427083333333  C 33.8628472222222 13.8107638888889  34.21875 14.6614583333333  34.4791666666667 15.4947916666667  L 39.2447916666667 16.2239583333333  C 39.4704861111111 16.2586805555556  39.6527777777778 16.3671875  39.7916666666667 16.5494791666667  Z " fill-rule="nonzero" fill="#000000" stroke="none" transform="matrix(1 0 0 1 1486 15 )" />
  </g>
</svg>