<?xml version="1.0" encoding="utf-8"?>
<svg version="1.1" xmlns:xlink="http://www.w3.org/1999/xlink" width="16px" height="16px" viewBox="120 147  16 16" xmlns="http://www.w3.org/2000/svg">
  <path d="M 128 147  C 132.48 147  136 150.52  136 155  C 136 159.48  132.48 163  128 163  C 123.52 163  120 159.48  120 155  C 120 150.52  123.52 147  128 147  Z " fill-rule="nonzero" fill="#f0f0f0" stroke="none" />
  <path d="M 128 147.5  C 132.2 147.5  135.5 150.8  135.5 155  C 135.5 159.2  132.2 162.5  128 162.5  C 123.8 162.5  120.5 159.2  120.5 155  C 120.5 150.8  123.8 147.5  128 147.5  Z " stroke-width="1" stroke="#8c8c8c" fill="none" />
  <path d="M 128 159  C 125.76 159  124 157.24  124 155  C 124 152.76  125.76 151  128 151  C 130.24 151  132 152.76  132 155  C 132 157.24  130.24 159  128 159  " fill-rule="nonzero" fill="#8c8c8c" stroke="none" />
</svg>