<?xml version="1.0" encoding="utf-8"?>
<svg version="1.1" xmlns:xlink="http://www.w3.org/1999/xlink" width="16px" height="16px" viewBox="212 147  16 16" xmlns="http://www.w3.org/2000/svg">
  <path d="M 220 147  C 224.48 147  228 150.52  228 155  C 228 159.48  224.48 163  220 163  C 215.52 163  212 159.48  212 155  C 212 150.52  215.52 147  220 147  Z " fill-rule="nonzero" fill="#ffffff" stroke="none" />
  <path d="M 220 147.5  C 224.2 147.5  227.5 150.8  227.5 155  C 227.5 159.2  224.2 162.5  220 162.5  C 215.8 162.5  212.5 159.2  212.5 155  C 212.5 150.8  215.8 147.5  220 147.5  Z " stroke-width="1" stroke="#8c8c8c" fill="none" />
  <path d="M 220 159  C 217.76 159  216 157.24  216 155  C 216 152.76  217.76 151  220 151  C 222.24 151  224 152.76  224 155  C 224 157.24  222.24 159  220 159  " fill-rule="nonzero" fill="#8c8c8c" stroke="none" />
</svg>