<?xml version="1.0" encoding="utf-8"?>
<svg version="1.1" xmlns:xlink="http://www.w3.org/1999/xlink" width="40px" height="30px" xmlns="http://www.w3.org/2000/svg">
  <g transform="matrix(1 0 0 1 -534 -315 )">
    <path d="M 534 315  L 574 315  L 574 345  L 534 345  L 534 315  " fill-rule="nonzero" fill="#cccccc" stroke="none" />
    <path d="M 536 317  L 572 317  L 572 343  L 536 343  L 536 317  " fill-rule="nonzero" fill="#ffffff" stroke="none" />
    <path d="M 557.05 324  C 555.79 324  554.8 323.01  554.8 321.75  C 554.8 320.49  555.79 319.5  557.05 319.5  C 558.31 319.5  559.3 320.49  559.3 321.75  C 559.3 323.01  558.31 324  557.05 324  " fill-rule="nonzero" fill="#cccccc" stroke="none" />
    <path d="M 537 342  L 537 328.8  L 545.5 322.8  L 557.4 331.2  L 564.2 326.4  L 571 331.2  L 571 342  L 537 342  " fill-rule="nonzero" fill="#169bd5" stroke="none" />
  </g>
</svg>