<?xml version="1.0" encoding="utf-8"?>
<svg version="1.1" xmlns:xlink="http://www.w3.org/1999/xlink" width="16px" height="16px" viewBox="350 442  16 16" xmlns="http://www.w3.org/2000/svg">
  <path d="M 358 442  C 362.48 442  366 445.52  366 450  C 366 454.48  362.48 458  358 458  C 353.52 458  350 454.48  350 450  C 350 445.52  353.52 442  358 442  Z " fill-rule="nonzero" fill="#f0f0f0" stroke="none" />
  <path d="M 358 442.5  C 362.2 442.5  365.5 445.8  365.5 450  C 365.5 454.2  362.2 457.5  358 457.5  C 353.8 457.5  350.5 454.2  350.5 450  C 350.5 445.8  353.8 442.5  358 442.5  Z " stroke-width="1" stroke="#8c8c8c" fill="none" />
  <path d="M 358 454  C 355.76 454  354 452.24  354 450  C 354 447.76  355.76 446  358 446  C 360.24 446  362 447.76  362 450  C 362 452.24  360.24 454  358 454  " fill-rule="nonzero" fill="#8c8c8c" stroke="none" />
</svg>