<?xml version="1.0" encoding="utf-8"?>
<svg version="1.1" xmlns:xlink="http://www.w3.org/1999/xlink" width="16px" height="16px" viewBox="290 442  16 16" xmlns="http://www.w3.org/2000/svg">
  <path d="M 298 442  C 302.48 442  306 445.52  306 450  C 306 454.48  302.48 458  298 458  C 293.52 458  290 454.48  290 450  C 290 445.52  293.52 442  298 442  Z " fill-rule="nonzero" fill="#ffffff" stroke="none" />
  <path d="M 298 442.5  C 302.2 442.5  305.5 445.8  305.5 450  C 305.5 454.2  302.2 457.5  298 457.5  C 293.8 457.5  290.5 454.2  290.5 450  C 290.5 445.8  293.8 442.5  298 442.5  Z " stroke-width="1" stroke="#7b4d12" fill="none" />
  <path d="M 298 454  C 295.76 454  294 452.24  294 450  C 294 447.76  295.76 446  298 446  C 300.24 446  302 447.76  302 450  C 302 452.24  300.24 454  298 454  " fill-rule="nonzero" fill="#7b4d12" stroke="none" />
</svg>