<?xml version="1.0" encoding="utf-8"?>
<svg version="1.1" xmlns:xlink="http://www.w3.org/1999/xlink" width="16px" height="16px" viewBox="647 880  16 16" xmlns="http://www.w3.org/2000/svg">
  <path d="M 655 880  C 659.48 880  663 883.52  663 888  C 663 892.48  659.48 896  655 896  C 650.52 896  647 892.48  647 888  C 647 883.52  650.52 880  655 880  Z " fill-rule="nonzero" fill="#ffffff" stroke="none" />
  <path d="M 655 880.5  C 659.2 880.5  662.5 883.8  662.5 888  C 662.5 892.2  659.2 895.5  655 895.5  C 650.8 895.5  647.5 892.2  647.5 888  C 647.5 883.8  650.8 880.5  655 880.5  Z " stroke-width="1" stroke="#7b4d12" fill="none" />
  <path d="M 655 892  C 652.76 892  651 890.24  651 888  C 651 885.76  652.76 884  655 884  C 657.24 884  659 885.76  659 888  C 659 890.24  657.24 892  655 892  " fill-rule="nonzero" fill="#7b4d12" stroke="none" />
</svg>