<?xml version="1.0" encoding="utf-8"?>
<svg version="1.1" xmlns:xlink="http://www.w3.org/1999/xlink" width="16px" height="16px" viewBox="587 880  16 16" xmlns="http://www.w3.org/2000/svg">
  <path d="M 595 880  C 599.48 880  603 883.52  603 888  C 603 892.48  599.48 896  595 896  C 590.52 896  587 892.48  587 888  C 587 883.52  590.52 880  595 880  Z " fill-rule="nonzero" fill="#f0f0f0" stroke="none" />
  <path d="M 595 880.5  C 599.2 880.5  602.5 883.8  602.5 888  C 602.5 892.2  599.2 895.5  595 895.5  C 590.8 895.5  587.5 892.2  587.5 888  C 587.5 883.8  590.8 880.5  595 880.5  Z " stroke-width="1" stroke="#8c8c8c" fill="none" />
  <path d="M 595 892  C 592.76 892  591 890.24  591 888  C 591 885.76  592.76 884  595 884  C 597.24 884  599 885.76  599 888  C 599 890.24  597.24 892  595 892  " fill-rule="nonzero" fill="#8c8c8c" stroke="none" />
</svg>