<?xml version="1.0" encoding="utf-8"?>
<svg version="1.1" xmlns:xlink="http://www.w3.org/1999/xlink" width="16px" height="16px" viewBox="587 1004  16 16" xmlns="http://www.w3.org/2000/svg">
  <path d="M 595 1004  C 599.48 1004  603 1007.52  603 1012  C 603 1016.48  599.48 1020  595 1020  C 590.52 1020  587 1016.48  587 1012  C 587 1007.52  590.52 1004  595 1004  Z " fill-rule="nonzero" fill="#f0f0f0" stroke="none" />
  <path d="M 595 1004.5  C 599.2 1004.5  602.5 1007.8  602.5 1012  C 602.5 1016.2  599.2 1019.5  595 1019.5  C 590.8 1019.5  587.5 1016.2  587.5 1012  C 587.5 1007.8  590.8 1004.5  595 1004.5  Z " stroke-width="1" stroke="#8c8c8c" fill="none" />
  <path d="M 595 1016  C 592.76 1016  591 1014.24  591 1012  C 591 1009.76  592.76 1008  595 1008  C 597.24 1008  599 1009.76  599 1012  C 599 1014.24  597.24 1016  595 1016  " fill-rule="nonzero" fill="#8c8c8c" stroke="none" />
</svg>