<?xml version="1.0" encoding="utf-8"?>
<svg version="1.1" xmlns:xlink="http://www.w3.org/1999/xlink" width="16px" height="16px" viewBox="647 1080  16 16" xmlns="http://www.w3.org/2000/svg">
  <path d="M 655 1080  C 659.48 1080  663 1083.52  663 1088  C 663 1092.48  659.48 1096  655 1096  C 650.52 1096  647 1092.48  647 1088  C 647 1083.52  650.52 1080  655 1080  Z " fill-rule="nonzero" fill="#f0f0f0" stroke="none" />
  <path d="M 655 1080.5  C 659.2 1080.5  662.5 1083.8  662.5 1088  C 662.5 1092.2  659.2 1095.5  655 1095.5  C 650.8 1095.5  647.5 1092.2  647.5 1088  C 647.5 1083.8  650.8 1080.5  655 1080.5  Z " stroke-width="1" stroke="#8c8c8c" fill="none" />
  <path d="M 655 1092  C 652.76 1092  651 1090.24  651 1088  C 651 1085.76  652.76 1084  655 1084  C 657.24 1084  659 1085.76  659 1088  C 659 1090.24  657.24 1092  655 1092  " fill-rule="nonzero" fill="#8c8c8c" stroke="none" />
</svg>