<?xml version="1.0" encoding="utf-8"?>
<svg version="1.1" xmlns:xlink="http://www.w3.org/1999/xlink" width="16px" height="16px" viewBox="727 1080  16 16" xmlns="http://www.w3.org/2000/svg">
  <path d="M 735 1080  C 739.48 1080  743 1083.52  743 1088  C 743 1092.48  739.48 1096  735 1096  C 730.52 1096  727 1092.48  727 1088  C 727 1083.52  730.52 1080  735 1080  Z " fill-rule="nonzero" fill="#ffffff" stroke="none" />
  <path d="M 735 1080.5  C 739.2 1080.5  742.5 1083.8  742.5 1088  C 742.5 1092.2  739.2 1095.5  735 1095.5  C 730.8 1095.5  727.5 1092.2  727.5 1088  C 727.5 1083.8  730.8 1080.5  735 1080.5  Z " stroke-width="1" stroke="#7b4d12" fill="none" />
  <path d="M 735 1092  C 732.76 1092  731 1090.24  731 1088  C 731 1085.76  732.76 1084  735 1084  C 737.24 1084  739 1085.76  739 1088  C 739 1090.24  737.24 1092  735 1092  " fill-rule="nonzero" fill="#7b4d12" stroke="none" />
</svg>