<?xml version="1.0" encoding="utf-8"?>
<svg version="1.1" xmlns:xlink="http://www.w3.org/1999/xlink" width="16px" height="16px" viewBox="647 1044  16 16" xmlns="http://www.w3.org/2000/svg">
  <path d="M 655 1044  C 659.48 1044  663 1047.52  663 1052  C 663 1056.48  659.48 1060  655 1060  C 650.52 1060  647 1056.48  647 1052  C 647 1047.52  650.52 1044  655 1044  Z " fill-rule="nonzero" fill="#ffffff" stroke="none" />
  <path d="M 655 1044.5  C 659.2 1044.5  662.5 1047.8  662.5 1052  C 662.5 1056.2  659.2 1059.5  655 1059.5  C 650.8 1059.5  647.5 1056.2  647.5 1052  C 647.5 1047.8  650.8 1044.5  655 1044.5  Z " stroke-width="1" stroke="#7b4d12" fill="none" />
  <path d="M 655 1056  C 652.76 1056  651 1054.24  651 1052  C 651 1049.76  652.76 1048  655 1048  C 657.24 1048  659 1049.76  659 1052  C 659 1054.24  657.24 1056  655 1056  " fill-rule="nonzero" fill="#7b4d12" stroke="none" />
</svg>