<?xml version="1.0" encoding="utf-8"?>
<svg version="1.1" xmlns:xlink="http://www.w3.org/1999/xlink" width="16px" height="16px" viewBox="587 1044  16 16" xmlns="http://www.w3.org/2000/svg">
  <path d="M 595 1044  C 599.48 1044  603 1047.52  603 1052  C 603 1056.48  599.48 1060  595 1060  C 590.52 1060  587 1056.48  587 1052  C 587 1047.52  590.52 1044  595 1044  Z " fill-rule="nonzero" fill="#ffffff" stroke="none" />
  <path d="M 595 1044.5  C 599.2 1044.5  602.5 1047.8  602.5 1052  C 602.5 1056.2  599.2 1059.5  595 1059.5  C 590.8 1059.5  587.5 1056.2  587.5 1052  C 587.5 1047.8  590.8 1044.5  595 1044.5  Z " stroke-width="1" stroke="#7b4d12" fill="none" />
  <path d="M 595 1056  C 592.76 1056  591 1054.24  591 1052  C 591 1049.76  592.76 1048  595 1048  C 597.24 1048  599 1049.76  599 1052  C 599 1054.24  597.24 1056  595 1056  " fill-rule="nonzero" fill="#7b4d12" stroke="none" />
</svg>