<?xml version="1.0" encoding="utf-8"?>
<svg version="1.1" xmlns:xlink="http://www.w3.org/1999/xlink" width="16px" height="16px" viewBox="887 1610  16 16" xmlns="http://www.w3.org/2000/svg">
  <path d="M 895 1610  C 899.48 1610  903 1613.52  903 1618  C 903 1622.48  899.48 1626  895 1626  C 890.52 1626  887 1622.48  887 1618  C 887 1613.52  890.52 1610  895 1610  Z " fill-rule="nonzero" fill="#f0f0f0" stroke="none" />
  <path d="M 895 1610.5  C 899.2 1610.5  902.5 1613.8  902.5 1618  C 902.5 1622.2  899.2 1625.5  895 1625.5  C 890.8 1625.5  887.5 1622.2  887.5 1618  C 887.5 1613.8  890.8 1610.5  895 1610.5  Z " stroke-width="1" stroke="#8c8c8c" fill="none" />
  <path d="M 895 1622  C 892.76 1622  891 1620.24  891 1618  C 891 1615.76  892.76 1614  895 1614  C 897.24 1614  899 1615.76  899 1618  C 899 1620.24  897.24 1622  895 1622  " fill-rule="nonzero" fill="#8c8c8c" stroke="none" />
</svg>