<?xml version="1.0" encoding="utf-8"?>
<svg version="1.1" xmlns:xlink="http://www.w3.org/1999/xlink" width="16px" height="16px" viewBox="887 1733  16 16" xmlns="http://www.w3.org/2000/svg">
  <path d="M 895 1733  C 899.48 1733  903 1736.52  903 1741  C 903 1745.48  899.48 1749  895 1749  C 890.52 1749  887 1745.48  887 1741  C 887 1736.52  890.52 1733  895 1733  Z " fill-rule="nonzero" fill="#ffffff" stroke="none" />
  <path d="M 895 1733.5  C 899.2 1733.5  902.5 1736.8  902.5 1741  C 902.5 1745.2  899.2 1748.5  895 1748.5  C 890.8 1748.5  887.5 1745.2  887.5 1741  C 887.5 1736.8  890.8 1733.5  895 1733.5  Z " stroke-width="1" stroke="#7b4d12" fill="none" />
  <path d="M 895 1745  C 892.76 1745  891 1743.24  891 1741  C 891 1738.76  892.76 1737  895 1737  C 897.24 1737  899 1738.76  899 1741  C 899 1743.24  897.24 1745  895 1745  " fill-rule="nonzero" fill="#7b4d12" stroke="none" />
</svg>