<?xml version="1.0" encoding="utf-8"?>
<svg version="1.1" xmlns:xlink="http://www.w3.org/1999/xlink" width="16px" height="16px" viewBox="947 1610  16 16" xmlns="http://www.w3.org/2000/svg">
  <path d="M 955 1610  C 959.48 1610  963 1613.52  963 1618  C 963 1622.48  959.48 1626  955 1626  C 950.52 1626  947 1622.48  947 1618  C 947 1613.52  950.52 1610  955 1610  Z " fill-rule="nonzero" fill="#ffffff" stroke="none" />
  <path d="M 955 1610.5  C 959.2 1610.5  962.5 1613.8  962.5 1618  C 962.5 1622.2  959.2 1625.5  955 1625.5  C 950.8 1625.5  947.5 1622.2  947.5 1618  C 947.5 1613.8  950.8 1610.5  955 1610.5  Z " stroke-width="1" stroke="#7b4d12" fill="none" />
  <path d="M 955 1622  C 952.76 1622  951 1620.24  951 1618  C 951 1615.76  952.76 1614  955 1614  C 957.24 1614  959 1615.76  959 1618  C 959 1620.24  957.24 1622  955 1622  " fill-rule="nonzero" fill="#7b4d12" stroke="none" />
</svg>