<?xml version="1.0" encoding="utf-8"?>
<svg version="1.1" xmlns:xlink="http://www.w3.org/1999/xlink" width="16px" height="16px" viewBox="887 1810  16 16" xmlns="http://www.w3.org/2000/svg">
  <path d="M 895 1810  C 899.48 1810  903 1813.52  903 1818  C 903 1822.48  899.48 1826  895 1826  C 890.52 1826  887 1822.48  887 1818  C 887 1813.52  890.52 1810  895 1810  Z " fill-rule="nonzero" fill="#ffffff" stroke="none" />
  <path d="M 895 1810.5  C 899.2 1810.5  902.5 1813.8  902.5 1818  C 902.5 1822.2  899.2 1825.5  895 1825.5  C 890.8 1825.5  887.5 1822.2  887.5 1818  C 887.5 1813.8  890.8 1810.5  895 1810.5  Z " stroke-width="1" stroke="#7b4d12" fill="none" />
  <path d="M 895 1822  C 892.76 1822  891 1820.24  891 1818  C 891 1815.76  892.76 1814  895 1814  C 897.24 1814  899 1815.76  899 1818  C 899 1820.24  897.24 1822  895 1822  " fill-rule="nonzero" fill="#7b4d12" stroke="none" />
</svg>