<?xml version="1.0" encoding="utf-8"?>
<svg version="1.1" xmlns:xlink="http://www.w3.org/1999/xlink" width="16px" height="16px" viewBox="290 2234  16 16" xmlns="http://www.w3.org/2000/svg">
  <path d="M 298 2234  C 302.48 2234  306 2237.52  306 2242  C 306 2246.48  302.48 2250  298 2250  C 293.52 2250  290 2246.48  290 2242  C 290 2237.52  293.52 2234  298 2234  Z " fill-rule="nonzero" fill="#ffffff" stroke="none" />
  <path d="M 298 2234.5  C 302.2 2234.5  305.5 2237.8  305.5 2242  C 305.5 2246.2  302.2 2249.5  298 2249.5  C 293.8 2249.5  290.5 2246.2  290.5 2242  C 290.5 2237.8  293.8 2234.5  298 2234.5  Z " stroke-width="1" stroke="#7b4d12" fill="none" />
  <path d="M 298 2246  C 295.76 2246  294 2244.24  294 2242  C 294 2239.76  295.76 2238  298 2238  C 300.24 2238  302 2239.76  302 2242  C 302 2244.24  300.24 2246  298 2246  " fill-rule="nonzero" fill="#7b4d12" stroke="none" />
</svg>