<?xml version="1.0" encoding="utf-8"?>
<svg version="1.1" xmlns:xlink="http://www.w3.org/1999/xlink" width="16px" height="16px" viewBox="1027 1810  16 16" xmlns="http://www.w3.org/2000/svg">
  <path d="M 1035 1810  C 1039.48 1810  1043 1813.52  1043 1818  C 1043 1822.48  1039.48 1826  1035 1826  C 1030.52 1826  1027 1822.48  1027 1818  C 1027 1813.52  1030.52 1810  1035 1810  Z " fill-rule="nonzero" fill="#ffffff" stroke="none" />
  <path d="M 1035 1810.5  C 1039.2 1810.5  1042.5 1813.8  1042.5 1818  C 1042.5 1822.2  1039.2 1825.5  1035 1825.5  C 1030.8 1825.5  1027.5 1822.2  1027.5 1818  C 1027.5 1813.8  1030.8 1810.5  1035 1810.5  Z " stroke-width="1" stroke="#7b4d12" fill="none" />
  <path d="M 1035 1822  C 1032.76 1822  1031 1820.24  1031 1818  C 1031 1815.76  1032.76 1814  1035 1814  C 1037.24 1814  1039 1815.76  1039 1818  C 1039 1820.24  1037.24 1822  1035 1822  " fill-rule="nonzero" fill="#7b4d12" stroke="none" />
</svg>