<?xml version="1.0" encoding="utf-8"?>
<svg version="1.1" xmlns:xlink="http://www.w3.org/1999/xlink" width="16px" height="16px" viewBox="947 1810  16 16" xmlns="http://www.w3.org/2000/svg">
  <path d="M 955 1810  C 959.48 1810  963 1813.52  963 1818  C 963 1822.48  959.48 1826  955 1826  C 950.52 1826  947 1822.48  947 1818  C 947 1813.52  950.52 1810  955 1810  Z " fill-rule="nonzero" fill="#ffffff" stroke="none" />
  <path d="M 955 1810.5  C 959.2 1810.5  962.5 1813.8  962.5 1818  C 962.5 1822.2  959.2 1825.5  955 1825.5  C 950.8 1825.5  947.5 1822.2  947.5 1818  C 947.5 1813.8  950.8 1810.5  955 1810.5  Z " stroke-width="1" stroke="#7b4d12" fill="none" />
  <path d="M 955 1822  C 952.76 1822  951 1820.24  951 1818  C 951 1815.76  952.76 1814  955 1814  C 957.24 1814  959 1815.76  959 1818  C 959 1820.24  957.24 1822  955 1822  " fill-rule="nonzero" fill="#7b4d12" stroke="none" />
</svg>