<?xml version="1.0" encoding="utf-8"?>
<svg version="1.1" xmlns:xlink="http://www.w3.org/1999/xlink" width="16px" height="16px" viewBox="887 1774  16 16" xmlns="http://www.w3.org/2000/svg">
  <path d="M 895 1774  C 899.48 1774  903 1777.52  903 1782  C 903 1786.48  899.48 1790  895 1790  C 890.52 1790  887 1786.48  887 1782  C 887 1777.52  890.52 1774  895 1774  Z " fill-rule="nonzero" fill="#f0f0f0" stroke="none" />
  <path d="M 895 1774.5  C 899.2 1774.5  902.5 1777.8  902.5 1782  C 902.5 1786.2  899.2 1789.5  895 1789.5  C 890.8 1789.5  887.5 1786.2  887.5 1782  C 887.5 1777.8  890.8 1774.5  895 1774.5  Z " stroke-width="1" stroke="#8c8c8c" fill="none" />
  <path d="M 895 1786  C 892.76 1786  891 1784.24  891 1782  C 891 1779.76  892.76 1778  895 1778  C 897.24 1778  899 1779.76  899 1782  C 899 1784.24  897.24 1786  895 1786  " fill-rule="nonzero" fill="#8c8c8c" stroke="none" />
</svg>