<?xml version="1.0" encoding="utf-8"?>
<svg version="1.1" xmlns:xlink="http://www.w3.org/1999/xlink" width="16px" height="16px" viewBox="350 2234  16 16" xmlns="http://www.w3.org/2000/svg">
  <path d="M 358 2234  C 362.48 2234  366 2237.52  366 2242  C 366 2246.48  362.48 2250  358 2250  C 353.52 2250  350 2246.48  350 2242  C 350 2237.52  353.52 2234  358 2234  Z " fill-rule="nonzero" fill="#f0f0f0" stroke="none" />
  <path d="M 358 2234.5  C 362.2 2234.5  365.5 2237.8  365.5 2242  C 365.5 2246.2  362.2 2249.5  358 2249.5  C 353.8 2249.5  350.5 2246.2  350.5 2242  C 350.5 2237.8  353.8 2234.5  358 2234.5  Z " stroke-width="1" stroke="#8c8c8c" fill="none" />
  <path d="M 358 2246  C 355.76 2246  354 2244.24  354 2242  C 354 2239.76  355.76 2238  358 2238  C 360.24 2238  362 2239.76  362 2242  C 362 2244.24  360.24 2246  358 2246  " fill-rule="nonzero" fill="#8c8c8c" stroke="none" />
</svg>