<?xml version="1.0" encoding="utf-8"?>
<svg version="1.1" xmlns:xlink="http://www.w3.org/1999/xlink" width="16px" height="16px" viewBox="947 1774  16 16" xmlns="http://www.w3.org/2000/svg">
  <path d="M 955 1774  C 959.48 1774  963 1777.52  963 1782  C 963 1786.48  959.48 1790  955 1790  C 950.52 1790  947 1786.48  947 1782  C 947 1777.52  950.52 1774  955 1774  Z " fill-rule="nonzero" fill="#ffffff" stroke="none" />
  <path d="M 955 1774.5  C 959.2 1774.5  962.5 1777.8  962.5 1782  C 962.5 1786.2  959.2 1789.5  955 1789.5  C 950.8 1789.5  947.5 1786.2  947.5 1782  C 947.5 1777.8  950.8 1774.5  955 1774.5  Z " stroke-width="1" stroke="#7b4d12" fill="none" />
  <path d="M 955 1786  C 952.76 1786  951 1784.24  951 1782  C 951 1779.76  952.76 1778  955 1778  C 957.24 1778  959 1779.76  959 1782  C 959 1784.24  957.24 1786  955 1786  " fill-rule="nonzero" fill="#7b4d12" stroke="none" />
</svg>