<?xml version="1.0" encoding="utf-8"?>
<svg version="1.1" xmlns:xlink="http://www.w3.org/1999/xlink" width="16px" height="16px" viewBox="587 2234  16 16" xmlns="http://www.w3.org/2000/svg">
  <path d="M 595 2234  C 599.48 2234  603 2237.52  603 2242  C 603 2246.48  599.48 2250  595 2250  C 590.52 2250  587 2246.48  587 2242  C 587 2237.52  590.52 2234  595 2234  Z " fill-rule="nonzero" fill="#ffffff" stroke="none" />
  <path d="M 595 2234.5  C 599.2 2234.5  602.5 2237.8  602.5 2242  C 602.5 2246.2  599.2 2249.5  595 2249.5  C 590.8 2249.5  587.5 2246.2  587.5 2242  C 587.5 2237.8  590.8 2234.5  595 2234.5  Z " stroke-width="1" stroke="#7b4d12" fill="none" />
  <path d="M 595 2246  C 592.76 2246  591 2244.24  591 2242  C 591 2239.76  592.76 2238  595 2238  C 597.24 2238  599 2239.76  599 2242  C 599 2244.24  597.24 2246  595 2246  " fill-rule="nonzero" fill="#7b4d12" stroke="none" />
</svg>