<?xml version="1.0" encoding="utf-8"?>
<svg version="1.1" xmlns:xlink="http://www.w3.org/1999/xlink" width="16px" height="16px" viewBox="1200 2234  16 16" xmlns="http://www.w3.org/2000/svg">
  <path d="M 1208 2234  C 1212.48 2234  1216 2237.52  1216 2242  C 1216 2246.48  1212.48 2250  1208 2250  C 1203.52 2250  1200 2246.48  1200 2242  C 1200 2237.52  1203.52 2234  1208 2234  Z " fill-rule="nonzero" fill="#ffffff" stroke="none" />
  <path d="M 1208 2234.5  C 1212.2 2234.5  1215.5 2237.8  1215.5 2242  C 1215.5 2246.2  1212.2 2249.5  1208 2249.5  C 1203.8 2249.5  1200.5 2246.2  1200.5 2242  C 1200.5 2237.8  1203.8 2234.5  1208 2234.5  Z " stroke-width="1" stroke="#8c8c8c" fill="none" />
  <path d="M 1208 2246  C 1205.76 2246  1204 2244.24  1204 2242  C 1204 2239.76  1205.76 2238  1208 2238  C 1210.24 2238  1212 2239.76  1212 2242  C 1212 2244.24  1210.24 2246  1208 2246  " fill-rule="nonzero" fill="#8c8c8c" stroke="none" />
</svg>