<?xml version="1.0" encoding="utf-8"?>
<svg version="1.1" xmlns:xlink="http://www.w3.org/1999/xlink" width="16px" height="16px" viewBox="1260 2234  16 16" xmlns="http://www.w3.org/2000/svg">
  <path d="M 1268 2234  C 1272.48 2234  1276 2237.52  1276 2242  C 1276 2246.48  1272.48 2250  1268 2250  C 1263.52 2250  1260 2246.48  1260 2242  C 1260 2237.52  1263.52 2234  1268 2234  Z " fill-rule="nonzero" fill="#ffffff" stroke="none" />
  <path d="M 1268 2234.5  C 1272.2 2234.5  1275.5 2237.8  1275.5 2242  C 1275.5 2246.2  1272.2 2249.5  1268 2249.5  C 1263.8 2249.5  1260.5 2246.2  1260.5 2242  C 1260.5 2237.8  1263.8 2234.5  1268 2234.5  Z " stroke-width="1" stroke="#8c8c8c" fill="none" />
  <path d="M 1268 2246  C 1265.76 2246  1264 2244.24  1264 2242  C 1264 2239.76  1265.76 2238  1268 2238  C 1270.24 2238  1272 2239.76  1272 2242  C 1272 2244.24  1270.24 2246  1268 2246  " fill-rule="nonzero" fill="#8c8c8c" stroke="none" />
</svg>