<?xml version="1.0" encoding="utf-8"?>
<svg version="1.1" xmlns:xlink="http://www.w3.org/1999/xlink" width="16px" height="16px" viewBox="587 1610  16 16" xmlns="http://www.w3.org/2000/svg">
  <path d="M 595 1610  C 599.48 1610  603 1613.52  603 1618  C 603 1622.48  599.48 1626  595 1626  C 590.52 1626  587 1622.48  587 1618  C 587 1613.52  590.52 1610  595 1610  Z " fill-rule="nonzero" fill="#ffffff" stroke="none" />
  <path d="M 595 1610.5  C 599.2 1610.5  602.5 1613.8  602.5 1618  C 602.5 1622.2  599.2 1625.5  595 1625.5  C 590.8 1625.5  587.5 1622.2  587.5 1618  C 587.5 1613.8  590.8 1610.5  595 1610.5  Z " stroke-width="1" stroke="#7b4d12" fill="none" />
  <path d="M 595 1622  C 592.76 1622  591 1620.24  591 1618  C 591 1615.76  592.76 1614  595 1614  C 597.24 1614  599 1615.76  599 1618  C 599 1620.24  597.24 1622  595 1622  " fill-rule="nonzero" fill="#7b4d12" stroke="none" />
</svg>