<?xml version="1.0" encoding="utf-8"?>
<svg version="1.1" xmlns:xlink="http://www.w3.org/1999/xlink" width="16px" height="16px" viewBox="887 880  16 16" xmlns="http://www.w3.org/2000/svg">
  <path d="M 895 880  C 899.48 880  903 883.52  903 888  C 903 892.48  899.48 896  895 896  C 890.52 896  887 892.48  887 888  C 887 883.52  890.52 880  895 880  Z " fill-rule="nonzero" fill="#ffffff" stroke="none" />
  <path d="M 895 880.5  C 899.2 880.5  902.5 883.8  902.5 888  C 902.5 892.2  899.2 895.5  895 895.5  C 890.8 895.5  887.5 892.2  887.5 888  C 887.5 883.8  890.8 880.5  895 880.5  Z " stroke-width="1" stroke="#7b4d12" fill="none" />
  <path d="M 895 892  C 892.76 892  891 890.24  891 888  C 891 885.76  892.76 884  895 884  C 897.24 884  899 885.76  899 888  C 899 890.24  897.24 892  895 892  " fill-rule="nonzero" fill="#7b4d12" stroke="none" />
</svg>