<?xml version="1.0" encoding="utf-8"?>
<svg version="1.1" xmlns:xlink="http://www.w3.org/1999/xlink" width="16px" height="16px" viewBox="895 442  16 16" xmlns="http://www.w3.org/2000/svg">
  <path d="M 903 442  C 907.48 442  911 445.52  911 450  C 911 454.48  907.48 458  903 458  C 898.52 458  895 454.48  895 450  C 895 445.52  898.52 442  903 442  Z " fill-rule="nonzero" fill="#ffffff" stroke="none" />
  <path d="M 903 442.5  C 907.2 442.5  910.5 445.8  910.5 450  C 910.5 454.2  907.2 457.5  903 457.5  C 898.8 457.5  895.5 454.2  895.5 450  C 895.5 445.8  898.8 442.5  903 442.5  Z " stroke-width="1" stroke="#7b4d12" fill="none" />
  <path d="M 903 454  C 900.76 454  899 452.24  899 450  C 899 447.76  900.76 446  903 446  C 905.24 446  907 447.76  907 450  C 907 452.24  905.24 454  903 454  " fill-rule="nonzero" fill="#7b4d12" stroke="none" />
</svg>