<?xml version="1.0" encoding="utf-8"?>
<svg version="1.1" xmlns:xlink="http://www.w3.org/1999/xlink" width="16px" height="16px" viewBox="1187 880  16 16" xmlns="http://www.w3.org/2000/svg">
  <path d="M 1195 880  C 1199.48 880  1203 883.52  1203 888  C 1203 892.48  1199.48 896  1195 896  C 1190.52 896  1187 892.48  1187 888  C 1187 883.52  1190.52 880  1195 880  Z " fill-rule="nonzero" fill="#ffffff" stroke="none" />
  <path d="M 1195 880.5  C 1199.2 880.5  1202.5 883.8  1202.5 888  C 1202.5 892.2  1199.2 895.5  1195 895.5  C 1190.8 895.5  1187.5 892.2  1187.5 888  C 1187.5 883.8  1190.8 880.5  1195 880.5  Z " stroke-width="1" stroke="#8c8c8c" fill="none" />
  <path d="M 1195 892  C 1192.76 892  1191 890.24  1191 888  C 1191 885.76  1192.76 884  1195 884  C 1197.24 884  1199 885.76  1199 888  C 1199 890.24  1197.24 892  1195 892  " fill-rule="nonzero" fill="#8c8c8c" stroke="none" />
</svg>