<?xml version="1.0" encoding="utf-8"?>
<svg version="1.1" xmlns:xlink="http://www.w3.org/1999/xlink" width="16px" height="16px" viewBox="1247 880  16 16" xmlns="http://www.w3.org/2000/svg">
  <path d="M 1255 880  C 1259.48 880  1263 883.52  1263 888  C 1263 892.48  1259.48 896  1255 896  C 1250.52 896  1247 892.48  1247 888  C 1247 883.52  1250.52 880  1255 880  Z " fill-rule="nonzero" fill="#ffffff" stroke="none" />
  <path d="M 1255 880.5  C 1259.2 880.5  1262.5 883.8  1262.5 888  C 1262.5 892.2  1259.2 895.5  1255 895.5  C 1250.8 895.5  1247.5 892.2  1247.5 888  C 1247.5 883.8  1250.8 880.5  1255 880.5  Z " stroke-width="1" stroke="#8c8c8c" fill="none" />
  <path d="M 1255 892  C 1252.76 892  1251 890.24  1251 888  C 1251 885.76  1252.76 884  1255 884  C 1257.24 884  1259 885.76  1259 888  C 1259 890.24  1257.24 892  1255 892  " fill-rule="nonzero" fill="#8c8c8c" stroke="none" />
</svg>