<?xml version="1.0" encoding="utf-8"?>
<svg version="1.1" xmlns:xlink="http://www.w3.org/1999/xlink" width="16px" height="16px" viewBox="955 442  16 16" xmlns="http://www.w3.org/2000/svg">
  <path d="M 963 442  C 967.48 442  971 445.52  971 450  C 971 454.48  967.48 458  963 458  C 958.52 458  955 454.48  955 450  C 955 445.52  958.52 442  963 442  Z " fill-rule="nonzero" fill="#ffffff" stroke="none" />
  <path d="M 963 442.5  C 967.2 442.5  970.5 445.8  970.5 450  C 970.5 454.2  967.2 457.5  963 457.5  C 958.8 457.5  955.5 454.2  955.5 450  C 955.5 445.8  958.8 442.5  963 442.5  Z " stroke-width="1" stroke="#8c8c8c" fill="none" />
  <path d="M 963 454  C 960.76 454  959 452.24  959 450  C 959 447.76  960.76 446  963 446  C 965.24 446  967 447.76  967 450  C 967 452.24  965.24 454  963 454  " fill-rule="nonzero" fill="#8c8c8c" stroke="none" />
</svg>