<?xml version="1.0" encoding="utf-8"?>
<svg version="1.1" xmlns:xlink="http://www.w3.org/1999/xlink" width="16px" height="16px" viewBox="1187 1080  16 16" xmlns="http://www.w3.org/2000/svg">
  <path d="M 1195 1080  C 1199.48 1080  1203 1083.52  1203 1088  C 1203 1092.48  1199.48 1096  1195 1096  C 1190.52 1096  1187 1092.48  1187 1088  C 1187 1083.52  1190.52 1080  1195 1080  Z " fill-rule="nonzero" fill="#f0f0f0" stroke="none" />
  <path d="M 1195 1080.5  C 1199.2 1080.5  1202.5 1083.8  1202.5 1088  C 1202.5 1092.2  1199.2 1095.5  1195 1095.5  C 1190.8 1095.5  1187.5 1092.2  1187.5 1088  C 1187.5 1083.8  1190.8 1080.5  1195 1080.5  Z " stroke-width="1" stroke="#8c8c8c" fill="none" />
  <path d="M 1195 1092  C 1192.76 1092  1191 1090.24  1191 1088  C 1191 1085.76  1192.76 1084  1195 1084  C 1197.24 1084  1199 1085.76  1199 1088  C 1199 1090.24  1197.24 1092  1195 1092  " fill-rule="nonzero" fill="#8c8c8c" stroke="none" />
</svg>