<?xml version="1.0" encoding="utf-8"?>
<svg version="1.1" xmlns:xlink="http://www.w3.org/1999/xlink" width="16px" height="16px" viewBox="1247 1080  16 16" xmlns="http://www.w3.org/2000/svg">
  <path d="M 1255 1080  C 1259.48 1080  1263 1083.52  1263 1088  C 1263 1092.48  1259.48 1096  1255 1096  C 1250.52 1096  1247 1092.48  1247 1088  C 1247 1083.52  1250.52 1080  1255 1080  Z " fill-rule="nonzero" fill="#f0f0f0" stroke="none" />
  <path d="M 1255 1080.5  C 1259.2 1080.5  1262.5 1083.8  1262.5 1088  C 1262.5 1092.2  1259.2 1095.5  1255 1095.5  C 1250.8 1095.5  1247.5 1092.2  1247.5 1088  C 1247.5 1083.8  1250.8 1080.5  1255 1080.5  Z " stroke-width="1" stroke="#8c8c8c" fill="none" />
  <path d="M 1255 1092  C 1252.76 1092  1251 1090.24  1251 1088  C 1251 1085.76  1252.76 1084  1255 1084  C 1257.24 1084  1259 1085.76  1259 1088  C 1259 1090.24  1257.24 1092  1255 1092  " fill-rule="nonzero" fill="#8c8c8c" stroke="none" />
</svg>