<?xml version="1.0" encoding="utf-8"?>
<svg version="1.1" xmlns:xlink="http://www.w3.org/1999/xlink" width="16px" height="16px" viewBox="1247 1044  16 16" xmlns="http://www.w3.org/2000/svg">
  <path d="M 1255 1044  C 1259.48 1044  1263 1047.52  1263 1052  C 1263 1056.48  1259.48 1060  1255 1060  C 1250.52 1060  1247 1056.48  1247 1052  C 1247 1047.52  1250.52 1044  1255 1044  Z " fill-rule="nonzero" fill="#f0f0f0" stroke="none" />
  <path d="M 1255 1044.5  C 1259.2 1044.5  1262.5 1047.8  1262.5 1052  C 1262.5 1056.2  1259.2 1059.5  1255 1059.5  C 1250.8 1059.5  1247.5 1056.2  1247.5 1052  C 1247.5 1047.8  1250.8 1044.5  1255 1044.5  Z " stroke-width="1" stroke="#8c8c8c" fill="none" />
  <path d="M 1255 1056  C 1252.76 1056  1251 1054.24  1251 1052  C 1251 1049.76  1252.76 1048  1255 1048  C 1257.24 1048  1259 1049.76  1259 1052  C 1259 1054.24  1257.24 1056  1255 1056  " fill-rule="nonzero" fill="#8c8c8c" stroke="none" />
</svg>