<?xml version="1.0" encoding="utf-8"?>
<svg version="1.1" xmlns:xlink="http://www.w3.org/1999/xlink" width="16px" height="16px" viewBox="1327 1080  16 16" xmlns="http://www.w3.org/2000/svg">
  <path d="M 1335 1080  C 1339.48 1080  1343 1083.52  1343 1088  C 1343 1092.48  1339.48 1096  1335 1096  C 1330.52 1096  1327 1092.48  1327 1088  C 1327 1083.52  1330.52 1080  1335 1080  Z " fill-rule="nonzero" fill="#f0f0f0" stroke="none" />
  <path d="M 1335 1080.5  C 1339.2 1080.5  1342.5 1083.8  1342.5 1088  C 1342.5 1092.2  1339.2 1095.5  1335 1095.5  C 1330.8 1095.5  1327.5 1092.2  1327.5 1088  C 1327.5 1083.8  1330.8 1080.5  1335 1080.5  Z " stroke-width="1" stroke="#8c8c8c" fill="none" />
  <path d="M 1335 1092  C 1332.76 1092  1331 1090.24  1331 1088  C 1331 1085.76  1332.76 1084  1335 1084  C 1337.24 1084  1339 1085.76  1339 1088  C 1339 1090.24  1337.24 1092  1335 1092  " fill-rule="nonzero" fill="#8c8c8c" stroke="none" />
</svg>