<?xml version="1.0" encoding="utf-8"?>
<svg version="1.1" xmlns:xlink="http://www.w3.org/1999/xlink" width="16px" height="16px" viewBox="1187 1004  16 16" xmlns="http://www.w3.org/2000/svg">
  <path d="M 1195 1004  C 1199.48 1004  1203 1007.52  1203 1012  C 1203 1016.48  1199.48 1020  1195 1020  C 1190.52 1020  1187 1016.48  1187 1012  C 1187 1007.52  1190.52 1004  1195 1004  Z " fill-rule="nonzero" fill="#ffffff" stroke="none" />
  <path d="M 1195 1004.5  C 1199.2 1004.5  1202.5 1007.8  1202.5 1012  C 1202.5 1016.2  1199.2 1019.5  1195 1019.5  C 1190.8 1019.5  1187.5 1016.2  1187.5 1012  C 1187.5 1007.8  1190.8 1004.5  1195 1004.5  Z " stroke-width="1" stroke="#7b4d12" fill="none" />
  <path d="M 1195 1016  C 1192.76 1016  1191 1014.24  1191 1012  C 1191 1009.76  1192.76 1008  1195 1008  C 1197.24 1008  1199 1009.76  1199 1012  C 1199 1014.24  1197.24 1016  1195 1016  " fill-rule="nonzero" fill="#7b4d12" stroke="none" />
</svg>