<?xml version="1.0" encoding="utf-8"?>
<svg version="1.1" xmlns:xlink="http://www.w3.org/1999/xlink" width="16px" height="16px" viewBox="1187 1044  16 16" xmlns="http://www.w3.org/2000/svg">
  <path d="M 1195 1044  C 1199.48 1044  1203 1047.52  1203 1052  C 1203 1056.48  1199.48 1060  1195 1060  C 1190.52 1060  1187 1056.48  1187 1052  C 1187 1047.52  1190.52 1044  1195 1044  Z " fill-rule="nonzero" fill="#f0f0f0" stroke="none" />
  <path d="M 1195 1044.5  C 1199.2 1044.5  1202.5 1047.8  1202.5 1052  C 1202.5 1056.2  1199.2 1059.5  1195 1059.5  C 1190.8 1059.5  1187.5 1056.2  1187.5 1052  C 1187.5 1047.8  1190.8 1044.5  1195 1044.5  Z " stroke-width="1" stroke="#8c8c8c" fill="none" />
  <path d="M 1195 1056  C 1192.76 1056  1191 1054.24  1191 1052  C 1191 1049.76  1192.76 1048  1195 1048  C 1197.24 1048  1199 1049.76  1199 1052  C 1199 1054.24  1197.24 1056  1195 1056  " fill-rule="nonzero" fill="#8c8c8c" stroke="none" />
</svg>