<?xml version="1.0" encoding="utf-8"?>
<svg version="1.1" xmlns:xlink="http://www.w3.org/1999/xlink" width="16px" height="16px" viewBox="947 1044  16 16" xmlns="http://www.w3.org/2000/svg">
  <path d="M 955 1044  C 959.48 1044  963 1047.52  963 1052  C 963 1056.48  959.48 1060  955 1060  C 950.52 1060  947 1056.48  947 1052  C 947 1047.52  950.52 1044  955 1044  Z " fill-rule="nonzero" fill="#ffffff" stroke="none" />
  <path d="M 955 1044.5  C 959.2 1044.5  962.5 1047.8  962.5 1052  C 962.5 1056.2  959.2 1059.5  955 1059.5  C 950.8 1059.5  947.5 1056.2  947.5 1052  C 947.5 1047.8  950.8 1044.5  955 1044.5  Z " stroke-width="1" stroke="#7b4d12" fill="none" />
  <path d="M 955 1056  C 952.76 1056  951 1054.24  951 1052  C 951 1049.76  952.76 1048  955 1048  C 957.24 1048  959 1049.76  959 1052  C 959 1054.24  957.24 1056  955 1056  " fill-rule="nonzero" fill="#7b4d12" stroke="none" />
</svg>