<?xml version="1.0" encoding="utf-8"?>
<svg version="1.1" xmlns:xlink="http://www.w3.org/1999/xlink" width="16px" height="16px" viewBox="887 1044  16 16" xmlns="http://www.w3.org/2000/svg">
  <path d="M 895 1044  C 899.48 1044  903 1047.52  903 1052  C 903 1056.48  899.48 1060  895 1060  C 890.52 1060  887 1056.48  887 1052  C 887 1047.52  890.52 1044  895 1044  Z " fill-rule="nonzero" fill="#f0f0f0" stroke="none" />
  <path d="M 895 1044.5  C 899.2 1044.5  902.5 1047.8  902.5 1052  C 902.5 1056.2  899.2 1059.5  895 1059.5  C 890.8 1059.5  887.5 1056.2  887.5 1052  C 887.5 1047.8  890.8 1044.5  895 1044.5  Z " stroke-width="1" stroke="#8c8c8c" fill="none" />
  <path d="M 895 1056  C 892.76 1056  891 1054.24  891 1052  C 891 1049.76  892.76 1048  895 1048  C 897.24 1048  899 1049.76  899 1052  C 899 1054.24  897.24 1056  895 1056  " fill-rule="nonzero" fill="#8c8c8c" stroke="none" />
</svg>