<?xml version="1.0" encoding="utf-8"?>
<svg version="1.1" xmlns:xlink="http://www.w3.org/1999/xlink" width="16px" height="16px" viewBox="1027 1080  16 16" xmlns="http://www.w3.org/2000/svg">
  <path d="M 1035 1080  C 1039.48 1080  1043 1083.52  1043 1088  C 1043 1092.48  1039.48 1096  1035 1096  C 1030.52 1096  1027 1092.48  1027 1088  C 1027 1083.52  1030.52 1080  1035 1080  Z " fill-rule="nonzero" fill="#f0f0f0" stroke="none" />
  <path d="M 1035 1080.5  C 1039.2 1080.5  1042.5 1083.8  1042.5 1088  C 1042.5 1092.2  1039.2 1095.5  1035 1095.5  C 1030.8 1095.5  1027.5 1092.2  1027.5 1088  C 1027.5 1083.8  1030.8 1080.5  1035 1080.5  Z " stroke-width="1" stroke="#8c8c8c" fill="none" />
  <path d="M 1035 1092  C 1032.76 1092  1031 1090.24  1031 1088  C 1031 1085.76  1032.76 1084  1035 1084  C 1037.24 1084  1039 1085.76  1039 1088  C 1039 1090.24  1037.24 1092  1035 1092  " fill-rule="nonzero" fill="#8c8c8c" stroke="none" />
</svg>