<?xml version="1.0" encoding="utf-8"?>
<svg version="1.1" xmlns:xlink="http://www.w3.org/1999/xlink" width="16px" height="16px" viewBox="947 1080  16 16" xmlns="http://www.w3.org/2000/svg">
  <path d="M 955 1080  C 959.48 1080  963 1083.52  963 1088  C 963 1092.48  959.48 1096  955 1096  C 950.52 1096  947 1092.48  947 1088  C 947 1083.52  950.52 1080  955 1080  Z " fill-rule="nonzero" fill="#f0f0f0" stroke="none" />
  <path d="M 955 1080.5  C 959.2 1080.5  962.5 1083.8  962.5 1088  C 962.5 1092.2  959.2 1095.5  955 1095.5  C 950.8 1095.5  947.5 1092.2  947.5 1088  C 947.5 1083.8  950.8 1080.5  955 1080.5  Z " stroke-width="1" stroke="#8c8c8c" fill="none" />
  <path d="M 955 1092  C 952.76 1092  951 1090.24  951 1088  C 951 1085.76  952.76 1084  955 1084  C 957.24 1084  959 1085.76  959 1088  C 959 1090.24  957.24 1092  955 1092  " fill-rule="nonzero" fill="#8c8c8c" stroke="none" />
</svg>