<?xml version="1.0" encoding="utf-8"?>
<svg version="1.1" xmlns:xlink="http://www.w3.org/1999/xlink" width="16px" height="16px" viewBox="887 1080  16 16" xmlns="http://www.w3.org/2000/svg">
  <path d="M 895 1080  C 899.48 1080  903 1083.52  903 1088  C 903 1092.48  899.48 1096  895 1096  C 890.52 1096  887 1092.48  887 1088  C 887 1083.52  890.52 1080  895 1080  Z " fill-rule="nonzero" fill="#f0f0f0" stroke="none" />
  <path d="M 895 1080.5  C 899.2 1080.5  902.5 1083.8  902.5 1088  C 902.5 1092.2  899.2 1095.5  895 1095.5  C 890.8 1095.5  887.5 1092.2  887.5 1088  C 887.5 1083.8  890.8 1080.5  895 1080.5  Z " stroke-width="1" stroke="#8c8c8c" fill="none" />
  <path d="M 895 1092  C 892.76 1092  891 1090.24  891 1088  C 891 1085.76  892.76 1084  895 1084  C 897.24 1084  899 1085.76  899 1088  C 899 1090.24  897.24 1092  895 1092  " fill-rule="nonzero" fill="#8c8c8c" stroke="none" />
</svg>