<?xml version="1.0" encoding="utf-8"?>
<svg version="1.1" xmlns:xlink="http://www.w3.org/1999/xlink" width="16px" height="16px" viewBox="287 1610  16 16" xmlns="http://www.w3.org/2000/svg">
  <path d="M 295 1610  C 299.48 1610  303 1613.52  303 1618  C 303 1622.48  299.48 1626  295 1626  C 290.52 1626  287 1622.48  287 1618  C 287 1613.52  290.52 1610  295 1610  Z " fill-rule="nonzero" fill="#ffffff" stroke="none" />
  <path d="M 295 1610.5  C 299.2 1610.5  302.5 1613.8  302.5 1618  C 302.5 1622.2  299.2 1625.5  295 1625.5  C 290.8 1625.5  287.5 1622.2  287.5 1618  C 287.5 1613.8  290.8 1610.5  295 1610.5  Z " stroke-width="1" stroke="#7b4d12" fill="none" />
  <path d="M 295 1622  C 292.76 1622  291 1620.24  291 1618  C 291 1615.76  292.76 1614  295 1614  C 297.24 1614  299 1615.76  299 1618  C 299 1620.24  297.24 1622  295 1622  " fill-rule="nonzero" fill="#7b4d12" stroke="none" />
</svg>