<?xml version="1.0" encoding="utf-8"?>
<svg version="1.1" xmlns:xlink="http://www.w3.org/1999/xlink" width="16px" height="16px" viewBox="287 1733  16 16" xmlns="http://www.w3.org/2000/svg">
  <path d="M 295 1733  C 299.48 1733  303 1736.52  303 1741  C 303 1745.48  299.48 1749  295 1749  C 290.52 1749  287 1745.48  287 1741  C 287 1736.52  290.52 1733  295 1733  Z " fill-rule="nonzero" fill="#ffffff" stroke="none" />
  <path d="M 295 1733.5  C 299.2 1733.5  302.5 1736.8  302.5 1741  C 302.5 1745.2  299.2 1748.5  295 1748.5  C 290.8 1748.5  287.5 1745.2  287.5 1741  C 287.5 1736.8  290.8 1733.5  295 1733.5  Z " stroke-width="1" stroke="#7b4d12" fill="none" />
  <path d="M 295 1745  C 292.76 1745  291 1743.24  291 1741  C 291 1738.76  292.76 1737  295 1737  C 297.24 1737  299 1738.76  299 1741  C 299 1743.24  297.24 1745  295 1745  " fill-rule="nonzero" fill="#7b4d12" stroke="none" />
</svg>