<?xml version="1.0" encoding="utf-8"?>
<svg version="1.1" xmlns:xlink="http://www.w3.org/1999/xlink" width="16px" height="16px" viewBox="347 1610  16 16" xmlns="http://www.w3.org/2000/svg">
  <path d="M 355 1610  C 359.48 1610  363 1613.52  363 1618  C 363 1622.48  359.48 1626  355 1626  C 350.52 1626  347 1622.48  347 1618  C 347 1613.52  350.52 1610  355 1610  Z " fill-rule="nonzero" fill="#f0f0f0" stroke="none" />
  <path d="M 355 1610.5  C 359.2 1610.5  362.5 1613.8  362.5 1618  C 362.5 1622.2  359.2 1625.5  355 1625.5  C 350.8 1625.5  347.5 1622.2  347.5 1618  C 347.5 1613.8  350.8 1610.5  355 1610.5  Z " stroke-width="1" stroke="#8c8c8c" fill="none" />
  <path d="M 355 1622  C 352.76 1622  351 1620.24  351 1618  C 351 1615.76  352.76 1614  355 1614  C 357.24 1614  359 1615.76  359 1618  C 359 1620.24  357.24 1622  355 1622  " fill-rule="nonzero" fill="#8c8c8c" stroke="none" />
</svg>