<?xml version="1.0" encoding="utf-8"?>
<svg version="1.1" xmlns:xlink="http://www.w3.org/1999/xlink" width="16px" height="16px" viewBox="427 1810  16 16" xmlns="http://www.w3.org/2000/svg">
  <path d="M 435 1810  C 439.48 1810  443 1813.52  443 1818  C 443 1822.48  439.48 1826  435 1826  C 430.52 1826  427 1822.48  427 1818  C 427 1813.52  430.52 1810  435 1810  Z " fill-rule="nonzero" fill="#ffffff" stroke="none" />
  <path d="M 435 1810.5  C 439.2 1810.5  442.5 1813.8  442.5 1818  C 442.5 1822.2  439.2 1825.5  435 1825.5  C 430.8 1825.5  427.5 1822.2  427.5 1818  C 427.5 1813.8  430.8 1810.5  435 1810.5  Z " stroke-width="1" stroke="#7b4d12" fill="none" />
  <path d="M 435 1822  C 432.76 1822  431 1820.24  431 1818  C 431 1815.76  432.76 1814  435 1814  C 437.24 1814  439 1815.76  439 1818  C 439 1820.24  437.24 1822  435 1822  " fill-rule="nonzero" fill="#7b4d12" stroke="none" />
</svg>