<?xml version="1.0" encoding="utf-8"?>
<svg version="1.1" xmlns:xlink="http://www.w3.org/1999/xlink" width="16px" height="16px" viewBox="287 1810  16 16" xmlns="http://www.w3.org/2000/svg">
  <path d="M 295 1810  C 299.48 1810  303 1813.52  303 1818  C 303 1822.48  299.48 1826  295 1826  C 290.52 1826  287 1822.48  287 1818  C 287 1813.52  290.52 1810  295 1810  Z " fill-rule="nonzero" fill="#ffffff" stroke="none" />
  <path d="M 295 1810.5  C 299.2 1810.5  302.5 1813.8  302.5 1818  C 302.5 1822.2  299.2 1825.5  295 1825.5  C 290.8 1825.5  287.5 1822.2  287.5 1818  C 287.5 1813.8  290.8 1810.5  295 1810.5  Z " stroke-width="1" stroke="#7b4d12" fill="none" />
  <path d="M 295 1822  C 292.76 1822  291 1820.24  291 1818  C 291 1815.76  292.76 1814  295 1814  C 297.24 1814  299 1815.76  299 1818  C 299 1820.24  297.24 1822  295 1822  " fill-rule="nonzero" fill="#7b4d12" stroke="none" />
</svg>