<?xml version="1.0" encoding="utf-8"?>
<svg version="1.1" xmlns:xlink="http://www.w3.org/1999/xlink" width="16px" height="16px" viewBox="287 1774  16 16" xmlns="http://www.w3.org/2000/svg">
  <path d="M 295 1774  C 299.48 1774  303 1777.52  303 1782  C 303 1786.48  299.48 1790  295 1790  C 290.52 1790  287 1786.48  287 1782  C 287 1777.52  290.52 1774  295 1774  Z " fill-rule="nonzero" fill="#f0f0f0" stroke="none" />
  <path d="M 295 1774.5  C 299.2 1774.5  302.5 1777.8  302.5 1782  C 302.5 1786.2  299.2 1789.5  295 1789.5  C 290.8 1789.5  287.5 1786.2  287.5 1782  C 287.5 1777.8  290.8 1774.5  295 1774.5  Z " stroke-width="1" stroke="#8c8c8c" fill="none" />
  <path d="M 295 1786  C 292.76 1786  291 1784.24  291 1782  C 291 1779.76  292.76 1778  295 1778  C 297.24 1778  299 1779.76  299 1782  C 299 1784.24  297.24 1786  295 1786  " fill-rule="nonzero" fill="#8c8c8c" stroke="none" />
</svg>