<?xml version="1.0" encoding="utf-8"?>
<svg version="1.1" xmlns:xlink="http://www.w3.org/1999/xlink" width="16px" height="16px" viewBox="287 1929  16 16" xmlns="http://www.w3.org/2000/svg">
  <path d="M 295 1929  C 299.48 1929  303 1932.52  303 1937  C 303 1941.48  299.48 1945  295 1945  C 290.52 1945  287 1941.48  287 1937  C 287 1932.52  290.52 1929  295 1929  Z " fill-rule="nonzero" fill="#f0f0f0" stroke="none" />
  <path d="M 295 1929.5  C 299.2 1929.5  302.5 1932.8  302.5 1937  C 302.5 1941.2  299.2 1944.5  295 1944.5  C 290.8 1944.5  287.5 1941.2  287.5 1937  C 287.5 1932.8  290.8 1929.5  295 1929.5  Z " stroke-width="1" stroke="#8c8c8c" fill="none" />
  <path d="M 295 1941  C 292.76 1941  291 1939.24  291 1937  C 291 1934.76  292.76 1933  295 1933  C 297.24 1933  299 1934.76  299 1937  C 299 1939.24  297.24 1941  295 1941  " fill-rule="nonzero" fill="#8c8c8c" stroke="none" />
</svg>