<?xml version="1.0" encoding="utf-8"?>
<svg version="1.1" xmlns:xlink="http://www.w3.org/1999/xlink" width="16px" height="16px" viewBox="347 1810  16 16" xmlns="http://www.w3.org/2000/svg">
  <path d="M 355 1810  C 359.48 1810  363 1813.52  363 1818  C 363 1822.48  359.48 1826  355 1826  C 350.52 1826  347 1822.48  347 1818  C 347 1813.52  350.52 1810  355 1810  Z " fill-rule="nonzero" fill="#ffffff" stroke="none" />
  <path d="M 355 1810.5  C 359.2 1810.5  362.5 1813.8  362.5 1818  C 362.5 1822.2  359.2 1825.5  355 1825.5  C 350.8 1825.5  347.5 1822.2  347.5 1818  C 347.5 1813.8  350.8 1810.5  355 1810.5  Z " stroke-width="1" stroke="#7b4d12" fill="none" />
  <path d="M 355 1822  C 352.76 1822  351 1820.24  351 1818  C 351 1815.76  352.76 1814  355 1814  C 357.24 1814  359 1815.76  359 1818  C 359 1820.24  357.24 1822  355 1822  " fill-rule="nonzero" fill="#7b4d12" stroke="none" />
</svg>