<?xml version="1.0" encoding="utf-8"?>
<svg version="1.1" xmlns:xlink="http://www.w3.org/1999/xlink" width="16px" height="16px" viewBox="347 1774  16 16" xmlns="http://www.w3.org/2000/svg">
  <path d="M 355 1774  C 359.48 1774  363 1777.52  363 1782  C 363 1786.48  359.48 1790  355 1790  C 350.52 1790  347 1786.48  347 1782  C 347 1777.52  350.52 1774  355 1774  Z " fill-rule="nonzero" fill="#ffffff" stroke="none" />
  <path d="M 355 1774.5  C 359.2 1774.5  362.5 1777.8  362.5 1782  C 362.5 1786.2  359.2 1789.5  355 1789.5  C 350.8 1789.5  347.5 1786.2  347.5 1782  C 347.5 1777.8  350.8 1774.5  355 1774.5  Z " stroke-width="1" stroke="#7b4d12" fill="none" />
  <path d="M 355 1786  C 352.76 1786  351 1784.24  351 1782  C 351 1779.76  352.76 1778  355 1778  C 357.24 1778  359 1779.76  359 1782  C 359 1784.24  357.24 1786  355 1786  " fill-rule="nonzero" fill="#7b4d12" stroke="none" />
</svg>