<?xml version="1.0" encoding="utf-8"?>
<svg version="1.1" xmlns:xlink="http://www.w3.org/1999/xlink" width="16px" height="16px" viewBox="387 1929  16 16" xmlns="http://www.w3.org/2000/svg">
  <path d="M 395 1929  C 399.48 1929  403 1932.52  403 1937  C 403 1941.48  399.48 1945  395 1945  C 390.52 1945  387 1941.48  387 1937  C 387 1932.52  390.52 1929  395 1929  Z " fill-rule="nonzero" fill="#ffffff" stroke="none" />
  <path d="M 395 1929.5  C 399.2 1929.5  402.5 1932.8  402.5 1937  C 402.5 1941.2  399.2 1944.5  395 1944.5  C 390.8 1944.5  387.5 1941.2  387.5 1937  C 387.5 1932.8  390.8 1929.5  395 1929.5  Z " stroke-width="1" stroke="#7b4d12" fill="none" />
  <path d="M 395 1941  C 392.76 1941  391 1939.24  391 1937  C 391 1934.76  392.76 1933  395 1933  C 397.24 1933  399 1934.76  399 1937  C 399 1939.24  397.24 1941  395 1941  " fill-rule="nonzero" fill="#7b4d12" stroke="none" />
</svg>