<?xml version="1.0" encoding="utf-8"?>
<svg version="1.1" xmlns:xlink="http://www.w3.org/1999/xlink" width="16px" height="16px" viewBox="347 1733  16 16" xmlns="http://www.w3.org/2000/svg">
  <path d="M 355 1733  C 359.48 1733  363 1736.52  363 1741  C 363 1745.48  359.48 1749  355 1749  C 350.52 1749  347 1745.48  347 1741  C 347 1736.52  350.52 1733  355 1733  Z " fill-rule="nonzero" fill="#ffffff" stroke="none" />
  <path d="M 355 1733.5  C 359.2 1733.5  362.5 1736.8  362.5 1741  C 362.5 1745.2  359.2 1748.5  355 1748.5  C 350.8 1748.5  347.5 1745.2  347.5 1741  C 347.5 1736.8  350.8 1733.5  355 1733.5  Z " stroke-width="1" stroke="#7b4d12" fill="none" />
  <path d="M 355 1745  C 352.76 1745  351 1743.24  351 1741  C 351 1738.76  352.76 1737  355 1737  C 357.24 1737  359 1738.76  359 1741  C 359 1743.24  357.24 1745  355 1745  " fill-rule="nonzero" fill="#7b4d12" stroke="none" />
</svg>