<?xml version="1.0" encoding="utf-8"?>
<svg version="1.1" xmlns:xlink="http://www.w3.org/1999/xlink" width="140px" height="40px" xmlns="http://www.w3.org/2000/svg">
  <g>
    <path d="M 1 3  A 2 2 0 0 1 3 1 L 137 1  A 2 2 0 0 1 139 3 L 139 37  A 2 2 0 0 1 137 39 L 3 39  A 2 2 0 0 1 1 37 L 1 3  Z " fill-rule="nonzero" fill="#02a7f0" stroke="none" fill-opacity="0.909803921568627" />
    <path d="M 0.5 3  A 2.5 2.5 0 0 1 3 0.5 L 137 0.5  A 2.5 2.5 0 0 1 139.5 3 L 139.5 37  A 2.5 2.5 0 0 1 137 39.5 L 3 39.5  A 2.5 2.5 0 0 1 0.5 37 L 0.5 3  Z " stroke-width="1" stroke="#02a7f0" fill="none" stroke-opacity="0.996078431372549" />
  </g>
</svg>