<?xml version="1.0" encoding="utf-8"?>
<svg version="1.1" xmlns:xlink="http://www.w3.org/1999/xlink" width="16px" height="16px" viewBox="625 201  16 16" xmlns="http://www.w3.org/2000/svg">
  <path d="M 633 201  C 637.48 201  641 204.52  641 209  C 641 213.48  637.48 217  633 217  C 628.52 217  625 213.48  625 209  C 625 204.52  628.52 201  633 201  Z " fill-rule="nonzero" fill="#ffffff" stroke="none" />
  <path d="M 633 201.5  C 637.2 201.5  640.5 204.8  640.5 209  C 640.5 213.2  637.2 216.5  633 216.5  C 628.8 216.5  625.5 213.2  625.5 209  C 625.5 204.8  628.8 201.5  633 201.5  Z " stroke-width="1" stroke="#8c8c8c" fill="none" />
  <path d="M 633 213  C 630.76 213  629 211.24  629 209  C 629 206.76  630.76 205  633 205  C 635.24 205  637 206.76  637 209  C 637 211.24  635.24 213  633 213  " fill-rule="nonzero" fill="#8c8c8c" stroke="none" />
</svg>