<?xml version="1.0" encoding="utf-8"?>
<svg version="1.1" xmlns:xlink="http://www.w3.org/1999/xlink" width="22px" height="20px" xmlns="http://www.w3.org/2000/svg">
  <g transform="matrix(1 0 0 1 -478 30 )">
    <path d="M 3.14285714285714 2.8  C 5.1889880952381 2.8  6.86681547619048 3.7375  8.17633928571428 5.6125  C 7.68526785714286 6.37916666666666  7.12462797619048 7.51666666666666  6.49441964285714 9.025  C 6.31436011904762 8.65  6.16294642857143 8.34791666666667  6.04017857142857 8.11875  C 5.91741071428571 7.88958333333333  5.75167410714286 7.625  5.54296875 7.325  C 5.33426339285714 7.025  5.12555803571429 6.78958333333333  4.91685267857143 6.61875  C 4.70814732142857 6.44791666666667  4.45033482142857 6.30208333333333  4.14341517857143 6.18125  C 3.83649553571429 6.06041666666667  3.50297619047619 6  3.14285714285714 6  L 0.392857142857143 6  C 0.27827380952381 6  0.184151785714286 5.9625  0.110491071428571 5.8875  C 0.0368303571428571 5.8125  0 5.71666666666667  0 5.6  L 0 3.2  C 0 3.08333333333333  0.0368303571428571 2.9875  0.110491071428571 2.9125  C 0.184151785714286 2.8375  0.27827380952381 2.8  0.392857142857143 2.8  L 3.14285714285714 2.8  Z M 21.8895089285714 15.3125  C 21.9631696428571 15.3875  22 15.4833333333333  22 15.6  C 22 15.7166666666667  21.9631696428571 15.8125  21.8895089285714 15.8875  L 17.9609375 19.8875  C 17.8872767857143 19.9625  17.7931547619048 20  17.6785714285714 20  C 17.5721726190476 20  17.4800967261905 19.9604166666667  17.40234375 19.88125  C 17.3245907738095 19.8020833333333  17.2857142857143 19.7083333333333  17.2857142857143 19.6  L 17.2857142857143 17.2  C 17.0238095238095 17.2  16.6759672619048 17.2020833333333  16.2421875 17.20625  C 15.8084077380952 17.2104166666667  15.4769345238095 17.2145833333333  15.2477678571429 17.21875  C 15.0186011904762 17.2229166666667  14.7198660714286 17.21875  14.3515625 17.20625  C 13.9832589285714 17.19375  13.6927083333333 17.1729166666667  13.4799107142857 17.14375  C 13.2671130952381 17.1145833333333  13.0052083333333 17.0708333333333  12.6941964285714 17.0125  C 12.3831845238095 16.9541666666667  12.1253720238095 16.8770833333333  11.9207589285714 16.78125  C 11.7161458333333 16.6854166666667  11.4787946428571 16.5666666666667  11.2087053571429 16.425  C 10.9386160714286 16.2833333333333  10.6971726190476 16.1166666666667  10.484375 15.925  C 10.2715773809524 15.7333333333333  10.0465029761905 15.5104166666667  9.80915178571428 15.25625  C 9.5718005952381 15.0020833333333  9.34263392857143 14.7125  9.12165178571428 14.3875  C 9.60453869047619 13.6125  10.1610863095238 12.475  10.7912946428571 10.975  C 10.9713541666667 11.35  11.1227678571429 11.6520833333333  11.2455357142857 11.88125  C 11.3683035714286 12.1104166666667  11.5340401785714 12.375  11.7427455357143 12.675  C 11.9514508928571 12.975  12.16015625 13.2104166666667  12.3688616071429 13.38125  C 12.5775669642857 13.5520833333333  12.8353794642857 13.6979166666667  13.1422991071429 13.81875  C 13.44921875 13.9395833333333  13.7827380952381 14  14.1428571428571 14  L 17.2857142857143 14  L 17.2857142857143 11.6  C 17.2857142857143 11.4833333333333  17.3225446428571 11.3875  17.3962053571429 11.3125  C 17.4698660714286 11.2375  17.5639880952381 11.2  17.6785714285714 11.2  C 17.7767857142857 11.2  17.875 11.2416666666667  17.9732142857143 11.325  L 21.8895089285714 15.3125  Z M 21.8895089285714 4.1125  C 21.9631696428571 4.1875  22 4.28333333333333  22 4.4  C 22 4.51666666666667  21.9631696428571 4.6125  21.8895089285714 4.6875  L 17.9609375 8.6875  C 17.8872767857143 8.7625  17.7931547619048 8.8  17.6785714285714 8.8  C 17.5721726190476 8.8  17.4800967261905 8.76041666666667  17.40234375 8.68125  C 17.3245907738095 8.60208333333333  17.2857142857143 8.50833333333333  17.2857142857143 8.4  L 17.2857142857143 6  L 14.1428571428571 6  C 13.75 6  13.3939732142857 6.0625  13.0747767857143 6.1875  C 12.7555803571429 6.3125  12.4732142857143 6.5  12.2276785714286 6.75  C 11.9821428571429 7  11.7734375 7.25625  11.6015625 7.51875  C 11.4296875 7.78125  11.2455357142857 8.10416666666667  11.0491071428571 8.4875  C 10.7872023809524 9.00416666666667  10.468005952381 9.71666666666667  10.0915178571429 10.625  C 9.85416666666667 11.175  9.65159970238095 11.6375  9.48381696428572 12.0125  C 9.31603422619048 12.3875  9.09505208333333 12.825  8.82087053571428 13.325  C 8.54668898809524 13.825  8.28478422619048 14.2416666666667  8.03515625 14.575  C 7.78552827380952 14.9083333333333  7.48270089285714 15.2541666666667  7.12667410714286 15.6125  C 6.77064732142857 15.9708333333333  6.40234375 16.25625  6.02176339285714 16.46875  C 5.64118303571429 16.68125  5.20535714285714 16.85625  4.71428571428571 16.99375  C 4.22321428571429 17.13125  3.69940476190476 17.2  3.14285714285714 17.2  L 0.392857142857143 17.2  C 0.27827380952381 17.2  0.184151785714286 17.1625  0.110491071428571 17.0875  C 0.0368303571428571 17.0125  0 16.9166666666667  0 16.8  L 0 14.4  C 0 14.2833333333333  0.0368303571428571 14.1875  0.110491071428571 14.1125  C 0.184151785714286 14.0375  0.27827380952381 14  0.392857142857143 14  L 3.14285714285714 14  C 3.53571428571429 14  3.89174107142857 13.9375  4.2109375 13.8125  C 4.53013392857143 13.6875  4.8125 13.5  5.05803571428571 13.25  C 5.30357142857143 13  5.51227678571429 12.74375  5.68415178571429 12.48125  C 5.85602678571429 12.21875  6.04017857142857 11.8958333333333  6.23660714285714 11.5125  C 6.49851190476191 10.9958333333333  6.81770833333333 10.2833333333333  7.19419642857143 9.375  C 7.43154761904762 8.825  7.63411458333333 8.3625  7.80189732142857 7.9875  C 7.96968005952381 7.6125  8.19066220238095 7.175  8.46484375 6.675  C 8.73902529761905 6.175  9.00093005952381 5.75833333333333  9.25055803571428 5.425  C 9.50018601190476 5.09166666666667  9.80301339285714 4.74583333333333  10.1590401785714 4.3875  C 10.5150669642857 4.02916666666667  10.8833705357143 3.74375  11.2639508928571 3.53125  C 11.64453125 3.31875  12.0803571428571 3.14375  12.5714285714286 3.00625  C 13.0625 2.86875  13.5863095238095 2.8  14.1428571428571 2.8  L 17.2857142857143 2.8  L 17.2857142857143 0.4  C 17.2857142857143 0.283333333333331  17.3225446428571 0.1875  17.3962053571429 0.1125  C 17.4698660714286 0.0374999999999992  17.5639880952381 0  17.6785714285714 0  C 17.7767857142857 0  17.875 0.0416666666666665  17.9732142857143 0.125  L 21.8895089285714 4.1125  Z " fill-rule="nonzero" fill="#000000" stroke="none" transform="matrix(1 0 0 1 478 -30 )" />
  </g>
</svg>