<?xml version="1.0" encoding="utf-8"?>
<svg version="1.1" xmlns:xlink="http://www.w3.org/1999/xlink" width="56px" height="32px" xmlns="http://www.w3.org/2000/svg">
  <g transform="matrix(1 0 0 1 -539 -46 )">
    <path d="M 539 46  L 595 46  L 595 78  L 539 78  L 539 46  " fill-rule="nonzero" fill="#cccccc" stroke="none" />
    <path d="M 541 48  L 593 48  L 593 76  L 541 76  L 541 48  " fill-rule="nonzero" fill="#ffffff" stroke="none" />
    <path d="M 570.52 55.6  C 569.176 55.6  568.12 54.544  568.12 53.2  C 568.12 51.856  569.176 50.8  570.52 50.8  C 571.864 50.8  572.92 51.856  572.92 53.2  C 572.92 54.544  571.864 55.6  570.52 55.6  " fill-rule="nonzero" fill="#cccccc" stroke="none" />
    <path d="M 542 75  L 542 60.7  L 554.5 54.2  L 572 66.0857142857143  L 582 58.1  L 592 66.0857142857143  L 592 75  L 542 75  " fill-rule="nonzero" fill="#169bd5" stroke="none" />
  </g>
</svg>