<?xml version="1.0" encoding="utf-8"?>
<svg version="1.1" xmlns:xlink="http://www.w3.org/1999/xlink" width="16px" height="16px" viewBox="150 256  16 16" xmlns="http://www.w3.org/2000/svg">
  <path d="M 158 256  C 162.48 256  166 259.52  166 264  C 166 268.48  162.48 272  158 272  C 153.52 272  150 268.48  150 264  C 150 259.52  153.52 256  158 256  Z " fill-rule="nonzero" fill="#f0f0f0" stroke="none" />
  <path d="M 158 256.5  C 162.2 256.5  165.5 259.8  165.5 264  C 165.5 268.2  162.2 271.5  158 271.5  C 153.8 271.5  150.5 268.2  150.5 264  C 150.5 259.8  153.8 256.5  158 256.5  Z " stroke-width="1" stroke="#8c8c8c" fill="none" />
  <path d="M 158 268  C 155.76 268  154 266.24  154 264  C 154 261.76  155.76 260  158 260  C 160.24 260  162 261.76  162 264  C 162 266.24  160.24 268  158 268  " fill-rule="nonzero" fill="#8c8c8c" stroke="none" />
</svg>