<?xml version="1.0" encoding="utf-8"?>
<svg version="1.1" xmlns:xlink="http://www.w3.org/1999/xlink" width="120px" height="120px" xmlns="http://www.w3.org/2000/svg">
  <g transform="matrix(1 0 0 1 -32 -575 )">
    <path d="M 22 87  L 33 87  L 33 98  L 22 98  L 22 87  Z M 22 22  L 33 22  L 33 33  L 22 33  L 22 22  Z M 87 22  L 98 22  L 98 33  L 87 33  L 87 22  Z M 11 76  L 11 109  L 44 109  L 44 76  L 11 76  Z M 11 11  L 11 44  L 44 44  L 44 11  L 11 11  Z M 76 11  L 76 44  L 109 44  L 109 11  L 76 11  Z M 0 65  L 55 65  L 55 120  L 0 120  L 0 65  Z M 87 109  L 98 109  L 98 120  L 87 120  L 87 109  Z M 109 109  L 120 109  L 120 120  L 109 120  L 109 109  Z M 109 65  L 120 65  L 120 98  L 87 98  L 87 87  L 76 87  L 76 120  L 65 120  L 65 65  L 98 65  L 98 76  L 109 76  L 109 65  Z M 0 0  L 55 0  L 55 55  L 0 55  L 0 0  Z M 65 0  L 120 0  L 120 55  L 65 55  L 65 0  Z " fill-rule="nonzero" fill="#000000" stroke="none" transform="matrix(1 0 0 1 32 575 )" />
  </g>
</svg>