<?xml version="1.0" encoding="utf-8"?>
<svg version="1.1" xmlns:xlink="http://www.w3.org/1999/xlink" width="16px" height="16px" viewBox="679 -26  16 16" xmlns="http://www.w3.org/2000/svg">
  <path d="M 687 -26  C 691.48 -26  695 -22.48  695 -18  C 695 -13.52  691.48 -10  687 -10  C 682.52 -10  679 -13.52  679 -18  C 679 -22.48  682.52 -26  687 -26  Z " fill-rule="nonzero" fill="#ffffff" stroke="none" />
  <path d="M 687 -25.5  C 691.2 -25.5  694.5 -22.2  694.5 -18  C 694.5 -13.8  691.2 -10.5  687 -10.5  C 682.8 -10.5  679.5 -13.8  679.5 -18  C 679.5 -22.2  682.8 -25.5  687 -25.5  Z " stroke-width="1" stroke="#4b7902" fill="none" />
  <path d="M 687 -14  C 684.76 -14  683 -15.76  683 -18  C 683 -20.24  684.76 -22  687 -22  C 689.24 -22  691 -20.24  691 -18  C 691 -15.76  689.24 -14  687 -14  " fill-rule="nonzero" fill="#4b7902" stroke="none" />
</svg>