<?xml version="1.0" encoding="utf-8"?>
<svg version="1.1" xmlns:xlink="http://www.w3.org/1999/xlink" width="16px" height="16px" viewBox="584 -26  16 16" xmlns="http://www.w3.org/2000/svg">
  <path d="M 592 -26  C 596.48 -26  600 -22.48  600 -18  C 600 -13.52  596.48 -10  592 -10  C 587.52 -10  584 -13.52  584 -18  C 584 -22.48  587.52 -26  592 -26  Z " fill-rule="nonzero" fill="#f0f0f0" stroke="none" />
  <path d="M 592 -25.5  C 596.2 -25.5  599.5 -22.2  599.5 -18  C 599.5 -13.8  596.2 -10.5  592 -10.5  C 587.8 -10.5  584.5 -13.8  584.5 -18  C 584.5 -22.2  587.8 -25.5  592 -25.5  Z " stroke-width="1" stroke="#8c8c8c" fill="none" />
  <path d="M 592 -14  C 589.76 -14  588 -15.76  588 -18  C 588 -20.24  589.76 -22  592 -22  C 594.24 -22  596 -20.24  596 -18  C 596 -15.76  594.24 -14  592 -14  " fill-rule="nonzero" fill="#8c8c8c" stroke="none" />
</svg>