<?xml version="1.0" encoding="utf-8"?>
<svg version="1.1" xmlns:xlink="http://www.w3.org/1999/xlink" width="16px" height="16px" xmlns="http://www.w3.org/2000/svg">
  <g transform="matrix(1 0 0 1 -1322 -148 )">
    <path d="M 13.1875 8.47916666666667  C 13.3125 8.35416666666667  13.375 8.19791666666667  13.375 8.01041666666667  C 13.375 7.82291666666667  13.3125 7.66666666666667  13.1875 7.54166666666667  L 12.2395833333333 6.59375  C 12.1145833333333 6.46875  11.9583333333333 6.40625  11.7708333333333 6.40625  C 11.5833333333333 6.40625  11.4270833333333 6.46875  11.3020833333333 6.59375  L 9.33333333333333 8.5625  L 9.33333333333333 3.33333333333333  C 9.33333333333333 3.15277777777778  9.26736111111111 2.99652777777778  9.13541666666667 2.86458333333333  C 9.00347222222222 2.73263888888889  8.84722222222222 2.66666666666667  8.66666666666667 2.66666666666667  L 7.33333333333333 2.66666666666667  C 7.15277777777778 2.66666666666667  6.99652777777778 2.73263888888889  6.86458333333333 2.86458333333333  C 6.73263888888889 2.99652777777778  6.66666666666667 3.15277777777778  6.66666666666667 3.33333333333333  L 6.66666666666667 8.5625  L 4.69791666666667 6.59375  C 4.56597222222222 6.46180555555556  4.40972222222222 6.39583333333333  4.22916666666667 6.39583333333333  C 4.04861111111111 6.39583333333333  3.89236111111111 6.46180555555556  3.76041666666667 6.59375  L 2.8125 7.54166666666667  C 2.6875 7.66666666666667  2.625 7.82291666666667  2.625 8.01041666666667  C 2.625 8.19791666666667  2.6875 8.35416666666667  2.8125 8.47916666666667  L 6.58333333333333 12.25  L 7.53125 13.1979166666667  C 7.65625 13.3229166666667  7.8125 13.3854166666667  8 13.3854166666667  C 8.1875 13.3854166666667  8.34375 13.3229166666667  8.46875 13.1979166666667  L 9.41666666666667 12.25  L 13.1875 8.47916666666667  Z M 14.9270833333333 3.984375  C 15.6423611111111 5.21006944444444  16 6.54861111111111  16 8  C 16 9.45138888888889  15.6423611111111 10.7899305555556  14.9270833333333 12.015625  C 14.2118055555556 13.2413194444444  13.2413194444444 14.2118055555556  12.015625 14.9270833333333  C 10.7899305555556 15.6423611111111  9.45138888888889 16  8 16  C 6.54861111111111 16  5.21006944444444 15.6423611111111  3.984375 14.9270833333333  C 2.75868055555556 14.2118055555556  1.78819444444444 13.2413194444444  1.07291666666667 12.015625  C 0.357638888888889 10.7899305555556  0 9.45138888888889  0 8  C 0 6.54861111111111  0.357638888888889 5.21006944444444  1.07291666666667 3.984375  C 1.78819444444444 2.75868055555556  2.75868055555556 1.78819444444444  3.984375 1.07291666666667  C 5.21006944444444 0.357638888888888  6.54861111111111 0  8 0  C 9.45138888888889 0  10.7899305555556 0.357638888888888  12.015625 1.07291666666667  C 13.2413194444444 1.78819444444444  14.2118055555556 2.75868055555556  14.9270833333333 3.984375  Z " fill-rule="nonzero" fill="#70b603" stroke="none" transform="matrix(1 0 0 1 1322 148 )" />
  </g>
</svg>