<?xml version="1.0" encoding="utf-8"?>
<svg version="1.1" xmlns:xlink="http://www.w3.org/1999/xlink" width="16px" height="16px" viewBox="178 15  16 16" xmlns="http://www.w3.org/2000/svg">
  <path d="M 186 15  C 190.48 15  194 18.52  194 23  C 194 27.48  190.48 31  186 31  C 181.52 31  178 27.48  178 23  C 178 18.52  181.52 15  186 15  Z " fill-rule="nonzero" fill="#f0f0f0" stroke="none" />
  <path d="M 186 15.5  C 190.2 15.5  193.5 18.8  193.5 23  C 193.5 27.2  190.2 30.5  186 30.5  C 181.8 30.5  178.5 27.2  178.5 23  C 178.5 18.8  181.8 15.5  186 15.5  Z " stroke-width="1" stroke="#8c8c8c" fill="none" />
  <path d="M 186 27  C 183.76 27  182 25.24  182 23  C 182 20.76  183.76 19  186 19  C 188.24 19  190 20.76  190 23  C 190 25.24  188.24 27  186 27  " fill-rule="nonzero" fill="#8c8c8c" stroke="none" />
</svg>