<?xml version="1.0" encoding="utf-8"?>
<svg version="1.1" xmlns:xlink="http://www.w3.org/1999/xlink" width="16px" height="16px" viewBox="118 15  16 16" xmlns="http://www.w3.org/2000/svg">
  <path d="M 126 15  C 130.48 15  134 18.52  134 23  C 134 27.48  130.48 31  126 31  C 121.52 31  118 27.48  118 23  C 118 18.52  121.52 15  126 15  Z " fill-rule="nonzero" fill="#f0f0f0" stroke="none" />
  <path d="M 126 15.5  C 130.2 15.5  133.5 18.8  133.5 23  C 133.5 27.2  130.2 30.5  126 30.5  C 121.8 30.5  118.5 27.2  118.5 23  C 118.5 18.8  121.8 15.5  126 15.5  Z " stroke-width="1" stroke="#8c8c8c" fill="none" />
  <path d="M 126 27  C 123.76 27  122 25.24  122 23  C 122 20.76  123.76 19  126 19  C 128.24 19  130 20.76  130 23  C 130 25.24  128.24 27  126 27  " fill-rule="nonzero" fill="#8c8c8c" stroke="none" />
</svg>