<?xml version="1.0" encoding="utf-8"?>
<svg version="1.1" xmlns:xlink="http://www.w3.org/1999/xlink" width="16px" height="16px" viewBox="58 15  16 16" xmlns="http://www.w3.org/2000/svg">
  <path d="M 66 15  C 70.48 15  74 18.52  74 23  C 74 27.48  70.48 31  66 31  C 61.52 31  58 27.48  58 23  C 58 18.52  61.52 15  66 15  Z " fill-rule="nonzero" fill="#ffffff" stroke="none" />
  <path d="M 66 15.5  C 70.2 15.5  73.5 18.8  73.5 23  C 73.5 27.2  70.2 30.5  66 30.5  C 61.8 30.5  58.5 27.2  58.5 23  C 58.5 18.8  61.8 15.5  66 15.5  Z " stroke-width="1" stroke="#8080ff" fill="none" />
  <path d="M 66 27  C 63.76 27  62 25.24  62 23  C 62 20.76  63.76 19  66 19  C 68.24 19  70 20.76  70 23  C 70 25.24  68.24 27  66 27  " fill-rule="nonzero" fill="#8080ff" stroke="none" />
</svg>