<?xml version="1.0" encoding="utf-8"?>
<svg version="1.1" xmlns:xlink="http://www.w3.org/1999/xlink" width="16px" height="16px" viewBox="58 22  16 16" xmlns="http://www.w3.org/2000/svg">
  <path d="M 66 22  C 70.48 22  74 25.52  74 30  C 74 34.48  70.48 38  66 38  C 61.52 38  58 34.48  58 30  C 58 25.52  61.52 22  66 22  Z " fill-rule="nonzero" fill="#f0f0f0" stroke="none" />
  <path d="M 66 22.5  C 70.2 22.5  73.5 25.8  73.5 30  C 73.5 34.2  70.2 37.5  66 37.5  C 61.8 37.5  58.5 34.2  58.5 30  C 58.5 25.8  61.8 22.5  66 22.5  Z " stroke-width="1" stroke="#8c8c8c" fill="none" />
  <path d="M 66 34  C 63.76 34  62 32.24  62 30  C 62 27.76  63.76 26  66 26  C 68.24 26  70 27.76  70 30  C 70 32.24  68.24 34  66 34  " fill-rule="nonzero" fill="#8c8c8c" stroke="none" />
</svg>