<?xml version="1.0" encoding="utf-8"?>
<svg version="1.1" xmlns:xlink="http://www.w3.org/1999/xlink" width="16px" height="16px" viewBox="178 22  16 16" xmlns="http://www.w3.org/2000/svg">
  <path d="M 186 22  C 190.48 22  194 25.52  194 30  C 194 34.48  190.48 38  186 38  C 181.52 38  178 34.48  178 30  C 178 25.52  181.52 22  186 22  Z " fill-rule="nonzero" fill="#ffffff" stroke="none" />
  <path d="M 186 22.5  C 190.2 22.5  193.5 25.8  193.5 30  C 193.5 34.2  190.2 37.5  186 37.5  C 181.8 37.5  178.5 34.2  178.5 30  C 178.5 25.8  181.8 22.5  186 22.5  Z " stroke-width="1" stroke="#8080ff" fill="none" />
  <path d="M 186 34  C 183.76 34  182 32.24  182 30  C 182 27.76  183.76 26  186 26  C 188.24 26  190 27.76  190 30  C 190 32.24  188.24 34  186 34  " fill-rule="nonzero" fill="#8080ff" stroke="none" />
</svg>