<?xml version="1.0" encoding="utf-8"?>
<svg version="1.1" xmlns:xlink="http://www.w3.org/1999/xlink" width="16px" height="16px" viewBox="118 22  16 16" xmlns="http://www.w3.org/2000/svg">
  <path d="M 126 22  C 130.48 22  134 25.52  134 30  C 134 34.48  130.48 38  126 38  C 121.52 38  118 34.48  118 30  C 118 25.52  121.52 22  126 22  Z " fill-rule="nonzero" fill="#f0f0f0" stroke="none" />
  <path d="M 126 22.5  C 130.2 22.5  133.5 25.8  133.5 30  C 133.5 34.2  130.2 37.5  126 37.5  C 121.8 37.5  118.5 34.2  118.5 30  C 118.5 25.8  121.8 22.5  126 22.5  Z " stroke-width="1" stroke="#8c8c8c" fill="none" />
  <path d="M 126 34  C 123.76 34  122 32.24  122 30  C 122 27.76  123.76 26  126 26  C 128.24 26  130 27.76  130 30  C 130 32.24  128.24 34  126 34  " fill-rule="nonzero" fill="#8c8c8c" stroke="none" />
</svg>