<?xml version="1.0" encoding="utf-8"?>
<svg version="1.1" xmlns:xlink="http://www.w3.org/1999/xlink" width="16px" height="16px" viewBox="118 58  16 16" xmlns="http://www.w3.org/2000/svg">
  <path d="M 126 58  C 130.48 58  134 61.52  134 66  C 134 70.48  130.48 74  126 74  C 121.52 74  118 70.48  118 66  C 118 61.52  121.52 58  126 58  Z " fill-rule="nonzero" fill="#ffffff" stroke="none" />
  <path d="M 126 58.5  C 130.2 58.5  133.5 61.8  133.5 66  C 133.5 70.2  130.2 73.5  126 73.5  C 121.8 73.5  118.5 70.2  118.5 66  C 118.5 61.8  121.8 58.5  126 58.5  Z " stroke-width="1" stroke="#7b4d12" fill="none" />
  <path d="M 126 70  C 123.76 70  122 68.24  122 66  C 122 63.76  123.76 62  126 62  C 128.24 62  130 63.76  130 66  C 130 68.24  128.24 70  126 70  " fill-rule="nonzero" fill="#7b4d12" stroke="none" />
</svg>