<?xml version="1.0" encoding="utf-8"?>
<svg version="1.1" xmlns:xlink="http://www.w3.org/1999/xlink" width="16px" height="16px" viewBox="58 58  16 16" xmlns="http://www.w3.org/2000/svg">
  <path d="M 66 58  C 70.48 58  74 61.52  74 66  C 74 70.48  70.48 74  66 74  C 61.52 74  58 70.48  58 66  C 58 61.52  61.52 58  66 58  Z " fill-rule="nonzero" fill="#ffffff" stroke="none" />
  <path d="M 66 58.5  C 70.2 58.5  73.5 61.8  73.5 66  C 73.5 70.2  70.2 73.5  66 73.5  C 61.8 73.5  58.5 70.2  58.5 66  C 58.5 61.8  61.8 58.5  66 58.5  Z " stroke-width="1" stroke="#7b4d12" fill="none" />
  <path d="M 66 70  C 63.76 70  62 68.24  62 66  C 62 63.76  63.76 62  66 62  C 68.24 62  70 63.76  70 66  C 70 68.24  68.24 70  66 70  " fill-rule="nonzero" fill="#7b4d12" stroke="none" />
</svg>