<?xml version="1.0" encoding="utf-8"?>
<svg version="1.1" xmlns:xlink="http://www.w3.org/1999/xlink" width="16px" height="16px" viewBox="188 58  16 16" xmlns="http://www.w3.org/2000/svg">
  <path d="M 196 58  C 200.48 58  204 61.52  204 66  C 204 70.48  200.48 74  196 74  C 191.52 74  188 70.48  188 66  C 188 61.52  191.52 58  196 58  Z " fill-rule="nonzero" fill="#f0f0f0" stroke="none" />
  <path d="M 196 58.5  C 200.2 58.5  203.5 61.8  203.5 66  C 203.5 70.2  200.2 73.5  196 73.5  C 191.8 73.5  188.5 70.2  188.5 66  C 188.5 61.8  191.8 58.5  196 58.5  Z " stroke-width="1" stroke="#8c8c8c" fill="none" />
  <path d="M 196 70  C 193.76 70  192 68.24  192 66  C 192 63.76  193.76 62  196 62  C 198.24 62  200 63.76  200 66  C 200 68.24  198.24 70  196 70  " fill-rule="nonzero" fill="#8c8c8c" stroke="none" />
</svg>