<?xml version="1.0" encoding="utf-8"?>
<svg version="1.1" xmlns:xlink="http://www.w3.org/1999/xlink" width="16px" height="16px" viewBox="206 207  16 16" xmlns="http://www.w3.org/2000/svg">
  <path d="M 214 207  C 218.48 207  222 210.52  222 215  C 222 219.48  218.48 223  214 223  C 209.52 223  206 219.48  206 215  C 206 210.52  209.52 207  214 207  Z " fill-rule="nonzero" fill="#ffffff" stroke="none" />
  <path d="M 214 207.5  C 218.2 207.5  221.5 210.8  221.5 215  C 221.5 219.2  218.2 222.5  214 222.5  C 209.8 222.5  206.5 219.2  206.5 215  C 206.5 210.8  209.8 207.5  214 207.5  Z " stroke-width="1" stroke="#7b4d12" fill="none" />
  <path d="M 214 219  C 211.76 219  210 217.24  210 215  C 210 212.76  211.76 211  214 211  C 216.24 211  218 212.76  218 215  C 218 217.24  216.24 219  214 219  " fill-rule="nonzero" fill="#7b4d12" stroke="none" />
</svg>