<?xml version="1.0" encoding="utf-8"?>
<svg version="1.1" xmlns:xlink="http://www.w3.org/1999/xlink" width="16px" height="16px" viewBox="532 207  16 16" xmlns="http://www.w3.org/2000/svg">
  <path d="M 540 207  C 544.48 207  548 210.52  548 215  C 548 219.48  544.48 223  540 223  C 535.52 223  532 219.48  532 215  C 532 210.52  535.52 207  540 207  Z " fill-rule="nonzero" fill="#f0f0f0" stroke="none" />
  <path d="M 540 207.5  C 544.2 207.5  547.5 210.8  547.5 215  C 547.5 219.2  544.2 222.5  540 222.5  C 535.8 222.5  532.5 219.2  532.5 215  C 532.5 210.8  535.8 207.5  540 207.5  Z " stroke-width="1" stroke="#8c8c8c" fill="none" />
  <path d="M 540 219  C 537.76 219  536 217.24  536 215  C 536 212.76  537.76 211  540 211  C 542.24 211  544 212.76  544 215  C 544 217.24  542.24 219  540 219  " fill-rule="nonzero" fill="#8c8c8c" stroke="none" />
</svg>