<?xml version="1.0" encoding="utf-8"?>
<svg version="1.1" xmlns:xlink="http://www.w3.org/1999/xlink" width="16px" height="16px" viewBox="402 207  16 16" xmlns="http://www.w3.org/2000/svg">
  <path d="M 410 207  C 414.48 207  418 210.52  418 215  C 418 219.48  414.48 223  410 223  C 405.52 223  402 219.48  402 215  C 402 210.52  405.52 207  410 207  Z " fill-rule="nonzero" fill="#ffffff" stroke="none" />
  <path d="M 410 207.5  C 414.2 207.5  417.5 210.8  417.5 215  C 417.5 219.2  414.2 222.5  410 222.5  C 405.8 222.5  402.5 219.2  402.5 215  C 402.5 210.8  405.8 207.5  410 207.5  Z " stroke-width="1" stroke="#7b4d12" fill="none" />
  <path d="M 410 219  C 407.76 219  406 217.24  406 215  C 406 212.76  407.76 211  410 211  C 412.24 211  414 212.76  414 215  C 414 217.24  412.24 219  410 219  " fill-rule="nonzero" fill="#7b4d12" stroke="none" />
</svg>