<?xml version="1.0" encoding="utf-8"?>
<svg version="1.1" xmlns:xlink="http://www.w3.org/1999/xlink" width="16px" height="16px" viewBox="462 207  16 16" xmlns="http://www.w3.org/2000/svg">
  <path d="M 470 207  C 474.48 207  478 210.52  478 215  C 478 219.48  474.48 223  470 223  C 465.52 223  462 219.48  462 215  C 462 210.52  465.52 207  470 207  Z " fill-rule="nonzero" fill="#ffffff" stroke="none" />
  <path d="M 470 207.5  C 474.2 207.5  477.5 210.8  477.5 215  C 477.5 219.2  474.2 222.5  470 222.5  C 465.8 222.5  462.5 219.2  462.5 215  C 462.5 210.8  465.8 207.5  470 207.5  Z " stroke-width="1" stroke="#7b4d12" fill="none" />
  <path d="M 470 219  C 467.76 219  466 217.24  466 215  C 466 212.76  467.76 211  470 211  C 472.24 211  474 212.76  474 215  C 474 217.24  472.24 219  470 219  " fill-rule="nonzero" fill="#7b4d12" stroke="none" />
</svg>