<?xml version="1.0" encoding="utf-8"?>
<svg version="1.1" xmlns:xlink="http://www.w3.org/1999/xlink" width="16px" height="16px" viewBox="146 207  16 16" xmlns="http://www.w3.org/2000/svg">
  <path d="M 154 207  C 158.48 207  162 210.52  162 215  C 162 219.48  158.48 223  154 223  C 149.52 223  146 219.48  146 215  C 146 210.52  149.52 207  154 207  Z " fill-rule="nonzero" fill="#ffffff" stroke="none" />
  <path d="M 154 207.5  C 158.2 207.5  161.5 210.8  161.5 215  C 161.5 219.2  158.2 222.5  154 222.5  C 149.8 222.5  146.5 219.2  146.5 215  C 146.5 210.8  149.8 207.5  154 207.5  Z " stroke-width="1" stroke="#7b4d12" fill="none" />
  <path d="M 154 219  C 151.76 219  150 217.24  150 215  C 150 212.76  151.76 211  154 211  C 156.24 211  158 212.76  158 215  C 158 217.24  156.24 219  154 219  " fill-rule="nonzero" fill="#7b4d12" stroke="none" />
</svg>