<?xml version="1.0" encoding="utf-8"?>
<svg version="1.1" xmlns:xlink="http://www.w3.org/1999/xlink" width="16px" height="16px" viewBox="176 161  16 16" xmlns="http://www.w3.org/2000/svg">
  <path d="M 184 161  C 188.48 161  192 164.52  192 169  C 192 173.48  188.48 177  184 177  C 179.52 177  176 173.48  176 169  C 176 164.52  179.52 161  184 161  Z " fill-rule="nonzero" fill="#ffffff" stroke="none" />
  <path d="M 184 161.5  C 188.2 161.5  191.5 164.8  191.5 169  C 191.5 173.2  188.2 176.5  184 176.5  C 179.8 176.5  176.5 173.2  176.5 169  C 176.5 164.8  179.8 161.5  184 161.5  Z " stroke-width="1" stroke="#7b4d12" fill="none" />
  <path d="M 184 173  C 181.76 173  180 171.24  180 169  C 180 166.76  181.76 165  184 165  C 186.24 165  188 166.76  188 169  C 188 171.24  186.24 173  184 173  " fill-rule="nonzero" fill="#7b4d12" stroke="none" />
</svg>