<?xml version="1.0" encoding="utf-8"?>
<svg version="1.1" xmlns:xlink="http://www.w3.org/1999/xlink" width="16px" height="16px" viewBox="86 161  16 16" xmlns="http://www.w3.org/2000/svg">
  <path d="M 94 161  C 98.48 161  102 164.52  102 169  C 102 173.48  98.48 177  94 177  C 89.52 177  86 173.48  86 169  C 86 164.52  89.52 161  94 161  Z " fill-rule="nonzero" fill="#ffffff" stroke="none" />
  <path d="M 94 161.5  C 98.2 161.5  101.5 164.8  101.5 169  C 101.5 173.2  98.2 176.5  94 176.5  C 89.8 176.5  86.5 173.2  86.5 169  C 86.5 164.8  89.8 161.5  94 161.5  Z " stroke-width="1" stroke="#7b4d12" fill="none" />
  <path d="M 94 173  C 91.76 173  90 171.24  90 169  C 90 166.76  91.76 165  94 165  C 96.24 165  98 166.76  98 169  C 98 171.24  96.24 173  94 173  " fill-rule="nonzero" fill="#7b4d12" stroke="none" />
</svg>