<?xml version="1.0" encoding="utf-8"?>
<svg version="1.1" xmlns:xlink="http://www.w3.org/1999/xlink" width="16px" height="16px" viewBox="352 257  16 16" xmlns="http://www.w3.org/2000/svg">
  <path d="M 360 257  C 364.48 257  368 260.52  368 265  C 368 269.48  364.48 273  360 273  C 355.52 273  352 269.48  352 265  C 352 260.52  355.52 257  360 257  Z " fill-rule="nonzero" fill="#ffffff" stroke="none" />
  <path d="M 360 257.5  C 364.2 257.5  367.5 260.8  367.5 265  C 367.5 269.2  364.2 272.5  360 272.5  C 355.8 272.5  352.5 269.2  352.5 265  C 352.5 260.8  355.8 257.5  360 257.5  Z " stroke-width="1" stroke="#02a7f0" fill="none" />
  <path d="M 360 269  C 357.76 269  356 267.24  356 265  C 356 262.76  357.76 261  360 261  C 362.24 261  364 262.76  364 265  C 364 267.24  362.24 269  360 269  " fill-rule="nonzero" fill="#02a7f0" stroke="none" />
</svg>