<?xml version="1.0" encoding="utf-8"?>
<svg version="1.1" xmlns:xlink="http://www.w3.org/1999/xlink" width="40px" height="28px" xmlns="http://www.w3.org/2000/svg">
  <g transform="matrix(1 0 0 1 -410 -237 )">
    <path d="M 410 237  L 450 237  L 450 265  L 410 265  L 410 237  " fill-rule="nonzero" fill="#cccccc" stroke="none" />
    <path d="M 412 239  L 448 239  L 448 263  L 412 263  L 412 239  " fill-rule="nonzero" fill="#ffffff" stroke="none" />
    <path d="M 432.9 245.4  C 431.724 245.4  430.8 244.476  430.8 243.3  C 430.8 242.124  431.724 241.2  432.9 241.2  C 434.076 241.2  435 242.124  435 243.3  C 435 244.476  434.076 245.4  432.9 245.4  " fill-rule="nonzero" fill="#cccccc" stroke="none" />
    <path d="M 413 263  L 413 250.35  L 421.75 244.6  L 434 253.34  L 441 248.05  L 448 253.34  L 448 263  L 413 263  " fill-rule="nonzero" fill="#169bd5" stroke="none" />
  </g>
</svg>