<?xml version="1.0" encoding="utf-8"?>
<svg version="1.1" xmlns:xlink="http://www.w3.org/1999/xlink" width="53px" height="30px" xmlns="http://www.w3.org/2000/svg">
  <g transform="matrix(1 0 0 1 -121 -281 )">
    <path d="M 121 281  L 174 281  L 174 311  L 121 311  L 121 281  " fill-rule="nonzero" fill="#cccccc" stroke="none" />
    <path d="M 123 283  L 172 283  L 172 309  L 123 309  L 123 283  " fill-rule="nonzero" fill="#ffffff" stroke="none" />
    <path d="M 150.81 290  C 149.55 290  148.56 289.01  148.56 287.75  C 148.56 286.49  149.55 285.5  150.81 285.5  C 152.07 285.5  153.06 286.49  153.06 287.75  C 153.06 289.01  152.07 290  150.81 290  " fill-rule="nonzero" fill="#cccccc" stroke="none" />
    <path d="M 124 308  L 124 294.8  L 135.75 288.8  L 152.2 299.849056603774  L 161.6 292.4  L 171 299.849056603774  L 171 308  L 124 308  " fill-rule="nonzero" fill="#169bd5" stroke="none" />
  </g>
</svg>