<?xml version="1.0" encoding="utf-8"?>
<svg version="1.1" xmlns:xlink="http://www.w3.org/1999/xlink" width="12px" height="12px" viewBox="110 287  12 12" xmlns="http://www.w3.org/2000/svg">
  <path d="M 116 287  C 119.36 287  122 289.64  122 293  C 122 296.36  119.36 299  116 299  C 112.64 299  110 296.36  110 293  C 110 289.64  112.64 287  116 287  Z " fill-rule="nonzero" fill="#f0f0f0" stroke="none" />
  <path d="M 116 287.5  C 119.08 287.5  121.5 289.92  121.5 293  C 121.5 296.08  119.08 298.5  116 298.5  C 112.92 298.5  110.5 296.08  110.5 293  C 110.5 289.92  112.92 287.5  116 287.5  Z " stroke-width="1" stroke="#797979" fill="none" />
  <path d="M 116 296  C 114.32 296  113 294.68  113 293  C 113 291.32  114.32 290  116 290  C 117.68 290  119 291.32  119 293  C 119 294.68  117.68 296  116 296  " fill-rule="nonzero" fill="#797979" stroke="none" />
</svg>