<?xml version="1.0" encoding="utf-8"?>
<svg version="1.1" xmlns:xlink="http://www.w3.org/1999/xlink" width="12px" height="12px" viewBox="210 287  12 12" xmlns="http://www.w3.org/2000/svg">
  <path d="M 216 287  C 219.36 287  222 289.64  222 293  C 222 296.36  219.36 299  216 299  C 212.64 299  210 296.36  210 293  C 210 289.64  212.64 287  216 287  Z " fill-rule="nonzero" fill="#ffffff" stroke="none" />
  <path d="M 216 287.5  C 219.08 287.5  221.5 289.92  221.5 293  C 221.5 296.08  219.08 298.5  216 298.5  C 212.92 298.5  210.5 296.08  210.5 293  C 210.5 289.92  212.92 287.5  216 287.5  Z " stroke-width="1" stroke="#02a7f0" fill="none" />
  <path d="M 216 296  C 214.32 296  213 294.68  213 293  C 213 291.32  214.32 290  216 290  C 217.68 290  219 291.32  219 293  C 219 294.68  217.68 296  216 296  " fill-rule="nonzero" fill="#02a7f0" stroke="none" />
</svg>