<?xml version="1.0" encoding="utf-8"?>
<svg version="1.1" xmlns:xlink="http://www.w3.org/1999/xlink" width="16px" height="16px" viewBox="186 85  16 16" xmlns="http://www.w3.org/2000/svg">
  <path d="M 194 85  C 198.48 85  202 88.52  202 93  C 202 97.48  198.48 101  194 101  C 189.52 101  186 97.48  186 93  C 186 88.52  189.52 85  194 85  Z " fill-rule="nonzero" fill="#f0f0f0" stroke="none" />
  <path d="M 194 85.5  C 198.2 85.5  201.5 88.8  201.5 93  C 201.5 97.2  198.2 100.5  194 100.5  C 189.8 100.5  186.5 97.2  186.5 93  C 186.5 88.8  189.8 85.5  194 85.5  Z " stroke-width="1" stroke="#8c8c8c" fill="none" />
  <path d="M 194 97  C 191.76 97  190 95.24  190 93  C 190 90.76  191.76 89  194 89  C 196.24 89  198 90.76  198 93  C 198 95.24  196.24 97  194 97  " fill-rule="nonzero" fill="#8c8c8c" stroke="none" />
</svg>