<?xml version="1.0" encoding="utf-8"?>
<svg version="1.1" xmlns:xlink="http://www.w3.org/1999/xlink" width="16px" height="16px" viewBox="296 213  16 16" xmlns="http://www.w3.org/2000/svg">
  <path d="M 304 213  C 308.48 213  312 216.52  312 221  C 312 225.48  308.48 229  304 229  C 299.52 229  296 225.48  296 221  C 296 216.52  299.52 213  304 213  Z " fill-rule="nonzero" fill="#f0f0f0" stroke="none" />
  <path d="M 304 213.5  C 308.2 213.5  311.5 216.8  311.5 221  C 311.5 225.2  308.2 228.5  304 228.5  C 299.8 228.5  296.5 225.2  296.5 221  C 296.5 216.8  299.8 213.5  304 213.5  Z " stroke-width="1" stroke="#8c8c8c" fill="none" />
  <path d="M 304 225  C 301.76 225  300 223.24  300 221  C 300 218.76  301.76 217  304 217  C 306.24 217  308 218.76  308 221  C 308 223.24  306.24 225  304 225  " fill-rule="nonzero" fill="#8c8c8c" stroke="none" />
</svg>