<?xml version="1.0" encoding="utf-8"?>
<svg version="1.1" xmlns:xlink="http://www.w3.org/1999/xlink" width="16px" height="16px" viewBox="263 503  16 16" xmlns="http://www.w3.org/2000/svg">
  <path d="M 271 503  C 275.48 503  279 506.52  279 511  C 279 515.48  275.48 519  271 519  C 266.52 519  263 515.48  263 511  C 263 506.52  266.52 503  271 503  Z " fill-rule="nonzero" fill="#ffffff" stroke="none" />
  <path d="M 271 503.5  C 275.2 503.5  278.5 506.8  278.5 511  C 278.5 515.2  275.2 518.5  271 518.5  C 266.8 518.5  263.5 515.2  263.5 511  C 263.5 506.8  266.8 503.5  271 503.5  Z " stroke-width="1" stroke="#7b4d12" fill="none" />
  <path d="M 271 515  C 268.76 515  267 513.24  267 511  C 267 508.76  268.76 507  271 507  C 273.24 507  275 508.76  275 511  C 275 513.24  273.24 515  271 515  " fill-rule="nonzero" fill="#7b4d12" stroke="none" />
</svg>