<?xml version="1.0" encoding="utf-8"?>
<svg version="1.1" xmlns:xlink="http://www.w3.org/1999/xlink" width="16px" height="16px" viewBox="103 503  16 16" xmlns="http://www.w3.org/2000/svg">
  <path d="M 111 503  C 115.48 503  119 506.52  119 511  C 119 515.48  115.48 519  111 519  C 106.52 519  103 515.48  103 511  C 103 506.52  106.52 503  111 503  Z " fill-rule="nonzero" fill="#f0f0f0" stroke="none" />
  <path d="M 111 503.5  C 115.2 503.5  118.5 506.8  118.5 511  C 118.5 515.2  115.2 518.5  111 518.5  C 106.8 518.5  103.5 515.2  103.5 511  C 103.5 506.8  106.8 503.5  111 503.5  Z " stroke-width="1" stroke="#8c8c8c" fill="none" />
  <path d="M 111 515  C 108.76 515  107 513.24  107 511  C 107 508.76  108.76 507  111 507  C 113.24 507  115 508.76  115 511  C 115 513.24  113.24 515  111 515  " fill-rule="nonzero" fill="#8c8c8c" stroke="none" />
</svg>