<?xml version="1.0" encoding="utf-8"?>
<svg version="1.1" xmlns:xlink="http://www.w3.org/1999/xlink" width="16px" height="16px" viewBox="81 174  16 16" xmlns="http://www.w3.org/2000/svg">
  <path d="M 89 174  C 93.48 174  97 177.52  97 182  C 97 186.48  93.48 190  89 190  C 84.52 190  81 186.48  81 182  C 81 177.52  84.52 174  89 174  Z " fill-rule="nonzero" fill="#ffffff" stroke="none" />
  <path d="M 89 174.5  C 93.2 174.5  96.5 177.8  96.5 182  C 96.5 186.2  93.2 189.5  89 189.5  C 84.8 189.5  81.5 186.2  81.5 182  C 81.5 177.8  84.8 174.5  89 174.5  Z " stroke-width="1" stroke="#7b4d12" fill="none" />
  <path d="M 89 186  C 86.76 186  85 184.24  85 182  C 85 179.76  86.76 178  89 178  C 91.24 178  93 179.76  93 182  C 93 184.24  91.24 186  89 186  " fill-rule="nonzero" fill="#7b4d12" stroke="none" />
</svg>