<?xml version="1.0" encoding="utf-8"?>
<svg version="1.1" xmlns:xlink="http://www.w3.org/1999/xlink" width="16px" height="16px" viewBox="70 8  16 16" xmlns="http://www.w3.org/2000/svg">
  <path d="M 78 8  C 82.48 8  86 11.52  86 16  C 86 20.48  82.48 24  78 24  C 73.52 24  70 20.48  70 16  C 70 11.52  73.52 8  78 8  Z " fill-rule="nonzero" fill="#ffffff" stroke="none" />
  <path d="M 78 8.5  C 82.2 8.5  85.5 11.8  85.5 16  C 85.5 20.2  82.2 23.5  78 23.5  C 73.8 23.5  70.5 20.2  70.5 16  C 70.5 11.8  73.8 8.5  78 8.5  Z " stroke-width="1" stroke="#8c8c8c" fill="none" />
  <path d="M 78 20  C 75.76 20  74 18.24  74 16  C 74 13.76  75.76 12  78 12  C 80.24 12  82 13.76  82 16  C 82 18.24  80.24 20  78 20  " fill-rule="nonzero" fill="#8c8c8c" stroke="none" />
</svg>