<?xml version="1.0" encoding="utf-8"?>
<svg version="1.1" xmlns:xlink="http://www.w3.org/1999/xlink" width="16px" height="16px" viewBox="140 8  16 16" xmlns="http://www.w3.org/2000/svg">
  <path d="M 148 8  C 152.48 8  156 11.52  156 16  C 156 20.48  152.48 24  148 24  C 143.52 24  140 20.48  140 16  C 140 11.52  143.52 8  148 8  Z " fill-rule="nonzero" fill="#f0f0f0" stroke="none" />
  <path d="M 148 8.5  C 152.2 8.5  155.5 11.8  155.5 16  C 155.5 20.2  152.2 23.5  148 23.5  C 143.8 23.5  140.5 20.2  140.5 16  C 140.5 11.8  143.8 8.5  148 8.5  Z " stroke-width="1" stroke="#8c8c8c" fill="none" />
  <path d="M 148 20  C 145.76 20  144 18.24  144 16  C 144 13.76  145.76 12  148 12  C 150.24 12  152 13.76  152 16  C 152 18.24  150.24 20  148 20  " fill-rule="nonzero" fill="#8c8c8c" stroke="none" />
</svg>