<?xml version="1.0" encoding="utf-8"?>
<svg version="1.1" xmlns:xlink="http://www.w3.org/1999/xlink" width="16px" height="16px" viewBox="90 295  16 16" xmlns="http://www.w3.org/2000/svg">
  <path d="M 98 295  C 102.48 295  106 298.52  106 303  C 106 307.48  102.48 311  98 311  C 93.52 311  90 307.48  90 303  C 90 298.52  93.52 295  98 295  Z " fill-rule="nonzero" fill="#ffffff" stroke="none" />
  <path d="M 98 295.5  C 102.2 295.5  105.5 298.8  105.5 303  C 105.5 307.2  102.2 310.5  98 310.5  C 93.8 310.5  90.5 307.2  90.5 303  C 90.5 298.8  93.8 295.5  98 295.5  Z " stroke-width="1" stroke="#000000" fill="none" />
  <path d="M 98 307  C 95.76 307  94 305.24  94 303  C 94 300.76  95.76 299  98 299  C 100.24 299  102 300.76  102 303  C 102 305.24  100.24 307  98 307  " fill-rule="nonzero" fill="#000000" stroke="none" />
</svg>