<?xml version="1.0" encoding="utf-8"?>
<svg version="1.1" xmlns:xlink="http://www.w3.org/1999/xlink" width="16px" height="16px" viewBox="495 163  16 16" xmlns="http://www.w3.org/2000/svg">
  <path d="M 503 163  C 507.48 163  511 166.52  511 171  C 511 175.48  507.48 179  503 179  C 498.52 179  495 175.48  495 171  C 495 166.52  498.52 163  503 163  Z " fill-rule="nonzero" fill="#ffffff" stroke="none" />
  <path d="M 503 163.5  C 507.2 163.5  510.5 166.8  510.5 171  C 510.5 175.2  507.2 178.5  503 178.5  C 498.8 178.5  495.5 175.2  495.5 171  C 495.5 166.8  498.8 163.5  503 163.5  Z " stroke-width="1" stroke="#000000" fill="none" />
  <path d="M 503 175  C 500.76 175  499 173.24  499 171  C 499 168.76  500.76 167  503 167  C 505.24 167  507 168.76  507 171  C 507 173.24  505.24 175  503 175  " fill-rule="nonzero" fill="#000000" stroke="none" />
</svg>