<?xml version="1.0" encoding="utf-8"?>
<svg version="1.1" xmlns:xlink="http://www.w3.org/1999/xlink" width="16px" height="16px" viewBox="495 123  16 16" xmlns="http://www.w3.org/2000/svg">
  <path d="M 503 123  C 507.48 123  511 126.52  511 131  C 511 135.48  507.48 139  503 139  C 498.52 139  495 135.48  495 131  C 495 126.52  498.52 123  503 123  Z " fill-rule="nonzero" fill="#f0f0f0" stroke="none" />
  <path d="M 503 123.5  C 507.2 123.5  510.5 126.8  510.5 131  C 510.5 135.2  507.2 138.5  503 138.5  C 498.8 138.5  495.5 135.2  495.5 131  C 495.5 126.8  498.8 123.5  503 123.5  Z " stroke-width="1" stroke="#8c8c8c" fill="none" />
  <path d="M 503 135  C 500.76 135  499 133.24  499 131  C 499 128.76  500.76 127  503 127  C 505.24 127  507 128.76  507 131  C 507 133.24  505.24 135  503 135  " fill-rule="nonzero" fill="#8c8c8c" stroke="none" />
</svg>