<?xml version="1.0" encoding="utf-8"?>
<svg version="1.1" xmlns:xlink="http://www.w3.org/1999/xlink" width="16px" height="16px" viewBox="550 123  16 16" xmlns="http://www.w3.org/2000/svg">
  <path d="M 558 123  C 562.48 123  566 126.52  566 131  C 566 135.48  562.48 139  558 139  C 553.52 139  550 135.48  550 131  C 550 126.52  553.52 123  558 123  Z " fill-rule="nonzero" fill="#f0f0f0" stroke="none" />
  <path d="M 558 123.5  C 562.2 123.5  565.5 126.8  565.5 131  C 565.5 135.2  562.2 138.5  558 138.5  C 553.8 138.5  550.5 135.2  550.5 131  C 550.5 126.8  553.8 123.5  558 123.5  Z " stroke-width="1" stroke="#8c8c8c" fill="none" />
  <path d="M 558 135  C 555.76 135  554 133.24  554 131  C 554 128.76  555.76 127  558 127  C 560.24 127  562 128.76  562 131  C 562 133.24  560.24 135  558 135  " fill-rule="nonzero" fill="#8c8c8c" stroke="none" />
</svg>