<?xml version="1.0" encoding="utf-8"?>
<svg version="1.1" xmlns:xlink="http://www.w3.org/1999/xlink" width="16px" height="16px" viewBox="145 367  16 16" xmlns="http://www.w3.org/2000/svg">
  <path d="M 153 367  C 157.48 367  161 370.52  161 375  C 161 379.48  157.48 383  153 383  C 148.52 383  145 379.48  145 375  C 145 370.52  148.52 367  153 367  Z " fill-rule="nonzero" fill="#ffffff" stroke="none" />
  <path d="M 153 367.5  C 157.2 367.5  160.5 370.8  160.5 375  C 160.5 379.2  157.2 382.5  153 382.5  C 148.8 382.5  145.5 379.2  145.5 375  C 145.5 370.8  148.8 367.5  153 367.5  Z " stroke-width="1" stroke="#02a7f0" fill="none" />
  <path d="M 153 379  C 150.76 379  149 377.24  149 375  C 149 372.76  150.76 371  153 371  C 155.24 371  157 372.76  157 375  C 157 377.24  155.24 379  153 379  " fill-rule="nonzero" fill="#02a7f0" stroke="none" />
</svg>