<?xml version="1.0" encoding="utf-8"?>
<svg version="1.1" xmlns:xlink="http://www.w3.org/1999/xlink" width="16px" height="16px" viewBox="550 163  16 16" xmlns="http://www.w3.org/2000/svg">
  <path d="M 558 163  C 562.48 163  566 166.52  566 171  C 566 175.48  562.48 179  558 179  C 553.52 179  550 175.48  550 171  C 550 166.52  553.52 163  558 163  Z " fill-rule="nonzero" fill="#f0f0f0" stroke="none" />
  <path d="M 558 163.5  C 562.2 163.5  565.5 166.8  565.5 171  C 565.5 175.2  562.2 178.5  558 178.5  C 553.8 178.5  550.5 175.2  550.5 171  C 550.5 166.8  553.8 163.5  558 163.5  Z " stroke-width="1" stroke="#8c8c8c" fill="none" />
  <path d="M 558 175  C 555.76 175  554 173.24  554 171  C 554 168.76  555.76 167  558 167  C 560.24 167  562 168.76  562 171  C 562 173.24  560.24 175  558 175  " fill-rule="nonzero" fill="#8c8c8c" stroke="none" />
</svg>