<?xml version="1.0" encoding="utf-8"?>
<svg version="1.1" xmlns:xlink="http://www.w3.org/1999/xlink" width="16px" height="16px" viewBox="195 295  16 16" xmlns="http://www.w3.org/2000/svg">
  <path d="M 203 295  C 207.48 295  211 298.52  211 303  C 211 307.48  207.48 311  203 311  C 198.52 311  195 307.48  195 303  C 195 298.52  198.52 295  203 295  Z " fill-rule="nonzero" fill="#f0f0f0" stroke="none" />
  <path d="M 203 295.5  C 207.2 295.5  210.5 298.8  210.5 303  C 210.5 307.2  207.2 310.5  203 310.5  C 198.8 310.5  195.5 307.2  195.5 303  C 195.5 298.8  198.8 295.5  203 295.5  Z " stroke-width="1" stroke="#8c8c8c" fill="none" />
  <path d="M 203 307  C 200.76 307  199 305.24  199 303  C 199 300.76  200.76 299  203 299  C 205.24 299  207 300.76  207 303  C 207 305.24  205.24 307  203 307  " fill-rule="nonzero" fill="#8c8c8c" stroke="none" />
</svg>