<?xml version="1.0" encoding="utf-8"?>
<svg version="1.1" xmlns:xlink="http://www.w3.org/1999/xlink" width="16px" height="16px" viewBox="894 123  16 16" xmlns="http://www.w3.org/2000/svg">
  <path d="M 902 123  C 906.48 123  910 126.52  910 131  C 910 135.48  906.48 139  902 139  C 897.52 139  894 135.48  894 131  C 894 126.52  897.52 123  902 123  Z " fill-rule="nonzero" fill="#f0f0f0" stroke="none" />
  <path d="M 902 123.5  C 906.2 123.5  909.5 126.8  909.5 131  C 909.5 135.2  906.2 138.5  902 138.5  C 897.8 138.5  894.5 135.2  894.5 131  C 894.5 126.8  897.8 123.5  902 123.5  Z " stroke-width="1" stroke="#8c8c8c" fill="none" />
  <path d="M 902 135  C 899.76 135  898 133.24  898 131  C 898 128.76  899.76 127  902 127  C 904.24 127  906 128.76  906 131  C 906 133.24  904.24 135  902 135  " fill-rule="nonzero" fill="#8c8c8c" stroke="none" />
</svg>