<?xml version="1.0" encoding="utf-8"?>
<svg version="1.1" xmlns:xlink="http://www.w3.org/1999/xlink" width="16px" height="16px" viewBox="839 163  16 16" xmlns="http://www.w3.org/2000/svg">
  <path d="M 847 163  C 851.48 163  855 166.52  855 171  C 855 175.48  851.48 179  847 179  C 842.52 179  839 175.48  839 171  C 839 166.52  842.52 163  847 163  Z " fill-rule="nonzero" fill="#ffffff" stroke="none" />
  <path d="M 847 163.5  C 851.2 163.5  854.5 166.8  854.5 171  C 854.5 175.2  851.2 178.5  847 178.5  C 842.8 178.5  839.5 175.2  839.5 171  C 839.5 166.8  842.8 163.5  847 163.5  Z " stroke-width="1" stroke="#000000" fill="none" />
  <path d="M 847 175  C 844.76 175  843 173.24  843 171  C 843 168.76  844.76 167  847 167  C 849.24 167  851 168.76  851 171  C 851 173.24  849.24 175  847 175  " fill-rule="nonzero" fill="#000000" stroke="none" />
</svg>