<?xml version="1.0" encoding="utf-8"?>
<svg version="1.1" xmlns:xlink="http://www.w3.org/1999/xlink" width="16px" height="16px" viewBox="90 331  16 16" xmlns="http://www.w3.org/2000/svg">
  <path d="M 98 331  C 102.48 331  106 334.52  106 339  C 106 343.48  102.48 347  98 347  C 93.52 347  90 343.48  90 339  C 90 334.52  93.52 331  98 331  Z " fill-rule="nonzero" fill="#ffffff" stroke="none" />
  <path d="M 98 331.5  C 102.2 331.5  105.5 334.8  105.5 339  C 105.5 343.2  102.2 346.5  98 346.5  C 93.8 346.5  90.5 343.2  90.5 339  C 90.5 334.8  93.8 331.5  98 331.5  Z " stroke-width="1" stroke="#000000" fill="none" />
  <path d="M 98 343  C 95.76 343  94 341.24  94 339  C 94 336.76  95.76 335  98 335  C 100.24 335  102 336.76  102 339  C 102 341.24  100.24 343  98 343  " fill-rule="nonzero" fill="#000000" stroke="none" />
</svg>