<?xml version="1.0" encoding="utf-8"?>
<svg version="1.1" xmlns:xlink="http://www.w3.org/1999/xlink" width="16px" height="16px" viewBox="949 123  16 16" xmlns="http://www.w3.org/2000/svg">
  <path d="M 957 123  C 961.48 123  965 126.52  965 131  C 965 135.48  961.48 139  957 139  C 952.52 139  949 135.48  949 131  C 949 126.52  952.52 123  957 123  Z " fill-rule="nonzero" fill="#f0f0f0" stroke="none" />
  <path d="M 957 123.5  C 961.2 123.5  964.5 126.8  964.5 131  C 964.5 135.2  961.2 138.5  957 138.5  C 952.8 138.5  949.5 135.2  949.5 131  C 949.5 126.8  952.8 123.5  957 123.5  Z " stroke-width="1" stroke="#8c8c8c" fill="none" />
  <path d="M 957 135  C 954.76 135  953 133.24  953 131  C 953 128.76  954.76 127  957 127  C 959.24 127  961 128.76  961 131  C 961 133.24  959.24 135  957 135  " fill-rule="nonzero" fill="#8c8c8c" stroke="none" />
</svg>