<?xml version="1.0" encoding="utf-8"?>
<svg version="1.1" xmlns:xlink="http://www.w3.org/1999/xlink" width="16px" height="16px" viewBox="145 295  16 16" xmlns="http://www.w3.org/2000/svg">
  <path d="M 153 295  C 157.48 295  161 298.52  161 303  C 161 307.48  157.48 311  153 311  C 148.52 311  145 307.48  145 303  C 145 298.52  148.52 295  153 295  Z " fill-rule="nonzero" fill="#f0f0f0" stroke="none" />
  <path d="M 153 295.5  C 157.2 295.5  160.5 298.8  160.5 303  C 160.5 307.2  157.2 310.5  153 310.5  C 148.8 310.5  145.5 307.2  145.5 303  C 145.5 298.8  148.8 295.5  153 295.5  Z " stroke-width="1" stroke="#8c8c8c" fill="none" />
  <path d="M 153 307  C 150.76 307  149 305.24  149 303  C 149 300.76  150.76 299  153 299  C 155.24 299  157 300.76  157 303  C 157 305.24  155.24 307  153 307  " fill-rule="nonzero" fill="#8c8c8c" stroke="none" />
</svg>