<?xml version="1.0" encoding="utf-8"?>
<svg version="1.1" xmlns:xlink="http://www.w3.org/1999/xlink" width="16px" height="16px" viewBox="949 163  16 16" xmlns="http://www.w3.org/2000/svg">
  <path d="M 957 163  C 961.48 163  965 166.52  965 171  C 965 175.48  961.48 179  957 179  C 952.52 179  949 175.48  949 171  C 949 166.52  952.52 163  957 163  Z " fill-rule="nonzero" fill="#ffffff" stroke="none" />
  <path d="M 957 163.5  C 961.2 163.5  964.5 166.8  964.5 171  C 964.5 175.2  961.2 178.5  957 178.5  C 952.8 178.5  949.5 175.2  949.5 171  C 949.5 166.8  952.8 163.5  957 163.5  Z " stroke-width="1" stroke="#d9001b" fill="none" />
  <path d="M 957 175  C 954.76 175  953 173.24  953 171  C 953 168.76  954.76 167  957 167  C 959.24 167  961 168.76  961 171  C 961 173.24  959.24 175  957 175  " fill-rule="nonzero" fill="#d9001b" stroke="none" />
</svg>