<?xml version="1.0" encoding="utf-8"?>
<svg version="1.1" xmlns:xlink="http://www.w3.org/1999/xlink" width="16px" height="16px" viewBox="777 163  16 16" xmlns="http://www.w3.org/2000/svg">
  <path d="M 785 163  C 789.48 163  793 166.52  793 171  C 793 175.48  789.48 179  785 179  C 780.52 179  777 175.48  777 171  C 777 166.52  780.52 163  785 163  Z " fill-rule="nonzero" fill="#ffffff" stroke="none" />
  <path d="M 785 163.5  C 789.2 163.5  792.5 166.8  792.5 171  C 792.5 175.2  789.2 178.5  785 178.5  C 780.8 178.5  777.5 175.2  777.5 171  C 777.5 166.8  780.8 163.5  785 163.5  Z " stroke-width="1" stroke="#d9001b" fill="none" />
  <path d="M 785 175  C 782.76 175  781 173.24  781 171  C 781 168.76  782.76 167  785 167  C 787.24 167  789 168.76  789 171  C 789 173.24  787.24 175  785 175  " fill-rule="nonzero" fill="#d9001b" stroke="none" />
</svg>