<?xml version="1.0" encoding="utf-8"?>
<svg version="1.1" xmlns:xlink="http://www.w3.org/1999/xlink" width="16px" height="16px" viewBox="722 123  16 16" xmlns="http://www.w3.org/2000/svg">
  <path d="M 730 123  C 734.48 123  738 126.52  738 131  C 738 135.48  734.48 139  730 139  C 725.52 139  722 135.48  722 131  C 722 126.52  725.52 123  730 123  Z " fill-rule="nonzero" fill="#f0f0f0" stroke="none" />
  <path d="M 730 123.5  C 734.2 123.5  737.5 126.8  737.5 131  C 737.5 135.2  734.2 138.5  730 138.5  C 725.8 138.5  722.5 135.2  722.5 131  C 722.5 126.8  725.8 123.5  730 123.5  Z " stroke-width="1" stroke="#8c8c8c" fill="none" />
  <path d="M 730 135  C 727.76 135  726 133.24  726 131  C 726 128.76  727.76 127  730 127  C 732.24 127  734 128.76  734 131  C 734 133.24  732.24 135  730 135  " fill-rule="nonzero" fill="#8c8c8c" stroke="none" />
</svg>