<?xml version="1.0" encoding="utf-8"?>
<svg version="1.1" xmlns:xlink="http://www.w3.org/1999/xlink" width="16px" height="16px" viewBox="90 367  16 16" xmlns="http://www.w3.org/2000/svg">
  <path d="M 98 367  C 102.48 367  106 370.52  106 375  C 106 379.48  102.48 383  98 383  C 93.52 383  90 379.48  90 375  C 90 370.52  93.52 367  98 367  Z " fill-rule="nonzero" fill="#ffffff" stroke="none" />
  <path d="M 98 367.5  C 102.2 367.5  105.5 370.8  105.5 375  C 105.5 379.2  102.2 382.5  98 382.5  C 93.8 382.5  90.5 379.2  90.5 375  C 90.5 370.8  93.8 367.5  98 367.5  Z " stroke-width="1" stroke="#000000" fill="none" />
  <path d="M 98 379  C 95.76 379  94 377.24  94 375  C 94 372.76  95.76 371  98 371  C 100.24 371  102 372.76  102 375  C 102 377.24  100.24 379  98 379  " fill-rule="nonzero" fill="#000000" stroke="none" />
</svg>