<?xml version="1.0" encoding="utf-8"?>
<svg version="1.1" xmlns:xlink="http://www.w3.org/1999/xlink" width="16px" height="16px" viewBox="605 163  16 16" xmlns="http://www.w3.org/2000/svg">
  <path d="M 613 163  C 617.48 163  621 166.52  621 171  C 621 175.48  617.48 179  613 179  C 608.52 179  605 175.48  605 171  C 605 166.52  608.52 163  613 163  Z " fill-rule="nonzero" fill="#ffffff" stroke="none" />
  <path d="M 613 163.5  C 617.2 163.5  620.5 166.8  620.5 171  C 620.5 175.2  617.2 178.5  613 178.5  C 608.8 178.5  605.5 175.2  605.5 171  C 605.5 166.8  608.8 163.5  613 163.5  Z " stroke-width="1" stroke="#d9001b" fill="none" />
  <path d="M 613 175  C 610.76 175  609 173.24  609 171  C 609 168.76  610.76 167  613 167  C 615.24 167  617 168.76  617 171  C 617 173.24  615.24 175  613 175  " fill-rule="nonzero" fill="#d9001b" stroke="none" />
</svg>