<?xml version="1.0" encoding="utf-8"?>
<svg version="1.1" xmlns:xlink="http://www.w3.org/1999/xlink" width="16px" height="16px" viewBox="667 123  16 16" xmlns="http://www.w3.org/2000/svg">
  <path d="M 675 123  C 679.48 123  683 126.52  683 131  C 683 135.48  679.48 139  675 139  C 670.52 139  667 135.48  667 131  C 667 126.52  670.52 123  675 123  Z " fill-rule="nonzero" fill="#f0f0f0" stroke="none" />
  <path d="M 675 123.5  C 679.2 123.5  682.5 126.8  682.5 131  C 682.5 135.2  679.2 138.5  675 138.5  C 670.8 138.5  667.5 135.2  667.5 131  C 667.5 126.8  670.8 123.5  675 123.5  Z " stroke-width="1" stroke="#8c8c8c" fill="none" />
  <path d="M 675 135  C 672.76 135  671 133.24  671 131  C 671 128.76  672.76 127  675 127  C 677.24 127  679 128.76  679 131  C 679 133.24  677.24 135  675 135  " fill-rule="nonzero" fill="#8c8c8c" stroke="none" />
</svg>