<?xml version="1.0" encoding="utf-8"?>
<svg version="1.1" xmlns:xlink="http://www.w3.org/1999/xlink" width="16px" height="16px" viewBox="777 123  16 16" xmlns="http://www.w3.org/2000/svg">
  <path d="M 785 123  C 789.48 123  793 126.52  793 131  C 793 135.48  789.48 139  785 139  C 780.52 139  777 135.48  777 131  C 777 126.52  780.52 123  785 123  Z " fill-rule="nonzero" fill="#f0f0f0" stroke="none" />
  <path d="M 785 123.5  C 789.2 123.5  792.5 126.8  792.5 131  C 792.5 135.2  789.2 138.5  785 138.5  C 780.8 138.5  777.5 135.2  777.5 131  C 777.5 126.8  780.8 123.5  785 123.5  Z " stroke-width="1" stroke="#8c8c8c" fill="none" />
  <path d="M 785 135  C 782.76 135  781 133.24  781 131  C 781 128.76  782.76 127  785 127  C 787.24 127  789 128.76  789 131  C 789 133.24  787.24 135  785 135  " fill-rule="nonzero" fill="#8c8c8c" stroke="none" />
</svg>