<?xml version="1.0" encoding="utf-8"?>
<svg version="1.1" xmlns:xlink="http://www.w3.org/1999/xlink" width="16px" height="16px" viewBox="0 65  16 16" xmlns="http://www.w3.org/2000/svg">
  <path d="M 8 65  C 12.48 65  16 68.52  16 73  C 16 77.48  12.48 81  8 81  C 3.52 81  0 77.48  0 73  C 0 68.52  3.52 65  8 65  Z " fill-rule="nonzero" fill="#f0f0f0" stroke="none" />
  <path d="M 8 65.5  C 12.2 65.5  15.5 68.8  15.5 73  C 15.5 77.2  12.2 80.5  8 80.5  C 3.8 80.5  0.5 77.2  0.5 73  C 0.5 68.8  3.8 65.5  8 65.5  Z " stroke-width="1" stroke="#8c8c8c" fill="none" />
  <path d="M 8 77  C 5.76 77  4 75.24  4 73  C 4 70.76  5.76 69  8 69  C 10.24 69  12 70.76  12 73  C 12 75.24  10.24 77  8 77  " fill-rule="nonzero" fill="#8c8c8c" stroke="none" />
</svg>