<?xml version="1.0" encoding="utf-8"?>
<svg version="1.1" xmlns:xlink="http://www.w3.org/1999/xlink" width="16px" height="16px" viewBox="0 178  16 16" xmlns="http://www.w3.org/2000/svg">
  <path d="M 8 178  C 12.48 178  16 181.52  16 186  C 16 190.48  12.48 194  8 194  C 3.52 194  0 190.48  0 186  C 0 181.52  3.52 178  8 178  Z " fill-rule="nonzero" fill="#ffffff" stroke="none" />
  <path d="M 8 178.5  C 12.2 178.5  15.5 181.8  15.5 186  C 15.5 190.2  12.2 193.5  8 193.5  C 3.8 193.5  0.5 190.2  0.5 186  C 0.5 181.8  3.8 178.5  8 178.5  Z " stroke-width="1" stroke="#8080ff" fill="none" />
  <path d="M 8 190  C 5.76 190  4 188.24  4 186  C 4 183.76  5.76 182  8 182  C 10.24 182  12 183.76  12 186  C 12 188.24  10.24 190  8 190  " fill-rule="nonzero" fill="#8080ff" stroke="none" />
</svg>