<?xml version="1.0" encoding="utf-8"?>
<svg version="1.1" xmlns:xlink="http://www.w3.org/1999/xlink" width="16px" height="16px" viewBox="0 145  16 16" xmlns="http://www.w3.org/2000/svg">
  <path d="M 8 145  C 12.48 145  16 148.52  16 153  C 16 157.48  12.48 161  8 161  C 3.52 161  0 157.48  0 153  C 0 148.52  3.52 145  8 145  Z " fill-rule="nonzero" fill="#f0f0f0" stroke="none" />
  <path d="M 8 145.5  C 12.2 145.5  15.5 148.8  15.5 153  C 15.5 157.2  12.2 160.5  8 160.5  C 3.8 160.5  0.5 157.2  0.5 153  C 0.5 148.8  3.8 145.5  8 145.5  Z " stroke-width="1" stroke="#8c8c8c" fill="none" />
  <path d="M 8 157  C 5.76 157  4 155.24  4 153  C 4 150.76  5.76 149  8 149  C 10.24 149  12 150.76  12 153  C 12 155.24  10.24 157  8 157  " fill-rule="nonzero" fill="#8c8c8c" stroke="none" />
</svg>