<?xml version="1.0" encoding="utf-8"?>
<svg version="1.1" xmlns:xlink="http://www.w3.org/1999/xlink" width="16px" height="16px" viewBox="0 93  16 16" xmlns="http://www.w3.org/2000/svg">
  <path d="M 8 93  C 12.48 93  16 96.52  16 101  C 16 105.48  12.48 109  8 109  C 3.52 109  0 105.48  0 101  C 0 96.52  3.52 93  8 93  Z " fill-rule="nonzero" fill="#ffffff" stroke="none" />
  <path d="M 8 93.5  C 12.2 93.5  15.5 96.8  15.5 101  C 15.5 105.2  12.2 108.5  8 108.5  C 3.8 108.5  0.5 105.2  0.5 101  C 0.5 96.8  3.8 93.5  8 93.5  Z " stroke-width="1" stroke="#8080ff" fill="none" />
  <path d="M 8 105  C 5.76 105  4 103.24  4 101  C 4 98.76  5.76 97  8 97  C 10.24 97  12 98.76  12 101  C 12 103.24  10.24 105  8 105  " fill-rule="nonzero" fill="#8080ff" stroke="none" />
</svg>