<?xml version="1.0" encoding="utf-8"?>
<svg version="1.1" xmlns:xlink="http://www.w3.org/1999/xlink" width="16px" height="16px" viewBox="0 222  16 16" xmlns="http://www.w3.org/2000/svg">
  <path d="M 8 222  C 12.48 222  16 225.52  16 230  C 16 234.48  12.48 238  8 238  C 3.52 238  0 234.48  0 230  C 0 225.52  3.52 222  8 222  Z " fill-rule="nonzero" fill="#f0f0f0" stroke="none" />
  <path d="M 8 222.5  C 12.2 222.5  15.5 225.8  15.5 230  C 15.5 234.2  12.2 237.5  8 237.5  C 3.8 237.5  0.5 234.2  0.5 230  C 0.5 225.8  3.8 222.5  8 222.5  Z " stroke-width="1" stroke="#8c8c8c" fill="none" />
  <path d="M 8 234  C 5.76 234  4 232.24  4 230  C 4 227.76  5.76 226  8 226  C 10.24 226  12 227.76  12 230  C 12 232.24  10.24 234  8 234  " fill-rule="nonzero" fill="#8c8c8c" stroke="none" />
</svg>