<?xml version="1.0" encoding="utf-8"?>
<svg version="1.1" xmlns:xlink="http://www.w3.org/1999/xlink" width="16px" height="16px" viewBox="0 159  16 16" xmlns="http://www.w3.org/2000/svg">
  <path d="M 8 159  C 12.48 159  16 162.52  16 167  C 16 171.48  12.48 175  8 175  C 3.52 175  0 171.48  0 167  C 0 162.52  3.52 159  8 159  Z " fill-rule="nonzero" fill="#ffffff" stroke="none" />
  <path d="M 8 159.5  C 12.2 159.5  15.5 162.8  15.5 167  C 15.5 171.2  12.2 174.5  8 174.5  C 3.8 174.5  0.5 171.2  0.5 167  C 0.5 162.8  3.8 159.5  8 159.5  Z " stroke-width="1" stroke="#8080ff" fill="none" />
  <path d="M 8 171  C 5.76 171  4 169.24  4 167  C 4 164.76  5.76 163  8 163  C 10.24 163  12 164.76  12 167  C 12 169.24  10.24 171  8 171  " fill-rule="nonzero" fill="#8080ff" stroke="none" />
</svg>