<?xml version="1.0" encoding="utf-8"?>
<svg version="1.1" xmlns:xlink="http://www.w3.org/1999/xlink" width="16px" height="16px" viewBox="690 159  16 16" xmlns="http://www.w3.org/2000/svg">
  <path d="M 698 159  C 702.48 159  706 162.52  706 167  C 706 171.48  702.48 175  698 175  C 693.52 175  690 171.48  690 167  C 690 162.52  693.52 159  698 159  Z " fill-rule="nonzero" fill="#ffffff" stroke="none" />
  <path d="M 698 159.5  C 702.2 159.5  705.5 162.8  705.5 167  C 705.5 171.2  702.2 174.5  698 174.5  C 693.8 174.5  690.5 171.2  690.5 167  C 690.5 162.8  693.8 159.5  698 159.5  Z " stroke-width="1" stroke="#8080ff" fill="none" />
  <path d="M 698 171  C 695.76 171  694 169.24  694 167  C 694 164.76  695.76 163  698 163  C 700.24 163  702 164.76  702 167  C 702 169.24  700.24 171  698 171  " fill-rule="nonzero" fill="#8080ff" stroke="none" />
</svg>