<?xml version="1.0" encoding="utf-8"?>
<svg version="1.1" xmlns:xlink="http://www.w3.org/1999/xlink" width="16px" height="16px" viewBox="690 222  16 16" xmlns="http://www.w3.org/2000/svg">
  <path d="M 698 222  C 702.48 222  706 225.52  706 230  C 706 234.48  702.48 238  698 238  C 693.52 238  690 234.48  690 230  C 690 225.52  693.52 222  698 222  Z " fill-rule="nonzero" fill="#ffffff" stroke="none" />
  <path d="M 698 222.5  C 702.2 222.5  705.5 225.8  705.5 230  C 705.5 234.2  702.2 237.5  698 237.5  C 693.8 237.5  690.5 234.2  690.5 230  C 690.5 225.8  693.8 222.5  698 222.5  Z " stroke-width="1" stroke="#8080ff" fill="none" />
  <path d="M 698 234  C 695.76 234  694 232.24  694 230  C 694 227.76  695.76 226  698 226  C 700.24 226  702 227.76  702 230  C 702 232.24  700.24 234  698 234  " fill-rule="nonzero" fill="#8080ff" stroke="none" />
</svg>