<?xml version="1.0" encoding="utf-8"?>
<svg version="1.1" xmlns:xlink="http://www.w3.org/1999/xlink" width="16px" height="16px" viewBox="65 34  16 16" xmlns="http://www.w3.org/2000/svg">
  <path d="M 73 34  C 77.48 34  81 37.52  81 42  C 81 46.48  77.48 50  73 50  C 68.52 50  65 46.48  65 42  C 65 37.52  68.52 34  73 34  Z " fill-rule="nonzero" fill="#f0f0f0" stroke="none" />
  <path d="M 73 34.5  C 77.2 34.5  80.5 37.8  80.5 42  C 80.5 46.2  77.2 49.5  73 49.5  C 68.8 49.5  65.5 46.2  65.5 42  C 65.5 37.8  68.8 34.5  73 34.5  Z " stroke-width="1" stroke="#8c8c8c" fill="none" />
  <path d="M 73 46  C 70.76 46  69 44.24  69 42  C 69 39.76  70.76 38  73 38  C 75.24 38  77 39.76  77 42  C 77 44.24  75.24 46  73 46  " fill-rule="nonzero" fill="#8c8c8c" stroke="none" />
</svg>