<?xml version="1.0" encoding="utf-8"?>
<svg version="1.1" xmlns:xlink="http://www.w3.org/1999/xlink" width="16px" height="16px" viewBox="245 34  16 16" xmlns="http://www.w3.org/2000/svg">
  <path d="M 253 34  C 257.48 34  261 37.52  261 42  C 261 46.48  257.48 50  253 50  C 248.52 50  245 46.48  245 42  C 245 37.52  248.52 34  253 34  Z " fill-rule="nonzero" fill="#ffffff" stroke="none" />
  <path d="M 253 34.5  C 257.2 34.5  260.5 37.8  260.5 42  C 260.5 46.2  257.2 49.5  253 49.5  C 248.8 49.5  245.5 46.2  245.5 42  C 245.5 37.8  248.8 34.5  253 34.5  Z " stroke-width="1" stroke="#7b4d12" fill="none" />
  <path d="M 253 46  C 250.76 46  249 44.24  249 42  C 249 39.76  250.76 38  253 38  C 255.24 38  257 39.76  257 42  C 257 44.24  255.24 46  253 46  " fill-rule="nonzero" fill="#7b4d12" stroke="none" />
</svg>