<?xml version="1.0" encoding="utf-8"?>
<svg version="1.1" xmlns:xlink="http://www.w3.org/1999/xlink" width="16px" height="16px" viewBox="0 165  16 16" xmlns="http://www.w3.org/2000/svg">
  <path d="M 8 165  C 12.48 165  16 168.52  16 173  C 16 177.48  12.48 181  8 181  C 3.52 181  0 177.48  0 173  C 0 168.52  3.52 165  8 165  Z " fill-rule="nonzero" fill="#ffffff" stroke="none" />
  <path d="M 8 165.5  C 12.2 165.5  15.5 168.8  15.5 173  C 15.5 177.2  12.2 180.5  8 180.5  C 3.8 180.5  0.5 177.2  0.5 173  C 0.5 168.8  3.8 165.5  8 165.5  Z " stroke-width="1" stroke="#8080ff" fill="none" />
  <path d="M 8 177  C 5.76 177  4 175.24  4 173  C 4 170.76  5.76 169  8 169  C 10.24 169  12 170.76  12 173  C 12 175.24  10.24 177  8 177  " fill-rule="nonzero" fill="#8080ff" stroke="none" />
</svg>