<?xml version="1.0" encoding="utf-8"?>
<svg version="1.1" xmlns:xlink="http://www.w3.org/1999/xlink" width="16px" height="16px" viewBox="0 223  16 16" xmlns="http://www.w3.org/2000/svg">
  <path d="M 8 223  C 12.48 223  16 226.52  16 231  C 16 235.48  12.48 239  8 239  C 3.52 239  0 235.48  0 231  C 0 226.52  3.52 223  8 223  Z " fill-rule="nonzero" fill="#ffffff" stroke="none" />
  <path d="M 8 223.5  C 12.2 223.5  15.5 226.8  15.5 231  C 15.5 235.2  12.2 238.5  8 238.5  C 3.8 238.5  0.5 235.2  0.5 231  C 0.5 226.8  3.8 223.5  8 223.5  Z " stroke-width="1" stroke="#8080ff" fill="none" />
  <path d="M 8 235  C 5.76 235  4 233.24  4 231  C 4 228.76  5.76 227  8 227  C 10.24 227  12 228.76  12 231  C 12 233.24  10.24 235  8 235  " fill-rule="nonzero" fill="#8080ff" stroke="none" />
</svg>