<?xml version="1.0" encoding="utf-8"?>
<svg version="1.1" xmlns:xlink="http://www.w3.org/1999/xlink" width="16px" height="16px" viewBox="145 34  16 16" xmlns="http://www.w3.org/2000/svg">
  <path d="M 153 34  C 157.48 34  161 37.52  161 42  C 161 46.48  157.48 50  153 50  C 148.52 50  145 46.48  145 42  C 145 37.52  148.52 34  153 34  Z " fill-rule="nonzero" fill="#f0f0f0" stroke="none" />
  <path d="M 153 34.5  C 157.2 34.5  160.5 37.8  160.5 42  C 160.5 46.2  157.2 49.5  153 49.5  C 148.8 49.5  145.5 46.2  145.5 42  C 145.5 37.8  148.8 34.5  153 34.5  Z " stroke-width="1" stroke="#8c8c8c" fill="none" />
  <path d="M 153 46  C 150.76 46  149 44.24  149 42  C 149 39.76  150.76 38  153 38  C 155.24 38  157 39.76  157 42  C 157 44.24  155.24 46  153 46  " fill-rule="nonzero" fill="#8c8c8c" stroke="none" />
</svg>