<?xml version="1.0" encoding="utf-8"?>
<svg version="1.1" xmlns:xlink="http://www.w3.org/1999/xlink" width="16px" height="16px" viewBox="690 165  16 16" xmlns="http://www.w3.org/2000/svg">
  <path d="M 698 165  C 702.48 165  706 168.52  706 173  C 706 177.48  702.48 181  698 181  C 693.52 181  690 177.48  690 173  C 690 168.52  693.52 165  698 165  Z " fill-rule="nonzero" fill="#ffffff" stroke="none" />
  <path d="M 698 165.5  C 702.2 165.5  705.5 168.8  705.5 173  C 705.5 177.2  702.2 180.5  698 180.5  C 693.8 180.5  690.5 177.2  690.5 173  C 690.5 168.8  693.8 165.5  698 165.5  Z " stroke-width="1" stroke="#8080ff" fill="none" />
  <path d="M 698 177  C 695.76 177  694 175.24  694 173  C 694 170.76  695.76 169  698 169  C 700.24 169  702 170.76  702 173  C 702 175.24  700.24 177  698 177  " fill-rule="nonzero" fill="#8080ff" stroke="none" />
</svg>