<?xml version="1.0" encoding="utf-8"?>
<svg version="1.1" xmlns:xlink="http://www.w3.org/1999/xlink" width="16px" height="16px" viewBox="690 223  16 16" xmlns="http://www.w3.org/2000/svg">
  <path d="M 698 223  C 702.48 223  706 226.52  706 231  C 706 235.48  702.48 239  698 239  C 693.52 239  690 235.48  690 231  C 690 226.52  693.52 223  698 223  Z " fill-rule="nonzero" fill="#ffffff" stroke="none" />
  <path d="M 698 223.5  C 702.2 223.5  705.5 226.8  705.5 231  C 705.5 235.2  702.2 238.5  698 238.5  C 693.8 238.5  690.5 235.2  690.5 231  C 690.5 226.8  693.8 223.5  698 223.5  Z " stroke-width="1" stroke="#8080ff" fill="none" />
  <path d="M 698 235  C 695.76 235  694 233.24  694 231  C 694 228.76  695.76 227  698 227  C 700.24 227  702 228.76  702 231  C 702 233.24  700.24 235  698 235  " fill-rule="nonzero" fill="#8080ff" stroke="none" />
</svg>