<?xml version="1.0" encoding="utf-8"?>
<svg version="1.1" xmlns:xlink="http://www.w3.org/1999/xlink" width="16px" height="16px" viewBox="690 99  16 16" xmlns="http://www.w3.org/2000/svg">
  <path d="M 698 99  C 702.48 99  706 102.52  706 107  C 706 111.48  702.48 115  698 115  C 693.52 115  690 111.48  690 107  C 690 102.52  693.52 99  698 99  Z " fill-rule="nonzero" fill="#f0f0f0" stroke="none" />
  <path d="M 698 99.5  C 702.2 99.5  705.5 102.8  705.5 107  C 705.5 111.2  702.2 114.5  698 114.5  C 693.8 114.5  690.5 111.2  690.5 107  C 690.5 102.8  693.8 99.5  698 99.5  Z " stroke-width="1" stroke="#8c8c8c" fill="none" />
  <path d="M 698 111  C 695.76 111  694 109.24  694 107  C 694 104.76  695.76 103  698 103  C 700.24 103  702 104.76  702 107  C 702 109.24  700.24 111  698 111  " fill-rule="nonzero" fill="#8c8c8c" stroke="none" />
</svg>