<?xml version="1.0" encoding="utf-8"?>
<svg version="1.1" xmlns:xlink="http://www.w3.org/1999/xlink" width="16px" height="16px" viewBox="179 9  16 16" xmlns="http://www.w3.org/2000/svg">
  <path d="M 187 9  C 191.48 9  195 12.52  195 17  C 195 21.48  191.48 25  187 25  C 182.52 25  179 21.48  179 17  C 179 12.52  182.52 9  187 9  Z " fill-rule="nonzero" fill="#f0f0f0" stroke="none" />
  <path d="M 187 9.5  C 191.2 9.5  194.5 12.8  194.5 17  C 194.5 21.2  191.2 24.5  187 24.5  C 182.8 24.5  179.5 21.2  179.5 17  C 179.5 12.8  182.8 9.5  187 9.5  Z " stroke-width="1" stroke="#8c8c8c" fill="none" />
  <path d="M 187 21  C 184.76 21  183 19.24  183 17  C 183 14.76  184.76 13  187 13  C 189.24 13  191 14.76  191 17  C 191 19.24  189.24 21  187 21  " fill-rule="nonzero" fill="#8c8c8c" stroke="none" />
</svg>