<?xml version="1.0" encoding="utf-8"?>
<svg version="1.1" xmlns:xlink="http://www.w3.org/1999/xlink" width="16px" height="16px" viewBox="80 9  16 16" xmlns="http://www.w3.org/2000/svg">
  <path d="M 88 9  C 92.48 9  96 12.52  96 17  C 96 21.48  92.48 25  88 25  C 83.52 25  80 21.48  80 17  C 80 12.52  83.52 9  88 9  Z " fill-rule="nonzero" fill="#ffffff" stroke="none" />
  <path d="M 88 9.5  C 92.2 9.5  95.5 12.8  95.5 17  C 95.5 21.2  92.2 24.5  88 24.5  C 83.8 24.5  80.5 21.2  80.5 17  C 80.5 12.8  83.8 9.5  88 9.5  Z " stroke-width="1" stroke="#8c8c8c" fill="none" />
  <path d="M 88 21  C 85.76 21  84 19.24  84 17  C 84 14.76  85.76 13  88 13  C 90.24 13  92 14.76  92 17  C 92 19.24  90.24 21  88 21  " fill-rule="nonzero" fill="#8c8c8c" stroke="none" />
</svg>