<?xml version="1.0" encoding="utf-8"?>
<svg version="1.1" xmlns:xlink="http://www.w3.org/1999/xlink" width="16px" height="16px" viewBox="340 291  16 16" xmlns="http://www.w3.org/2000/svg">
  <path d="M 348 291  C 352.48 291  356 294.52  356 299  C 356 303.48  352.48 307  348 307  C 343.52 307  340 303.48  340 299  C 340 294.52  343.52 291  348 291  Z " fill-rule="nonzero" fill="#f0f0f0" stroke="none" />
  <path d="M 348 291.5  C 352.2 291.5  355.5 294.8  355.5 299  C 355.5 303.2  352.2 306.5  348 306.5  C 343.8 306.5  340.5 303.2  340.5 299  C 340.5 294.8  343.8 291.5  348 291.5  Z " stroke-width="1" stroke="#8c8c8c" fill="none" />
  <path d="M 348 303  C 345.76 303  344 301.24  344 299  C 344 296.76  345.76 295  348 295  C 350.24 295  352 296.76  352 299  C 352 301.24  350.24 303  348 303  " fill-rule="nonzero" fill="#8c8c8c" stroke="none" />
</svg>