<?xml version="1.0" encoding="utf-8"?>
<svg version="1.1" xmlns:xlink="http://www.w3.org/1999/xlink" width="16px" height="16px" viewBox="259 291  16 16" xmlns="http://www.w3.org/2000/svg">
  <path d="M 267 291  C 271.48 291  275 294.52  275 299  C 275 303.48  271.48 307  267 307  C 262.52 307  259 303.48  259 299  C 259 294.52  262.52 291  267 291  Z " fill-rule="nonzero" fill="#f0f0f0" stroke="none" />
  <path d="M 267 291.5  C 271.2 291.5  274.5 294.8  274.5 299  C 274.5 303.2  271.2 306.5  267 306.5  C 262.8 306.5  259.5 303.2  259.5 299  C 259.5 294.8  262.8 291.5  267 291.5  Z " stroke-width="1" stroke="#8c8c8c" fill="none" />
  <path d="M 267 303  C 264.76 303  263 301.24  263 299  C 263 296.76  264.76 295  267 295  C 269.24 295  271 296.76  271 299  C 271 301.24  269.24 303  267 303  " fill-rule="nonzero" fill="#8c8c8c" stroke="none" />
</svg>