<?xml version="1.0" encoding="utf-8"?>
<svg version="1.1" xmlns:xlink="http://www.w3.org/1999/xlink" width="16px" height="16px" viewBox="215 113  16 16" xmlns="http://www.w3.org/2000/svg">
  <path d="M 223 113  C 227.48 113  231 116.52  231 121  C 231 125.48  227.48 129  223 129  C 218.52 129  215 125.48  215 121  C 215 116.52  218.52 113  223 113  Z " fill-rule="nonzero" fill="#f0f0f0" stroke="none" />
  <path d="M 223 113.5  C 227.2 113.5  230.5 116.8  230.5 121  C 230.5 125.2  227.2 128.5  223 128.5  C 218.8 128.5  215.5 125.2  215.5 121  C 215.5 116.8  218.8 113.5  223 113.5  Z " stroke-width="1" stroke="#8c8c8c" fill="none" />
  <path d="M 223 125  C 220.76 125  219 123.24  219 121  C 219 118.76  220.76 117  223 117  C 225.24 117  227 118.76  227 121  C 227 123.24  225.24 125  223 125  " fill-rule="nonzero" fill="#8c8c8c" stroke="none" />
</svg>