<?xml version="1.0" encoding="utf-8"?>
<svg version="1.1" xmlns:xlink="http://www.w3.org/1999/xlink" width="16px" height="16px" viewBox="110 113  16 16" xmlns="http://www.w3.org/2000/svg">
  <path d="M 118 113  C 122.48 113  126 116.52  126 121  C 126 125.48  122.48 129  118 129  C 113.52 129  110 125.48  110 121  C 110 116.52  113.52 113  118 113  Z " fill-rule="nonzero" fill="#ffffff" stroke="none" />
  <path d="M 118 113.5  C 122.2 113.5  125.5 116.8  125.5 121  C 125.5 125.2  122.2 128.5  118 128.5  C 113.8 128.5  110.5 125.2  110.5 121  C 110.5 116.8  113.8 113.5  118 113.5  Z " stroke-width="1" stroke="#8c8c8c" fill="none" />
  <path d="M 118 125  C 115.76 125  114 123.24  114 121  C 114 118.76  115.76 117  118 117  C 120.24 117  122 118.76  122 121  C 122 123.24  120.24 125  118 125  " fill-rule="nonzero" fill="#8c8c8c" stroke="none" />
</svg>