<?xml version="1.0" encoding="utf-8"?>
<svg version="1.1" xmlns:xlink="http://www.w3.org/1999/xlink" width="16px" height="16px" viewBox="200 1778  16 16" xmlns="http://www.w3.org/2000/svg">
  <path d="M 208 1778  C 212.48 1778  216 1781.52  216 1786  C 216 1790.48  212.48 1794  208 1794  C 203.52 1794  200 1790.48  200 1786  C 200 1781.52  203.52 1778  208 1778  Z " fill-rule="nonzero" fill="#ffffff" stroke="none" />
  <path d="M 208 1778.5  C 212.2 1778.5  215.5 1781.8  215.5 1786  C 215.5 1790.2  212.2 1793.5  208 1793.5  C 203.8 1793.5  200.5 1790.2  200.5 1786  C 200.5 1781.8  203.8 1778.5  208 1778.5  Z " stroke-width="1" stroke="#3e3c3c" fill="none" />
  <path d="M 208 1790  C 205.76 1790  204 1788.24  204 1786  C 204 1783.76  205.76 1782  208 1782  C 210.24 1782  212 1783.76  212 1786  C 212 1788.24  210.24 1790  208 1790  " fill-rule="nonzero" fill="#3e3c3c" stroke="none" />
</svg>