<?xml version="1.0" encoding="utf-8"?>
<svg version="1.1" xmlns:xlink="http://www.w3.org/1999/xlink" width="16px" height="16px" viewBox="101 1778  16 16" xmlns="http://www.w3.org/2000/svg">
  <path d="M 109 1778  C 113.48 1778  117 1781.52  117 1786  C 117 1790.48  113.48 1794  109 1794  C 104.52 1794  101 1790.48  101 1786  C 101 1781.52  104.52 1778  109 1778  Z " fill-rule="nonzero" fill="#f0f0f0" stroke="none" />
  <path d="M 109 1778.5  C 113.2 1778.5  116.5 1781.8  116.5 1786  C 116.5 1790.2  113.2 1793.5  109 1793.5  C 104.8 1793.5  101.5 1790.2  101.5 1786  C 101.5 1781.8  104.8 1778.5  109 1778.5  Z " stroke-width="1" stroke="#3e3c3c" fill="none" />
  <path d="M 109 1790  C 106.76 1790  105 1788.24  105 1786  C 105 1783.76  106.76 1782  109 1782  C 111.24 1782  113 1783.76  113 1786  C 113 1788.24  111.24 1790  109 1790  " fill-rule="nonzero" fill="#3e3c3c" stroke="none" />
</svg>