<?xml version="1.0" encoding="utf-8"?>
<svg version="1.1" xmlns:xlink="http://www.w3.org/1999/xlink" width="16px" height="16px" viewBox="331 50  16 16" xmlns="http://www.w3.org/2000/svg">
  <path d="M 339 50  C 343.48 50  347 53.52  347 58  C 347 62.48  343.48 66  339 66  C 334.52 66  331 62.48  331 58  C 331 53.52  334.52 50  339 50  Z " fill-rule="nonzero" fill="#ffffff" stroke="none" />
  <path d="M 339 50.5  C 343.2 50.5  346.5 53.8  346.5 58  C 346.5 62.2  343.2 65.5  339 65.5  C 334.8 65.5  331.5 62.2  331.5 58  C 331.5 53.8  334.8 50.5  339 50.5  Z " stroke-width="1" stroke="#8c8c8c" fill="none" />
  <path d="M 339 62  C 336.76 62  335 60.24  335 58  C 335 55.76  336.76 54  339 54  C 341.24 54  343 55.76  343 58  C 343 60.24  341.24 62  339 62  " fill-rule="nonzero" fill="#8c8c8c" stroke="none" />
</svg>