<?xml version="1.0" encoding="utf-8"?>
<svg version="1.1" xmlns:xlink="http://www.w3.org/1999/xlink" width="16px" height="16px" viewBox="124 206  16 16" xmlns="http://www.w3.org/2000/svg">
  <path d="M 132 206  C 136.48 206  140 209.52  140 214  C 140 218.48  136.48 222  132 222  C 127.52 222  124 218.48  124 214  C 124 209.52  127.52 206  132 206  Z " fill-rule="nonzero" fill="#f0f0f0" stroke="none" />
  <path d="M 132 206.5  C 136.2 206.5  139.5 209.8  139.5 214  C 139.5 218.2  136.2 221.5  132 221.5  C 127.8 221.5  124.5 218.2  124.5 214  C 124.5 209.8  127.8 206.5  132 206.5  Z " stroke-width="1" stroke="#8c8c8c" fill="none" />
  <path d="M 132 218  C 129.76 218  128 216.24  128 214  C 128 211.76  129.76 210  132 210  C 134.24 210  136 211.76  136 214  C 136 216.24  134.24 218  132 218  " fill-rule="nonzero" fill="#8c8c8c" stroke="none" />
</svg>