<?xml version="1.0" encoding="utf-8"?>
<svg version="1.1" xmlns:xlink="http://www.w3.org/1999/xlink" width="50px" height="50px" xmlns="http://www.w3.org/2000/svg">
  <g transform="matrix(1 0 0 1 -644 60 )">
    <path d="M 43.2598039215686 38.8174019607843  C 43.8316993464052 38.2455065359477  44.1176470588235 37.5612745098039  44.1176470588235 36.7647058823529  C 44.1176470588235 35.9477124183006  43.8316993464052 35.2532679738562  43.2598039215686 34.6813725490196  L 36.8872549019608 28.3088235294118  C 36.3153594771242 27.7369281045752  35.6209150326797 27.4509803921569  34.8039215686275 27.4509803921569  C 33.9460784313725 27.4509803921569  33.2107843137255 27.7777777777778  32.5980392156863 28.4313725490196  C 32.6593137254902 28.4926470588235  32.8533496732026 28.6815767973856  33.1801470588235 28.9981617647059  C 33.5069444444445 29.3147467320261  33.7265114379085 29.5343137254902  33.8388480392157 29.656862745098  C 33.9511846405229 29.7794117647059  34.1043709150327 29.9734477124183  34.2984068627451 30.2389705882353  C 34.4924428104575 30.5044934640523  34.625204248366 30.764910130719  34.6966911764706 31.0202205882353  C 34.7681781045752 31.2755310457516  34.8039215686275 31.5563725490196  34.8039215686275 31.8627450980392  C 34.8039215686275 32.6797385620915  34.5179738562092 33.3741830065359  33.9460784313725 33.9460784313725  C 33.374183006536 34.5179738562092  32.6797385620915 34.8039215686275  31.8627450980392 34.8039215686275  C 31.5563725490196 34.8039215686275  31.2755310457516 34.7681781045752  31.0202205882353 34.6966911764706  C 30.764910130719 34.625204248366  30.5044934640523 34.4924428104575  30.2389705882353 34.2984068627451  C 29.9734477124183 34.1043709150327  29.7794117647059 33.9511846405229  29.656862745098 33.8388480392157  C 29.5343137254902 33.7265114379085  29.3147467320261 33.5069444444444  28.9981617647059 33.1801470588235  C 28.6815767973856 32.8533496732026  28.4926470588235 32.6593137254902  28.4313725490196 32.5980392156863  C 27.7573529411765 33.2312091503268  27.4203431372549 33.9767156862745  27.4203431372549 34.8345588235294  C 27.4203431372549 35.6515522875817  27.7062908496732 36.3459967320261  28.2781862745098 36.9178921568627  L 34.5894607843137 43.2598039215686  C 35.140931372549 43.8112745098039  35.8353758169935 44.0870098039216  36.6727941176471 44.0870098039216  C 37.4897875816993 44.0870098039216  38.1842320261438 43.8214869281046  38.7561274509804 43.2904411764706  L 43.2598039215686 38.8174019607843  Z M 21.5686274509804 17.4019607843137  C 22.2426470588235 16.7687908496732  22.5796568627451 16.0232843137255  22.5796568627451 15.1654411764706  C 22.5796568627451 14.3484477124183  22.2937091503268 13.6540032679739  21.7218137254902 13.0821078431373  L 15.4105392156863 6.74019607843137  C 14.8386437908497 6.16830065359477  14.1441993464052 5.88235294117647  13.3272058823529 5.88235294117647  C 12.530637254902 5.88235294117647  11.8361928104575 6.15808823529412  11.2438725490196 6.70955882352941  L 6.74019607843137 11.1825980392157  C 6.16830065359477 11.7544934640523  5.88235294117647 12.4387254901961  5.88235294117647 13.2352941176471  C 5.88235294117647 14.0522875816993  6.16830065359477 14.7467320261438  6.74019607843137 15.3186274509804  L 13.1127450980392 21.6911764705882  C 13.6642156862745 22.2426470588235  14.358660130719 22.5183823529412  15.1960784313725 22.5183823529412  C 16.0539215686275 22.5183823529412  16.7892156862745 22.2017973856209  17.4019607843137 21.5686274509804  C 17.3406862745098 21.5073529411765  17.1466503267974 21.3184232026144  16.8198529411765 21.0018382352941  C 16.4930555555556 20.6852532679739  16.2734885620915 20.4656862745098  16.1611519607843 20.343137254902  C 16.0488153594771 20.2205882352941  15.8956290849673 20.0265522875817  15.7015931372549 19.7610294117647  C 15.5075571895425 19.4955065359477  15.374795751634 19.235089869281  15.3033088235294 18.9797794117647  C 15.2318218954248 18.7244689542484  15.1960784313725 18.4436274509804  15.1960784313725 18.1372549019608  C 15.1960784313725 17.3202614379085  15.4820261437909 16.625816993464  16.0539215686275 16.0539215686274  C 16.6258169934641 15.4820261437908  17.3202614379085 15.1960784313726  18.1372549019608 15.1960784313726  C 18.4436274509804 15.1960784313726  18.7244689542484 15.2318218954248  18.9797794117647 15.3033088235294  C 19.235089869281 15.374795751634  19.4955065359477 15.5075571895425  19.7610294117647 15.7015931372549  C 20.0265522875817 15.8956290849673  20.2205882352941 16.0488153594771  20.343137254902 16.1611519607843  C 20.4656862745098 16.2734885620915  20.6852532679739 16.4930555555556  21.0018382352941 16.8198529411765  C 21.3184232026144 17.1466503267974  21.5073529411765 17.3406862745098  21.5686274509804 17.4019607843137  Z M 47.4264705882353 30.5147058823529  C 49.1421568627451 32.2303921568627  50 34.3137254901961  50 36.7647058823529  C 50 39.2156862745098  49.1319444444445 41.2888071895425  47.3958333333333 42.984068627451  L 42.8921568627451 47.4571078431373  C 41.1968954248366 49.1523692810458  39.1237745098039 50  36.6727941176471 50  C 34.2013888888889 50  32.1180555555556 49.1319444444445  30.4227941176471 47.3958333333333  L 24.1115196078431 41.0539215686275  C 22.4162581699346 39.358660130719  21.5686274509804 37.2855392156863  21.5686274509804 34.8345588235294  C 21.5686274509804 32.3223039215686  22.4673202614379 30.187908496732  24.2647058823529 28.4313725490196  L 21.5686274509804 25.7352941176471  C 19.812091503268 27.5326797385621  17.687908496732 28.4313725490196  15.1960784313725 28.4313725490196  C 12.7450980392157 28.4313725490196  10.6617647058824 27.5735294117647  8.94607843137255 25.8578431372549  L 2.57352941176471 19.4852941176471  C 0.857843137254902 17.7696078431373  0 15.6862745098039  0 13.2352941176471  C 0 10.7843137254902  0.868055555555555 8.71119281045751  2.60416666666667 7.01593137254902  L 7.1078431372549 2.54289215686275  C 8.8031045751634 0.847630718954245  10.8762254901961 0  13.3272058823529 0  C 15.7986111111111 0  17.8819444444444 0.868055555555552  19.5772058823529 2.60416666666667  L 25.8884803921569 8.94607843137255  C 27.5837418300654 10.641339869281  28.4313725490196 12.7144607843137  28.4313725490196 15.1654411764706  C 28.4313725490196 17.6776960784314  27.5326797385621 19.812091503268  25.7352941176471 21.5686274509804  L 28.4313725490196 24.2647058823529  C 30.187908496732 22.4673202614379  32.312091503268 21.5686274509804  34.8039215686275 21.5686274509804  C 37.2549019607843 21.5686274509804  39.3382352941176 22.4264705882353  41.0539215686275 24.1421568627451  L 47.4264705882353 30.5147058823529  Z " fill-rule="nonzero" fill="#000000" stroke="none" transform="matrix(1 0 0 1 644 -60 )" />
  </g>
</svg>