<?xml version="1.0" encoding="utf-8"?>
<svg version="1.1" xmlns:xlink="http://www.w3.org/1999/xlink" width="16px" height="16px" viewBox="230 196  16 16" xmlns="http://www.w3.org/2000/svg">
  <path d="M 238 196  C 242.48 196  246 199.52  246 204  C 246 208.48  242.48 212  238 212  C 233.52 212  230 208.48  230 204  C 230 199.52  233.52 196  238 196  Z " fill-rule="nonzero" fill="#ffffff" stroke="none" />
  <path d="M 238 196.5  C 242.2 196.5  245.5 199.8  245.5 204  C 245.5 208.2  242.2 211.5  238 211.5  C 233.8 211.5  230.5 208.2  230.5 204  C 230.5 199.8  233.8 196.5  238 196.5  Z " stroke-width="1" stroke="#4b7902" fill="none" />
  <path d="M 238 208  C 235.76 208  234 206.24  234 204  C 234 201.76  235.76 200  238 200  C 240.24 200  242 201.76  242 204  C 242 206.24  240.24 208  238 208  " fill-rule="nonzero" fill="#4b7902" stroke="none" />
</svg>