<?xml version="1.0" encoding="utf-8"?>
<svg version="1.1" xmlns:xlink="http://www.w3.org/1999/xlink" width="16px" height="16px" viewBox="230 248  16 16" xmlns="http://www.w3.org/2000/svg">
  <path d="M 238 248  C 242.48 248  246 251.52  246 256  C 246 260.48  242.48 264  238 264  C 233.52 264  230 260.48  230 256  C 230 251.52  233.52 248  238 248  Z " fill-rule="nonzero" fill="#ffffff" stroke="none" />
  <path d="M 238 248.5  C 242.2 248.5  245.5 251.8  245.5 256  C 245.5 260.2  242.2 263.5  238 263.5  C 233.8 263.5  230.5 260.2  230.5 256  C 230.5 251.8  233.8 248.5  238 248.5  Z " stroke-width="1" stroke="#4b7902" fill="none" />
  <path d="M 238 260  C 235.76 260  234 258.24  234 256  C 234 253.76  235.76 252  238 252  C 240.24 252  242 253.76  242 256  C 242 258.24  240.24 260  238 260  " fill-rule="nonzero" fill="#4b7902" stroke="none" />
</svg>