<?xml version="1.0" encoding="utf-8"?>
<svg version="1.1" xmlns:xlink="http://www.w3.org/1999/xlink" width="16px" height="16px" viewBox="130 196  16 16" xmlns="http://www.w3.org/2000/svg">
  <path d="M 138 196  C 142.48 196  146 199.52  146 204  C 146 208.48  142.48 212  138 212  C 133.52 212  130 208.48  130 204  C 130 199.52  133.52 196  138 196  Z " fill-rule="nonzero" fill="#ffffff" stroke="none" />
  <path d="M 138 196.5  C 142.2 196.5  145.5 199.8  145.5 204  C 145.5 208.2  142.2 211.5  138 211.5  C 133.8 211.5  130.5 208.2  130.5 204  C 130.5 199.8  133.8 196.5  138 196.5  Z " stroke-width="1" stroke="#4b7902" fill="none" />
  <path d="M 138 208  C 135.76 208  134 206.24  134 204  C 134 201.76  135.76 200  138 200  C 140.24 200  142 201.76  142 204  C 142 206.24  140.24 208  138 208  " fill-rule="nonzero" fill="#4b7902" stroke="none" />
</svg>