<?xml version="1.0" encoding="utf-8"?>
<svg version="1.1" xmlns:xlink="http://www.w3.org/1999/xlink" width="90px" height="90px" xmlns="http://www.w3.org/2000/svg">
  <g transform="matrix(1 0 0 1 -213 -552 )">
    <path d="M 16.3636363636364 65.4545454545455  L 24.5454545454545 65.4545454545455  L 24.5454545454545 73.6363636363636  L 16.3636363636364 73.6363636363636  L 16.3636363636364 65.4545454545455  Z M 16.3636363636364 16.3636363636364  L 24.5454545454545 16.3636363636364  L 24.5454545454545 24.5454545454545  L 16.3636363636364 24.5454545454545  L 16.3636363636364 16.3636363636364  Z M 65.4545454545455 16.3636363636364  L 73.6363636363636 16.3636363636364  L 73.6363636363636 24.5454545454545  L 65.4545454545455 24.5454545454545  L 65.4545454545455 16.3636363636364  Z M 9 57  L 9 81  L 33 81  L 33 57  L 9 57  Z M 9 9  L 9 33  L 33 33  L 33 9  L 9 9  Z M 57 9  L 57 33  L 81 33  L 81 9  L 57 9  Z M 0 49  L 41 49  L 41 90  L 0 90  L 0 49  Z M 65.4545454545455 81.8181818181818  L 73.6363636363636 81.8181818181818  L 73.6363636363636 90  L 65.4545454545455 90  L 65.4545454545455 81.8181818181818  Z M 81.8181818181818 81.8181818181818  L 90 81.8181818181818  L 90 90  L 81.8181818181818 90  L 81.8181818181818 81.8181818181818  Z M 81.8181818181818 49.0909090909091  L 90 49.0909090909091  L 90 73  L 65.4545454545455 73  L 65.4545454545455 65.4545454545455  L 57 65.4545454545455  L 57 90  L 49 90  L 49 49  L 73.6363636363636 49  L 73.6363636363636 57.2727272727273  L 81.8181818181818 57.2727272727273  L 81.8181818181818 49.0909090909091  Z M 0 0  L 41 0  L 41 41  L 0 41  L 0 0  Z M 49 0  L 90 0  L 90 41  L 49 41  L 49 0  Z " fill-rule="nonzero" fill="#000000" stroke="none" transform="matrix(1 0 0 1 213 552 )" />
  </g>
</svg>