<?xml version="1.0" encoding="utf-8"?>
<svg version="1.1" xmlns:xlink="http://www.w3.org/1999/xlink" width="16px" height="16px" viewBox="40 163  16 16" xmlns="http://www.w3.org/2000/svg">
  <path d="M 48 163  C 52.48 163  56 166.52  56 171  C 56 175.48  52.48 179  48 179  C 43.52 179  40 175.48  40 171  C 40 166.52  43.52 163  48 163  Z " fill-rule="nonzero" fill="#ffffff" stroke="none" />
  <path d="M 48 163.5  C 52.2 163.5  55.5 166.8  55.5 171  C 55.5 175.2  52.2 178.5  48 178.5  C 43.8 178.5  40.5 175.2  40.5 171  C 40.5 166.8  43.8 163.5  48 163.5  Z " stroke-width="1" stroke="#8c8c8c" fill="none" />
  <path d="M 48 175  C 45.76 175  44 173.24  44 171  C 44 168.76  45.76 167  48 167  C 50.24 167  52 168.76  52 171  C 52 173.24  50.24 175  48 175  " fill-rule="nonzero" fill="#8c8c8c" stroke="none" />
</svg>