<?xml version="1.0" encoding="utf-8"?>
<svg version="1.1" xmlns:xlink="http://www.w3.org/1999/xlink" width="16px" height="16px" viewBox="40 54  16 16" xmlns="http://www.w3.org/2000/svg">
  <path d="M 48 54  C 52.48 54  56 57.52  56 62  C 56 66.48  52.48 70  48 70  C 43.52 70  40 66.48  40 62  C 40 57.52  43.52 54  48 54  Z " fill-rule="nonzero" fill="#f0f0f0" stroke="none" />
  <path d="M 48 54.5  C 52.2 54.5  55.5 57.8  55.5 62  C 55.5 66.2  52.2 69.5  48 69.5  C 43.8 69.5  40.5 66.2  40.5 62  C 40.5 57.8  43.8 54.5  48 54.5  Z " stroke-width="1" stroke="#8c8c8c" fill="none" />
  <path d="M 48 66  C 45.76 66  44 64.24  44 62  C 44 59.76  45.76 58  48 58  C 50.24 58  52 59.76  52 62  C 52 64.24  50.24 66  48 66  " fill-rule="nonzero" fill="#8c8c8c" stroke="none" />
</svg>