<?xml version="1.0" encoding="utf-8"?>
<svg version="1.1" xmlns:xlink="http://www.w3.org/1999/xlink" width="16px" height="16px" viewBox="40 92  16 16" xmlns="http://www.w3.org/2000/svg">
  <path d="M 48 92  C 52.48 92  56 95.52  56 100  C 56 104.48  52.48 108  48 108  C 43.52 108  40 104.48  40 100  C 40 95.52  43.52 92  48 92  Z " fill-rule="nonzero" fill="#f0f0f0" stroke="none" />
  <path d="M 48 92.5  C 52.2 92.5  55.5 95.8  55.5 100  C 55.5 104.2  52.2 107.5  48 107.5  C 43.8 107.5  40.5 104.2  40.5 100  C 40.5 95.8  43.8 92.5  48 92.5  Z " stroke-width="1" stroke="#8c8c8c" fill="none" />
  <path d="M 48 104  C 45.76 104  44 102.24  44 100  C 44 97.76  45.76 96  48 96  C 50.24 96  52 97.76  52 100  C 52 102.24  50.24 104  48 104  " fill-rule="nonzero" fill="#8c8c8c" stroke="none" />
</svg>