<?xml version="1.0" encoding="utf-8"?>
<svg version="1.1" xmlns:xlink="http://www.w3.org/1999/xlink" width="100px" height="100px" xmlns="http://www.w3.org/2000/svg">
  <g transform="matrix(1 0 0 1 -1103 -934 )">
    <path d="M 1153 934  C 1181 934  1203 956  1203 984  C 1203 1012  1181 1034  1153 1034  C 1125 1034  1103 1012  1103 984  C 1103 956  1125 934  1153 934  Z " fill-rule="nonzero" fill="#f96868" stroke="none" />
    <path d="M 1153 934.5  C 1180.72 934.5  1202.5 956.28  1202.5 984  C 1202.5 1011.72  1180.72 1033.5  1153 1033.5  C 1125.28 1033.5  1103.5 1011.72  1103.5 984  C 1103.5 956.28  1125.28 934.5  1153 934.5  Z " stroke-width="1" stroke="#797979" fill="none" />
  </g>
</svg>