<?xml version="1.0" encoding="utf-8"?>
<svg version="1.1" xmlns:xlink="http://www.w3.org/1999/xlink" width="100px" height="100px" xmlns="http://www.w3.org/2000/svg">
  <g transform="matrix(1 0 0 1 -1103 -795 )">
    <path d="M 1153 795  C 1181 795  1203 817  1203 845  C 1203 873  1181 895  1153 895  C 1125 895  1103 873  1103 845  C 1103 817  1125 795  1153 795  Z " fill-rule="nonzero" fill="#249f20" stroke="none" />
    <path d="M 1153 795.5  C 1180.72 795.5  1202.5 817.28  1202.5 845  C 1202.5 872.72  1180.72 894.5  1153 894.5  C 1125.28 894.5  1103.5 872.72  1103.5 845  C 1103.5 817.28  1125.28 795.5  1153 795.5  Z " stroke-width="1" stroke="#797979" fill="none" />
  </g>
</svg>