<?xml version="1.0" encoding="utf-8"?>
<svg version="1.1" xmlns:xlink="http://www.w3.org/1999/xlink" width="16px" height="16px" viewBox="40 61  16 16" xmlns="http://www.w3.org/2000/svg">
  <path d="M 48 61  C 52.48 61  56 64.52  56 69  C 56 73.48  52.48 77  48 77  C 43.52 77  40 73.48  40 69  C 40 64.52  43.52 61  48 61  Z " fill-rule="nonzero" fill="#ffffff" stroke="none" />
  <path d="M 48 61.5  C 52.2 61.5  55.5 64.8  55.5 69  C 55.5 73.2  52.2 76.5  48 76.5  C 43.8 76.5  40.5 73.2  40.5 69  C 40.5 64.8  43.8 61.5  48 61.5  Z " stroke-width="1" stroke="#8c8c8c" fill="none" />
  <path d="M 48 73  C 45.76 73  44 71.24  44 69  C 44 66.76  45.76 65  48 65  C 50.24 65  52 66.76  52 69  C 52 71.24  50.24 73  48 73  " fill-rule="nonzero" fill="#8c8c8c" stroke="none" />
</svg>