<?xml version="1.0" encoding="utf-8"?>
<svg version="1.1" xmlns:xlink="http://www.w3.org/1999/xlink" width="16px" height="16px" viewBox="40 126  16 16" xmlns="http://www.w3.org/2000/svg">
  <path d="M 48 126  C 52.48 126  56 129.52  56 134  C 56 138.48  52.48 142  48 142  C 43.52 142  40 138.48  40 134  C 40 129.52  43.52 126  48 126  Z " fill-rule="nonzero" fill="#f0f0f0" stroke="none" />
  <path d="M 48 126.5  C 52.2 126.5  55.5 129.8  55.5 134  C 55.5 138.2  52.2 141.5  48 141.5  C 43.8 141.5  40.5 138.2  40.5 134  C 40.5 129.8  43.8 126.5  48 126.5  Z " stroke-width="1" stroke="#8c8c8c" fill="none" />
  <path d="M 48 138  C 45.76 138  44 136.24  44 134  C 44 131.76  45.76 130  48 130  C 50.24 130  52 131.76  52 134  C 52 136.24  50.24 138  48 138  " fill-rule="nonzero" fill="#8c8c8c" stroke="none" />
</svg>