<?xml version="1.0" encoding="utf-8"?>
<svg version="1.1" xmlns:xlink="http://www.w3.org/1999/xlink" width="16px" height="16px" viewBox="40 137  16 16" xmlns="http://www.w3.org/2000/svg">
  <path d="M 48 137  C 52.48 137  56 140.52  56 145  C 56 149.48  52.48 153  48 153  C 43.52 153  40 149.48  40 145  C 40 140.52  43.52 137  48 137  Z " fill-rule="nonzero" fill="#f0f0f0" stroke="none" />
  <path d="M 48 137.5  C 52.2 137.5  55.5 140.8  55.5 145  C 55.5 149.2  52.2 152.5  48 152.5  C 43.8 152.5  40.5 149.2  40.5 145  C 40.5 140.8  43.8 137.5  48 137.5  Z " stroke-width="1" stroke="#8c8c8c" fill="none" />
  <path d="M 48 149  C 45.76 149  44 147.24  44 145  C 44 142.76  45.76 141  48 141  C 50.24 141  52 142.76  52 145  C 52 147.24  50.24 149  48 149  " fill-rule="nonzero" fill="#8c8c8c" stroke="none" />
</svg>