<?xml version="1.0" encoding="utf-8"?>
<svg version="1.1" xmlns:xlink="http://www.w3.org/1999/xlink" width="16px" height="16px" viewBox="40 63  16 16" xmlns="http://www.w3.org/2000/svg">
  <path d="M 48 63  C 52.48 63  56 66.52  56 71  C 56 75.48  52.48 79  48 79  C 43.52 79  40 75.48  40 71  C 40 66.52  43.52 63  48 63  Z " fill-rule="nonzero" fill="#f0f0f0" stroke="none" />
  <path d="M 48 63.5  C 52.2 63.5  55.5 66.8  55.5 71  C 55.5 75.2  52.2 78.5  48 78.5  C 43.8 78.5  40.5 75.2  40.5 71  C 40.5 66.8  43.8 63.5  48 63.5  Z " stroke-width="1" stroke="#8c8c8c" fill="none" />
  <path d="M 48 75  C 45.76 75  44 73.24  44 71  C 44 68.76  45.76 67  48 67  C 50.24 67  52 68.76  52 71  C 52 73.24  50.24 75  48 75  " fill-rule="nonzero" fill="#8c8c8c" stroke="none" />
</svg>