<?xml version="1.0" encoding="utf-8"?>
<svg version="1.1" xmlns:xlink="http://www.w3.org/1999/xlink" width="16px" height="16px" viewBox="122 337  16 16" xmlns="http://www.w3.org/2000/svg">
  <path d="M 130 337  C 134.48 337  138 340.52  138 345  C 138 349.48  134.48 353  130 353  C 125.52 353  122 349.48  122 345  C 122 340.52  125.52 337  130 337  Z " fill-rule="nonzero" fill="#f0f0f0" stroke="none" />
  <path d="M 130 337.5  C 134.2 337.5  137.5 340.8  137.5 345  C 137.5 349.2  134.2 352.5  130 352.5  C 125.8 352.5  122.5 349.2  122.5 345  C 122.5 340.8  125.8 337.5  130 337.5  Z " stroke-width="1" stroke="#8c8c8c" fill="none" />
  <path d="M 130 349  C 127.76 349  126 347.24  126 345  C 126 342.76  127.76 341  130 341  C 132.24 341  134 342.76  134 345  C 134 347.24  132.24 349  130 349  " fill-rule="nonzero" fill="#8c8c8c" stroke="none" />
</svg>