<?xml version="1.0" encoding="utf-8"?>
<svg version="1.1" xmlns:xlink="http://www.w3.org/1999/xlink" width="16px" height="16px" viewBox="206 106  16 16" xmlns="http://www.w3.org/2000/svg">
  <path d="M 214 106  C 218.48 106  222 109.52  222 114  C 222 118.48  218.48 122  214 122  C 209.52 122  206 118.48  206 114  C 206 109.52  209.52 106  214 106  Z " fill-rule="nonzero" fill="#f0f0f0" stroke="none" />
  <path d="M 214 106.5  C 218.2 106.5  221.5 109.8  221.5 114  C 221.5 118.2  218.2 121.5  214 121.5  C 209.8 121.5  206.5 118.2  206.5 114  C 206.5 109.8  209.8 106.5  214 106.5  Z " stroke-width="1" stroke="#8c8c8c" fill="none" />
  <path d="M 214 118  C 211.76 118  210 116.24  210 114  C 210 111.76  211.76 110  214 110  C 216.24 110  218 111.76  218 114  C 218 116.24  216.24 118  214 118  " fill-rule="nonzero" fill="#8c8c8c" stroke="none" />
</svg>