<?xml version="1.0" encoding="utf-8"?>
<svg version="1.1" xmlns:xlink="http://www.w3.org/1999/xlink" width="14px" height="15px" xmlns="http://www.w3.org/2000/svg">
  <g transform="matrix(1 0 0 1 -1234 -53 )">
    <path d="M 2.91526442307692 13.6146763392857  C 3.12560096153846 13.4054129464286  3.23076923076923 13.1529017857143  3.23076923076923 12.8571428571429  C 3.23076923076923 12.5613839285714  3.12560096153846 12.3088727678571  2.91526442307692 12.099609375  C 2.70492788461538 11.8903459821429  2.4511217948718 11.7857142857143  2.15384615384615 11.7857142857143  C 1.85657051282051 11.7857142857143  1.60276442307692 11.8903459821429  1.39242788461538 12.099609375  C 1.18209134615385 12.3088727678571  1.07692307692308 12.5613839285714  1.07692307692308 12.8571428571429  C 1.07692307692308 13.1529017857143  1.18209134615385 13.4054129464286  1.39242788461538 13.6146763392857  C 1.60276442307692 13.8239397321429  1.85657051282051 13.9285714285714  2.15384615384615 13.9285714285714  C 2.4511217948718 13.9285714285714  2.70492788461538 13.8239397321429  2.91526442307692 13.6146763392857  Z M 6.14603365384615 13.6146763392857  C 6.35637019230769 13.4054129464286  6.46153846153846 13.1529017857143  6.46153846153846 12.8571428571429  C 6.46153846153846 12.5613839285714  6.35637019230769 12.3088727678571  6.14603365384615 12.099609375  C 5.93569711538462 11.8903459821429  5.68189102564103 11.7857142857143  5.38461538461539 11.7857142857143  C 5.08733974358974 11.7857142857143  4.83353365384615 11.8903459821429  4.62319711538462 12.099609375  C 4.41286057692308 12.3088727678571  4.30769230769231 12.5613839285714  4.30769230769231 12.8571428571429  C 4.30769230769231 13.1529017857143  4.41286057692308 13.4054129464286  4.62319711538462 13.6146763392857  C 4.83353365384615 13.8239397321429  5.08733974358974 13.9285714285714  5.38461538461539 13.9285714285714  C 5.68189102564103 13.9285714285714  5.93569711538462 13.8239397321429  6.14603365384615 13.6146763392857  Z M 2.91526442307692 10.400390625  C 3.12560096153846 10.1911272321429  3.23076923076923 9.93861607142857  3.23076923076923 9.64285714285714  C 3.23076923076923 9.34709821428571  3.12560096153846 9.09458705357143  2.91526442307692 8.88532366071428  C 2.70492788461538 8.67606026785714  2.4511217948718 8.57142857142857  2.15384615384615 8.57142857142857  C 1.85657051282051 8.57142857142857  1.60276442307692 8.67606026785714  1.39242788461538 8.88532366071428  C 1.18209134615385 9.09458705357143  1.07692307692308 9.34709821428571  1.07692307692308 9.64285714285714  C 1.07692307692308 9.93861607142857  1.18209134615385 10.1911272321429  1.39242788461538 10.400390625  C 1.60276442307692 10.6096540178571  1.85657051282051 10.7142857142857  2.15384615384615 10.7142857142857  C 2.4511217948718 10.7142857142857  2.70492788461538 10.6096540178571  2.91526442307692 10.400390625  Z M 9.37680288461538 13.6146763392857  C 9.58713942307692 13.4054129464286  9.69230769230769 13.1529017857143  9.69230769230769 12.8571428571429  C 9.69230769230769 12.5613839285714  9.58713942307692 12.3088727678571  9.37680288461538 12.099609375  C 9.16646634615385 11.8903459821429  8.91266025641026 11.7857142857143  8.61538461538462 11.7857142857143  C 8.31810897435897 11.7857142857143  8.06430288461538 11.8903459821429  7.85396634615385 12.099609375  C 7.64362980769231 12.3088727678571  7.53846153846154 12.5613839285714  7.53846153846154 12.8571428571429  C 7.53846153846154 13.1529017857143  7.64362980769231 13.4054129464286  7.85396634615385 13.6146763392857  C 8.06430288461538 13.8239397321429  8.31810897435897 13.9285714285714  8.61538461538462 13.9285714285714  C 8.91266025641026 13.9285714285714  9.16646634615385 13.8239397321429  9.37680288461538 13.6146763392857  Z M 6.14603365384615 10.400390625  C 6.35637019230769 10.1911272321429  6.46153846153846 9.93861607142857  6.46153846153846 9.64285714285714  C 6.46153846153846 9.34709821428571  6.35637019230769 9.09458705357143  6.14603365384615 8.88532366071428  C 5.93569711538462 8.67606026785714  5.68189102564103 8.57142857142857  5.38461538461539 8.57142857142857  C 5.08733974358974 8.57142857142857  4.83353365384615 8.67606026785714  4.62319711538462 8.88532366071428  C 4.41286057692308 9.09458705357143  4.30769230769231 9.34709821428571  4.30769230769231 9.64285714285714  C 4.30769230769231 9.93861607142857  4.41286057692308 10.1911272321429  4.62319711538462 10.400390625  C 4.83353365384615 10.6096540178571  5.08733974358974 10.7142857142857  5.38461538461539 10.7142857142857  C 5.68189102564103 10.7142857142857  5.93569711538462 10.6096540178571  6.14603365384615 10.400390625  Z M 2.91526442307692 7.18610491071429  C 3.12560096153846 6.97684151785714  3.23076923076923 6.72433035714286  3.23076923076923 6.42857142857143  C 3.23076923076923 6.1328125  3.12560096153846 5.88030133928571  2.91526442307692 5.67103794642857  C 2.70492788461538 5.46177455357143  2.4511217948718 5.35714285714286  2.15384615384615 5.35714285714286  C 1.85657051282051 5.35714285714286  1.60276442307692 5.46177455357143  1.39242788461538 5.67103794642857  C 1.18209134615385 5.88030133928571  1.07692307692308 6.1328125  1.07692307692308 6.42857142857143  C 1.07692307692308 6.72433035714286  1.18209134615385 6.97684151785714  1.39242788461538 7.18610491071429  C 1.60276442307692 7.39536830357143  1.85657051282051 7.5  2.15384615384615 7.5  C 2.4511217948718 7.5  2.70492788461538 7.39536830357143  2.91526442307692 7.18610491071429  Z M 9.37680288461538 10.400390625  C 9.58713942307692 10.1911272321429  9.69230769230769 9.93861607142857  9.69230769230769 9.64285714285714  C 9.69230769230769 9.34709821428571  9.58713942307692 9.09458705357143  9.37680288461538 8.88532366071428  C 9.16646634615385 8.67606026785714  8.91266025641026 8.57142857142857  8.61538461538462 8.57142857142857  C 8.31810897435897 8.57142857142857  8.06430288461538 8.67606026785714  7.85396634615385 8.88532366071428  C 7.64362980769231 9.09458705357143  7.53846153846154 9.34709821428571  7.53846153846154 9.64285714285714  C 7.53846153846154 9.93861607142857  7.64362980769231 10.1911272321429  7.85396634615385 10.400390625  C 8.06430288461538 10.6096540178571  8.31810897435897 10.7142857142857  8.61538461538462 10.7142857142857  C 8.91266025641026 10.7142857142857  9.16646634615385 10.6096540178571  9.37680288461538 10.400390625  Z M 6.14603365384615 7.18610491071429  C 6.35637019230769 6.97684151785714  6.46153846153846 6.72433035714286  6.46153846153846 6.42857142857143  C 6.46153846153846 6.1328125  6.35637019230769 5.88030133928571  6.14603365384615 5.67103794642857  C 5.93569711538462 5.46177455357143  5.68189102564103 5.35714285714286  5.38461538461539 5.35714285714286  C 5.08733974358974 5.35714285714286  4.83353365384615 5.46177455357143  4.62319711538462 5.67103794642857  C 4.41286057692308 5.88030133928571  4.30769230769231 6.1328125  4.30769230769231 6.42857142857143  C 4.30769230769231 6.72433035714286  4.41286057692308 6.97684151785714  4.62319711538462 7.18610491071429  C 4.83353365384615 7.39536830357143  5.08733974358974 7.5  5.38461538461539 7.5  C 5.68189102564103 7.5  5.93569711538462 7.39536830357143  6.14603365384615 7.18610491071429  Z M 12.6033653846154 13.6104910714286  C 12.8165064102564 13.3984375  12.9230769230769 13.1473214285714  12.9230769230769 12.8571428571429  L 12.9230769230769 9.64285714285714  C 12.9230769230769 9.35267857142857  12.8165064102564 9.1015625  12.6033653846154 8.88950892857143  C 12.3902243589744 8.67745535714286  12.1378205128205 8.57142857142857  11.8461538461538 8.57142857142857  C 11.5544871794872 8.57142857142857  11.3020833333333 8.67745535714286  11.0889423076923 8.88950892857143  C 10.8758012820513 9.1015625  10.7692307692308 9.35267857142857  10.7692307692308 9.64285714285714  L 10.7692307692308 12.8571428571429  C 10.7692307692308 13.1473214285714  10.8758012820513 13.3984375  11.0889423076923 13.6104910714286  C 11.3020833333333 13.8225446428571  11.5544871794872 13.9285714285714  11.8461538461538 13.9285714285714  C 12.1378205128205 13.9285714285714  12.3902243589744 13.8225446428571  12.6033653846154 13.6104910714286  Z M 9.37680288461538 7.18610491071429  C 9.58713942307692 6.97684151785714  9.69230769230769 6.72433035714286  9.69230769230769 6.42857142857143  C 9.69230769230769 6.1328125  9.58713942307692 5.88030133928571  9.37680288461538 5.67103794642857  C 9.16646634615385 5.46177455357143  8.91266025641026 5.35714285714286  8.61538461538462 5.35714285714286  C 8.31810897435897 5.35714285714286  8.06430288461538 5.46177455357143  7.85396634615385 5.67103794642857  C 7.64362980769231 5.88030133928571  7.53846153846154 6.1328125  7.53846153846154 6.42857142857143  C 7.53846153846154 6.72433035714286  7.64362980769231 6.97684151785714  7.85396634615385 7.18610491071429  C 8.06430288461538 7.39536830357143  8.31810897435897 7.5  8.61538461538462 7.5  C 8.91266025641026 7.5  9.16646634615385 7.39536830357143  9.37680288461538 7.18610491071429  Z M 12.7632211538462 4.12667410714286  C 12.8697916666667 4.02064732142857  12.9230769230769 3.89508928571428  12.9230769230769 3.75  L 12.9230769230769 1.60714285714286  C 12.9230769230769 1.46205357142857  12.8697916666667 1.33649553571428  12.7632211538462 1.23046875  C 12.6566506410256 1.12444196428571  12.5304487179487 1.07142857142857  12.3846153846154 1  L 1.61538461538462 1  C 1.46955128205128 1.07142857142857  1.34334935897436 1.12444196428571  1.23677884615385 1.23046875  C 1.13020833333333 1.33649553571428  1.07692307692308 1.46205357142857  1.07692307692308 1.60714285714286  L 1.07692307692308 3.75  C 1.07692307692308 3.89508928571428  1.13020833333333 4.02064732142857  1.23677884615385 4.12667410714286  C 1.34334935897436 4.23270089285714  1.46955128205128 4.28571428571429  1.61538461538462 4.28571428571429  L 12.3846153846154 4.28571428571429  C 12.5304487179487 4.28571428571429  12.6566506410256 4.23270089285714  12.7632211538462 4.12667410714286  Z M 12.6075721153846 7.18610491071429  C 12.8179086538462 6.97684151785714  12.9230769230769 6.72433035714286  12.9230769230769 6.42857142857143  C 12.9230769230769 6.1328125  12.8179086538462 5.88030133928571  12.6075721153846 5.67103794642857  C 12.3972355769231 5.46177455357143  12.1434294871795 5.35714285714286  11.8461538461538 5.35714285714286  C 11.5488782051282 5.35714285714286  11.2950721153846 5.46177455357143  11.0847355769231 5.67103794642857  C 10.8743990384615 5.88030133928571  10.7692307692308 6.1328125  10.7692307692308 6.42857142857143  C 10.7692307692308 6.72433035714286  10.8743990384615 6.97684151785714  11.0847355769231 7.18610491071429  C 11.2950721153846 7.39536830357143  11.5488782051282 7.5  11.8461538461538 7.5  C 12.1434294871795 7.5  12.3972355769231 7.39536830357143  12.6075721153846 7.18610491071429  Z M 13.6802884615385 0.318080357142856  C 13.8934294871795 0.530133928571428  14 0.781249999999999  14 1.07142857142857  L 14 13.9285714285714  C 14 14.21875  13.8934294871795 14.4698660714286  13.6802884615385 14.6819196428571  C 13.4671474358974 14.8939732142857  13.2147435897436 15  12.9230769230769 15  L 1.07692307692308 15  C 0.78525641025641 15  0.532852564102564 14.8939732142857  0.319711538461538 14.6819196428571  C 0.106570512820513 14.4698660714286  0 14.21875  0 13.9285714285714  L 0 1.07142857142857  C 0 0.781249999999999  0.106570512820513 0.530133928571428  0.319711538461538 0.318080357142856  C 0.532852564102564 0.106026785714287  0.78525641025641 0  1.07692307692308 0  L 12.9230769230769 0  C 13.2147435897436 0  13.4671474358974 0.106026785714287  13.6802884615385 0.318080357142856  Z " fill-rule="nonzero" fill="#3399ff" stroke="none" transform="matrix(1 0 0 1 1234 53 )" />
  </g>
</svg>