<?xml version="1.0" encoding="utf-8"?>
<svg version="1.1" xmlns:xlink="http://www.w3.org/1999/xlink" width="60px" height="32px" xmlns="http://www.w3.org/2000/svg">
  <defs>
    <mask fill="white" id="clip8">
      <path d="M 0 27  L 0 5  C 0 2.2  0.819875776397517 0  1.86335403726708 0  L 34.7987416310398 0  L 58.1366459627329 0  C 59.1801242236025 0  60 2.2  60 5  L 60 27  C 60 29.8  59.1801242236025 32  58.1366459627329 32  L 1.86335403726708 32  C 0.819875776397517 32  0 29.8  0 27  Z " fill-rule="evenodd" />
    </mask>
  </defs>
  <g transform="matrix(1 0 0 1 -310 0 )">
    <path d="M 0 27  L 0 5  C 0 2.2  0.819875776397517 0  1.86335403726708 0  L 34.7987416310398 0  L 58.1366459627329 0  C 59.1801242236025 0  60 2.2  60 5  L 60 27  C 60 29.8  59.1801242236025 32  58.1366459627329 32  L 1.86335403726708 32  C 0.819875776397517 32  0 29.8  0 27  Z " fill-rule="nonzero" fill="#d3d3d3" stroke="none" transform="matrix(1 0 0 1 310 0 )" />
    <path d="M 0 27  L 0 5  C 0 2.2  0.819875776397517 0  1.86335403726708 0  L 34.7987416310398 0  L 58.1366459627329 0  C 59.1801242236025 0  60 2.2  60 5  L 60 27  C 60 29.8  59.1801242236025 32  58.1366459627329 32  L 1.86335403726708 32  C 0.819875776397517 32  0 29.8  0 27  Z " stroke-width="2" stroke="#7cc603" fill="none" transform="matrix(1 0 0 1 310 0 )" mask="url(#clip8)" />
  </g>
</svg>