<?xml version="1.0" encoding="utf-8"?>
<svg version="1.1" xmlns:xlink="http://www.w3.org/1999/xlink" width="200px" height="113px" xmlns="http://www.w3.org/2000/svg">
  <g transform="matrix(1 0 0 1 -105 -159 )">
    <path d="M 105 159  L 305 159  L 305 272  L 105 272  L 105 159  " fill-rule="nonzero" fill="#cccccc" stroke="none" />
    <path d="M 113 167  L 297 167  L 297 264  L 113 264  L 113 167  " fill-rule="nonzero" fill="#ffffff" stroke="none" />
    <path d="M 217.475 192.9  C 212.729 192.9  209 189.171  209 184.425  C 209 179.679  212.729 175.95  217.475 175.95  C 222.221 175.95  225.95 179.679  225.95 184.425  C 225.95 189.171  222.221 192.9  217.475 192.9  " fill-rule="nonzero" fill="#cccccc" stroke="none" />
    <path d="M 116 261  L 116 210.95  L 160.5 188.2  L 222.8 230.151  L 258.4 201.85  L 294 230.151  L 294 261  L 116 261  " fill-rule="nonzero" fill="#169bd5" stroke="none" />
  </g>
</svg>