<?xml version="1.0" encoding="utf-8"?>
<svg version="1.1" xmlns:xlink="http://www.w3.org/1999/xlink" width="360px" height="52px" xmlns="http://www.w3.org/2000/svg">
  <g>
    <path d="M 1 3  A 2 2 0 0 1 3 1 L 357 1  A 2 2 0 0 1 359 3 L 359 49  A 2 2 0 0 1 357 51 L 3 51  A 2 2 0 0 1 1 49 L 1 3  Z " fill-rule="nonzero" fill="#46a8e0" stroke="none" fill-opacity="0.996078431372549" />
    <path d="M 0.5 3  A 2.5 2.5 0 0 1 3 0.5 L 357 0.5  A 2.5 2.5 0 0 1 359.5 3 L 359.5 49  A 2.5 2.5 0 0 1 357 51.5 L 3 51.5  A 2.5 2.5 0 0 1 0.5 49 L 0.5 3  Z " stroke-width="1" stroke="#46a8e0" fill="none" stroke-opacity="0.568627450980392" />
  </g>
</svg>