<?xml version="1.0" encoding="utf-8"?>
<svg version="1.1" xmlns:xlink="http://www.w3.org/1999/xlink" width="16px" height="16px" viewBox="20 246  16 16" xmlns="http://www.w3.org/2000/svg">
  <path d="M 28 246  C 32.48 246  36 249.52  36 254  C 36 258.48  32.48 262  28 262  C 23.52 262  20 258.48  20 254  C 20 249.52  23.52 246  28 246  Z " fill-rule="nonzero" fill="#f0f0f0" stroke="none" />
  <path d="M 28 246.5  C 32.2 246.5  35.5 249.8  35.5 254  C 35.5 258.2  32.2 261.5  28 261.5  C 23.8 261.5  20.5 258.2  20.5 254  C 20.5 249.8  23.8 246.5  28 246.5  Z " stroke-width="1" stroke="#8c8c8c" fill="none" />
  <path d="M 28 258  C 25.76 258  24 256.24  24 254  C 24 251.76  25.76 250  28 250  C 30.24 250  32 251.76  32 254  C 32 256.24  30.24 258  28 258  " fill-rule="nonzero" fill="#8c8c8c" stroke="none" />
</svg>