<?xml version="1.0" encoding="utf-8"?>
<svg version="1.1" xmlns:xlink="http://www.w3.org/1999/xlink" width="16px" height="14px" xmlns="http://www.w3.org/2000/svg">
  <g transform="matrix(1 0 0 1 -1147 -58 )">
    <path d="M 2.28571428571429 1.96  C 3.77380952380952 1.96  4.99404761904762 2.61625  5.94642857142857 3.92875  C 5.58928571428571 4.46541666666667  5.18154761904762 5.26166666666666  4.72321428571429 6.3175  C 4.59226190476191 6.055  4.48214285714286 5.84354166666667  4.39285714285714 5.683125  C 4.30357142857143 5.52270833333333  4.18303571428571 5.3375  4.03125 5.1275  C 3.87946428571429 4.9175  3.72767857142857 4.75270833333333  3.57589285714286 4.633125  C 3.42410714285714 4.51354166666667  3.23660714285714 4.41145833333333  3.01339285714286 4.326875  C 2.79017857142857 4.24229166666667  2.54761904761905 4.2  2.28571428571429 4.2  L 0.285714285714286 4.2  C 0.202380952380952 4.2  0.133928571428571 4.17375  0.0803571428571429 4.12125  C 0.0267857142857143 4.06875  0 4.00166666666667  0 3.92  L 0 2.24  C 0 2.15833333333333  0.0267857142857143 2.09125  0.0803571428571429 2.03875  C 0.133928571428571 1.98625  0.202380952380952 1.96  0.285714285714286 1.96  L 2.28571428571429 1.96  Z M 15.9196428571429 10.71875  C 15.9732142857143 10.77125  16 10.8383333333333  16 10.92  C 16 11.0016666666667  15.9732142857143 11.06875  15.9196428571429 11.12125  L 13.0625 13.92125  C 13.0089285714286 13.97375  12.9404761904762 14  12.8571428571429 14  C 12.7797619047619 14  12.7127976190476 13.9722916666667  12.65625 13.916875  C 12.5997023809524 13.8614583333333  12.5714285714286 13.7958333333333  12.5714285714286 13.72  L 12.5714285714286 12.04  C 12.3809523809524 12.04  12.1279761904762 12.0414583333333  11.8125 12.044375  C 11.4970238095238 12.0472916666667  11.2559523809524 12.0502083333333  11.0892857142857 12.053125  C 10.922619047619 12.0560416666667  10.7053571428571 12.053125  10.4375 12.044375  C 10.1696428571429 12.035625  9.95833333333333 12.0210416666667  9.80357142857143 12.000625  C 9.64880952380952 11.9802083333333  9.45833333333333 11.9495833333333  9.23214285714286 11.90875  C 9.00595238095238 11.8679166666667  8.81845238095238 11.8139583333333  8.66964285714286 11.746875  C 8.52083333333333 11.6797916666667  8.34821428571429 11.5966666666667  8.15178571428571 11.4975  C 7.95535714285714 11.3983333333333  7.77976190476191 11.2816666666667  7.625 11.1475  C 7.4702380952381 11.0133333333333  7.30654761904762 10.8572916666667  7.13392857142857 10.679375  C 6.96130952380952 10.5014583333333  6.79464285714286 10.29875  6.63392857142857 10.07125  C 6.98511904761905 9.52875  7.38988095238095 8.7325  7.84821428571429 7.6825  C 7.97916666666667 7.945  8.08928571428571 8.15645833333333  8.17857142857143 8.316875  C 8.26785714285714 8.47729166666667  8.38839285714286 8.6625  8.54017857142857 8.8725  C 8.69196428571429 9.0825  8.84375 9.24729166666667  8.99553571428571 9.366875  C 9.14732142857143 9.48645833333333  9.33482142857143 9.58854166666667  9.55803571428571 9.673125  C 9.78125 9.75770833333333  10.0238095238095 9.8  10.2857142857143 9.8  L 12.5714285714286 9.8  L 12.5714285714286 8.12  C 12.5714285714286 8.03833333333333  12.5982142857143 7.97125  12.6517857142857 7.91875  C 12.7053571428571 7.86625  12.7738095238095 7.84  12.8571428571429 7.84  C 12.9285714285714 7.84  13 7.86916666666667  13.0714285714286 7.9275  L 15.9196428571429 10.71875  Z M 15.9196428571429 2.87875  C 15.9732142857143 2.93125  16 2.99833333333333  16 3.08  C 16 3.16166666666667  15.9732142857143 3.22875  15.9196428571429 3.28125  L 13.0625 6.08125  C 13.0089285714286 6.13375  12.9404761904762 6.16  12.8571428571429 6.16  C 12.7797619047619 6.16  12.7127976190476 6.13229166666667  12.65625 6.076875  C 12.5997023809524 6.02145833333333  12.5714285714286 5.95583333333333  12.5714285714286 5.88  L 12.5714285714286 4.2  L 10.2857142857143 4.2  C 10 4.2  9.74107142857143 4.24375  9.50892857142857 4.33125  C 9.27678571428571 4.41875  9.07142857142857 4.55  8.89285714285714 4.725  C 8.71428571428572 4.9  8.5625 5.079375  8.4375 5.263125  C 8.3125 5.446875  8.17857142857143 5.67291666666667  8.03571428571429 5.94125  C 7.8452380952381 6.30291666666667  7.61309523809524 6.80166666666667  7.33928571428571 7.4375  C 7.16666666666667 7.8225  7.01934523809524 8.14625  6.89732142857143 8.40875  C 6.77529761904762 8.67125  6.61458333333333 8.9775  6.41517857142857 9.3275  C 6.21577380952381 9.6775  6.02529761904762 9.96916666666667  5.84375 10.2025  C 5.66220238095238 10.4358333333333  5.44196428571429 10.6779166666667  5.18303571428571 10.92875  C 4.92410714285714 11.1795833333333  4.65625 11.379375  4.37946428571429 11.528125  C 4.10267857142857 11.676875  3.78571428571429 11.799375  3.42857142857143 11.895625  C 3.07142857142857 11.991875  2.69047619047619 12.04  2.28571428571429 12.04  L 0.285714285714286 12.04  C 0.202380952380952 12.04  0.133928571428571 12.01375  0.0803571428571429 11.96125  C 0.0267857142857143 11.90875  0 11.8416666666667  0 11.76  L 0 10.08  C 0 9.99833333333333  0.0267857142857143 9.93125  0.0803571428571429 9.87875  C 0.133928571428571 9.82625  0.202380952380952 9.8  0.285714285714286 9.8  L 2.28571428571429 9.8  C 2.57142857142857 9.8  2.83035714285714 9.75625  3.0625 9.66875  C 3.29464285714286 9.58125  3.5 9.45  3.67857142857143 9.275  C 3.85714285714286 9.1  4.00892857142857 8.920625  4.13392857142857 8.736875  C 4.25892857142857 8.553125  4.39285714285714 8.32708333333333  4.53571428571429 8.05875  C 4.72619047619048 7.69708333333333  4.95833333333333 7.19833333333333  5.23214285714286 6.5625  C 5.40476190476191 6.1775  5.55208333333333 5.85375  5.67410714285714 5.59125  C 5.79613095238095 5.32875  5.95684523809524 5.0225  6.15625 4.6725  C 6.35565476190476 4.3225  6.54613095238095 4.03083333333333  6.72767857142857 3.7975  C 6.90922619047619 3.56416666666667  7.12946428571429 3.32208333333333  7.38839285714286 3.07125  C 7.64732142857143 2.82041666666667  7.91517857142857 2.620625  8.19196428571429 2.471875  C 8.46875 2.323125  8.78571428571429 2.200625  9.14285714285714 2.104375  C 9.5 2.008125  9.88095238095238 1.96  10.2857142857143 1.96  L 12.5714285714286 1.96  L 12.5714285714286 0.28  C 12.5714285714286 0.198333333333332  12.5982142857143 0.13125  12.6517857142857 0.0787499999999999  C 12.7053571428571 0.0262499999999994  12.7738095238095 0  12.8571428571429 0  C 12.9285714285714 0  13 0.0291666666666666  13.0714285714286 0.0874999999999997  L 15.9196428571429 2.87875  Z " fill-rule="nonzero" fill="#000000" stroke="none" transform="matrix(1 0 0 1 1147 58 )" />
  </g>
</svg>