<?xml version="1.0" encoding="utf-8"?>
<svg version="1.1" xmlns:xlink="http://www.w3.org/1999/xlink" width="16px" height="16px" viewBox="110 537  16 16" xmlns="http://www.w3.org/2000/svg">
  <path d="M 118 537  C 122.48 537  126 540.52  126 545  C 126 549.48  122.48 553  118 553  C 113.52 553  110 549.48  110 545  C 110 540.52  113.52 537  118 537  Z " fill-rule="nonzero" fill="#ffffff" stroke="none" />
  <path d="M 118 537.5  C 122.2 537.5  125.5 540.8  125.5 545  C 125.5 549.2  122.2 552.5  118 552.5  C 113.8 552.5  110.5 549.2  110.5 545  C 110.5 540.8  113.8 537.5  118 537.5  Z " stroke-width="1" stroke="#02a7f0" fill="none" />
  <path d="M 118 549  C 115.76 549  114 547.24  114 545  C 114 542.76  115.76 541  118 541  C 120.24 541  122 542.76  122 545  C 122 547.24  120.24 549  118 549  " fill-rule="nonzero" fill="#02a7f0" stroke="none" />
</svg>