<?xml version="1.0" encoding="utf-8"?>
<svg version="1.1" xmlns:xlink="http://www.w3.org/1999/xlink" width="16px" height="16px" viewBox="30 537  16 16" xmlns="http://www.w3.org/2000/svg">
  <path d="M 38 537  C 42.48 537  46 540.52  46 545  C 46 549.48  42.48 553  38 553  C 33.52 553  30 549.48  30 545  C 30 540.52  33.52 537  38 537  Z " fill-rule="nonzero" fill="#ffffff" stroke="none" />
  <path d="M 38 537.5  C 42.2 537.5  45.5 540.8  45.5 545  C 45.5 549.2  42.2 552.5  38 552.5  C 33.8 552.5  30.5 549.2  30.5 545  C 30.5 540.8  33.8 537.5  38 537.5  Z " stroke-width="1" stroke="#02a7f0" fill="none" />
  <path d="M 38 549  C 35.76 549  34 547.24  34 545  C 34 542.76  35.76 541  38 541  C 40.24 541  42 542.76  42 545  C 42 547.24  40.24 549  38 549  " fill-rule="nonzero" fill="#02a7f0" stroke="none" />
</svg>