<?xml version="1.0" encoding="utf-8"?>
<svg version="1.1" xmlns:xlink="http://www.w3.org/1999/xlink" width="16px" height="16px" viewBox="134 233  16 16" xmlns="http://www.w3.org/2000/svg">
  <path d="M 142 233  C 146.48 233  150 236.52  150 241  C 150 245.48  146.48 249  142 249  C 137.52 249  134 245.48  134 241  C 134 236.52  137.52 233  142 233  Z " fill-rule="nonzero" fill="#ffffff" stroke="none" />
  <path d="M 142 233.5  C 146.2 233.5  149.5 236.8  149.5 241  C 149.5 245.2  146.2 248.5  142 248.5  C 137.8 248.5  134.5 245.2  134.5 241  C 134.5 236.8  137.8 233.5  142 233.5  Z " stroke-width="1" stroke="#8c8c8c" fill="none" />
  <path d="M 142 245  C 139.76 245  138 243.24  138 241  C 138 238.76  139.76 237  142 237  C 144.24 237  146 238.76  146 241  C 146 243.24  144.24 245  142 245  " fill-rule="nonzero" fill="#8c8c8c" stroke="none" />
</svg>