<?xml version="1.0" encoding="utf-8"?>
<svg version="1.1" xmlns:xlink="http://www.w3.org/1999/xlink" width="16px" height="16px" viewBox="248 178  16 16" xmlns="http://www.w3.org/2000/svg">
  <path d="M 256 178  C 260.48 178  264 181.52  264 186  C 264 190.48  260.48 194  256 194  C 251.52 194  248 190.48  248 186  C 248 181.52  251.52 178  256 178  Z " fill-rule="nonzero" fill="#ffffff" stroke="none" />
  <path d="M 256 178.5  C 260.2 178.5  263.5 181.8  263.5 186  C 263.5 190.2  260.2 193.5  256 193.5  C 251.8 193.5  248.5 190.2  248.5 186  C 248.5 181.8  251.8 178.5  256 178.5  Z " stroke-width="1" stroke="#02a7f0" fill="none" />
  <path d="M 256 190  C 253.76 190  252 188.24  252 186  C 252 183.76  253.76 182  256 182  C 258.24 182  260 183.76  260 186  C 260 188.24  258.24 190  256 190  " fill-rule="nonzero" fill="#02a7f0" stroke="none" />
</svg>