<?xml version="1.0" encoding="utf-8"?>
<svg version="1.1" xmlns:xlink="http://www.w3.org/1999/xlink" width="16px" height="16px" viewBox="130 178  16 16" xmlns="http://www.w3.org/2000/svg">
  <path d="M 138 178  C 142.48 178  146 181.52  146 186  C 146 190.48  142.48 194  138 194  C 133.52 194  130 190.48  130 186  C 130 181.52  133.52 178  138 178  Z " fill-rule="nonzero" fill="#ffffff" stroke="none" />
  <path d="M 138 178.5  C 142.2 178.5  145.5 181.8  145.5 186  C 145.5 190.2  142.2 193.5  138 193.5  C 133.8 193.5  130.5 190.2  130.5 186  C 130.5 181.8  133.8 178.5  138 178.5  Z " stroke-width="1" stroke="#02a7f0" fill="none" />
  <path d="M 138 190  C 135.76 190  134 188.24  134 186  C 134 183.76  135.76 182  138 182  C 140.24 182  142 183.76  142 186  C 142 188.24  140.24 190  138 190  " fill-rule="nonzero" fill="#02a7f0" stroke="none" />
</svg>