<?xml version="1.0" encoding="utf-8"?>
<svg version="1.1" xmlns:xlink="http://www.w3.org/1999/xlink" width="16px" height="16px" viewBox="110 201  16 16" xmlns="http://www.w3.org/2000/svg">
  <path d="M 118 201  C 122.48 201  126 204.52  126 209  C 126 213.48  122.48 217  118 217  C 113.52 217  110 213.48  110 209  C 110 204.52  113.52 201  118 201  Z " fill-rule="nonzero" fill="#f0f0f0" stroke="none" />
  <path d="M 118 201.5  C 122.2 201.5  125.5 204.8  125.5 209  C 125.5 213.2  122.2 216.5  118 216.5  C 113.8 216.5  110.5 213.2  110.5 209  C 110.5 204.8  113.8 201.5  118 201.5  Z " stroke-width="1" stroke="#8c8c8c" fill="none" />
  <path d="M 118 213  C 115.76 213  114 211.24  114 209  C 114 206.76  115.76 205  118 205  C 120.24 205  122 206.76  122 209  C 122 211.24  120.24 213  118 213  " fill-rule="nonzero" fill="#8c8c8c" stroke="none" />
</svg>