<?xml version="1.0" encoding="utf-8"?>
<svg version="1.1" xmlns:xlink="http://www.w3.org/1999/xlink" width="16px" height="16px" viewBox="190 201  16 16" xmlns="http://www.w3.org/2000/svg">
  <path d="M 198 201  C 202.48 201  206 204.52  206 209  C 206 213.48  202.48 217  198 217  C 193.52 217  190 213.48  190 209  C 190 204.52  193.52 201  198 201  Z " fill-rule="nonzero" fill="#f0f0f0" stroke="none" />
  <path d="M 198 201.5  C 202.2 201.5  205.5 204.8  205.5 209  C 205.5 213.2  202.2 216.5  198 216.5  C 193.8 216.5  190.5 213.2  190.5 209  C 190.5 204.8  193.8 201.5  198 201.5  Z " stroke-width="1" stroke="#8c8c8c" fill="none" />
  <path d="M 198 213  C 195.76 213  194 211.24  194 209  C 194 206.76  195.76 205  198 205  C 200.24 205  202 206.76  202 209  C 202 211.24  200.24 213  198 213  " fill-rule="nonzero" fill="#8c8c8c" stroke="none" />
</svg>