<?xml version="1.0" encoding="utf-8"?>
<svg version="1.1" xmlns:xlink="http://www.w3.org/1999/xlink" width="16px" height="16px" viewBox="203 71  16 16" xmlns="http://www.w3.org/2000/svg">
  <path d="M 211 71  C 215.48 71  219 74.52  219 79  C 219 83.48  215.48 87  211 87  C 206.52 87  203 83.48  203 79  C 203 74.52  206.52 71  211 71  Z " fill-rule="nonzero" fill="#ffffff" stroke="none" />
  <path d="M 211 71.5  C 215.2 71.5  218.5 74.8  218.5 79  C 218.5 83.2  215.2 86.5  211 86.5  C 206.8 86.5  203.5 83.2  203.5 79  C 203.5 74.8  206.8 71.5  211 71.5  Z " stroke-width="1" stroke="#8c8c8c" fill="none" />
  <path d="M 211 83  C 208.76 83  207 81.24  207 79  C 207 76.76  208.76 75  211 75  C 213.24 75  215 76.76  215 79  C 215 81.24  213.24 83  211 83  " fill-rule="nonzero" fill="#8c8c8c" stroke="none" />
</svg>