<?xml version="1.0" encoding="utf-8"?>
<svg version="1.1" xmlns:xlink="http://www.w3.org/1999/xlink" width="44px" height="25px" xmlns="http://www.w3.org/2000/svg">
  <g transform="matrix(1 0 0 1 -408 -48 )">
    <path d="M 408 48  L 452 48  L 452 73  L 408 73  L 408 48  " fill-rule="nonzero" fill="#cccccc" stroke="none" />
    <path d="M 410 50  L 450 50  L 450 71  L 410 71  L 410 50  " fill-rule="nonzero" fill="#ffffff" stroke="none" />
    <path d="M 432.755 55.5  C 431.705 55.5  430.88 54.675  430.88 53.625  C 430.88 52.575  431.705 51.75  432.755 51.75  C 433.805 51.75  434.63 52.575  434.63 53.625  C 434.63 54.675  433.805 55.5  432.755 55.5  " fill-rule="nonzero" fill="#cccccc" stroke="none" />
    <path d="M 411 71  L 411 60  L 420.75 55  L 434.4 64.1818181818182  L 442.2 58  L 450 64.1818181818182  L 450 71  L 411 71  " fill-rule="nonzero" fill="#169bd5" stroke="none" />
  </g>
</svg>