<?xml version="1.0" encoding="utf-8"?>
<svg version="1.1" xmlns:xlink="http://www.w3.org/1999/xlink" width="44px" height="25px" xmlns="http://www.w3.org/2000/svg">
  <g transform="matrix(1 0 0 1 -488 -48 )">
    <path d="M 488 48  L 532 48  L 532 73  L 488 73  L 488 48  " fill-rule="nonzero" fill="#cccccc" stroke="none" />
    <path d="M 490 50  L 530 50  L 530 71  L 490 71  L 490 50  " fill-rule="nonzero" fill="#ffffff" stroke="none" />
    <path d="M 512.755 55.5  C 511.705 55.5  510.88 54.675  510.88 53.625  C 510.88 52.575  511.705 51.75  512.755 51.75  C 513.805 51.75  514.63 52.575  514.63 53.625  C 514.63 54.675  513.805 55.5  512.755 55.5  " fill-rule="nonzero" fill="#cccccc" stroke="none" />
    <path d="M 491 71  L 491 60  L 500.75 55  L 514.4 64.1818181818182  L 522.2 58  L 530 64.1818181818182  L 530 71  L 491 71  " fill-rule="nonzero" fill="#169bd5" stroke="none" />
  </g>
</svg>