<?xml version="1.0" encoding="utf-8"?>
<svg version="1.1" xmlns:xlink="http://www.w3.org/1999/xlink" width="16px" height="16px" viewBox="2425 190  16 16" xmlns="http://www.w3.org/2000/svg">
  <path d="M 2433 190  C 2437.48 190  2441 193.52  2441 198  C 2441 202.48  2437.48 206  2433 206  C 2428.52 206  2425 202.48  2425 198  C 2425 193.52  2428.52 190  2433 190  Z " fill-rule="nonzero" fill="#f0f0f0" stroke="none" />
  <path d="M 2433 190.5  C 2437.2 190.5  2440.5 193.8  2440.5 198  C 2440.5 202.2  2437.2 205.5  2433 205.5  C 2428.8 205.5  2425.5 202.2  2425.5 198  C 2425.5 193.8  2428.8 190.5  2433 190.5  Z " stroke-width="1" stroke="#8c8c8c" fill="none" />
  <path d="M 2433 202  C 2430.76 202  2429 200.24  2429 198  C 2429 195.76  2430.76 194  2433 194  C 2435.24 194  2437 195.76  2437 198  C 2437 200.24  2435.24 202  2433 202  " fill-rule="nonzero" fill="#8c8c8c" stroke="none" />
</svg>