<?xml version="1.0" encoding="utf-8"?>
<svg version="1.1" xmlns:xlink="http://www.w3.org/1999/xlink" width="16px" height="16px" viewBox="40 105  16 16" xmlns="http://www.w3.org/2000/svg">
  <path d="M 48 105  C 52.48 105  56 108.52  56 113  C 56 117.48  52.48 121  48 121  C 43.52 121  40 117.48  40 113  C 40 108.52  43.52 105  48 105  Z " fill-rule="nonzero" fill="#ffffff" stroke="none" />
  <path d="M 48 105.5  C 52.2 105.5  55.5 108.8  55.5 113  C 55.5 117.2  52.2 120.5  48 120.5  C 43.8 120.5  40.5 117.2  40.5 113  C 40.5 108.8  43.8 105.5  48 105.5  Z " stroke-width="1" stroke="#8c8c8c" fill="none" />
  <path d="M 48 117  C 45.76 117  44 115.24  44 113  C 44 110.76  45.76 109  48 109  C 50.24 109  52 110.76  52 113  C 52 115.24  50.24 117  48 117  " fill-rule="nonzero" fill="#8c8c8c" stroke="none" />
</svg>