<?xml version="1.0" encoding="utf-8"?>
<svg version="1.1" xmlns:xlink="http://www.w3.org/1999/xlink" width="16px" height="16px" viewBox="40 153  16 16" xmlns="http://www.w3.org/2000/svg">
  <path d="M 48 153  C 52.48 153  56 156.52  56 161  C 56 165.48  52.48 169  48 169  C 43.52 169  40 165.48  40 161  C 40 156.52  43.52 153  48 153  Z " fill-rule="nonzero" fill="#f0f0f0" stroke="none" />
  <path d="M 48 153.5  C 52.2 153.5  55.5 156.8  55.5 161  C 55.5 165.2  52.2 168.5  48 168.5  C 43.8 168.5  40.5 165.2  40.5 161  C 40.5 156.8  43.8 153.5  48 153.5  Z " stroke-width="1" stroke="#8c8c8c" fill="none" />
  <path d="M 48 165  C 45.76 165  44 163.24  44 161  C 44 158.76  45.76 157  48 157  C 50.24 157  52 158.76  52 161  C 52 163.24  50.24 165  48 165  " fill-rule="nonzero" fill="#8c8c8c" stroke="none" />
</svg>