<?xml version="1.0" encoding="utf-8"?>
<svg version="1.1" xmlns:xlink="http://www.w3.org/1999/xlink" width="16px" height="16px" viewBox="153 537  16 16" xmlns="http://www.w3.org/2000/svg">
  <path d="M 161 537  C 165.48 537  169 540.52  169 545  C 169 549.48  165.48 553  161 553  C 156.52 553  153 549.48  153 545  C 153 540.52  156.52 537  161 537  Z " fill-rule="nonzero" fill="#ffffff" stroke="none" />
  <path d="M 161 537.5  C 165.2 537.5  168.5 540.8  168.5 545  C 168.5 549.2  165.2 552.5  161 552.5  C 156.8 552.5  153.5 549.2  153.5 545  C 153.5 540.8  156.8 537.5  161 537.5  Z " stroke-width="1" stroke="#02a7f0" fill="none" />
  <path d="M 161 549  C 158.76 549  157 547.24  157 545  C 157 542.76  158.76 541  161 541  C 163.24 541  165 542.76  165 545  C 165 547.24  163.24 549  161 549  " fill-rule="nonzero" fill="#02a7f0" stroke="none" />
</svg>