<?xml version="1.0" encoding="utf-8"?>
<svg version="1.1" xmlns:xlink="http://www.w3.org/1999/xlink" width="16px" height="16px" viewBox="54 537  16 16" xmlns="http://www.w3.org/2000/svg">
  <path d="M 62 537  C 66.48 537  70 540.52  70 545  C 70 549.48  66.48 553  62 553  C 57.52 553  54 549.48  54 545  C 54 540.52  57.52 537  62 537  Z " fill-rule="nonzero" fill="#f0f0f0" stroke="none" />
  <path d="M 62 537.5  C 66.2 537.5  69.5 540.8  69.5 545  C 69.5 549.2  66.2 552.5  62 552.5  C 57.8 552.5  54.5 549.2  54.5 545  C 54.5 540.8  57.8 537.5  62 537.5  Z " stroke-width="1" stroke="#3e3c3c" fill="none" />
  <path d="M 62 549  C 59.76 549  58 547.24  58 545  C 58 542.76  59.76 541  62 541  C 64.24 541  66 542.76  66 545  C 66 547.24  64.24 549  62 549  " fill-rule="nonzero" fill="#3e3c3c" stroke="none" />
</svg>