<?xml version="1.0" encoding="utf-8"?>
<svg version="1.1" xmlns:xlink="http://www.w3.org/1999/xlink" width="9px" height="6px" xmlns="http://www.w3.org/2000/svg">
  <g transform="matrix(1 0 0 1 -1325 -194 )">
    <path d="M 9 1.3304347826087  C 9 1.43285024154589  8.96464019851117 1.5207729468599  8.8939205955335 1.59420289855072  L 4.75124069478908 5.88985507246377  C 4.68052109181142 5.96328502415459  4.59677419354839 6  4.5 6  C 4.40322580645161 6  4.31947890818859 5.96328502415459  4.24875930521092 5.88985507246377  L 0.106079404466501 1.59420289855072  C 0.0353598014888338 1.5207729468599  0 1.43285024154589  0 1.3304347826087  C 0 1.2280193236715  0.0353598014888338 1.14009661835749  0.106079404466501 1.06666666666667  L 1.03287841191067 0.110144927536232  C 1.10359801488834 0.0367149758454104  1.18734491315136 0  1.28411910669975 0  C 1.38089330024814 0  1.46464019851117 0.0367149758454104  1.53535980148883 0.110144927536232  L 4.5 3.18840579710145  L 7.46464019851117 0.110144927536232  C 7.53535980148884 0.0367149758454104  7.61910669975186 0  7.71588089330025 0  C 7.81265508684864 0  7.89640198511166 0.0367149758454104  7.96712158808933 0.110144927536232  L 8.8939205955335 1.06666666666667  C 8.96464019851117 1.14009661835749  9 1.2280193236715  9 1.3304347826087  Z " fill-rule="nonzero" fill="#000000" stroke="none" transform="matrix(1 0 0 1 1325 194 )" />
  </g>
</svg>