<?xml version="1.0" encoding="utf-8"?>
<svg version="1.1" xmlns:xlink="http://www.w3.org/1999/xlink" width="120px" height="40px" xmlns="http://www.w3.org/2000/svg">
  <g>
    <path d="M 1 3  A 2 2 0 0 1 3 1 L 117 1  A 2 2 0 0 1 119 3 L 119 37  A 2 2 0 0 1 117 39 L 3 39  A 2 2 0 0 1 1 37 L 1 3  Z " fill-rule="nonzero" fill="#46a8e0" stroke="none" fill-opacity="0.996078431372549" />
    <path d="M 0.5 3  A 2.5 2.5 0 0 1 3 0.5 L 117 0.5  A 2.5 2.5 0 0 1 119.5 3 L 119.5 37  A 2.5 2.5 0 0 1 117 39.5 L 3 39.5  A 2.5 2.5 0 0 1 0.5 37 L 0.5 3  Z " stroke-width="1" stroke="#46a8e0" fill="none" stroke-opacity="0.568627450980392" />
  </g>
</svg>