<?xml version="1.0" encoding="utf-8"?>
<svg version="1.1" xmlns:xlink="http://www.w3.org/1999/xlink" width="53px" height="30px" xmlns="http://www.w3.org/2000/svg">
  <g transform="matrix(1 0 0 1 -478 -141 )">
    <path d="M 478 141  L 531 141  L 531 171  L 478 171  L 478 141  " fill-rule="nonzero" fill="#cccccc" stroke="none" />
    <path d="M 480 143  L 529 143  L 529 169  L 480 169  L 480 143  " fill-rule="nonzero" fill="#ffffff" stroke="none" />
    <path d="M 507.81 150  C 506.55 150  505.56 149.01  505.56 147.75  C 505.56 146.49  506.55 145.5  507.81 145.5  C 509.07 145.5  510.06 146.49  510.06 147.75  C 510.06 149.01  509.07 150  507.81 150  " fill-rule="nonzero" fill="#cccccc" stroke="none" />
    <path d="M 481 168  L 481 154.8  L 492.75 148.8  L 509.2 159.849056603774  L 518.6 152.4  L 528 159.849056603774  L 528 168  L 481 168  " fill-rule="nonzero" fill="#169bd5" stroke="none" />
  </g>
</svg>