<?xml version="1.0" encoding="utf-8"?>
<svg version="1.1" xmlns:xlink="http://www.w3.org/1999/xlink" width="16px" height="16px" viewBox="392 812  16 16" xmlns="http://www.w3.org/2000/svg">
  <path d="M 400 812  C 404.48 812  408 815.52  408 820  C 408 824.48  404.48 828  400 828  C 395.52 828  392 824.48  392 820  C 392 815.52  395.52 812  400 812  Z " fill-rule="nonzero" fill="#f0f0f0" stroke="none" />
  <path d="M 400 812.5  C 404.2 812.5  407.5 815.8  407.5 820  C 407.5 824.2  404.2 827.5  400 827.5  C 395.8 827.5  392.5 824.2  392.5 820  C 392.5 815.8  395.8 812.5  400 812.5  Z " stroke-width="1" stroke="#8c8c8c" fill="none" />
  <path d="M 400 824  C 397.76 824  396 822.24  396 820  C 396 817.76  397.76 816  400 816  C 402.24 816  404 817.76  404 820  C 404 822.24  402.24 824  400 824  " fill-rule="nonzero" fill="#8c8c8c" stroke="none" />
</svg>