<?xml version="1.0" encoding="utf-8"?>
<svg version="1.1" xmlns:xlink="http://www.w3.org/1999/xlink" width="16px" height="16px" viewBox="681 193  16 16" xmlns="http://www.w3.org/2000/svg">
  <path d="M 689 193  C 693.48 193  697 196.52  697 201  C 697 205.48  693.48 209  689 209  C 684.52 209  681 205.48  681 201  C 681 196.52  684.52 193  689 193  Z " fill-rule="nonzero" fill="#f0f0f0" stroke="none" />
  <path d="M 689 193.5  C 693.2 193.5  696.5 196.8  696.5 201  C 696.5 205.2  693.2 208.5  689 208.5  C 684.8 208.5  681.5 205.2  681.5 201  C 681.5 196.8  684.8 193.5  689 193.5  Z " stroke-width="1" stroke="#8c8c8c" fill="none" />
  <path d="M 689 205  C 686.76 205  685 203.24  685 201  C 685 198.76  686.76 197  689 197  C 691.24 197  693 198.76  693 201  C 693 203.24  691.24 205  689 205  " fill-rule="nonzero" fill="#8c8c8c" stroke="none" />
</svg>