<?xml version="1.0" encoding="utf-8"?>
<svg version="1.1" xmlns:xlink="http://www.w3.org/1999/xlink" width="16px" height="16px" viewBox="681 154  16 16" xmlns="http://www.w3.org/2000/svg">
  <path d="M 689 154  C 693.48 154  697 157.52  697 162  C 697 166.48  693.48 170  689 170  C 684.52 170  681 166.48  681 162  C 681 157.52  684.52 154  689 154  Z " fill-rule="nonzero" fill="#f0f0f0" stroke="none" />
  <path d="M 689 154.5  C 693.2 154.5  696.5 157.8  696.5 162  C 696.5 166.2  693.2 169.5  689 169.5  C 684.8 169.5  681.5 166.2  681.5 162  C 681.5 157.8  684.8 154.5  689 154.5  Z " stroke-width="1" stroke="#8c8c8c" fill="none" />
  <path d="M 689 166  C 686.76 166  685 164.24  685 162  C 685 159.76  686.76 158  689 158  C 691.24 158  693 159.76  693 162  C 693 164.24  691.24 166  689 166  " fill-rule="nonzero" fill="#8c8c8c" stroke="none" />
</svg>