<?xml version="1.0" encoding="utf-8"?>
<svg version="1.1" xmlns:xlink="http://www.w3.org/1999/xlink" width="16px" height="16px" viewBox="327 812  16 16" xmlns="http://www.w3.org/2000/svg">
  <path d="M 335 812  C 339.48 812  343 815.52  343 820  C 343 824.48  339.48 828  335 828  C 330.52 828  327 824.48  327 820  C 327 815.52  330.52 812  335 812  Z " fill-rule="nonzero" fill="#ffffff" stroke="none" />
  <path d="M 335 812.5  C 339.2 812.5  342.5 815.8  342.5 820  C 342.5 824.2  339.2 827.5  335 827.5  C 330.8 827.5  327.5 824.2  327.5 820  C 327.5 815.8  330.8 812.5  335 812.5  Z " stroke-width="1" stroke="#8c8c8c" fill="none" />
  <path d="M 335 824  C 332.76 824  331 822.24  331 820  C 331 817.76  332.76 816  335 816  C 337.24 816  339 817.76  339 820  C 339 822.24  337.24 824  335 824  " fill-rule="nonzero" fill="#8c8c8c" stroke="none" />
</svg>