<?xml version="1.0" encoding="utf-8"?>
<svg version="1.1" xmlns:xlink="http://www.w3.org/1999/xlink" width="16px" height="16px" viewBox="681 229  16 16" xmlns="http://www.w3.org/2000/svg">
  <path d="M 689 229  C 693.48 229  697 232.52  697 237  C 697 241.48  693.48 245  689 245  C 684.52 245  681 241.48  681 237  C 681 232.52  684.52 229  689 229  Z " fill-rule="nonzero" fill="#ffffff" stroke="none" />
  <path d="M 689 229.5  C 693.2 229.5  696.5 232.8  696.5 237  C 696.5 241.2  693.2 244.5  689 244.5  C 684.8 244.5  681.5 241.2  681.5 237  C 681.5 232.8  684.8 229.5  689 229.5  Z " stroke-width="1" stroke="#8c8c8c" fill="none" />
  <path d="M 689 241  C 686.76 241  685 239.24  685 237  C 685 234.76  686.76 233  689 233  C 691.24 233  693 234.76  693 237  C 693 239.24  691.24 241  689 241  " fill-rule="nonzero" fill="#8c8c8c" stroke="none" />
</svg>