<?xml version="1.0" encoding="utf-8"?>
<svg version="1.1" xmlns:xlink="http://www.w3.org/1999/xlink" width="28px" height="28px" xmlns="http://www.w3.org/2000/svg">
  <g transform="matrix(1 0 0 1 -296 -47 )">
    <path d="M 296 47  L 324 47  L 324 75  L 296 75  L 296 47  " fill-rule="nonzero" fill="#cccccc" stroke="none" />
    <path d="M 298 49  L 322 49  L 322 73  L 298 73  L 298 49  " fill-rule="nonzero" fill="#ffffff" stroke="none" />
    <path d="M 312.66 55.4  C 311.484 55.4  310.56 54.476  310.56 53.3  C 310.56 52.124  311.484 51.2  312.66 51.2  C 313.836 51.2  314.76 52.124  314.76 53.3  C 314.76 54.476  313.836 55.4  312.66 55.4  " fill-rule="nonzero" fill="#cccccc" stroke="none" />
    <path d="M 299 73  L 299 60.35  L 304.75 54.6  L 312.8 59.2  L 317.4 58.05  L 322 59.2  L 322 73  L 299 73  " fill-rule="nonzero" fill="#169bd5" stroke="none" />
  </g>
</svg>