<?xml version="1.0" encoding="utf-8"?>
<svg version="1.1" xmlns:xlink="http://www.w3.org/1999/xlink" width="14px" height="18px" xmlns="http://www.w3.org/2000/svg">
  <g transform="matrix(1 0 0 1 -128 -6 )">
    <path d="M 3.88888888888889 9  L 12.8333333333333 9  C 13.1574074074074 9  13.4328703703704 9.109375  13.6597222222222 9.328125  C 13.8865740740741 9.546875  14 9.8125  14 10.125  L 14 16.875  C 14 17.1875  13.8865740740741 17.453125  13.6597222222222 17.671875  C 13.4328703703704 17.890625  13.1574074074074 18  12.8333333333333 18  L 1.16666666666667 18  C 0.842592592592593 18  0.56712962962963 17.890625  0.340277777777778 17.671875  C 0.113425925925926 17.453125  0 17.1875  0 16.875  L 0 10.125  C 0 9.8125  0.113425925925926 9.546875  0.340277777777778 9.328125  C 0.56712962962963 9.109375  0.842592592592593 9  1.16666666666667 9  L 1.55555555555556 9  L 1.55555555555556 5.25  C 1.55555555555556 3.8046875  2.08825231481481 2.568359375  3.15364583333333 1.541015625  C 4.21903935185185 0.513671875000001  5.50115740740741 0  7 0  C 8.49884259259259 0  9.78096064814815 0.513671875000001  10.8463541666667 1.541015625  C 11.9117476851852 2.568359375  12.4444444444444 3.8046875  12.4444444444444 5.25  C 12.4444444444444 5.453125  12.3674768518519 5.62890625  12.2135416666667 5.77734375  C 12.0596064814815 5.92578125  11.8773148148148 6  11.6666666666667 6  L 10.8888888888889 6  C 10.6782407407407 6  10.4959490740741 5.92578125  10.3420138888889 5.77734375  C 10.1880787037037 5.62890625  10.1111111111111 5.453125  10.1111111111111 5.25  C 10.1111111111111 4.421875  9.80729166666667 3.71484375  9.19965277777778 3.12890625  C 8.59201388888889 2.54296875  7.8587962962963 2.25  7 2.25  C 6.1412037037037 2.25  5.40798611111111 2.54296875  4.80034722222222 3.12890625  C 4.19270833333333 3.71484375  3.88888888888889 4.421875  3.88888888888889 5.25  L 3.88888888888889 9  Z " fill-rule="nonzero" fill="#3399ff" stroke="none" transform="matrix(1 0 0 1 128 6 )" />
  </g>
</svg>