<?xml version="1.0" encoding="utf-8"?>
<svg version="1.1" xmlns:xlink="http://www.w3.org/1999/xlink" width="42px" height="30px" xmlns="http://www.w3.org/2000/svg">
  <g transform="matrix(1 0 0 1 -503 -733 )">
    <path d="M 503 733  L 545 733  L 545 763  L 503 763  L 503 733  " fill-rule="nonzero" fill="#cccccc" stroke="none" />
    <path d="M 505 735  L 543 735  L 543 761  L 505 761  L 505 735  " fill-rule="nonzero" fill="#ffffff" stroke="none" />
    <path d="M 527.09 742  C 525.83 742  524.84 741.01  524.84 739.75  C 524.84 738.49  525.83 737.5  527.09 737.5  C 528.35 737.5  529.34 738.49  529.34 739.75  C 529.34 741.01  528.35 742  527.09 742  " fill-rule="nonzero" fill="#cccccc" stroke="none" />
    <path d="M 506 760  L 506 746.8  L 515 740.8  L 527.6 749.714285714286  L 534.8 744.4  L 542 749.714285714286  L 542 760  L 506 760  " fill-rule="nonzero" fill="#169bd5" stroke="none" />
  </g>
</svg>