<?xml version="1.0" encoding="utf-8"?>
<svg version="1.1" xmlns:xlink="http://www.w3.org/1999/xlink" width="80px" height="57px" xmlns="http://www.w3.org/2000/svg">
  <g transform="matrix(1 0 0 1 -40 -110 )">
    <path d="M 40 110  L 120 110  L 120 167  L 40 167  L 40 110  " fill-rule="nonzero" fill="#cccccc" stroke="none" />
    <path d="M 44 114  L 116 114  L 116 163  L 44 163  L 44 114  " fill-rule="nonzero" fill="#ffffff" stroke="none" />
    <path d="M 85.875 127.1  C 83.481 127.1  81.6 125.219  81.6 122.825  C 81.6 120.431  83.481 118.55  85.875 118.55  C 88.269 118.55  90.15 120.431  90.15 122.825  C 90.15 125.219  88.269 127.1  85.875 127.1  " fill-rule="nonzero" fill="#cccccc" stroke="none" />
    <path d="M 46 162  L 46 136.7  L 63.25 125.2  L 87.4 142.335  L 101.2 132.1  L 115 142.335  L 115 162  L 46 162  " fill-rule="nonzero" fill="#169bd5" stroke="none" />
  </g>
</svg>