<?xml version="1.0" encoding="utf-8"?>
<svg version="1.1" xmlns:xlink="http://www.w3.org/1999/xlink" width="70px" height="32px" xmlns="http://www.w3.org/2000/svg">
  <defs>
    <mask fill="white" id="clip3">
      <path d="M 0 27  L 0 5  C 0 2.2  0.956521739130436 0  2.17391304347826 0  L 40.5985319028797 0  L 67.8260869565217 0  C 69.0434782608695 0  70 2.2  70 5  L 70 27  C 70 29.8  69.0434782608695 32  67.8260869565217 32  L 2.17391304347826 32  C 0.956521739130436 32  0 29.8  0 27  Z " fill-rule="evenodd" />
    </mask>
  </defs>
  <g transform="matrix(1 0 0 1 -1200 -180 )">
    <path d="M 0 27  L 0 5  C 0 2.2  0.956521739130436 0  2.17391304347826 0  L 40.5985319028797 0  L 67.8260869565217 0  C 69.0434782608695 0  70 2.2  70 5  L 70 27  C 70 29.8  69.0434782608695 32  67.8260869565217 32  L 2.17391304347826 32  C 0.956521739130436 32  0 29.8  0 27  Z " fill-rule="nonzero" fill="#70b603" stroke="none" transform="matrix(1 0 0 1 1200 180 )" />
    <path d="M 0 27  L 0 5  C 0 2.2  0.956521739130436 0  2.17391304347826 0  L 40.5985319028797 0  L 67.8260869565217 0  C 69.0434782608695 0  70 2.2  70 5  L 70 27  C 70 29.8  69.0434782608695 32  67.8260869565217 32  L 2.17391304347826 32  C 0.956521739130436 32  0 29.8  0 27  Z " stroke-width="2" stroke="#70b603" fill="none" transform="matrix(1 0 0 1 1200 180 )" mask="url(#clip3)" />
  </g>
</svg>