<?xml version="1.0" encoding="utf-8"?>
<svg version="1.1" xmlns:xlink="http://www.w3.org/1999/xlink" width="40px" height="28px" xmlns="http://www.w3.org/2000/svg">
  <defs>
    <mask fill="white" id="clip3">
      <path d="M 414 475  C 412.335 475  411 473.665  411 472  L 411 450  C 411 448.335  412.335 447  414 447  L 448 447  C 449.665 447  451 448.335  451 450  L 451 472  C 451 473.665  449.665 475  448 475  " fill-rule="evenodd" />
    </mask>
  </defs>
  <g transform="matrix(1 0 0 1 -411 -447 )">
    <path d="M 411 447  L 451 447  L 451 475  L 411 475  L 411 447  " fill-rule="nonzero" fill="#cccccc" stroke="none" mask="url(#clip3)" />
    <path d="M 413 449  L 449 449  L 449 473  L 413 473  L 413 449  " fill-rule="nonzero" fill="#ffffff" stroke="none" mask="url(#clip3)" />
    <path d="M 433.9 455.4  C 432.724 455.4  431.8 454.476  431.8 453.3  C 431.8 452.124  432.724 451.2  433.9 451.2  C 435.076 451.2  436 452.124  436 453.3  C 436 454.476  435.076 455.4  433.9 455.4  " fill-rule="nonzero" fill="#cccccc" stroke="none" mask="url(#clip3)" />
    <path d="M 414 473  L 414 460.35  L 422.75 454.6  L 435 463.34  L 442 458.05  L 449 463.34  L 449 473  L 414 473  " fill-rule="nonzero" fill="#169bd5" stroke="none" mask="url(#clip3)" />
  </g>
</svg>