<?xml version="1.0" encoding="utf-8"?>
<svg version="1.1" xmlns:xlink="http://www.w3.org/1999/xlink" width="40px" height="28px" xmlns="http://www.w3.org/2000/svg">
  <g transform="matrix(1 0 0 1 -411 -647 )">
    <path d="M 12.1666666666667 5.6875  C 12.9444444444444 6.36805555555555  13.3333333333333 7.19444444444444  13.3333333333333 8.16666666666667  C 13.3333333333333 9.13888888888889  12.9444444444444 9.96527777777778  12.1666666666667 10.6458333333333  C 11.3888888888889 11.3263888888889  10.4444444444444 11.6666666666667  9.33333333333333 11.6666666666667  C 8.22222222222222 11.6666666666667  7.27777777777778 11.3263888888889  6.5 10.6458333333333  C 5.72222222222222 9.96527777777778  5.33333333333333 9.13888888888889  5.33333333333333 8.16666666666667  C 5.33333333333333 7.19444444444444  5.72222222222222 6.36805555555555  6.5 5.6875  C 7.27777777777778 5.00694444444444  8.22222222222222 4.66666666666667  9.33333333333333 4.66666666666667  C 10.4444444444444 4.66666666666667  11.3888888888889 5.00694444444444  12.1666666666667 5.6875  Z M 26 7.58333333333333  L 34.6666666666667 15.1666666666667  L 34.6666666666667 23  L 5.33333333333333 23  L 5.33333333333333 19.8333333333333  L 12 14  L 15.3333333333333 16.9166666666667  L 26 7.58333333333333  Z M 37.1354166666667 2.50651041666667  C 37.0034722222222 2.39105902777778  36.8472222222222 2.33333333333333  36.6666666666667 2.33333333333333  L 3.33333333333333 2.33333333333333  C 3.15277777777778 2.33333333333333  2.99652777777778 2.39105902777778  2.86458333333333 2.50651041666667  C 2.73263888888889 2.62196180555555  2.66666666666667 2.75868055555555  3 2.91666666666667  L 3 25.0833333333333  C 2.66666666666667 25.2413194444444  2.73263888888889 25.3780381944444  2.86458333333333 25.4934895833333  C 2.99652777777778 25.6089409722222  3.15277777777778 25.6666666666667  3.33333333333333 25.6666666666667  L 36.6666666666667 25.6666666666667  C 36.8472222222222 25.6666666666667  37.0034722222222 25.6089409722222  37.1354166666667 25.4934895833333  C 37.2673611111111 25.3780381944444  37.3333333333333 25.2413194444444  37 25.0833333333333  L 37 2.91666666666667  C 37.3333333333333 2.75868055555555  37.2673611111111 2.62196180555555  37.1354166666667 2.50651041666667  Z M 39.0208333333333 0.856770833333334  C 39.6736111111111 1.42795138888889  40 2.11458333333333  40 2.91666666666667  L 40 25.0833333333333  C 40 25.8854166666667  39.6736111111111 26.5720486111111  39.0208333333333 27.1432291666667  C 38.3680555555556 27.7144097222222  37.5833333333333 28  36.6666666666667 28  L 3.33333333333333 28  C 2.41666666666667 28  1.63194444444444 27.7144097222222  0.979166666666667 27.1432291666667  C 0.326388888888889 26.5720486111111  0 25.8854166666667  0 25.0833333333333  L 0 2.91666666666667  C 0 2.11458333333333  0.326388888888889 1.42795138888889  0.979166666666667 0.856770833333334  C 1.63194444444444 0.285590277777775  2.41666666666667 0  3.33333333333333 0  L 36.6666666666667 0  C 37.5833333333333 0  38.3680555555556 0.285590277777775  39.0208333333333 0.856770833333334  Z " fill-rule="nonzero" fill="#7f7f7f" stroke="none" transform="matrix(1 0 0 1 411 647 )" />
  </g>
</svg>