<?xml version="1.0" encoding="utf-8"?>
<svg version="1.1" xmlns:xlink="http://www.w3.org/1999/xlink" width="16px" height="16px" viewBox="197 337  16 16" xmlns="http://www.w3.org/2000/svg">
  <path d="M 205 337  C 209.48 337  213 340.52  213 345  C 213 349.48  209.48 353  205 353  C 200.52 353  197 349.48  197 345  C 197 340.52  200.52 337  205 337  Z " fill-rule="nonzero" fill="#ffffff" stroke="none" />
  <path d="M 205 337.5  C 209.2 337.5  212.5 340.8  212.5 345  C 212.5 349.2  209.2 352.5  205 352.5  C 200.8 352.5  197.5 349.2  197.5 345  C 197.5 340.8  200.8 337.5  205 337.5  Z " stroke-width="1" stroke="#4b7902" fill="none" />
  <path d="M 205 349  C 202.76 349  201 347.24  201 345  C 201 342.76  202.76 341  205 341  C 207.24 341  209 342.76  209 345  C 209 347.24  207.24 349  205 349  " fill-rule="nonzero" fill="#4b7902" stroke="none" />
</svg>