<?xml version="1.0" encoding="utf-8"?>
<svg version="1.1" xmlns:xlink="http://www.w3.org/1999/xlink" width="13px" height="20px" xmlns="http://www.w3.org/2000/svg">
  <g transform="matrix(1 0 0 1 -4 -35 )">
    <path d="M 12.0182291666667 3.01339285714286  C 12.6727430555556 4.04761904761905  13 5.1860119047619  13 6.42857142857143  C 13 8.07291666666666  12.4451678240741 9.50334821428571  11.3355034722222 10.7198660714286  C 10.2258391203704 11.9363839285714  8.85474537037037 12.6339285714286  7.22222222222222 12.8125  L 7.22222222222222 15.7142857142857  L 9.75 15.7142857142857  C 9.85532407407407 15.7142857142857  9.94184027777778 15.7477678571429  10.0095486111111 15.8147321428571  C 10.0772569444444 15.8816964285714  10.1111111111111 15.9672619047619  10.1111111111111 16.0714285714286  L 10.1111111111111 16.7857142857143  C 10.1111111111111 16.889880952381  10.0772569444444 16.9754464285714  10.0095486111111 17.0424107142857  C 9.94184027777778 17.109375  9.85532407407407 17.1428571428571  9.75 17.1428571428571  L 7.22222222222222 17.1428571428571  L 7.22222222222222 19.6428571428571  C 7.22222222222222 19.7470238095238  7.18836805555556 19.8325892857143  7.12065972222222 19.8995535714286  C 7.05295138888889 19.9665178571429  6.96643518518519 20  6.86111111111111 20  L 6.13888888888889 20  C 6.03356481481482 20  5.94704861111111 19.9665178571429  5.87934027777778 19.8995535714286  C 5.81163194444444 19.8325892857143  5.77777777777778 19.7470238095238  5.77777777777778 19.6428571428571  L 5.77777777777778 17.1428571428571  L 3.25 17.1428571428571  C 3.14467592592593 17.1428571428571  3.05815972222222 17.109375  2.99045138888889 17.0424107142857  C 2.92274305555556 16.9754464285714  2.88888888888889 16.889880952381  2.88888888888889 16.7857142857143  L 2.88888888888889 16.0714285714286  C 2.88888888888889 15.9672619047619  2.92274305555556 15.8816964285714  2.99045138888889 15.8147321428571  C 3.05815972222222 15.7477678571429  3.14467592592593 15.7142857142857  3.25 15.7142857142857  L 5.77777777777778 15.7142857142857  L 5.77777777777778 12.8125  C 4.64930555555556 12.6934523809524  3.62803819444444 12.3102678571429  2.71397569444444 11.6629464285714  C 1.79991319444444 11.015625  1.10026041666667 10.1822916666667  0.615017361111111 9.16294642857143  C 0.129774305555556 8.14360119047619  -0.0677083333333333 7.05729166666667  0.0225694444444444 5.90401785714286  C 0.105324074074074 4.90699404761905  0.408130787037037 3.98065476190476  0.930989583333333 3.125  C 1.45384837962963 2.26934523809524  2.13845486111111 1.56994047619047  2.98480902777778 1.02678571428571  C 3.83116319444444 0.483630952380951  4.75462962962963 0.15625  5.75520833333333 0.0446428571428581  C 7.03414351851852 -0.0967261904761951  8.23408564814815 0.104166666666663  9.35503472222222 0.647321428571428  C 10.4759837962963 1.19047619047619  11.3637152777778 1.97916666666667  12.0182291666667 3.01339285714286  Z M 2.92838541666667 2.89620535714286  C 1.93909143518519 3.87462797619047  1.44444444444444 5.05208333333333  1.44444444444444 6.42857142857143  C 1.44444444444444 7.80505952380952  1.93909143518519 8.98251488095238  2.92838541666667 9.9609375  C 3.91767939814815 10.9393601190476  5.10821759259259 11.4285714285714  6.5 11.4285714285714  C 7.89178240740741 11.4285714285714  9.08232060185185 10.9393601190476  10.0716145833333 9.9609375  C 11.0609085648148 8.98251488095238  11.5555555555556 7.80505952380952  11.5555555555556 6.42857142857143  C 11.5555555555556 5.05208333333333  11.0609085648148 3.87462797619047  10.0716145833333 2.89620535714286  C 9.08232060185185 1.91778273809524  7.89178240740741 1.42857142857143  6.5 1.42857142857143  C 5.10821759259259 1.42857142857143  3.91767939814815 1.91778273809524  2.92838541666667 2.89620535714286  Z " fill-rule="nonzero" fill="#ec808d" stroke="none" transform="matrix(1 0 0 1 4 35 )" />
  </g>
</svg>