<?xml version="1.0" encoding="utf-8"?>
<svg version="1.1" xmlns:xlink="http://www.w3.org/1999/xlink" width="18px" height="20px" xmlns="http://www.w3.org/2000/svg">
  <g transform="matrix(1 0 0 1 -2512 -50 )">
    <path d="M 3.08203125 10.1953125  L 6.03515625 10.1953125  L 6.03515625 11.8619791666667  L 3.08203125 11.8619791666667  L 3.08203125 10.1953125  Z M 3.08203125 6.875  L 6.03515625 6.875  L 6.03515625 8.52864583333333  L 3.08203125 8.52864583333333  L 3.08203125 6.875  Z M 10.921875 13.5286458333333  L 14.91796875 13.5286458333333  L 14.91796875 15.1953125  L 10.921875 15.1953125  L 10.921875 13.5286458333333  Z M 7.04296875 10.1953125  L 14.91796875 10.1953125  L 14.91796875 11.8619791666667  L 7.04296875 11.8619791666667  L 7.04296875 10.1953125  Z M 7.04296875 6.875  L 14.91796875 6.875  L 14.91796875 8.52864583333333  L 7.04296875 8.52864583333333  L 7.04296875 6.875  Z M 16.4296875 18.2552083333333  C 16.4765625 18.203125  16.5 18.1423611111111  16.5 18.0729166666667  L 16.5 1.92708333333333  C 16.5 1.85763888888889  16.4765625 1.796875  16.4296875 1.74479166666667  C 16.3828125 1.69270833333333  16.328125 1.66666666666667  16.265625 1.66666666666667  L 15.890625 1.66666666666667  L 11.4609375 5  L 9 2.7734375  L 6.5390625 5  L 2.109375 1.66666666666667  L 1.734375 1.66666666666667  C 1.671875 1.66666666666667  1.6171875 1.69270833333333  1.5703125 1.74479166666667  C 1.5234375 1.796875  1.5 1.85763888888889  1.5 1.92708333333333  L 1.5 18.0729166666667  C 1.5 18.1423611111111  1.5234375 18.203125  1.5703125 18.2552083333333  C 1.6171875 18.3072916666667  1.671875 18.3333333333333  1.734375 18  L 16.265625 18  C 16.328125 18.3333333333333  16.3828125 18.3072916666667  16.4296875 18.2552083333333  Z M 3.890625 1.66666666666667  L 6.48046875 3.61979166666667  L 8.6484375 1.66666666666667  L 3.890625 1.66666666666667  Z M 9.3515625 1.66666666666667  L 11.51953125 3.61979166666667  L 14.109375 1.66666666666667  L 9.3515625 1.66666666666667  Z M 17.49609375 0.559895833333333  C 17.83203125 0.933159722222221  18 1.38888888888889  18 1.92708333333333  L 18 18.0729166666667  C 18 18.6111111111111  17.83203125 19.0668402777778  17.49609375 19.4401041666667  C 17.16015625 19.8133680555556  16.75 20  16.265625 20  L 1.734375 20  C 1.25 20  0.83984375 19.8133680555556  0.50390625 19.4401041666667  C 0.16796875 19.0668402777778  0 18.6111111111111  0 18.0729166666667  L 0 1.92708333333333  C 0 1.38888888888889  0.16796875 0.933159722222221  0.50390625 0.559895833333333  C 0.83984375 0.186631944444444  1.25 0  1.734375 0  L 16.265625 0  C 16.75 0  17.16015625 0.186631944444444  17.49609375 0.559895833333333  Z " fill-rule="nonzero" fill="#000000" stroke="none" transform="matrix(1 0 0 1 2512 50 )" />
  </g>
</svg>