<?xml version="1.0" encoding="utf-8"?>
<svg version="1.1" xmlns:xlink="http://www.w3.org/1999/xlink" width="16px" height="16px" viewBox="111 301  16 16" xmlns="http://www.w3.org/2000/svg">
  <path d="M 119 301  C 123.48 301  127 304.52  127 309  C 127 313.48  123.48 317  119 317  C 114.52 317  111 313.48  111 309  C 111 304.52  114.52 301  119 301  Z " fill-rule="nonzero" fill="#ffffff" stroke="none" />
  <path d="M 119 301.5  C 123.2 301.5  126.5 304.8  126.5 309  C 126.5 313.2  123.2 316.5  119 316.5  C 114.8 316.5  111.5 313.2  111.5 309  C 111.5 304.8  114.8 301.5  119 301.5  Z " stroke-width="1" stroke="#8c8c8c" fill="none" />
  <path d="M 119 313  C 116.76 313  115 311.24  115 309  C 115 306.76  116.76 305  119 305  C 121.24 305  123 306.76  123 309  C 123 311.24  121.24 313  119 313  " fill-rule="nonzero" fill="#8c8c8c" stroke="none" />
</svg>