<?xml version="1.0" encoding="utf-8"?>
<svg version="1.1" xmlns:xlink="http://www.w3.org/1999/xlink" width="16px" height="16px" viewBox="2777 270  16 16" xmlns="http://www.w3.org/2000/svg">
  <path d="M 2785 270  C 2789.48 270  2793 273.52  2793 278  C 2793 282.48  2789.48 286  2785 286  C 2780.52 286  2777 282.48  2777 278  C 2777 273.52  2780.52 270  2785 270  Z " fill-rule="nonzero" fill="#ffffff" stroke="none" />
  <path d="M 2785 270.5  C 2789.2 270.5  2792.5 273.8  2792.5 278  C 2792.5 282.2  2789.2 285.5  2785 285.5  C 2780.8 285.5  2777.5 282.2  2777.5 278  C 2777.5 273.8  2780.8 270.5  2785 270.5  Z " stroke-width="1" stroke="#7b4d12" fill="none" />
  <path d="M 2785 282  C 2782.76 282  2781 280.24  2781 278  C 2781 275.76  2782.76 274  2785 274  C 2787.24 274  2789 275.76  2789 278  C 2789 280.24  2787.24 282  2785 282  " fill-rule="nonzero" fill="#7b4d12" stroke="none" />
</svg>