<?xml version="1.0" encoding="utf-8"?>
<svg version="1.1" xmlns:xlink="http://www.w3.org/1999/xlink" width="16px" height="16px" viewBox="2777 434  16 16" xmlns="http://www.w3.org/2000/svg">
  <path d="M 2785 434  C 2789.48 434  2793 437.52  2793 442  C 2793 446.48  2789.48 450  2785 450  C 2780.52 450  2777 446.48  2777 442  C 2777 437.52  2780.52 434  2785 434  Z " fill-rule="nonzero" fill="#f0f0f0" stroke="none" />
  <path d="M 2785 434.5  C 2789.2 434.5  2792.5 437.8  2792.5 442  C 2792.5 446.2  2789.2 449.5  2785 449.5  C 2780.8 449.5  2777.5 446.2  2777.5 442  C 2777.5 437.8  2780.8 434.5  2785 434.5  Z " stroke-width="1" stroke="#8c8c8c" fill="none" />
  <path d="M 2785 446  C 2782.76 446  2781 444.24  2781 442  C 2781 439.76  2782.76 438  2785 438  C 2787.24 438  2789 439.76  2789 442  C 2789 444.24  2787.24 446  2785 446  " fill-rule="nonzero" fill="#8c8c8c" stroke="none" />
</svg>