<?xml version="1.0" encoding="utf-8"?>
<svg version="1.1" xmlns:xlink="http://www.w3.org/1999/xlink" width="16px" height="16px" viewBox="2777 470  16 16" xmlns="http://www.w3.org/2000/svg">
  <path d="M 2785 470  C 2789.48 470  2793 473.52  2793 478  C 2793 482.48  2789.48 486  2785 486  C 2780.52 486  2777 482.48  2777 478  C 2777 473.52  2780.52 470  2785 470  Z " fill-rule="nonzero" fill="#f0f0f0" stroke="none" />
  <path d="M 2785 470.5  C 2789.2 470.5  2792.5 473.8  2792.5 478  C 2792.5 482.2  2789.2 485.5  2785 485.5  C 2780.8 485.5  2777.5 482.2  2777.5 478  C 2777.5 473.8  2780.8 470.5  2785 470.5  Z " stroke-width="1" stroke="#8c8c8c" fill="none" />
  <path d="M 2785 482  C 2782.76 482  2781 480.24  2781 478  C 2781 475.76  2782.76 474  2785 474  C 2787.24 474  2789 475.76  2789 478  C 2789 480.24  2787.24 482  2785 482  " fill-rule="nonzero" fill="#8c8c8c" stroke="none" />
</svg>