<?xml version="1.0" encoding="utf-8"?>
<svg version="1.1" xmlns:xlink="http://www.w3.org/1999/xlink" width="16px" height="16px" viewBox="2777 393  16 16" xmlns="http://www.w3.org/2000/svg">
  <path d="M 2785 393  C 2789.48 393  2793 396.52  2793 401  C 2793 405.48  2789.48 409  2785 409  C 2780.52 409  2777 405.48  2777 401  C 2777 396.52  2780.52 393  2785 393  Z " fill-rule="nonzero" fill="#ffffff" stroke="none" />
  <path d="M 2785 393.5  C 2789.2 393.5  2792.5 396.8  2792.5 401  C 2792.5 405.2  2789.2 408.5  2785 408.5  C 2780.8 408.5  2777.5 405.2  2777.5 401  C 2777.5 396.8  2780.8 393.5  2785 393.5  Z " stroke-width="1" stroke="#7b4d12" fill="none" />
  <path d="M 2785 405  C 2782.76 405  2781 403.24  2781 401  C 2781 398.76  2782.76 397  2785 397  C 2787.24 397  2789 398.76  2789 401  C 2789 403.24  2787.24 405  2785 405  " fill-rule="nonzero" fill="#7b4d12" stroke="none" />
</svg>