<?xml version="1.0" encoding="utf-8"?>
<svg version="1.1" xmlns:xlink="http://www.w3.org/1999/xlink" width="16px" height="16px" viewBox="2837 470  16 16" xmlns="http://www.w3.org/2000/svg">
  <path d="M 2845 470  C 2849.48 470  2853 473.52  2853 478  C 2853 482.48  2849.48 486  2845 486  C 2840.52 486  2837 482.48  2837 478  C 2837 473.52  2840.52 470  2845 470  Z " fill-rule="nonzero" fill="#f0f0f0" stroke="none" />
  <path d="M 2845 470.5  C 2849.2 470.5  2852.5 473.8  2852.5 478  C 2852.5 482.2  2849.2 485.5  2845 485.5  C 2840.8 485.5  2837.5 482.2  2837.5 478  C 2837.5 473.8  2840.8 470.5  2845 470.5  Z " stroke-width="1" stroke="#8c8c8c" fill="none" />
  <path d="M 2845 482  C 2842.76 482  2841 480.24  2841 478  C 2841 475.76  2842.76 474  2845 474  C 2847.24 474  2849 475.76  2849 478  C 2849 480.24  2847.24 482  2845 482  " fill-rule="nonzero" fill="#8c8c8c" stroke="none" />
</svg>