<?xml version="1.0" encoding="utf-8"?>
<svg version="1.1" xmlns:xlink="http://www.w3.org/1999/xlink" width="16px" height="16px" viewBox="2917 470  16 16" xmlns="http://www.w3.org/2000/svg">
  <path d="M 2925 470  C 2929.48 470  2933 473.52  2933 478  C 2933 482.48  2929.48 486  2925 486  C 2920.52 486  2917 482.48  2917 478  C 2917 473.52  2920.52 470  2925 470  Z " fill-rule="nonzero" fill="#f0f0f0" stroke="none" />
  <path d="M 2925 470.5  C 2929.2 470.5  2932.5 473.8  2932.5 478  C 2932.5 482.2  2929.2 485.5  2925 485.5  C 2920.8 485.5  2917.5 482.2  2917.5 478  C 2917.5 473.8  2920.8 470.5  2925 470.5  Z " stroke-width="1" stroke="#8c8c8c" fill="none" />
  <path d="M 2925 482  C 2922.76 482  2921 480.24  2921 478  C 2921 475.76  2922.76 474  2925 474  C 2927.24 474  2929 475.76  2929 478  C 2929 480.24  2927.24 482  2925 482  " fill-rule="nonzero" fill="#8c8c8c" stroke="none" />
</svg>