<?xml version="1.0" encoding="utf-8"?>
<svg version="1.1" xmlns:xlink="http://www.w3.org/1999/xlink" width="16px" height="16px" viewBox="2837 393  16 16" xmlns="http://www.w3.org/2000/svg">
  <path d="M 2845 393  C 2849.48 393  2853 396.52  2853 401  C 2853 405.48  2849.48 409  2845 409  C 2840.52 409  2837 405.48  2837 401  C 2837 396.52  2840.52 393  2845 393  Z " fill-rule="nonzero" fill="#ffffff" stroke="none" />
  <path d="M 2845 393.5  C 2849.2 393.5  2852.5 396.8  2852.5 401  C 2852.5 405.2  2849.2 408.5  2845 408.5  C 2840.8 408.5  2837.5 405.2  2837.5 401  C 2837.5 396.8  2840.8 393.5  2845 393.5  Z " stroke-width="1" stroke="#7b4d12" fill="none" />
  <path d="M 2845 405  C 2842.76 405  2841 403.24  2841 401  C 2841 398.76  2842.76 397  2845 397  C 2847.24 397  2849 398.76  2849 401  C 2849 403.24  2847.24 405  2845 405  " fill-rule="nonzero" fill="#7b4d12" stroke="none" />
</svg>