<?xml version="1.0" encoding="utf-8"?>
<svg version="1.1" xmlns:xlink="http://www.w3.org/1999/xlink" width="16px" height="16px" viewBox="2877 589  16 16" xmlns="http://www.w3.org/2000/svg">
  <path d="M 2885 589  C 2889.48 589  2893 592.52  2893 597  C 2893 601.48  2889.48 605  2885 605  C 2880.52 605  2877 601.48  2877 597  C 2877 592.52  2880.52 589  2885 589  Z " fill-rule="nonzero" fill="#f0f0f0" stroke="none" />
  <path d="M 2885 589.5  C 2889.2 589.5  2892.5 592.8  2892.5 597  C 2892.5 601.2  2889.2 604.5  2885 604.5  C 2880.8 604.5  2877.5 601.2  2877.5 597  C 2877.5 592.8  2880.8 589.5  2885 589.5  Z " stroke-width="1" stroke="#8c8c8c" fill="none" />
  <path d="M 2885 601  C 2882.76 601  2881 599.24  2881 597  C 2881 594.76  2882.76 593  2885 593  C 2887.24 593  2889 594.76  2889 597  C 2889 599.24  2887.24 601  2885 601  " fill-rule="nonzero" fill="#8c8c8c" stroke="none" />
</svg>