<?xml version="1.0" encoding="utf-8"?>
<svg version="1.1" xmlns:xlink="http://www.w3.org/1999/xlink" width="16px" height="16px" viewBox="1920 270  16 16" xmlns="http://www.w3.org/2000/svg">
  <path d="M 1928 270  C 1932.48 270  1936 273.52  1936 278  C 1936 282.48  1932.48 286  1928 286  C 1923.52 286  1920 282.48  1920 278  C 1920 273.52  1923.52 270  1928 270  Z " fill-rule="nonzero" fill="#ffffff" stroke="none" />
  <path d="M 1928 270.5  C 1932.2 270.5  1935.5 273.8  1935.5 278  C 1935.5 282.2  1932.2 285.5  1928 285.5  C 1923.8 285.5  1920.5 282.2  1920.5 278  C 1920.5 273.8  1923.8 270.5  1928 270.5  Z " stroke-width="1" stroke="#8c8c8c" fill="none" />
  <path d="M 1928 282  C 1925.76 282  1924 280.24  1924 278  C 1924 275.76  1925.76 274  1928 274  C 1930.24 274  1932 275.76  1932 278  C 1932 280.24  1930.24 282  1928 282  " fill-rule="nonzero" fill="#8c8c8c" stroke="none" />
</svg>