<?xml version="1.0" encoding="utf-8"?>
<svg version="1.1" xmlns:xlink="http://www.w3.org/1999/xlink" width="16px" height="16px" viewBox="2377 394  16 16" xmlns="http://www.w3.org/2000/svg">
  <path d="M 2385 394  C 2389.48 394  2393 397.52  2393 402  C 2393 406.48  2389.48 410  2385 410  C 2380.52 410  2377 406.48  2377 402  C 2377 397.52  2380.52 394  2385 394  Z " fill-rule="nonzero" fill="#ffffff" stroke="none" />
  <path d="M 2385 394.5  C 2389.2 394.5  2392.5 397.8  2392.5 402  C 2392.5 406.2  2389.2 409.5  2385 409.5  C 2380.8 409.5  2377.5 406.2  2377.5 402  C 2377.5 397.8  2380.8 394.5  2385 394.5  Z " stroke-width="1" stroke="#7b4d12" fill="none" />
  <path d="M 2385 406  C 2382.76 406  2381 404.24  2381 402  C 2381 399.76  2382.76 398  2385 398  C 2387.24 398  2389 399.76  2389 402  C 2389 404.24  2387.24 406  2385 406  " fill-rule="nonzero" fill="#7b4d12" stroke="none" />
</svg>