<?xml version="1.0" encoding="utf-8"?>
<svg version="1.1" xmlns:xlink="http://www.w3.org/1999/xlink" width="16px" height="16px" viewBox="2317 434  16 16" xmlns="http://www.w3.org/2000/svg">
  <path d="M 2325 434  C 2329.48 434  2333 437.52  2333 442  C 2333 446.48  2329.48 450  2325 450  C 2320.52 450  2317 446.48  2317 442  C 2317 437.52  2320.52 434  2325 434  Z " fill-rule="nonzero" fill="#ffffff" stroke="none" />
  <path d="M 2325 434.5  C 2329.2 434.5  2332.5 437.8  2332.5 442  C 2332.5 446.2  2329.2 449.5  2325 449.5  C 2320.8 449.5  2317.5 446.2  2317.5 442  C 2317.5 437.8  2320.8 434.5  2325 434.5  Z " stroke-width="1" stroke="#7b4d12" fill="none" />
  <path d="M 2325 446  C 2322.76 446  2321 444.24  2321 442  C 2321 439.76  2322.76 438  2325 438  C 2327.24 438  2329 439.76  2329 442  C 2329 444.24  2327.24 446  2325 446  " fill-rule="nonzero" fill="#7b4d12" stroke="none" />
</svg>