<?xml version="1.0" encoding="utf-8"?>
<svg version="1.1" xmlns:xlink="http://www.w3.org/1999/xlink" width="16px" height="16px" viewBox="2377 270  16 16" xmlns="http://www.w3.org/2000/svg">
  <path d="M 2385 270  C 2389.48 270  2393 273.52  2393 278  C 2393 282.48  2389.48 286  2385 286  C 2380.52 286  2377 282.48  2377 278  C 2377 273.52  2380.52 270  2385 270  Z " fill-rule="nonzero" fill="#ffffff" stroke="none" />
  <path d="M 2385 270.5  C 2389.2 270.5  2392.5 273.8  2392.5 278  C 2392.5 282.2  2389.2 285.5  2385 285.5  C 2380.8 285.5  2377.5 282.2  2377.5 278  C 2377.5 273.8  2380.8 270.5  2385 270.5  Z " stroke-width="1" stroke="#7b4d12" fill="none" />
  <path d="M 2385 282  C 2382.76 282  2381 280.24  2381 278  C 2381 275.76  2382.76 274  2385 274  C 2387.24 274  2389 275.76  2389 278  C 2389 280.24  2387.24 282  2385 282  " fill-rule="nonzero" fill="#7b4d12" stroke="none" />
</svg>