<?xml version="1.0" encoding="utf-8"?>
<svg version="1.1" xmlns:xlink="http://www.w3.org/1999/xlink" width="16px" height="16px" viewBox="2317 394  16 16" xmlns="http://www.w3.org/2000/svg">
  <path d="M 2325 394  C 2329.48 394  2333 397.52  2333 402  C 2333 406.48  2329.48 410  2325 410  C 2320.52 410  2317 406.48  2317 402  C 2317 397.52  2320.52 394  2325 394  Z " fill-rule="nonzero" fill="#f0f0f0" stroke="none" />
  <path d="M 2325 394.5  C 2329.2 394.5  2332.5 397.8  2332.5 402  C 2332.5 406.2  2329.2 409.5  2325 409.5  C 2320.8 409.5  2317.5 406.2  2317.5 402  C 2317.5 397.8  2320.8 394.5  2325 394.5  Z " stroke-width="1" stroke="#8c8c8c" fill="none" />
  <path d="M 2325 406  C 2322.76 406  2321 404.24  2321 402  C 2321 399.76  2322.76 398  2325 398  C 2327.24 398  2329 399.76  2329 402  C 2329 404.24  2327.24 406  2325 406  " fill-rule="nonzero" fill="#8c8c8c" stroke="none" />
</svg>