<?xml version="1.0" encoding="utf-8"?>
<svg version="1.1" xmlns:xlink="http://www.w3.org/1999/xlink" width="16px" height="16px" viewBox="2377 434  16 16" xmlns="http://www.w3.org/2000/svg">
  <path d="M 2385 434  C 2389.48 434  2393 437.52  2393 442  C 2393 446.48  2389.48 450  2385 450  C 2380.52 450  2377 446.48  2377 442  C 2377 437.52  2380.52 434  2385 434  Z " fill-rule="nonzero" fill="#f0f0f0" stroke="none" />
  <path d="M 2385 434.5  C 2389.2 434.5  2392.5 437.8  2392.5 442  C 2392.5 446.2  2389.2 449.5  2385 449.5  C 2380.8 449.5  2377.5 446.2  2377.5 442  C 2377.5 437.8  2380.8 434.5  2385 434.5  Z " stroke-width="1" stroke="#8c8c8c" fill="none" />
  <path d="M 2385 446  C 2382.76 446  2381 444.24  2381 442  C 2381 439.76  2382.76 438  2385 438  C 2387.24 438  2389 439.76  2389 442  C 2389 444.24  2387.24 446  2385 446  " fill-rule="nonzero" fill="#8c8c8c" stroke="none" />
</svg>