<?xml version="1.0" encoding="utf-8"?>
<svg version="1.1" xmlns:xlink="http://www.w3.org/1999/xlink" width="16px" height="16px" viewBox="2457 470  16 16" xmlns="http://www.w3.org/2000/svg">
  <path d="M 2465 470  C 2469.48 470  2473 473.52  2473 478  C 2473 482.48  2469.48 486  2465 486  C 2460.52 486  2457 482.48  2457 478  C 2457 473.52  2460.52 470  2465 470  Z " fill-rule="nonzero" fill="#ffffff" stroke="none" />
  <path d="M 2465 470.5  C 2469.2 470.5  2472.5 473.8  2472.5 478  C 2472.5 482.2  2469.2 485.5  2465 485.5  C 2460.8 485.5  2457.5 482.2  2457.5 478  C 2457.5 473.8  2460.8 470.5  2465 470.5  Z " stroke-width="1" stroke="#7b4d12" fill="none" />
  <path d="M 2465 482  C 2462.76 482  2461 480.24  2461 478  C 2461 475.76  2462.76 474  2465 474  C 2467.24 474  2469 475.76  2469 478  C 2469 480.24  2467.24 482  2465 482  " fill-rule="nonzero" fill="#7b4d12" stroke="none" />
</svg>