<?xml version="1.0" encoding="utf-8"?>
<svg version="1.1" xmlns:xlink="http://www.w3.org/1999/xlink" width="16px" height="16px" viewBox="2377 470  16 16" xmlns="http://www.w3.org/2000/svg">
  <path d="M 2385 470  C 2389.48 470  2393 473.52  2393 478  C 2393 482.48  2389.48 486  2385 486  C 2380.52 486  2377 482.48  2377 478  C 2377 473.52  2380.52 470  2385 470  Z " fill-rule="nonzero" fill="#ffffff" stroke="none" />
  <path d="M 2385 470.5  C 2389.2 470.5  2392.5 473.8  2392.5 478  C 2392.5 482.2  2389.2 485.5  2385 485.5  C 2380.8 485.5  2377.5 482.2  2377.5 478  C 2377.5 473.8  2380.8 470.5  2385 470.5  Z " stroke-width="1" stroke="#7b4d12" fill="none" />
  <path d="M 2385 482  C 2382.76 482  2381 480.24  2381 478  C 2381 475.76  2382.76 474  2385 474  C 2387.24 474  2389 475.76  2389 478  C 2389 480.24  2387.24 482  2385 482  " fill-rule="nonzero" fill="#7b4d12" stroke="none" />
</svg>