<?xml version="1.0" encoding="utf-8"?>
<svg version="1.1" xmlns:xlink="http://www.w3.org/1999/xlink" width="16px" height="16px" viewBox="2320 1004  16 16" xmlns="http://www.w3.org/2000/svg">
  <path d="M 2328 1004  C 2332.48 1004  2336 1007.52  2336 1012  C 2336 1016.48  2332.48 1020  2328 1020  C 2323.52 1020  2320 1016.48  2320 1012  C 2320 1007.52  2323.52 1004  2328 1004  Z " fill-rule="nonzero" fill="#f0f0f0" stroke="none" />
  <path d="M 2328 1004.5  C 2332.2 1004.5  2335.5 1007.8  2335.5 1012  C 2335.5 1016.2  2332.2 1019.5  2328 1019.5  C 2323.8 1019.5  2320.5 1016.2  2320.5 1012  C 2320.5 1007.8  2323.8 1004.5  2328 1004.5  Z " stroke-width="1" stroke="#8c8c8c" fill="none" />
  <path d="M 2328 1016  C 2325.76 1016  2324 1014.24  2324 1012  C 2324 1009.76  2325.76 1008  2328 1008  C 2330.24 1008  2332 1009.76  2332 1012  C 2332 1014.24  2330.24 1016  2328 1016  " fill-rule="nonzero" fill="#8c8c8c" stroke="none" />
</svg>