<?xml version="1.0" encoding="utf-8"?>
<svg version="1.1" xmlns:xlink="http://www.w3.org/1999/xlink" width="16px" height="16px" viewBox="2840 854  16 16" xmlns="http://www.w3.org/2000/svg">
  <path d="M 2848 854  C 2852.48 854  2856 857.52  2856 862  C 2856 866.48  2852.48 870  2848 870  C 2843.52 870  2840 866.48  2840 862  C 2840 857.52  2843.52 854  2848 854  Z " fill-rule="nonzero" fill="#f0f0f0" stroke="none" />
  <path d="M 2848 854.5  C 2852.2 854.5  2855.5 857.8  2855.5 862  C 2855.5 866.2  2852.2 869.5  2848 869.5  C 2843.8 869.5  2840.5 866.2  2840.5 862  C 2840.5 857.8  2843.8 854.5  2848 854.5  Z " stroke-width="1" stroke="#8c8c8c" fill="none" />
  <path d="M 2848 866  C 2845.76 866  2844 864.24  2844 862  C 2844 859.76  2845.76 858  2848 858  C 2850.24 858  2852 859.76  2852 862  C 2852 864.24  2850.24 866  2848 866  " fill-rule="nonzero" fill="#8c8c8c" stroke="none" />
</svg>