<?xml version="1.0" encoding="utf-8"?>
<svg version="1.1" xmlns:xlink="http://www.w3.org/1999/xlink" width="16px" height="16px" viewBox="2780 854  16 16" xmlns="http://www.w3.org/2000/svg">
  <path d="M 2788 854  C 2792.48 854  2796 857.52  2796 862  C 2796 866.48  2792.48 870  2788 870  C 2783.52 870  2780 866.48  2780 862  C 2780 857.52  2783.52 854  2788 854  Z " fill-rule="nonzero" fill="#f0f0f0" stroke="none" />
  <path d="M 2788 854.5  C 2792.2 854.5  2795.5 857.8  2795.5 862  C 2795.5 866.2  2792.2 869.5  2788 869.5  C 2783.8 869.5  2780.5 866.2  2780.5 862  C 2780.5 857.8  2783.8 854.5  2788 854.5  Z " stroke-width="1" stroke="#8c8c8c" fill="none" />
  <path d="M 2788 866  C 2785.76 866  2784 864.24  2784 862  C 2784 859.76  2785.76 858  2788 858  C 2790.24 858  2792 859.76  2792 862  C 2792 864.24  2790.24 866  2788 866  " fill-rule="nonzero" fill="#8c8c8c" stroke="none" />
</svg>