<?xml version="1.0" encoding="utf-8"?>
<svg version="1.1" xmlns:xlink="http://www.w3.org/1999/xlink" width="16px" height="16px" viewBox="1147 412  16 16" xmlns="http://www.w3.org/2000/svg">
  <path d="M 1155 412  C 1159.48 412  1163 415.52  1163 420  C 1163 424.48  1159.48 428  1155 428  C 1150.52 428  1147 424.48  1147 420  C 1147 415.52  1150.52 412  1155 412  Z " fill-rule="nonzero" fill="#ffffff" stroke="none" />
  <path d="M 1155 412.5  C 1159.2 412.5  1162.5 415.8  1162.5 420  C 1162.5 424.2  1159.2 427.5  1155 427.5  C 1150.8 427.5  1147.5 424.2  1147.5 420  C 1147.5 415.8  1150.8 412.5  1155 412.5  Z " stroke-width="1" stroke="#7b4d12" fill="none" />
  <path d="M 1155 424  C 1152.76 424  1151 422.24  1151 420  C 1151 417.76  1152.76 416  1155 416  C 1157.24 416  1159 417.76  1159 420  C 1159 422.24  1157.24 424  1155 424  " fill-rule="nonzero" fill="#7b4d12" stroke="none" />
</svg>