<?xml version="1.0" encoding="utf-8"?>
<svg version="1.1" xmlns:xlink="http://www.w3.org/1999/xlink" width="16px" height="16px" viewBox="1147 376  16 16" xmlns="http://www.w3.org/2000/svg">
  <path d="M 1155 376  C 1159.48 376  1163 379.52  1163 384  C 1163 388.48  1159.48 392  1155 392  C 1150.52 392  1147 388.48  1147 384  C 1147 379.52  1150.52 376  1155 376  Z " fill-rule="nonzero" fill="#ffffff" stroke="none" />
  <path d="M 1155 376.5  C 1159.2 376.5  1162.5 379.8  1162.5 384  C 1162.5 388.2  1159.2 391.5  1155 391.5  C 1150.8 391.5  1147.5 388.2  1147.5 384  C 1147.5 379.8  1150.8 376.5  1155 376.5  Z " stroke-width="1" stroke="#7b4d12" fill="none" />
  <path d="M 1155 388  C 1152.76 388  1151 386.24  1151 384  C 1151 381.76  1152.76 380  1155 380  C 1157.24 380  1159 381.76  1159 384  C 1159 386.24  1157.24 388  1155 388  " fill-rule="nonzero" fill="#7b4d12" stroke="none" />
</svg>