<?xml version="1.0" encoding="utf-8"?>
<svg version="1.1" xmlns:xlink="http://www.w3.org/1999/xlink" width="16px" height="16px" viewBox="1207 212  16 16" xmlns="http://www.w3.org/2000/svg">
  <path d="M 1215 212  C 1219.48 212  1223 215.52  1223 220  C 1223 224.48  1219.48 228  1215 228  C 1210.52 228  1207 224.48  1207 220  C 1207 215.52  1210.52 212  1215 212  Z " fill-rule="nonzero" fill="#ffffff" stroke="none" />
  <path d="M 1215 212.5  C 1219.2 212.5  1222.5 215.8  1222.5 220  C 1222.5 224.2  1219.2 227.5  1215 227.5  C 1210.8 227.5  1207.5 224.2  1207.5 220  C 1207.5 215.8  1210.8 212.5  1215 212.5  Z " stroke-width="1" stroke="#7b4d12" fill="none" />
  <path d="M 1215 224  C 1212.76 224  1211 222.24  1211 220  C 1211 217.76  1212.76 216  1215 216  C 1217.24 216  1219 217.76  1219 220  C 1219 222.24  1217.24 224  1215 224  " fill-rule="nonzero" fill="#7b4d12" stroke="none" />
</svg>