<?xml version="1.0" encoding="utf-8"?>
<svg version="1.1" xmlns:xlink="http://www.w3.org/1999/xlink" width="16px" height="16px" viewBox="1147 212  16 16" xmlns="http://www.w3.org/2000/svg">
  <path d="M 1155 212  C 1159.48 212  1163 215.52  1163 220  C 1163 224.48  1159.48 228  1155 228  C 1150.52 228  1147 224.48  1147 220  C 1147 215.52  1150.52 212  1155 212  Z " fill-rule="nonzero" fill="#ffffff" stroke="none" />
  <path d="M 1155 212.5  C 1159.2 212.5  1162.5 215.8  1162.5 220  C 1162.5 224.2  1159.2 227.5  1155 227.5  C 1150.8 227.5  1147.5 224.2  1147.5 220  C 1147.5 215.8  1150.8 212.5  1155 212.5  Z " stroke-width="1" stroke="#7b4d12" fill="none" />
  <path d="M 1155 224  C 1152.76 224  1151 222.24  1151 220  C 1151 217.76  1152.76 216  1155 216  C 1157.24 216  1159 217.76  1159 220  C 1159 222.24  1157.24 224  1155 224  " fill-rule="nonzero" fill="#7b4d12" stroke="none" />
</svg>