<?xml version="1.0" encoding="utf-8"?>
<svg version="1.1" xmlns:xlink="http://www.w3.org/1999/xlink" width="16px" height="16px" viewBox="1147 614  16 16" xmlns="http://www.w3.org/2000/svg">
  <path d="M 1155 614  C 1159.48 614  1163 617.52  1163 622  C 1163 626.48  1159.48 630  1155 630  C 1150.52 630  1147 626.48  1147 622  C 1147 617.52  1150.52 614  1155 614  Z " fill-rule="nonzero" fill="#ffffff" stroke="none" />
  <path d="M 1155 614.5  C 1159.2 614.5  1162.5 617.8  1162.5 622  C 1162.5 626.2  1159.2 629.5  1155 629.5  C 1150.8 629.5  1147.5 626.2  1147.5 622  C 1147.5 617.8  1150.8 614.5  1155 614.5  Z " stroke-width="1" stroke="#7b4d12" fill="none" />
  <path d="M 1155 626  C 1152.76 626  1151 624.24  1151 622  C 1151 619.76  1152.76 618  1155 618  C 1157.24 618  1159 619.76  1159 622  C 1159 624.24  1157.24 626  1155 626  " fill-rule="nonzero" fill="#7b4d12" stroke="none" />
</svg>