<?xml version="1.0" encoding="utf-8"?>
<svg version="1.1" xmlns:xlink="http://www.w3.org/1999/xlink" width="16px" height="16px" viewBox="1247 614  16 16" xmlns="http://www.w3.org/2000/svg">
  <path d="M 1255 614  C 1259.48 614  1263 617.52  1263 622  C 1263 626.48  1259.48 630  1255 630  C 1250.52 630  1247 626.48  1247 622  C 1247 617.52  1250.52 614  1255 614  Z " fill-rule="nonzero" fill="#ffffff" stroke="none" />
  <path d="M 1255 614.5  C 1259.2 614.5  1262.5 617.8  1262.5 622  C 1262.5 626.2  1259.2 629.5  1255 629.5  C 1250.8 629.5  1247.5 626.2  1247.5 622  C 1247.5 617.8  1250.8 614.5  1255 614.5  Z " stroke-width="1" stroke="#7b4d12" fill="none" />
  <path d="M 1255 626  C 1252.76 626  1251 624.24  1251 622  C 1251 619.76  1252.76 618  1255 618  C 1257.24 618  1259 619.76  1259 622  C 1259 624.24  1257.24 626  1255 626  " fill-rule="nonzero" fill="#7b4d12" stroke="none" />
</svg>