<?xml version="1.0" encoding="utf-8"?>
<svg version="1.1" xmlns:xlink="http://www.w3.org/1999/xlink" width="16px" height="16px" viewBox="1207 412  16 16" xmlns="http://www.w3.org/2000/svg">
  <path d="M 1215 412  C 1219.48 412  1223 415.52  1223 420  C 1223 424.48  1219.48 428  1215 428  C 1210.52 428  1207 424.48  1207 420  C 1207 415.52  1210.52 412  1215 412  Z " fill-rule="nonzero" fill="#f0f0f0" stroke="none" />
  <path d="M 1215 412.5  C 1219.2 412.5  1222.5 415.8  1222.5 420  C 1222.5 424.2  1219.2 427.5  1215 427.5  C 1210.8 427.5  1207.5 424.2  1207.5 420  C 1207.5 415.8  1210.8 412.5  1215 412.5  Z " stroke-width="1" stroke="#8c8c8c" fill="none" />
  <path d="M 1215 424  C 1212.76 424  1211 422.24  1211 420  C 1211 417.76  1212.76 416  1215 416  C 1217.24 416  1219 417.76  1219 420  C 1219 422.24  1217.24 424  1215 424  " fill-rule="nonzero" fill="#8c8c8c" stroke="none" />
</svg>