<?xml version="1.0" encoding="utf-8"?>
<svg version="1.1" xmlns:xlink="http://www.w3.org/1999/xlink" width="16px" height="16px" viewBox="1287 412  16 16" xmlns="http://www.w3.org/2000/svg">
  <path d="M 1295 412  C 1299.48 412  1303 415.52  1303 420  C 1303 424.48  1299.48 428  1295 428  C 1290.52 428  1287 424.48  1287 420  C 1287 415.52  1290.52 412  1295 412  Z " fill-rule="nonzero" fill="#ffffff" stroke="none" />
  <path d="M 1295 412.5  C 1299.2 412.5  1302.5 415.8  1302.5 420  C 1302.5 424.2  1299.2 427.5  1295 427.5  C 1290.8 427.5  1287.5 424.2  1287.5 420  C 1287.5 415.8  1290.8 412.5  1295 412.5  Z " stroke-width="1" stroke="#7b4d12" fill="none" />
  <path d="M 1295 424  C 1292.76 424  1291 422.24  1291 420  C 1291 417.76  1292.76 416  1295 416  C 1297.24 416  1299 417.76  1299 420  C 1299 422.24  1297.24 424  1295 424  " fill-rule="nonzero" fill="#7b4d12" stroke="none" />
</svg>