<?xml version="1.0" encoding="utf-8"?>
<svg version="1.1" xmlns:xlink="http://www.w3.org/1999/xlink" width="16px" height="16px" viewBox="290 212  16 16" xmlns="http://www.w3.org/2000/svg">
  <path d="M 298 212  C 302.48 212  306 215.52  306 220  C 306 224.48  302.48 228  298 228  C 293.52 228  290 224.48  290 220  C 290 215.52  293.52 212  298 212  Z " fill-rule="nonzero" fill="#ffffff" stroke="none" />
  <path d="M 298 212.5  C 302.2 212.5  305.5 215.8  305.5 220  C 305.5 224.2  302.2 227.5  298 227.5  C 293.8 227.5  290.5 224.2  290.5 220  C 290.5 215.8  293.8 212.5  298 212.5  Z " stroke-width="1" stroke="#7b4d12" fill="none" />
  <path d="M 298 224  C 295.76 224  294 222.24  294 220  C 294 217.76  295.76 216  298 216  C 300.24 216  302 217.76  302 220  C 302 222.24  300.24 224  298 224  " fill-rule="nonzero" fill="#7b4d12" stroke="none" />
</svg>