<?xml version="1.0" encoding="utf-8"?>
<svg version="1.1" xmlns:xlink="http://www.w3.org/1999/xlink" width="16px" height="16px" viewBox="230 212  16 16" xmlns="http://www.w3.org/2000/svg">
  <path d="M 238 212  C 242.48 212  246 215.52  246 220  C 246 224.48  242.48 228  238 228  C 233.52 228  230 224.48  230 220  C 230 215.52  233.52 212  238 212  Z " fill-rule="nonzero" fill="#ffffff" stroke="none" />
  <path d="M 238 212.5  C 242.2 212.5  245.5 215.8  245.5 220  C 245.5 224.2  242.2 227.5  238 227.5  C 233.8 227.5  230.5 224.2  230.5 220  C 230.5 215.8  233.8 212.5  238 212.5  Z " stroke-width="1" stroke="#8c8c8c" fill="none" />
  <path d="M 238 224  C 235.76 224  234 222.24  234 220  C 234 217.76  235.76 216  238 216  C 240.24 216  242 217.76  242 220  C 242 222.24  240.24 224  238 224  " fill-rule="nonzero" fill="#8c8c8c" stroke="none" />
</svg>