<?xml version="1.0" encoding="utf-8"?>
<svg version="1.1" xmlns:xlink="http://www.w3.org/1999/xlink" width="16px" height="16px" viewBox="747 212  16 16" xmlns="http://www.w3.org/2000/svg">
  <path d="M 755 212  C 759.48 212  763 215.52  763 220  C 763 224.48  759.48 228  755 228  C 750.52 228  747 224.48  747 220  C 747 215.52  750.52 212  755 212  Z " fill-rule="nonzero" fill="#ffffff" stroke="none" />
  <path d="M 755 212.5  C 759.2 212.5  762.5 215.8  762.5 220  C 762.5 224.2  759.2 227.5  755 227.5  C 750.8 227.5  747.5 224.2  747.5 220  C 747.5 215.8  750.8 212.5  755 212.5  Z " stroke-width="1" stroke="#7b4d12" fill="none" />
  <path d="M 755 224  C 752.76 224  751 222.24  751 220  C 751 217.76  752.76 216  755 216  C 757.24 216  759 217.76  759 220  C 759 222.24  757.24 224  755 224  " fill-rule="nonzero" fill="#7b4d12" stroke="none" />
</svg>