<?xml version="1.0" encoding="utf-8"?>
<svg version="1.1" xmlns:xlink="http://www.w3.org/1999/xlink" width="16px" height="16px" viewBox="747 336  16 16" xmlns="http://www.w3.org/2000/svg">
  <path d="M 755 336  C 759.48 336  763 339.52  763 344  C 763 348.48  759.48 352  755 352  C 750.52 352  747 348.48  747 344  C 747 339.52  750.52 336  755 336  Z " fill-rule="nonzero" fill="#ffffff" stroke="none" />
  <path d="M 755 336.5  C 759.2 336.5  762.5 339.8  762.5 344  C 762.5 348.2  759.2 351.5  755 351.5  C 750.8 351.5  747.5 348.2  747.5 344  C 747.5 339.8  750.8 336.5  755 336.5  Z " stroke-width="1" stroke="#7b4d12" fill="none" />
  <path d="M 755 348  C 752.76 348  751 346.24  751 344  C 751 341.76  752.76 340  755 340  C 757.24 340  759 341.76  759 344  C 759 346.24  757.24 348  755 348  " fill-rule="nonzero" fill="#7b4d12" stroke="none" />
</svg>