<?xml version="1.0" encoding="utf-8"?>
<svg version="1.1" xmlns:xlink="http://www.w3.org/1999/xlink" width="16px" height="16px" viewBox="687 376  16 16" xmlns="http://www.w3.org/2000/svg">
  <path d="M 695 376  C 699.48 376  703 379.52  703 384  C 703 388.48  699.48 392  695 392  C 690.52 392  687 388.48  687 384  C 687 379.52  690.52 376  695 376  Z " fill-rule="nonzero" fill="#ffffff" stroke="none" />
  <path d="M 695 376.5  C 699.2 376.5  702.5 379.8  702.5 384  C 702.5 388.2  699.2 391.5  695 391.5  C 690.8 391.5  687.5 388.2  687.5 384  C 687.5 379.8  690.8 376.5  695 376.5  Z " stroke-width="1" stroke="#7b4d12" fill="none" />
  <path d="M 695 388  C 692.76 388  691 386.24  691 384  C 691 381.76  692.76 380  695 380  C 697.24 380  699 381.76  699 384  C 699 386.24  697.24 388  695 388  " fill-rule="nonzero" fill="#7b4d12" stroke="none" />
</svg>