<?xml version="1.0" encoding="utf-8"?>
<svg version="1.1" xmlns:xlink="http://www.w3.org/1999/xlink" width="16px" height="16px" viewBox="687 212  16 16" xmlns="http://www.w3.org/2000/svg">
  <path d="M 695 212  C 699.48 212  703 215.52  703 220  C 703 224.48  699.48 228  695 228  C 690.52 228  687 224.48  687 220  C 687 215.52  690.52 212  695 212  Z " fill-rule="nonzero" fill="#f0f0f0" stroke="none" />
  <path d="M 695 212.5  C 699.2 212.5  702.5 215.8  702.5 220  C 702.5 224.2  699.2 227.5  695 227.5  C 690.8 227.5  687.5 224.2  687.5 220  C 687.5 215.8  690.8 212.5  695 212.5  Z " stroke-width="1" stroke="#8c8c8c" fill="none" />
  <path d="M 695 224  C 692.76 224  691 222.24  691 220  C 691 217.76  692.76 216  695 216  C 697.24 216  699 217.76  699 220  C 699 222.24  697.24 224  695 224  " fill-rule="nonzero" fill="#8c8c8c" stroke="none" />
</svg>