<?xml version="1.0" encoding="utf-8"?>
<svg version="1.1" xmlns:xlink="http://www.w3.org/1999/xlink" width="16px" height="16px" viewBox="747 376  16 16" xmlns="http://www.w3.org/2000/svg">
  <path d="M 755 376  C 759.48 376  763 379.52  763 384  C 763 388.48  759.48 392  755 392  C 750.52 392  747 388.48  747 384  C 747 379.52  750.52 376  755 376  Z " fill-rule="nonzero" fill="#ffffff" stroke="none" />
  <path d="M 755 376.5  C 759.2 376.5  762.5 379.8  762.5 384  C 762.5 388.2  759.2 391.5  755 391.5  C 750.8 391.5  747.5 388.2  747.5 384  C 747.5 379.8  750.8 376.5  755 376.5  Z " stroke-width="1" stroke="#7b4d12" fill="none" />
  <path d="M 755 388  C 752.76 388  751 386.24  751 384  C 751 381.76  752.76 380  755 380  C 757.24 380  759 381.76  759 384  C 759 386.24  757.24 388  755 388  " fill-rule="nonzero" fill="#7b4d12" stroke="none" />
</svg>