<?xml version="1.0" encoding="utf-8"?>
<svg version="1.1" xmlns:xlink="http://www.w3.org/1999/xlink" width="16px" height="16px" viewBox="827 412  16 16" xmlns="http://www.w3.org/2000/svg">
  <path d="M 835 412  C 839.48 412  843 415.52  843 420  C 843 424.48  839.48 428  835 428  C 830.52 428  827 424.48  827 420  C 827 415.52  830.52 412  835 412  Z " fill-rule="nonzero" fill="#ffffff" stroke="none" />
  <path d="M 835 412.5  C 839.2 412.5  842.5 415.8  842.5 420  C 842.5 424.2  839.2 427.5  835 427.5  C 830.8 427.5  827.5 424.2  827.5 420  C 827.5 415.8  830.8 412.5  835 412.5  Z " stroke-width="1" stroke="#7b4d12" fill="none" />
  <path d="M 835 424  C 832.76 424  831 422.24  831 420  C 831 417.76  832.76 416  835 416  C 837.24 416  839 417.76  839 420  C 839 422.24  837.24 424  835 424  " fill-rule="nonzero" fill="#7b4d12" stroke="none" />
</svg>