<?xml version="1.0" encoding="utf-8"?>
<svg version="1.1" xmlns:xlink="http://www.w3.org/1999/xlink" width="16px" height="16px" viewBox="750 946  16 16" xmlns="http://www.w3.org/2000/svg">
  <path d="M 758 946  C 762.48 946  766 949.52  766 954  C 766 958.48  762.48 962  758 962  C 753.52 962  750 958.48  750 954  C 750 949.52  753.52 946  758 946  Z " fill-rule="nonzero" fill="#ffffff" stroke="none" />
  <path d="M 758 946.5  C 762.2 946.5  765.5 949.8  765.5 954  C 765.5 958.2  762.2 961.5  758 961.5  C 753.8 961.5  750.5 958.2  750.5 954  C 750.5 949.8  753.8 946.5  758 946.5  Z " stroke-width="1" stroke="#7b4d12" fill="none" />
  <path d="M 758 958  C 755.76 958  754 956.24  754 954  C 754 951.76  755.76 950  758 950  C 760.24 950  762 951.76  762 954  C 762 956.24  760.24 958  758 958  " fill-rule="nonzero" fill="#7b4d12" stroke="none" />
</svg>