<?xml version="1.0" encoding="utf-8"?>
<svg version="1.1" xmlns:xlink="http://www.w3.org/1999/xlink" width="16px" height="16px" viewBox="690 946  16 16" xmlns="http://www.w3.org/2000/svg">
  <path d="M 698 946  C 702.48 946  706 949.52  706 954  C 706 958.48  702.48 962  698 962  C 693.52 962  690 958.48  690 954  C 690 949.52  693.52 946  698 946  Z " fill-rule="nonzero" fill="#ffffff" stroke="none" />
  <path d="M 698 946.5  C 702.2 946.5  705.5 949.8  705.5 954  C 705.5 958.2  702.2 961.5  698 961.5  C 693.8 961.5  690.5 958.2  690.5 954  C 690.5 949.8  693.8 946.5  698 946.5  Z " stroke-width="1" stroke="#7b4d12" fill="none" />
  <path d="M 698 958  C 695.76 958  694 956.24  694 954  C 694 951.76  695.76 950  698 950  C 700.24 950  702 951.76  702 954  C 702 956.24  700.24 958  698 958  " fill-rule="nonzero" fill="#7b4d12" stroke="none" />
</svg>