<?xml version="1.0" encoding="utf-8"?>
<svg version="1.1" xmlns:xlink="http://www.w3.org/1999/xlink" width="16px" height="16px" viewBox="1150 946  16 16" xmlns="http://www.w3.org/2000/svg">
  <path d="M 1158 946  C 1162.48 946  1166 949.52  1166 954  C 1166 958.48  1162.48 962  1158 962  C 1153.52 962  1150 958.48  1150 954  C 1150 949.52  1153.52 946  1158 946  Z " fill-rule="nonzero" fill="#ffffff" stroke="none" />
  <path d="M 1158 946.5  C 1162.2 946.5  1165.5 949.8  1165.5 954  C 1165.5 958.2  1162.2 961.5  1158 961.5  C 1153.8 961.5  1150.5 958.2  1150.5 954  C 1150.5 949.8  1153.8 946.5  1158 946.5  Z " stroke-width="1" stroke="#7b4d12" fill="none" />
  <path d="M 1158 958  C 1155.76 958  1154 956.24  1154 954  C 1154 951.76  1155.76 950  1158 950  C 1160.24 950  1162 951.76  1162 954  C 1162 956.24  1160.24 958  1158 958  " fill-rule="nonzero" fill="#7b4d12" stroke="none" />
</svg>