<?xml version="1.0" encoding="utf-8"?>
<svg version="1.1" xmlns:xlink="http://www.w3.org/1999/xlink" width="16px" height="16px" viewBox="1210 946  16 16" xmlns="http://www.w3.org/2000/svg">
  <path d="M 1218 946  C 1222.48 946  1226 949.52  1226 954  C 1226 958.48  1222.48 962  1218 962  C 1213.52 962  1210 958.48  1210 954  C 1210 949.52  1213.52 946  1218 946  Z " fill-rule="nonzero" fill="#ffffff" stroke="none" />
  <path d="M 1218 946.5  C 1222.2 946.5  1225.5 949.8  1225.5 954  C 1225.5 958.2  1222.2 961.5  1218 961.5  C 1213.8 961.5  1210.5 958.2  1210.5 954  C 1210.5 949.8  1213.8 946.5  1218 946.5  Z " stroke-width="1" stroke="#7b4d12" fill="none" />
  <path d="M 1218 958  C 1215.76 958  1214 956.24  1214 954  C 1214 951.76  1215.76 950  1218 950  C 1220.24 950  1222 951.76  1222 954  C 1222 956.24  1220.24 958  1218 958  " fill-rule="nonzero" fill="#7b4d12" stroke="none" />
</svg>