<?xml version="1.0" encoding="utf-8"?>
<svg version="1.1" xmlns:xlink="http://www.w3.org/1999/xlink" width="16px" height="16px" viewBox="171 103  16 16" xmlns="http://www.w3.org/2000/svg">
  <path d="M 179 103  C 183.48 103  187 106.52  187 111  C 187 115.48  183.48 119  179 119  C 174.52 119  171 115.48  171 111  C 171 106.52  174.52 103  179 103  Z " fill-rule="nonzero" fill="#ffffff" stroke="none" />
  <path d="M 179 103.5  C 183.2 103.5  186.5 106.8  186.5 111  C 186.5 115.2  183.2 118.5  179 118.5  C 174.8 118.5  171.5 115.2  171.5 111  C 171.5 106.8  174.8 103.5  179 103.5  Z " stroke-width="1" stroke="#8c8c8c" fill="none" />
  <path d="M 179 115  C 176.76 115  175 113.24  175 111  C 175 108.76  176.76 107  179 107  C 181.24 107  183 108.76  183 111  C 183 113.24  181.24 115  179 115  " fill-rule="nonzero" fill="#8c8c8c" stroke="none" />
</svg>