<?xml version="1.0" encoding="utf-8"?>
<svg version="1.1" xmlns:xlink="http://www.w3.org/1999/xlink" width="300px" height="40px" xmlns="http://www.w3.org/2000/svg">
  <g>
    <path d="M 1 3  A 2 2 0 0 1 3 1 L 297 1  A 2 2 0 0 1 299 3 L 299 37  A 2 2 0 0 1 297 39 L 3 39  A 2 2 0 0 1 1 37 L 1 3  Z " fill-rule="nonzero" fill="#b8741a" stroke="none" fill-opacity="0.988235294117647" />
    <path d="M 0.5 3  A 2.5 2.5 0 0 1 3 0.5 L 297 0.5  A 2.5 2.5 0 0 1 299.5 3 L 299.5 37  A 2.5 2.5 0 0 1 297 39.5 L 3 39.5  A 2.5 2.5 0 0 1 0.5 37 L 0.5 3  Z " stroke-width="1" stroke="#b8741a" fill="none" stroke-opacity="0.996078431372549" />
  </g>
</svg>