<?xml version="1.0" encoding="utf-8"?>
<svg version="1.1" xmlns:xlink="http://www.w3.org/1999/xlink" width="12px" height="12px" viewBox="115 117  12 12" xmlns="http://www.w3.org/2000/svg">
  <path d="M 121 117  C 124.36 117  127 119.64  127 123  C 127 126.36  124.36 129  121 129  C 117.64 129  115 126.36  115 123  C 115 119.64  117.64 117  121 117  Z " fill-rule="nonzero" fill="#f0f0f0" stroke="none" />
  <path d="M 121 117.5  C 124.08 117.5  126.5 119.92  126.5 123  C 126.5 126.08  124.08 128.5  121 128.5  C 117.92 128.5  115.5 126.08  115.5 123  C 115.5 119.92  117.92 117.5  121 117.5  Z " stroke-width="1" stroke="#797979" fill="none" />
  <path d="M 121 126  C 119.32 126  118 124.68  118 123  C 118 121.32  119.32 120  121 120  C 122.68 120  124 121.32  124 123  C 124 124.68  122.68 126  121 126  " fill-rule="nonzero" fill="#797979" stroke="none" />
</svg>