<?xml version="1.0" encoding="utf-8"?>
<svg version="1.1" xmlns:xlink="http://www.w3.org/1999/xlink" width="12px" height="12px" viewBox="185 117  12 12" xmlns="http://www.w3.org/2000/svg">
  <path d="M 191 117  C 194.36 117  197 119.64  197 123  C 197 126.36  194.36 129  191 129  C 187.64 129  185 126.36  185 123  C 185 119.64  187.64 117  191 117  Z " fill-rule="nonzero" fill="#ffffff" stroke="none" />
  <path d="M 191 117.5  C 194.08 117.5  196.5 119.92  196.5 123  C 196.5 126.08  194.08 128.5  191 128.5  C 187.92 128.5  185.5 126.08  185.5 123  C 185.5 119.92  187.92 117.5  191 117.5  Z " stroke-width="1" stroke="#02a7f0" fill="none" />
  <path d="M 191 126  C 189.32 126  188 124.68  188 123  C 188 121.32  189.32 120  191 120  C 192.68 120  194 121.32  194 123  C 194 124.68  192.68 126  191 126  " fill-rule="nonzero" fill="#02a7f0" stroke="none" />
</svg>