<?xml version="1.0" encoding="utf-8"?>
<svg version="1.1" xmlns:xlink="http://www.w3.org/1999/xlink" width="49px" height="28px" xmlns="http://www.w3.org/2000/svg">
  <g transform="matrix(1 0 0 1 -436 -47 )">
    <path d="M 436 47  L 485 47  L 485 75  L 436 75  L 436 47  " fill-rule="nonzero" fill="#cccccc" stroke="none" />
    <path d="M 438 49  L 483 49  L 483 73  L 438 73  L 438 49  " fill-rule="nonzero" fill="#ffffff" stroke="none" />
    <path d="M 463.58 55.4  C 462.404 55.4  461.48 54.476  461.48 53.3  C 461.48 52.124  462.404 51.2  463.58 51.2  C 464.756 51.2  465.68 52.124  465.68 53.3  C 465.68 54.476  464.756 55.4  463.58 55.4  " fill-rule="nonzero" fill="#cccccc" stroke="none" />
    <path d="M 439 73  L 439 60.35  L 450 54.6  L 465.4 65.1142857142857  L 474.2 58.05  L 483 65.1142857142857  L 483 73  L 439 73  " fill-rule="nonzero" fill="#169bd5" stroke="none" />
  </g>
</svg>