<?xml version="1.0" encoding="utf-8"?>
<svg version="1.1" xmlns:xlink="http://www.w3.org/1999/xlink" width="16px" height="16px" viewBox="40 216  16 16" xmlns="http://www.w3.org/2000/svg">
  <path d="M 48 216  C 52.48 216  56 219.52  56 224  C 56 228.48  52.48 232  48 232  C 43.52 232  40 228.48  40 224  C 40 219.52  43.52 216  48 216  Z " fill-rule="nonzero" fill="#f0f0f0" stroke="none" />
  <path d="M 48 216.5  C 52.2 216.5  55.5 219.8  55.5 224  C 55.5 228.2  52.2 231.5  48 231.5  C 43.8 231.5  40.5 228.2  40.5 224  C 40.5 219.8  43.8 216.5  48 216.5  Z " stroke-width="1" stroke="#8c8c8c" fill="none" />
  <path d="M 48 228  C 45.76 228  44 226.24  44 224  C 44 221.76  45.76 220  48 220  C 50.24 220  52 221.76  52 224  C 52 226.24  50.24 228  48 228  " fill-rule="nonzero" fill="#8c8c8c" stroke="none" />
</svg>