<?xml version="1.0" encoding="utf-8"?>
<svg version="1.1" xmlns:xlink="http://www.w3.org/1999/xlink" width="20px" height="20px" xmlns="http://www.w3.org/2000/svg">
  <g transform="matrix(1 0 0 1 0 -5 )">
    <path d="M 13.75 0  L 19.1666666666667 0  C 19.3923611111111 0  19.5876736111111 0.0824652777777768  19.7526041666667 0.247395833333333  C 19.9175347222222 0.412326388888886  20 0.607638888888886  20 0.833333333333333  L 20 6.25  C 20 6.37152777777778  19.9609375 6.47135416666667  19.8828125 6.54947916666667  C 19.8046875 6.62760416666667  19.7048611111111 6.66666666666667  19.5833333333333 6.66666666666667  L 18.75 6.66666666666667  C 18.6284722222222 6.66666666666667  18.5286458333333 6.62760416666667  18.4505208333333 6.54947916666667  C 18.3723958333333 6.47135416666667  18.3333333333333 6.37152777777778  18.3333333333333 6.25  L 18.3333333333333 2.83854166666667  L 13.359375 7.82552083333333  C 14.453125 9.1796875  15 10.7378472222222  15 12.5  C 15 13.515625  14.8025173611111 14.4856770833333  14.4075520833333 15.41015625  C 14.0125868055556 16.3346354166667  13.4787326388889 17.1332465277778  12.8059895833333 17.8059895833333  C 12.1332465277778 18.4787326388889  11.3346354166667 19.0125868055556  10.41015625 19.4075520833333  C 9.48567708333333 19.8025173611111  8.515625 20  7.5 20  C 6.484375 20  5.51432291666667 19.8025173611111  4.58984375 19.4075520833333  C 3.66536458333333 19.0125868055556  2.86675347222222 18.4787326388889  2.19401041666667 17.8059895833333  C 1.52126736111111 17.1332465277778  0.987413194444445 16.3346354166667  0.592447916666667 15.41015625  C 0.197482638888889 14.4856770833333  0 13.515625  0 12.5  C 0 11.484375  0.197482638888889 10.5143229166667  0.592447916666667 9.58984375  C 0.987413194444445 8.66536458333333  1.52126736111111 7.86675347222222  2.19401041666667 7.19401041666667  C 2.86675347222222 6.52126736111111  3.66536458333333 5.98741319444444  4.58984375 5.59244791666667  C 5.51432291666667 5.19748263888889  6.484375 5  7.5 5  C 9.26215277777778 5  10.8203125 5.546875  12.1744791666667 6.640625  L 17.1484375 1.66666666666667  L 13.75 1.66666666666667  C 13.6284722222222 1.66666666666667  13.5286458333333 1.62760416666667  13.4505208333333 1.54947916666667  C 13.3723958333333 1.47135416666667  13.3333333333333 1.37152777777778  13.3333333333333 1.25  L 13.3333333333333 0.416666666666667  C 13.3333333333333 0.295138888888886  13.3723958333333 0.1953125  13.4505208333333 0.1171875  C 13.5286458333333 0.0390625  13.6284722222222 0  13.75 0  Z M 3.37890625 16.62109375  C 4.52039930555556 17.7625868055556  5.89409722222222 18.3333333333333  7.5 18.3333333333333  C 9.10590277777778 18.3333333333333  10.4796006944444 17.7625868055556  11.62109375 16.62109375  C 12.7625868055556 15.4796006944444  13.3333333333333 14.1059027777778  13.3333333333333 12.5  C 13.3333333333333 10.8940972222222  12.7625868055556 9.52039930555556  11.62109375 8.37890625  C 10.4796006944444 7.23741319444444  9.10590277777778 6.66666666666667  7.5 6.66666666666667  C 5.89409722222222 6.66666666666667  4.52039930555556 7.23741319444444  3.37890625 8.37890625  C 2.23741319444444 9.52039930555556  1.66666666666667 10.8940972222222  1.66666666666667 12.5  C 1.66666666666667 14.1059027777778  2.23741319444444 15.4796006944444  3.37890625 16.62109375  Z " fill-rule="nonzero" fill="#02a7f0" stroke="none" transform="matrix(1 0 0 1 0 5 )" />
  </g>
</svg>