<?xml version="1.0" encoding="utf-8"?>
<svg version="1.1" xmlns:xlink="http://www.w3.org/1999/xlink" width="12px" height="16px" xmlns="http://www.w3.org/2000/svg">
  <g>
    <path d="M 3.33333333333333 8  L 11 8  C 11.2777777777778 8  11.5138888888889 8.09722222222222  11.7083333333333 8.29166666666667  C 11.9027777777778 8.48611111111111  12 8.72222222222222  12 9  L 12 15  C 12 15.2777777777778  11.9027777777778 15.5138888888889  11.7083333333333 15.7083333333333  C 11.5138888888889 15.9027777777778  11.2777777777778 16  11 16  L 1 16  C 0.722222222222222 16  0.486111111111111 15.9027777777778  0.291666666666667 15.7083333333333  C 0.0972222222222222 15.5138888888889  0 15.2777777777778  0 15  L 0 9  C 0 8.72222222222222  0.0972222222222222 8.48611111111111  0.291666666666667 8.29166666666667  C 0.486111111111111 8.09722222222222  0.722222222222222 8  1 8  L 1.33333333333333 8  L 1.33333333333333 4.66666666666667  C 1.33333333333333 3.38194444444444  1.78993055555556 2.28298611111111  2.703125 1.36979166666667  C 3.61631944444444 0.456597222222223  4.71527777777778 0  6 0  C 7.28472222222222 0  8.38368055555556 0.456597222222223  9.296875 1.36979166666667  C 10.2100694444444 2.28298611111111  10.6666666666667 3.38194444444444  10.6666666666667 4.66666666666667  C 10.6666666666667 4.84722222222222  10.6006944444444 5.00347222222222  10.46875 5.13541666666667  C 10.3368055555556 5.26736111111111  10.1805555555556 5.33333333333333  10 5.33333333333333  L 9.33333333333333 5.33333333333333  C 9.15277777777778 5.33333333333333  8.99652777777778 5.26736111111111  8.86458333333333 5.13541666666667  C 8.73263888888889 5.00347222222222  8.66666666666667 4.84722222222222  8.66666666666667 4.66666666666667  C 8.66666666666667 3.93055555555556  8.40625 3.30208333333333  7.88541666666667 2.78125  C 7.36458333333333 2.26041666666667  6.73611111111111 2  6 2  C 5.26388888888889 2  4.63541666666667 2.26041666666667  4.11458333333333 2.78125  C 3.59375 3.30208333333333  3.33333333333333 3.93055555555556  3.33333333333333 4.66666666666667  L 3.33333333333333 8  Z " fill-rule="nonzero" fill="#b4b8bb" stroke="none" />
  </g>
</svg>