<?xml version="1.0" encoding="utf-8"?>
<svg version="1.1" xmlns:xlink="http://www.w3.org/1999/xlink" width="200px" height="113px" xmlns="http://www.w3.org/2000/svg">
  <g transform="matrix(1 0 0 1 -105 -120 )">
    <path d="M 105 120  L 305 120  L 305 233  L 105 233  L 105 120  " fill-rule="nonzero" fill="#cccccc" stroke="none" />
    <path d="M 113 128  L 297 128  L 297 225  L 113 225  L 113 128  " fill-rule="nonzero" fill="#ffffff" stroke="none" />
    <path d="M 217.475 153.9  C 212.729 153.9  209 150.171  209 145.425  C 209 140.679  212.729 136.95  217.475 136.95  C 222.221 136.95  225.95 140.679  225.95 145.425  C 225.95 150.171  222.221 153.9  217.475 153.9  " fill-rule="nonzero" fill="#cccccc" stroke="none" />
    <path d="M 116 222  L 116 171.95  L 160.5 149.2  L 222.8 191.151  L 258.4 162.85  L 294 191.151  L 294 222  L 116 222  " fill-rule="nonzero" fill="#169bd5" stroke="none" />
  </g>
</svg>