<?xml version="1.0" encoding="utf-8"?>
<svg version="1.1" xmlns:xlink="http://www.w3.org/1999/xlink" width="50px" height="50px" xmlns="http://www.w3.org/2000/svg">
  <g transform="matrix(1 0 0 1 -526 60 )">
    <path d="M 9.375 0  L 40.625 0  C 43.2074652777778 0  45.4155815972222 0.916883680555552  47.2493489583333 2.75065104166667  C 49.0831163194444 4.58441840277777  50 6.79253472222222  50 9.375  L 50 40.625  C 50 43.2074652777778  49.0831163194444 45.4155815972222  47.2493489583333 47.2493489583333  C 45.4155815972222 49.0831163194444  43.2074652777778 50  40.625 50  L 9.375 50  C 6.79253472222222 50  4.58441840277778 49.0831163194444  2.75065104166667 47.2493489583333  C 0.916883680555555 45.4155815972222  0 43.2074652777778  0 40.625  L 0 9.375  C 0 6.79253472222222  0.916883680555555 4.58441840277777  2.75065104166667 2.75065104166667  C 4.58441840277778 0.916883680555552  6.79253472222222 0  9.375 0  Z M 20.703125 29.8828125  C 22.0486111111111 28.5373263888889  22.7213541666667 26.9097222222222  22.7213541666667 25  C 22.7213541666667 23.0902777777778  22.0486111111111 21.4626736111111  20.703125 20.1171875  C 19.3576388888889 18.7717013888889  17.7300347222222 18.0989583333333  15.8203125 18.0989583333333  C 13.9105902777778 18.0989583333333  12.2829861111111 18.7717013888889  10.9375 20.1171875  C 9.59201388888889 21.4626736111111  8.91927083333333 23.0902777777778  8.91927083333333 25  C 8.91927083333333 26.9097222222222  9.59201388888889 28.5373263888889  10.9375 29.8828125  C 12.2829861111111 31.2282986111111  13.9105902777778 31.9010416666667  15.8203125 31.9010416666667  C 17.7300347222222 31.9010416666667  19.3576388888889 31.2282986111111  20.703125 29.8828125  Z M 39.0625 29.8828125  C 40.4079861111111 28.5373263888889  41.0807291666667 26.9097222222222  41.0807291666667 25  C 41.0807291666667 23.0902777777778  40.4079861111111 21.4626736111111  39.0625 20.1171875  C 37.7170138888889 18.7717013888889  36.0894097222222 18.0989583333333  34.1796875 18.0989583333333  C 32.2699652777778 18.0989583333333  30.6423611111111 18.7717013888889  29.296875 20.1171875  C 27.9513888888889 21.4626736111111  27.2786458333333 23.0902777777778  27.2786458333333 25  C 27.2786458333333 26.9097222222222  27.9513888888889 28.5373263888889  29.296875 29.8828125  C 30.6423611111111 31.2282986111111  32.2699652777778 31.9010416666667  34.1796875 31.9010416666667  C 36.0894097222222 31.9010416666667  37.7170138888889 31.2282986111111  39.0625 29.8828125  Z " fill-rule="nonzero" fill="#000000" stroke="none" transform="matrix(1 0 0 1 526 -60 )" />
  </g>
</svg>